<?xml version="1.0" standalone="no"?>
<!DOCTYPE svg PUBLIC "-//W3C//DTD SVG 1.1//EN" "http://www.w3.org/Graphics/SVG/1.1/DTD/svg11.dtd" >
<svg xmlns="http://www.w3.org/2000/svg">
<metadata>
Created by Font 20130207 at Fri May 10 16:50:30 2013
 By Olivier van Helden
This font has been released into the public domain by its author, Barry Schwartz. This applies worldwide.

In some countries this may not be legally possible; if so:

Barry Schwartz grants anyone the right to use this work for any purpose, without any conditions, unless such conditions are required by law.
</metadata>
<defs>
<font id="qhqxelspka" >
  <font-face 
    font-family="GoudyBookletter1911"
    font-weight="400"
    font-stretch="normal"
    units-per-em="1000"
    panose-1="2 0 5 3 0 0 0 0 0 0"
    ascent="737"
    descent="-263"
    x-height="415"
    cap-height="680"
    bbox="-82 -311 1042 960"
    underline-thickness="45"
    underline-position="-90"
    unicode-range="U+0020-22C5"
  />
<missing-glyph horiz-adv-x="500" 
d="M100 50h300v391h-300v-391zM50 0v491h400v-491h-400z" />
    <glyph glyph-name="f_f" unicode="ff" horiz-adv-x="499" 
d="M9 10q0 16 3 18q3 4 7 5l15 3t18 3q8 3 10 5q8 8 9 122v184q0 10 -12 10h-19q-20 0 -20 26t20 25h22q7 0 7 9v1q-1 59 19 118q36 111 132 151q34 15 64 15q30 1 48 -9t27 -20q8 -10 9 -9q0 -1 8 5q65 48 117 48t69 -16t17 -33q1 -17 -11 -29t-28 -12t-44 12t-50 13
t-44 -27q-38 -49 -38 -174v-32q0 -11 10 -11h97q16 0 16 -26t-25 -26h-88q-9 0 -9 -11v-290q1 -15 9 -18t51 -6q16 -1 16 -20t-14 -19l-94 5l-93 -5q-13 -1 -13 15q-1 16 5 19t21 5t21 4q6 1 8 2q1 0 5 4q8 7 8 57l1 249q0 10 -11 10h-130q-14 0 -14 -11v-291q1 -19 13 -20
q12 -2 21 -2h13t10 -2q17 -3 17 -21q0 -19 -12 -19l-91 6l-90 -6q-13 0 -13 16zM325 617q-16 0 -43 13t-54 13q-28 0 -58 -49t-30 -153v-17q0 -13 11 -13h128q15 0 15 12v8q0 105 34 173q4 8 4 10t-4 3h-3z" />
    <glyph glyph-name="f_i" unicode="fi" horiz-adv-x="475" 
d="M84 350q0 10 -23 10h-21q-21 0 -21 24t20 24h1q40 2 41 4t1 5v2q8 201 136 271q57 32 99 31q85 0 85 -52q0 -17 -12 -29t-31 -11h-1q-16 -1 -45 13t-54 14t-49 -22t-40 -79q-18 -56 -18 -117v-9q0 -12 2 -15t8 -3h127l90 11q22 0 22 -27l-7 -211q0 -116 2 -127t8 -13
t28 -6t21 -24q0 -20 -16 -19l-81 5l-90 -6q-15 0 -15 16t6 20q6 3 43 8q27 4 27 36v46l1 186v35q0 18 -64 18h-102q-9 0 -9 -8v-290q0 -23 20 -24q16 -2 26 -2q9 -1 15 -1q16 -1 16 -20q0 -20 -16 -20l-90 6l-91 -6q-15 0 -15 19t16 21t31 5q15 0 17 30t2 281z" />
    <glyph glyph-name="f_l" unicode="fl" horiz-adv-x="460" 
d="M77 350q-1 10 -21 10h-19q-21 0 -21 24t30 25t29 8v8q0 109 29 167q64 128 182 128l51 -8l32 11q14 0 14 -19v-633q0 -21 6 -25q5 -3 7 -4q2 0 8 -2q8 -2 18 -4q30 -3 30 -23q0 -19 -13 -19h-5q-36 6 -89 6l-84 -4l-5 -1q-15 0 -15 17q1 17 7 20q6 4 29 6t28 11t5 27v490
q0 70 -52 86q-9 4 -21 4q-92 0 -92 -222q-1 -16 1 -20t10 -3h81q22 0 22 -20v-1q0 -31 -26 -31h-78q-9 0 -9 -8v-292q0 -21 20 -22q16 -2 26 -2q10 -1 16 -1q16 -1 15 -20q0 -20 -16 -20h-5q-30 6 -85 6l-91 -6q-15 0 -15 19t17 21t31 5q13 0 13 14l1 10q4 50 4 287z" />
    <glyph glyph-name="f_f_i" unicode="ffi" horiz-adv-x="712" 
d="M8 10q0 16 3 18q3 4 7 5t14 3t22 3q10 2 13 21t3 143v147q0 10 -12 10h-19q-20 0 -20 26t20 25h22q7 0 7 9v1q0 154 91 231q61 53 136 53h1q44 1 56 -13q13 -14 18 -20q4 -6 6 -6t9 6q59 54 132 55q75 0 97 -17t22 -37q0 -19 -13 -31t-31 -12t-53 19q-34 19 -67 19
t-66 -47t-33 -167v-32q0 -11 10 -11h146l89 11q22 0 22 -27q0 -11 -2 -37q-2 -27 -4 -64t-1 -135q1 -97 3 -105t8 -10t26 -6q22 -4 22 -24t-16 -19l-81 5l-91 -6q-14 0 -14 16t6 20q6 3 43 8q27 4 27 36l-1 3v43l2 221q-1 9 -5 11q-16 7 -56 7h-123q-9 0 -9 -11v-290
q0 -15 8 -18t52 -6q16 -1 16 -20t-14 -19l-94 5l-93 -5q-13 0 -13 16v7q0 2 1 4t1 4t3 2q1 2 3 2t6 2t6 2t9 1q13 2 19 3t7 2q1 0 5 4q8 7 8 57l1 249q0 10 -11 10h-140q-14 0 -14 -11v-291q0 -19 12 -20q12 -2 22 -2h13t10 -2q17 -3 17 -21q0 -19 -12 -19l-91 6l-90 -6
q-13 0 -13 16zM234 644q-30 0 -62 -46t-33 -157v-17q0 -13 11 -13h138q15 0 15 12v8q0 105 34 173q4 8 4 10t-4 3h-3q-16 -1 -44 13q-26 14 -56 14z" />
    <glyph glyph-name="f_f_l" unicode="ffl" horiz-adv-x="708" 
d="M630 704v-624l-1 -9q0 -21 6 -25q5 -3 7 -4q2 0 8 -2q8 -2 18 -4q30 -3 30 -23q0 -19 -12 -19l-94 6l-90 -5q-15 0 -15 17q1 17 7 20t35 6q28 3 28 38v491q1 55 -29 72q-30 16 -52 16t-40 -19q-44 -46 -45 -182v-32q0 -11 10 -11h97q16 0 16 -26t-25 -26h-89q-8 0 -8 -11
v-290q0 -15 8 -18t52 -6q16 -1 16 -20t-14 -19l-94 5l-94 -5q-13 -1 -13 15t6 19q5 3 21 6t21 3t7 2q14 4 14 61l1 249q0 10 -11 10h-149q-13 0 -13 -11v-291q0 -19 12 -20q12 -2 22 -2h13t10 -2q17 -3 17 -21q0 -19 -13 -19h-5q-30 6 -85 6l-90 -6q-13 0 -13 14t2 18
q2 6 24 9q22 2 26 7q10 10 10 148v160q0 10 -12 10h-39q-20 0 -20 26t20 25h42q7 0 7 16q7 158 80 218t166 60q43 0 68 -38h3l17 13q51 40 124 40l47 -8h1l32 11q14 0 14 -19zM351 617q-15 0 -45 14t-53 14q-76 0 -99 -134q-5 -29 -5 -70v-17q0 -13 11 -13h146q15 0 15 12v8
q0 107 33 173q4 8 4 10t-4 3h-3z" />
    <glyph glyph-name="longs_i" unicode="&#x17f;i" horiz-adv-x="476" 
d="M252 10q0 16 6 20q6 3 33 7q27 5 32 13t5 24v142l1 98q-1 10 -7 14t-24 12q-18 6 -21 8t-15 6t-13 11q-1 6 1 9t6 5q4 1 6 3t7 4t60 28t57 27h1q14 0 14 -16l-1 -32q-5 -80 -5 -195v-33q0 -91 3 -109t31 -21q28 -2 31 -8t3 -20q0 -13 -12 -13l-92 6l-92 -6q-15 0 -15 16z
M33 -6q-15 0 -15 18t8 20t12 2t9 2q5 1 18 3t16 35t3 140v134q0 7 -2 9t-10 3h-32q-20 0 -20 24t20 24l36 2q6 0 6 9q7 126 58 198q74 104 190 104q30 -1 51 -15t21 -34t-12 -32t-31 -11h-1q-16 -1 -45 13t-57 14t-56 -38q-48 -67 -48 -182l1 -74v-242l-1 -42q0 -26 4 -33
t17 -8l45 -4q12 1 12 -19t-16 -20l-90 6z" />
    <glyph glyph-name="longs_longs" unicode="&#x17f;&#x17f;" horiz-adv-x="439" 
d="M265 360q-21 0 -21 26t21 25h22q7 0 7 10q0 117 28 173q10 20 9 21q0 2 -4 2h-3q-14 0 -42 13t-50 13q-22 -1 -42 -21q-50 -50 -50 -181v-17l1 -75v-290q0 -19 17 -22q17 -5 38 -5q20 0 20 -19t-13 -19l-91 6l-90 -6q-13 0 -13 16t5 20q5 2 17 4q13 2 19 4t10 2
q12 5 11 129v181q0 10 -12 10h-19q-21 0 -21 26t21 25h22q7 0 7 10q0 126 66 205t152 79q47 -1 71 -29q8 -10 10 -9q2 -1 9 5q60 48 114 48q88 0 88 -50q0 -40 -40 -40q-16 0 -43 12t-43 13q-89 0 -89 -201v-32l1 -74v-290q1 -15 9 -18t51 -6q17 -1 17 -20t-15 -19l-94 5
l-88 -5q-18 -1 -18 15q-1 16 5 19t21 5l21 4q15 3 16 9q2 6 4 18t2 285q0 10 -12 10h-19z" />
    <glyph glyph-name="longs_l" unicode="&#x17f;l" horiz-adv-x="460" 
d="M146 78q0 -24 4 -32t16 -9l45 -4q13 1 13 -19t-17 -20h-5q-30 6 -85 6l-91 -6q-15 0 -15 19q-1 19 9 20q10 3 14 3t11 1q8 1 14 2q13 1 15 37t3 274q0 8 -12 10h-28q-21 0 -21 24t21 24l32 2q6 0 6 7v2q0 229 141 287q35 14 70 14l51 -7l32 10q14 0 14 -19v-635
q0 -19 7 -24q6 -5 24 -7t21 -4q17 -4 17 -18t-2 -18t-12 -3l-93 5l-87 -5q-17 0 -17 20q-1 13 3 15l6 3t6 1t6 2h9q23 2 31 11q8 8 8 32v479q0 79 -52 94q-9 4 -21 4q-92 0 -92 -222v-5l1 -63v-288z" />
    <glyph glyph-name="longs_longs_i" unicode="&#x17f;&#x17f;i" horiz-adv-x="713" 
d="M489 10q0 16 6 20q6 3 33 7q27 5 32 13t5 24v47l1 163v30q0 10 -6 14t-30 14t-34 14t-10 10t2 8q2 3 4 5q4 1 6 3t8 4q5 2 60 28t57 27h1q14 0 14 -16l-2 -32q-4 -128 -4 -195v-33q0 -91 3 -109t31 -21q28 -2 31 -8t3 -20q0 -13 -12 -13l-92 6l-92 -6q-15 0 -15 16z
M236 10q0 16 6 19t20 5l21 4q15 3 16 9t3 15t2 39l1 249q0 10 -12 10h-18q-21 0 -21 26t21 25h21q8 0 8 10v23q0 84 18 126t18 44t-4 3h-3q-15 -1 -43 13t-47 14q-40 0 -72 -46t-32 -157v-17l1 -75v-290q0 -25 58 -25q17 0 17 -20t-13 -20l-91 6l-90 -6q-13 0 -13 13v15t2 5
q0 2 2 3l4 2q2 2 4 2h6t19 2q16 1 20 15q5 14 5 71v228q0 10 -12 10h-19q-21 0 -21 26t21 25h22q7 0 7 21q0 53 29 136t126 122q38 15 72 15h1q50 -1 72 -29q8 -10 10 -9q2 0 8 6q58 54 132 54t96 -17q22 -16 22 -36t-12 -32t-32 -12t-54 19t-66 19t-66 -47
q-33 -47 -33 -167v-36l1 -28v-332q0 -14 11 -19t49 -5q17 -1 17 -20t-15 -19l-94 5l-88 -5q-18 -1 -18 15z" />
    <glyph glyph-name="longs_longs_l" unicode="&#x17f;&#x17f;l" horiz-adv-x="708" 
d="M31 -6q-14 0 -14 20t21 21l16 2q16 2 21 15t5 70v228q0 10 -12 10h-39q-20 0 -20 26t20 25h42q7 0 7 20t6 60q5 41 27 85q38 76 97 102q59 27 95 27q37 1 55 -9t26 -20t10 -9q2 -1 9 5q60 48 133 48l47 -8l33 11q14 0 14 -19v-624l-1 -11q0 -21 6 -23l8 -4q2 0 7 -2
q6 -2 18 -4q30 -4 30 -23t-12 -19l-94 6l-88 -5q-10 0 -13 4q-3 5 -3 21t24 16l17 2q24 2 27 21q1 6 1 20v488q0 89 -86 89q-17 0 -36 -20q-44 -47 -44 -182v-32l1 -74v-290q0 -14 8 -17t52 -7q16 -1 16 -20t-15 -19l-93 5l-88 -5q-19 0 -19 17q1 17 9 19q8 3 10 3t10 1
q7 1 10 1t8 2q4 2 6 2t5 2t4 4l3 6q4 9 4 49l1 249q0 10 -13 10h-38q-20 0 -20 26t20 25h41q8 0 8 40q-1 40 9 80t19 60t9 23t-7 3h-5q-10 0 -40 14t-53 14q-76 0 -99 -134q-5 -29 -5 -70v-17l1 -75v-290q0 -25 58 -25q17 0 17 -20t-14 -20h-5q-30 6 -85 6z" />
    <glyph glyph-name=".notdef" horiz-adv-x="500" 
d="M100 50h300v391h-300v-391zM50 0v491h400v-491h-400z" />
    <glyph glyph-name=".null" horiz-adv-x="0" 
 />
    <glyph glyph-name="nonmarkingreturn" horiz-adv-x="333" 
 />
    <glyph glyph-name="space" unicode=" " horiz-adv-x="250" 
 />
    <glyph glyph-name="exclam" unicode="!" horiz-adv-x="325" 
d="M166 85q21 0 36 -15q15 -16 15 -36q-1 -20 -15 -35t-36 -15t-36 14q-16 14 -16 37q0 22 16 36t36 14zM108 611q0 15 13 23q67 40 75 40t8 -26v-23q0 -181 -20 -290q-20 -108 -25 -124t-19 -16t-13 30v17q-8 300 -19 364v5z" />
    <glyph glyph-name="quotedbl" unicode="&#x22;" horiz-adv-x="389" 
d="M223 457q-20 0 -20 22v1q0 5 60 179q19 56 53 56q16 0 26 -11q10 -10 10 -26t-13 -39t-54 -96t-47 -80q-5 -6 -15 -6zM58 457q-20 0 -20 22v1q0 5 59 179q21 56 53 56q17 0 27 -11q10 -12 10 -26t-14 -40q-93 -166 -99 -174t-16 -7z" />
    <glyph glyph-name="numbersign" unicode="#" horiz-adv-x="552" 
d="M401 615h10q16 0 16 -11l-27 -201q0 -5 5 -5h74q19 0 19 -22t-16 -23h-86q-3 1 -10 -47q-6 -48 -10 -72t-4 -28t7 -4h101q18 0 18 -22t-18 -23h-104q-11 0 -13 -11q-25 -177 -28 -183t-21 -6t-19 14l24 180q0 6 -8 6h-69q-42 0 -44 -8q-25 -181 -28 -187q-2 -6 -22 -5
q-20 0 -20 14l25 179q0 7 -9 7h-74q-16 1 -16 23t16 22h87q3 0 13 70t10 75q0 6 -7 6h-101q-18 1 -18 23t18 22h108q9 0 9 8q28 200 31 204t21 5h1q20 0 20 -13l-28 -199q0 -5 8 -5h104q8 0 9 7q27 201 31 205t15 5zM346 350q0 3 -7 3h-105q-7 0 -9 -13t-7 -48
q-4 -35 -8 -59q-4 -23 -4 -27t8 -4h102q10 0 11 8q19 137 19 140z" />
    <glyph glyph-name="dollar" unicode="$" horiz-adv-x="482" 
d="M230 44h2q18 0 46 22q54 44 54 94q0 52 -23 82t-45 42t-29 11q-8 0 -8 -9l-1 -211q0 -31 4 -31zM183 599q-21 1 -53 -25t-31 -64q0 -38 27 -70t55 -31q5 0 5 5v158q0 27 -3 27zM171 42q15 0 15 4v260q0 12 -9 13q-65 15 -101 63t-35 106q0 58 39 100q39 43 97 48q9 2 9 8
v21q0 20 20 20h1q21 0 21 -20v-21q0 -6 6 -6q62 -7 102 -40q40 -34 40 -60q0 -52 -40 -51q-40 0 -52 52t-49 60h-2q-5 0 -5 -5v-174l-1 -16q-1 -14 9 -17t20 -7q146 -51 146 -191q0 -79 -48 -127t-119 -59q-8 -2 -8 -12v-69q0 -19 -20 -19t-20 19v69q0 10 -9 10
q-70 2 -116 45q-46 42 -46 76t14 50t34 16t31 -12q12 -12 12 -34l-3 -35q0 -33 26 -49t41 -16z" />
    <glyph glyph-name="percent" unicode="%" horiz-adv-x="820" 
d="M635 290q58 0 101 -42t43 -134t-42 -150t-102 -57q-60 0 -103 42q-43 41 -43 137t44 150t102 54zM719 86q-1 64 -25 115t-66 51t-62 -43q-18 -43 -18 -91l1 -2q0 -40 12 -86q22 -84 80 -84q78 0 78 140zM187 553q58 -1 101 -43t43 -134t-42 -149t-102 -57t-103 42
t-43 138t44 149q44 54 102 54zM193 208q78 0 78 140q-1 65 -25 116t-67 51q-59 0 -75 -94q-4 -21 -3 -51q0 -30 12 -77q13 -47 35 -66t45 -19zM620 595q22 0 23 -18q0 -5 -202 -345q-203 -340 -209 -348t-17 -7q-27 0 -27 19q0 4 4 12q394 674 400 680t28 7z" />
    <glyph glyph-name="ampersand" unicode="&#x26;" horiz-adv-x="828" 
d="M176 418q0 -4 14 -15t64 -11t49 24q1 24 -33 24t-54 -4t-30 -9t-10 -9zM100 422q0 2 -10 16q-32 40 -32 100q0 59 52 111t123 52q37 -1 72 -15t35 -40t-14 -38q-14 -13 -32 -13t-42 25q-22 25 -51 25t-64 -33q-35 -32 -35 -72t14 -67t25 -27q2 0 32 14t72 13q43 1 68 -15
t25 -41t-26 -41t-66 -16h-1q-44 0 -69 12q-26 12 -28 12q-5 0 -10 -10l-2 -2q-27 -48 -27 -90q-1 -42 7 -68q18 -64 76 -109t167 -51h18q157 0 199 116q10 28 10 68t-29 74t-74 35t-77 -29t-32 -61t16 -49t48 -19q30 0 30 17q0 6 -9 8q-35 7 -35 38q0 16 11 26t31 10t38 -16
t17 -44q0 -28 -25 -51t-63 -23q-39 0 -67 30t-28 70q0 134 228 170q86 14 119 28t58 46q25 30 25 74t-29 74t-63 31q-34 0 -33 -9l8 -10q8 -10 8 -26q1 -16 -11 -28t-30 -12t-32 14q-13 14 -13 41q1 26 27 47t72 21t91 -48q46 -47 46 -123t-62 -133t-147 -59q-15 0 -15 -4
t17 -33q17 -28 17 -83v-2q0 -101 -88 -177q-89 -76 -211 -76q-122 -1 -206 79t-84 189q0 75 42 137q9 14 18 22l8 10q2 4 2 7v1z" />
    <glyph glyph-name="quotesingle" unicode="'" horiz-adv-x="224" 
d="M58 457q-20 0 -20 23v1q0 4 59 178q21 56 53 56q17 0 27 -11q10 -12 10 -26t-14 -40q-93 -166 -99 -174t-16 -7z" />
    <glyph glyph-name="parenleft" unicode="(" horiz-adv-x="363" 
d="M316 -174q0 -20 -21 -20q-12 0 -24 10q-103 80 -165 198t-61 244t59 244t163 202q19 14 30 14q21 0 21 -19q0 -13 -14 -24q-82 -73 -132 -179t-51 -230q0 -251 179 -413q16 -16 16 -27z" />
    <glyph glyph-name="parenright" unicode=")" horiz-adv-x="363" 
d="M66 -191q-21 0 -21 20q0 9 15 24q82 74 132 179t50 229q0 251 -178 414q-16 13 -16 26q0 21 21 21q9 0 24 -11q103 -81 164 -199t61 -243t-58 -243t-164 -203q-19 -14 -30 -14z" />
    <glyph glyph-name="asterisk" unicode="*" horiz-adv-x="335" 
d="M48 453q-34 0 -34 40q0 25 68 51q23 8 23 16q1 6 -13 11t-31 9t-31 14q-14 12 -13 28q0 16 12 27q12 10 28 10q17 -1 41 -27t32 -26t8 7l-9 63q-1 45 39 45t40 -46l-12 -66q0 -2 3 -2q3 1 33 25t48 24t29 -12q12 -12 12 -26q-1 -30 -47 -44q-46 -15 -46 -21q0 -7 23 -12
q68 -15 68 -54q1 -17 -11 -28t-30 -11t-44 26t-31 27q-5 0 -5 -9l9 -69q0 -19 -15 -29t-27 -10t-24 10t-12 32l7 60q0 11 -6 11t-34 -22q-30 -22 -48 -22z" />
    <glyph glyph-name="plus" unicode="+" horiz-adv-x="701" 
d="M76 231q-23 0 -23 22v13q0 22 24 22h245v249q0 20 20 20h14q24 0 24 -26v-243h249q20 0 20 -19v-14q0 -24 -27 -24h-242v-247q0 -22 -22 -22h-14q-22 0 -22 23v246h-246z" />
    <glyph glyph-name="comma" unicode="," 
d="M106 100q30 0 56 -34t26 -86q0 -53 -38 -90t-60 -37t-22 17q0 11 17 21q52 30 52 64t-38 38t-49 20q-11 17 -11 36q1 19 19 35t48 16z" />
    <glyph glyph-name="hyphen" unicode="-" 
d="M215 308q-1 -26 -21 -41t-41 -30l-35 -25t-26 -19l-20 -15t-15 -10l-11 -8q-9 -6 -16 -6q-18 0 -18 26v14q0 14 31 36q147 105 160 105q12 -1 12 -27z" />
    <glyph glyph-name="period" unicode="." 
d="M113 101q24 1 42 -17t18 -42t-17 -42q-18 -18 -42 -17q-24 0 -42 17q-18 16 -18 42t18 42t41 17z" />
    <glyph glyph-name="slash" unicode="/" horiz-adv-x="435" 
d="M25 -187q-19 0 -19 9t377 749q5 9 25 9t21 -18q0 -4 -171 -328q-130 -258 -169 -337t-42 -81t-22 -3z" />
    <glyph glyph-name="zero" unicode="0" horiz-adv-x="475" 
d="M234 385q-64 0 -110 -50q-46 -51 -46 -121t46 -121t112 -51q64 0 111 48t47 121q0 74 -48 124t-112 50zM234 440q92 0 157 -67t65 -161t-65 -162t-157 -68t-156 66q-66 66 -66 162t66 163q64 67 156 67z" />
    <glyph glyph-name="one" unicode="1" horiz-adv-x="356" 
d="M300 402q0 -16 -32 -18t-44 -3t-13 -16v-304q0 -20 18 -21q9 -2 21 -2h19t15 -2q8 0 12 -1l8 -2q14 -3 14 -21t-17 -18l-124 6l-122 -6q-14 0 -14 19t18 21q66 6 71 8t5 16v307q0 14 -15 16q-78 4 -79 4q-15 3 -15 21t15 18l123 -3l122 3q14 0 14 -22z" />
    <glyph glyph-name="two" unicode="2" horiz-adv-x="450" 
d="M76 -13q-27 0 -27 19q-1 8 5 12t28 19q98 62 170 155q24 32 24 68t-42 69t-85 33q-42 0 -64 -22t-23 -48q-1 -27 -16 -27h-1q-20 0 -20 45q0 46 39 80t104 34q66 0 118 -42t52 -98t-43 -108q-15 -16 -51 -52t-45 -46t-9 -16q0 -4 17 -4t61 4t72 19q28 16 40 45
q13 29 21 29q18 1 18 -7t-19 -72t-21 -68l-4 -4q-3 -2 -9 -3l-13 -1q-39 -2 -108 -5t-117 -5t-52 -3z" />
    <glyph glyph-name="three" unicode="3" horiz-adv-x="360" 
d="M112 370q-50 0 -51 -38q0 -5 1 -13v-8q0 -13 -18 -13t-18 42t25 72t55 31q50 0 108 -29t58 -83t-29 -102t-29 -51q0 -4 33 -14q92 -28 92 -127q0 -159 -110 -203q-42 -16 -91 -16q-50 0 -80 25t-30 45t14 32t30 11q30 0 50 -35t69 -35q50 0 72 38t22 91q0 114 -122 114
l-40 -2q-17 0 -17 13q0 6 4 9q4 2 6 5q3 3 10 9q79 68 79 135q1 35 -21 66t-72 31z" />
    <glyph glyph-name="four" unicode="4" horiz-adv-x="447" 
d="M260 66q10 0 10 13v213q0 8 -4 8t-7 -4q-150 -222 -150 -226t6 -4h145zM418 63q0 -4 -4 -30q-4 -25 -8 -29t-11 -4h-56q-9 0 -9 -7v-167q0 -12 -10 -12h-40q-10 0 -10 12v164q0 10 -8 10h-222q-17 0 -17 11q1 11 135 204t142 203t20 11q12 0 11 -18l-1 -326q0 -11 10 -11
h16l42 2q20 0 20 -13z" />
    <glyph glyph-name="five" unicode="5" horiz-adv-x="381" 
d="M128 347q-12 -1 -20 -37t-10 -42v-2q-1 -2 -1 -6t7 -3h13q71 0 125 -54q54 -53 54 -137t-37 -138t-81 -88t-62 -34q-19 0 -19 14t23 25q47 25 81 78t34 119t-40 107q-40 42 -93 42q-17 0 -34 -5l-17 -5q-13 0 -13 12t47 174l16 55q5 13 17 13l167 -48q13 0 28 23t22 23
q16 0 16 -14q0 -3 -46 -109q-4 -11 -13 -11l-163 48h-1z" />
    <glyph glyph-name="six" unicode="6" horiz-adv-x="483" 
d="M204 401q99 -1 170 -67t71 -156q1 -90 -53 -148t-140 -58t-152 69q-67 69 -67 199q1 130 101 246t250 143q2 1 7 1q20 0 20 -23q0 -11 -16 -18q-158 -51 -246 -187l-1 -1v-3q0 -2 4 -2h3q15 5 49 5zM208 365q-111 0 -111 -150q0 -87 46 -145q47 -58 103 -58t89 36t33 88
q0 54 -17 103t-57 87t-86 39z" />
    <glyph glyph-name="seven" unicode="7" horiz-adv-x="450" 
d="M209 -219h-7q-28 -1 -28 9t111 335q65 179 65 183q0 19 -30 24q-54 5 -118 5q-97 0 -107 -18q-9 -18 -27 -87q-5 -15 -16 -15q-17 0 -17 16q0 1 9 58t10 160q0 19 18 19q14 0 16 -22q0 -4 2 -11t4 -16t13 -9h302q22 0 22 -18v-1q0 -5 -63 -195t-93 -294
q-30 -105 -34 -114t-32 -9z" />
    <glyph glyph-name="eight" unicode="8" horiz-adv-x="447" 
d="M212 -22q-82 0 -140 52q-56 52 -56 122t69 125q18 14 39 30t21 19t-5 6q-107 73 -107 170q1 62 51 114t122 52t120 -37t48 -96t-30 -105t-76 -73q-3 -1 -3 -3t3 -6q71 -32 114 -82t43 -114q1 -64 -65 -119t-148 -55zM218 25q52 0 88 32q36 31 36 79t-40 91t-104 75
q-10 6 -17 6t-28 -20t-42 -58t-21 -86t38 -84t90 -35zM102 514q0 -44 27 -82q27 -36 55 -51t38 -15q11 0 18 7q60 55 60 117t-29 96q-29 35 -73 35h-1q-39 -1 -67 -32t-28 -75z" />
    <glyph glyph-name="nine" unicode="9" horiz-adv-x="509" 
d="M124 -211q-19 0 -19 24q1 11 31 21t70 32q62 34 108 82q45 47 45 54q0 6 -3 6q-4 -2 -15 -4q-10 -2 -27 -6t-39 -3q-99 -1 -171 69t-72 159t61 147t151 58t159 -74t69 -184q0 -112 -88 -221t-229 -153q-26 -7 -31 -7zM105 242q1 -74 49 -140q48 -68 130 -68
q111 0 111 142q-1 85 -53 146t-109 61q-57 1 -93 -33t-35 -108z" />
    <glyph glyph-name="colon" unicode=":" horiz-adv-x="228" 
d="M124 101q24 1 42 -17t18 -42t-18 -42t-42 -17q-24 0 -42 17q-18 16 -17 42q-1 26 17 42t42 17zM124 411q24 1 42 -17t18 -42t-18 -42t-42 -17q-24 0 -42 17q-18 16 -17 42q-1 26 17 42t42 17z" />
    <glyph glyph-name="semicolon" unicode=";" 
d="M124 411q24 1 42 -17t18 -42t-18 -42t-42 -17q-24 0 -42 17q-18 16 -17 42q-1 26 17 42t42 17zM130 100q30 0 56 -34t26 -86q0 -53 -38 -90t-60 -37t-22 17q0 11 17 21q52 30 52 65v1q0 31 -38 36t-52 26q-8 9 -8 29q1 20 19 36t48 16z" />
    <glyph glyph-name="less" unicode="&#x3c;" horiz-adv-x="672" 
d="M621 60q0 -37 -29 -37q-5 0 -523 189q-17 6 -17 18v19q0 11 18 18q524 191 528 191q23 0 23 -38q0 -14 -19 -20l-441 -161l447 -162q13 -5 13 -17z" />
    <glyph glyph-name="equal" unicode="=" horiz-adv-x="701" 
d="M76 156q-22 0 -22 22v14q0 22 23 22h552q20 0 20 -20v-14q0 -24 -26 -24h-547zM76 305q-23 0 -23 22v14q0 22 23 22h552q20 0 20 -20v-13q0 -25 -26 -25h-546z" />
    <glyph glyph-name="greater" unicode="&#x3e;" horiz-adv-x="672" 
d="M81 23q-29 0 -29 37q0 12 13 17l447 162l-441 161q-19 6 -19 20q0 38 23 38q4 0 528 -191q18 -7 18 -18v-19q0 -12 -17 -18q-519 -189 -523 -189z" />
    <glyph glyph-name="question" unicode="?" horiz-adv-x="380" 
d="M15 621q0 68 145 68q87 -1 132 -47t45 -90t-17 -74q-18 -30 -42 -53t-48 -47q-58 -57 -59 -128l1 -22q0 -18 -8 -27t-18 -9q-27 0 -27 50q1 86 67 161t66 131t-25 86t-54 31q-48 0 -67 -37q-18 -37 -43 -37q-24 0 -36 13t-12 31zM159 101q24 1 42 -17t18 -42
q1 -24 -17 -42t-42 -17q-24 0 -43 17q-18 16 -18 42t18 42t42 17z" />
    <glyph glyph-name="at" unicode="@" horiz-adv-x="1000" 
d="M587 357q0 6 -11 6q-33 0 -93 -58t-93 -143q-14 -33 -14 -60q0 -26 13 -38t30 -12t47 14t50 38q20 23 22 35q49 212 49 218zM595 82q1 -44 55 -44q26 0 62 20q112 61 112 242v1q0 127 -80 199t-216 72t-247 -104t-111 -261t92 -251t238 -94q67 0 123 18t83 40q15 9 19 9
q12 0 12 -14q-1 -15 -41 -37q-98 -54 -214 -54h-1q-169 0 -281 98t-112 264v1q0 85 32 160q59 136 205 210q109 54 235 54t216 -91t90 -220q0 -128 -72 -218t-162 -90q-53 0 -69 18t-21 30q-6 10 -8 18t-3 8t-5 -4q-61 -76 -131 -76q-39 0 -66 27t-27 81t69 146
q116 156 208 156l29 -3q8 -1 16 15t11 18t11 3q23 0 23 -17q0 -4 -21 -71t-37 -152t-16 -107z" />
    <glyph glyph-name="A" unicode="A" horiz-adv-x="821" 
d="M509 352q9 0 9 8t-38 97q-38 91 -46 103t-16 12t-18 -17q-102 -191 -102 -197t6 -6h205zM9 15q0 10 2 14q2 3 3 5t4 4q2 2 4 2q2 2 7 2t11 2t22 2q31 3 49 47q133 297 291 581q9 16 17 24q11 8 24 8q27 0 42 -38l144 -332q109 -265 111 -268q12 -20 42 -24t32 -14t3 -14
q0 -22 -20 -22l-17 2q-64 4 -98 4l-119 -6q-20 0 -20 17q0 11 2 15q3 4 3 6t4 4t6 2t8 2q6 1 31 4t25 19q0 17 -24 91t-51 136q-4 10 -18 10h-235q-16 0 -23 -12q-35 -63 -61 -131q-26 -69 -26 -79v-14t2 -6l4 -4l4 -4t6 -2q4 -2 6 -2t9 -2q11 -2 21 -2q34 -2 33 -25
q0 -23 -22 -23l-110 6l-108 -6q-20 0 -20 21z" />
    <glyph glyph-name="B" unicode="B" horiz-adv-x="564" 
d="M257 41q79 1 135 43t55 104q0 135 -118 161q-27 6 -84 6h-51q-14 0 -14 -15v-258q0 -33 30 -37t47 -4zM370 606q-32 45 -102 45q-68 1 -78 -7t-10 -17v-216q0 -13 10 -13h58q106 0 140 64q14 28 14 64q0 35 -32 80zM491 552q0 -108 -95 -166q-2 -2 -2 -3t3 -3
q59 -12 99 -60t40 -114t-38 -116q-72 -95 -209 -96l-137 6l-114 -2h-2q-19 0 -19 24q1 13 9 16q8 4 30 6q25 3 32 5q6 3 6 16v547q0 24 -22 28q-8 2 -30 4q-18 0 -18 22t18 21l24 -1h24l174 9q108 0 168 -42q60 -43 59 -101z" />
    <glyph glyph-name="C" unicode="C" horiz-adv-x="700" 
d="M662 456q0 -17 -18 -17t-25 9q-6 9 -6 38q-13 84 -113 136q-52 28 -117 28q-108 0 -188 -82t-80 -216q0 -136 82 -230q83 -94 185 -95q102 0 175 54t100 143q3 13 17 13t14 -11q-22 -156 -26 -168t-21 -11h-29q-20 0 -30 -9q-11 -9 -17 -12q-87 -50 -171 -50
q-162 0 -268 103q-107 103 -107 255q0 151 109 257q109 105 257 105h1q96 0 169 -40q25 -14 30 -13t11 17t15 19l11 1q11 0 13 -12l7 -51q6 -51 13 -104t7 -57z" />
    <glyph glyph-name="D" unicode="D" horiz-adv-x="709" 
d="M111 88v506q0 24 -15 30t-67 7q-18 0 -18 22t22 22h182q196 0 283 -41q88 -41 142 -116q54 -74 55 -188q0 -114 -88 -208t-202 -116q-35 -6 -89 -6h-283q-23 0 -23 28q0 22 32 22l42 2q27 2 27 36zM300 48q119 0 207 72t88 196q1 166 -133 264q-72 52 -195 53
q-43 0 -55 -6t-12 -25v-509q0 -32 34 -38q34 -7 66 -7z" />
    <glyph glyph-name="E" unicode="E" horiz-adv-x="578" 
d="M371 427q38 0 38 33v31q-1 22 27 22t28 -29v-184q0 -29 -28 -29t-27 22v54q0 22 -26 22h-138q-49 0 -49 -40v-229q0 -34 32 -38q43 -7 126 -7t111 21q9 6 35 54t34 53q6 3 11 3t11 -6t6 -17v-1q0 -4 -16 -78t-24 -80q-6 -4 -21 -4h-344q-45 0 -83 -6t-46 -6q-7 0 -13 11
t-6 21t8 14q8 5 45 19q37 13 41 21t4 26v521q-1 11 -5 14t-18 5t-26 3q-22 2 -33 6t-11 20q0 22 19 22h460q17 0 22 -16q5 -19 17 -74t12 -65t-18 -9q-18 0 -31 18q-44 77 -51 85t-27 8h-188q-31 0 -31 -38v-151q0 -22 20 -22h153z" />
    <glyph glyph-name="F" unicode="F" horiz-adv-x="541" 
d="M525 555q0 -23 -20 -23q-18 0 -35 32t-20 36l-12 20q-9 16 -31 16h-184q-17 0 -23 -9t-6 -27v-167q0 -15 15 -15h167q14 0 16 6t3 8t2 8t1 10t2 12t3 15q3 27 25 27t22 -21l-4 -93l4 -94q0 -26 -27 -26q-19 0 -21 20q0 4 -2 10q-1 6 -2 20q-1 13 -3 26q-1 14 -18 14h-163
q-22 0 -22 -28v-248q0 -27 13 -32q13 -4 28 -5l37 -1h14q36 0 37 -22v-9q0 -21 -17 -21l-20 2q-76 4 -115 4l-135 -6q-23 0 -23 24q1 24 41 26q10 0 16 1q30 3 30 31v530q0 20 -11 26t-44 5q-33 0 -33 21q0 30 18 30l84 -4l162 3h195q27 0 33 -25q23 -104 23 -107z" />
    <glyph glyph-name="G" unicode="G" horiz-adv-x="691" 
d="M683 287q0 -19 -25 -28t-27 -16t-2 -14v-169q0 -20 -14 -20q-6 0 -16 10t-15 11q-5 0 -13 -8q-87 -77 -217 -77t-234 111t-104 264t98 254t238 101q79 0 122 -22t61 -32t20 -11h4q11 0 26 19t19 21t11 2q14 0 14 -14v-27q-1 -88 5 -134q6 -47 6 -51q0 -16 -20 -16
q-20 1 -24 7t-6 28t-36 70q-35 48 -93 80q-57 32 -109 32q-96 0 -166 -68t-70 -223q0 -209 124 -295q63 -43 129 -43q65 -1 115 23t55 36q6 12 6 23v113q1 20 -11 25t-36 7t-31 3t-16 1q-28 2 -28 24t22 22l103 -4h2l107 4q26 0 26 -19z" />
    <glyph glyph-name="H" unicode="H" horiz-adv-x="762" 
d="M198 606v-165q0 -14 13 -14h338q17 0 17 18v148q0 36 -21 43q-10 4 -40 5q-31 2 -31 24t24 22l103 -2l131 4q19 0 19 -20q-1 -25 -35 -29q-6 0 -16 -2t-18 -2q-27 -3 -27 -29v-530q0 -30 28 -32q62 1 62 -25t-20 -26l-122 6l-121 -6q-16 0 -16 22t16 24q4 0 10 2h11t15 2
q10 0 24 1q24 2 25 38v271q0 11 -13 11h-341q-15 0 -15 -17v-271q0 -29 48 -33q49 0 49 -22q0 -28 -16 -28l-121 6l-123 -6q-20 0 -20 20t9 24t30 4q39 2 47 9t8 25v529q0 15 -4 19l-6 6q-6 8 -36 10q-29 1 -39 3t-10 17q0 27 23 27l117 -2h3l120 2q17 0 20 -30
q0 -17 -33 -19t-43 -2q-23 -1 -23 -30z" />
    <glyph glyph-name="I" unicode="I" horiz-adv-x="323" 
d="M30 656q0 24 22 24l16 -1q68 -4 99 -4l104 4q17 0 17 -20t-8 -23q-8 -2 -10 -3t-9 -1q-6 0 -10 -2h-12t-14 -2q-16 -1 -16 -17v-540q0 -23 14 -25q23 -2 53 -2t30 -21q0 -29 -20 -29l-127 6l-128 -6q-18 0 -18 22q1 22 9 25t42 5l33 2q21 1 21 28v520l1 14q0 13 -11 17
t-55 4q-23 1 -23 25z" />
    <glyph glyph-name="J" unicode="J" horiz-adv-x="316" 
d="M-82 -139q0 53 48 53q22 0 47 -33t46 -33q34 0 50 61q9 32 9 65v621q0 20 -8 24q-8 3 -11 5q-7 2 -29 5q-23 2 -33 3q-22 2 -22 25t22 23l124 -5h4l117 4q17 0 17 -20q-1 -29 -31 -29q-10 0 -33 -3q-26 -2 -26 -34v-537q1 -135 -113 -224q-56 -44 -94 -44t-61 24t-23 49z
" />
    <glyph glyph-name="K" unicode="K" horiz-adv-x="654" 
d="M540 -1q-12 1 -20 1h-11q-19 3 -25 11q-4 7 -128 149t-131 148t-12 7h-1q-14 0 -14 -20v-211q0 -28 16 -32q5 -2 8 -3q2 -1 10 -1t12 -2h16q40 -2 40 -24q0 -28 -20 -28l-125 6l-124 -6q-17 0 -17 23q0 30 42 27t52 21q3 7 3 28v497q0 7 -1 13q-2 7 -2 11t-2 7t-4 5t-7 5
q-5 2 -7 3t-10 2q-8 0 -16 2q-9 2 -22 2q-28 2 -28 25t29 23l110 -4h1l110 4q15 0 22 -8t7 -18q-1 -21 -35 -21q-34 1 -46 -5t-11 -32v-217q0 -17 13 -17q7 0 26 21q178 199 184 207t6 19q0 27 -33 27t-33 22t23 21l105 -2h6l100 2q28 0 28 -20t-38 -26t-50 -11t-23 -13
t-17 -14t-18 -19l-36 -39t-91 -98t-67 -79t8 -15q270 -287 274 -289t14 -9t32 -11t29 -11t7 -15t-8 -16t-21 -7l-47 4h-32z" />
    <glyph glyph-name="L" unicode="L" horiz-adv-x="563" 
d="M289 653q0 -25 -22 -25l-38 -1h-13q-28 0 -30 -18q0 -4 -1 -10v-507q0 -32 26 -32h194q37 0 55 27q5 8 22 45q18 36 22 42t13 6q30 0 30 -23l-11 -77t-13 -78t-23 -8l-59 2q-236 4 -358 4h-53q-16 0 -16 17t55 28q23 6 23 32v528q0 17 -7 20q-10 4 -23 4t-32 1
q-19 0 -19 24t19 24l114 -3h7l121 3q17 0 17 -25z" />
    <glyph glyph-name="M" unicode="M" horiz-adv-x="998" 
d="M702 19q0 25 49 24t57 36q1 6 1 19v213q0 151 -2 159q-3 8 -9 7t-28 -37t-85 -150q-62 -114 -108 -198q-47 -86 -55 -96t-16 -11q-8 1 -10 1q-4 0 -6 2l-4 4l-4 4l-4 4t-3 6q-2 4 -5 8q-4 4 -28 56t-125 230t-112 178t-11 -198t4 -214q7 -24 52 -21q44 3 44 -28
q0 -23 -18 -23l-17 2q-68 4 -103 4t-103 -4l-17 -2q-18 0 -18 23t24 26q8 1 13 2t17 2t20 2t14 3t8 6q6 6 8 21t14 167t13 234q0 81 -6 88q-5 8 -17 22t-30 30t-54 15q-20 3 -20 21t18 19h144q17 0 25 -13l189 -316l117 -186q6 -12 16 -12t15 11l271 507q5 9 18 9h145
q15 0 15 -15q-1 -16 -3 -20q-5 -8 -27 -12q-23 -5 -47 -11q-25 -7 -25 -30q5 -485 5 -486v-7q0 -44 30 -48q12 -2 22 -2t16 -2q4 0 10 -1q20 -3 21 -25q0 -22 -20 -22l-19 2q-72 4 -110 4l-127 -6q-19 0 -19 25z" />
    <glyph glyph-name="N" unicode="N" horiz-adv-x="799" 
d="M791 658q1 -29 -45 -24q-18 2 -32 -12t-14 -46q-4 -180 -4 -271l4 -281q0 -47 -20 -47q-12 0 -49 42l-207 236q-219 244 -222 244l-4 -4q-13 -190 -13 -355v-29q0 -39 7 -51q6 -12 40 -13t59 -8q13 -7 13 -26t-17 -19l-122 6q-37 0 -105 -4l-18 -2q-21 0 -21 20
q1 20 11 24t44 6t42 23q9 20 18 206t13 269v4q0 14 -36 48t-86 39q-18 0 -18 24t22 24h123q24 0 40 -19l248 -284q184 -198 189 -202t11 -4t5 134q0 134 -9 281q-1 29 -14 37t-43 12t-30 21q0 24 29 24l96 -3l94 3q21 0 21 -23z" />
    <glyph glyph-name="O" unicode="O" horiz-adv-x="778" 
d="M113 384q-1 -198 127 -298q66 -52 157 -52q125 0 204 94q60 71 60 171q0 204 -110 301q-76 67 -180 67q-104 -1 -181 -73t-77 -210zM760 338q0 -156 -105 -259t-257 -103t-265 109t-114 265t108 262q109 108 263 108t262 -114q108 -112 108 -268z" />
    <glyph glyph-name="P" unicode="P" horiz-adv-x="572" 
d="M560 503v-1q-2 -53 -30 -95t-72 -65q-74 -41 -225 -41h-30q-13 0 -13 -16v-203q0 -33 32 -35q88 -3 98 -7t10 -21v-1q0 -24 -19 -24l-20 2q-81 4 -121 4t-116 -4l-20 -2q-20 0 -20 22t6 23q6 2 8 3q2 2 9 2h10t13 2q9 0 21 2q23 3 23 26v535q0 26 -22 26h-36
q-24 0 -24 24t22 24h25l238 10q129 -1 191 -57t62 -133zM476 494q0 70 -60 112t-163 42q-41 0 -51 -3t-10 -12v-285q0 -8 6 -10t31 -2q111 0 179 44t68 114z" />
    <glyph glyph-name="Q" unicode="Q" horiz-adv-x="752" 
d="M829 -164q1 -11 -29 -25t-54 -14t-38 3t-30 11q-16 9 -26 13t-26 18q-24 22 -42 41q-103 106 -128 106l-23 -3q-23 -2 -71 -2t-117 30t-119 80q-106 108 -106 262t109 261t257 107t253 -104t105 -264q0 -102 -50 -194t-132 -147q-3 -3 -3 -5t21 -16q20 -14 64 -60t76 -67
t76 -21l21 1q12 0 12 -11zM416 32q94 0 167 82q72 82 72 215q0 191 -118 291q-65 55 -165 55q-100 1 -178 -75t-77 -208q1 -88 35 -170t102 -136t162 -54z" />
    <glyph glyph-name="R" unicode="R" horiz-adv-x="696" 
d="M516 495q0 -47 -40 -91t-74 -57q-5 -3 -5 -5t37 -46q38 -44 90 -124q52 -82 70 -102t38 -21q20 0 32 11t20 11q8 -1 7 -15t-25 -42t-68 -27q-44 0 -100 73l-100 142q-86 120 -92 124t-17 4h-73q-14 0 -14 -15v-234q0 -29 26 -32t38 -3q52 0 53 -30q0 -22 -20 -22l-129 6
l-128 -6q-18 0 -18 20t9 24t28 5t31 3q22 3 21 34v517q0 20 -13 27t-71 16q-15 3 -15 19t13 16h35l221 12q173 0 221 -117q12 -28 12 -75zM264 366q174 0 174 140q0 52 -50 96q-50 46 -112 46q-60 0 -70 -7t-9 -19l1 -1v-237q0 -14 10 -16t56 -2z" />
    <glyph glyph-name="S" unicode="S" horiz-adv-x="492" 
d="M25 64q0 3 8 44t15 119q2 21 22 21q15 0 19 -10t7 -35t4 -37q2 -12 2 -17v-9t2 -8t4 -6q2 -3 16 -21q49 -66 119 -66q71 1 113 41t42 103q0 106 -160 146q-68 17 -87 25q-119 46 -119 170q0 60 51 111q51 50 121 50t101 -20t36 -20t17 20t26 20t14 -19l-4 -83l4 -81
q0 -15 -17 -15h-1q-14 1 -20 11t-18 34t-31 47q-50 56 -101 56q-50 1 -78 -27t-28 -75t41 -76t109 -46t108 -33t74 -66q34 -48 35 -126t-63 -140t-154 -63q-90 0 -154 55q-16 14 -31 14l-26 -3q-18 0 -18 15z" />
    <glyph glyph-name="T" unicode="T" horiz-adv-x="692" 
d="M689 537q0 -22 -19 -22q-12 1 -20 15t-16 26q-6 12 -10 18t-8 15q-4 7 -8 11q-2 4 -5 8t-5 6t-6 4q-5 4 -21 4h-147q-22 0 -22 -27v-524q0 -16 10 -20t51 -7q42 -2 45 -8t3 -24t-17 -18l-20 2q-76 4 -116 4l-136 -6q-20 0 -20 20t8 25q8 3 32 5t38 4q28 3 29 36v507
q0 31 -27 31h-149q-28 0 -36 -16q-7 -16 -13 -26q-6 -12 -10 -19t-6 -15l-6 -12t-6 -8l-4 -8q-8 -10 -18 -9q-22 0 -22 25v1q0 4 29 138q3 15 21 15h583q11 0 15 -6t16 -72q13 -67 13 -73z" />
    <glyph glyph-name="U" unicode="U" horiz-adv-x="756" 
d="M86 612q0 27 -26 27l-16 2q-27 3 -27 25t20 23l101 -3h6l107 3q19 0 19 -21t-8 -23q-8 -3 -14 -4t-18 -2t-22 -2q-32 -4 -32 -35v-313q0 -67 12 -113t49 -79q60 -55 190 -55q192 0 192 202v14l-1 62v272q0 34 -18 44q-18 9 -45 10q-26 1 -26 22t19 21l88 -3l88 3
q18 0 18 -19t-7 -23t-17 -5t-20 -5q-24 -10 -23 -65l-1 -10v-227l1 -47v-32q0 -70 -17 -126t-80 -101q-63 -44 -156 -44q-92 1 -146 15q-91 25 -130 72q-38 47 -49 88q-12 41 -12 124l1 76v252z" />
    <glyph glyph-name="V" unicode="V" horiz-adv-x="830" 
d="M823 662q0 -21 -28 -23q-28 -1 -44 -17q-15 -16 -43 -84q-102 -250 -257 -538q-11 -20 -25 -20t-26 20q-207 362 -266 492q-60 131 -68 137q-6 5 -28 14t-22 28q0 18 29 18l112 -3l106 3q18 1 18 -17q1 -18 -7 -22t-26 -8q-18 -2 -23 -3q-27 -3 -27 -25t108 -232
q108 -211 121 -226t19 -15t10 8q116 211 200 436q6 18 6 22q0 33 -44 33t-43 24q0 24 22 25l102 -3l102 3q22 0 22 -27z" />
    <glyph glyph-name="W" unicode="W" horiz-adv-x="1002" 
d="M1000 665q0 -24 -30 -22q-30 1 -43 -23q-1 -2 -11 -32t-30 -84q-83 -234 -199 -478q-22 -48 -43 -48t-40 53q-120 300 -123 303q-2 0 -62 -156q-61 -156 -69 -176q-8 -18 -15 -21h-1q-4 -3 -10 -3t-10 4q-6 4 -10 10t-6 12t-6 16t-24 58q-20 50 -55 142q-46 122 -89 252
q-43 131 -48 149q-7 17 -30 18q-33 1 -33 22q0 28 25 28l96 -3l94 3q18 0 18 -24t-29 -22q-29 3 -37 -7q-8 -9 -8 -16q0 -31 159 -456q7 -18 14 -18t19 25t51 129q40 104 40 108v1q0 5 -38 115q-37 110 -45 114t-53 6q-17 0 -17 22t23 23l103 -3h1l102 3q17 1 17 -17t-9 -23
t-37 -7t-28 -23q0 -3 24 -79t86 -228q60 -152 70 -165t14 -13h1q10 0 16 18q89 188 127 319q38 133 38 141t-1 12t-3 5l-4 4l-6 3t-6 2q-4 0 -10 2q-10 2 -22 2q-34 2 -34 25q0 22 18 22l101 -3h1l99 3q17 0 17 -24z" />
    <glyph glyph-name="X" unicode="X" horiz-adv-x="665" 
d="M287 660q0 -20 -35 -18q-35 1 -35 -25q0 -6 12 -30q109 -179 111 -179t12 12q8 12 26 38q18 24 28 38t22 30l16 24q28 41 29 61q1 31 -35 31l-20 1q-26 2 -26 29q0 17 16 17l115 -3l117 3q18 0 18 -18q0 -32 -34 -30q-34 1 -61 -19t-59 -71q-130 -184 -130 -188t172 -276
q17 -28 28 -34t45 -9l13 -1q26 -5 26 -27t-17 -22l-129 6l-128 -6q-19 0 -19 22t41 27t41 25v2q-1 11 -65 114q-64 104 -67 104t-137 -193q-11 -15 -11 -26q0 -27 62 -27q27 -4 27 -26t-18 -22l-109 6q-33 0 -93 -4l-16 -2q-15 0 -15 19l1 14q0 3 2 5t2 4t4 2q3 2 5 2
q3 0 7 2t7 2t10 1t12 2t10 3t11 4q18 8 30 25t96 132t83 120q0 6 -159 260q-21 35 -34 41q-14 6 -44 8t-30 26q0 23 20 23l115 -3h3l112 3q19 0 19 -29z" />
    <glyph glyph-name="Y" unicode="Y" horiz-adv-x="667" 
d="M273 669q1 -28 -45 -28t-46 -25v-2q0 -8 40 -78t49 -84q7 -14 23 -40t27 -46t15 -19q4 0 10 6q20 29 78 107t78 110q20 30 19 47q0 29 -46 25t-46 27q0 20 21 20l89 -3h3l89 3q28 0 28 -20q0 -10 -21 -27q-21 -16 -31 -28l-145 -187q-17 -23 -34 -45t-26 -36l-18 -24
t-13 -17q-3 -5 -7 -11t-4 -10t-2 -8v-11v-195q0 -15 10 -18q10 -2 48 -4q37 -2 52 -3q22 -1 22 -24v-8q0 -19 -16 -19l-20 2q-80 4 -121 4l-142 -6q-25 0 -25 28q0 16 10 20t48 5l20 1h4l8 1q16 0 17 21v207q0 21 -5 29q-6 8 -10 15q-4 8 -6 11l-184 295q-10 12 -34 14
t-23 25q0 23 25 23l110 -3l109 3q18 0 18 -20z" />
    <glyph glyph-name="Z" unicode="Z" horiz-adv-x="629" 
d="M24 698q0 28 21 28q15 0 26 -24q8 -27 55 -27h436q24 0 24 -18q0 -8 -30 -47t-38 -50t-22 -29l-145 -182q-109 -132 -160 -222q-5 -8 -5 -15q0 -16 18 -20q46 -12 180 -11h21q67 1 99 11q48 15 63 107q7 41 12 49t15 8q26 0 26 -28v-1q0 -25 -5 -57t-7 -47t-2 -39
q-2 -35 -8 -59q-5 -24 -29 -25h-525q-28 0 -28 21q0 9 8 19q194 275 422 527q14 17 14 25t-14 8h-323q-31 0 -36 -7l-9 -9t-5 -13l-5 -15t-4 -22q-4 -16 -7 -26q-5 -22 -23 -22t-18 25l8 150v37z" />
    <glyph glyph-name="bracketleft" unicode="[" horiz-adv-x="378" 
d="M78 233l-26 -10q-29 1 -29 39t29 38l23 -7q4 0 4 7v410q0 34 25 34q5 0 39 -18t85 -18t98 22l17 7q12 0 12 -16q1 -7 -13 -23t-42 -30q-28 -15 -48 -15q-19 0 -19 -7l1 -773q0 -11 12 -11q49 0 94 -48q14 -14 14 -21q0 -13 -12 -13q-2 0 -36 18t-80 17q-45 -1 -71 -7
t-41 -12t-18 -6q-16 0 -16 22v414q0 7 -2 7zM125 -155q1 -5 3 -5t15 9t31 12t18 8v780q0 8 -18 10q-18 3 -31 12q-13 8 -15 8t-3 -5v-829z" />
    <glyph glyph-name="backslash" unicode="\" horiz-adv-x="235" 
d="M232 -202q0 -8 -12 -16t-22 -8q-8 0 -8 11q-187 807 -187 813q-1 6 11 13t22 7t13 -15q67 -337 125 -567t58 -238z" />
    <glyph glyph-name="bracketright" unicode="]" horiz-adv-x="378" 
d="M326 223l-26 10q-2 0 -2 -7v-414q0 -22 -16 -22q-3 0 -34 12t-73 13q-42 -1 -72 -9q-29 -8 -47 -17t-20 -9q-12 0 -12 13q0 7 14 21q46 48 94 48q12 0 12 11l1 773q0 7 -19 7q-20 0 -48 15q-28 14 -42 30t-13 22q0 17 12 17l17 -7q47 -22 98 -22t85 18t39 18q25 0 25 -34
v-410q0 -7 4 -7l23 7q29 0 29 -38t-29 -39zM253 -155v829q-1 5 -3 5t-10 -5q-18 -12 -36 -15t-18 -10v-780q0 -5 11 -7t25 -8t20 -10t8 -4t3 5z" />
    <glyph glyph-name="asciicircum" unicode="^" horiz-adv-x="423" 
d="M373 483q0 -23 -24 -23q-9 0 -15 4t-9 7q-3 1 -7 7t-7 8t-7 8t-14 20q-10 12 -41 52t-37 40h-1q-5 -1 -40 -44t-44 -54q-9 -12 -16 -20q-22 -26 -38 -26q-22 0 -22 22q-1 8 57 106t70 112t23 14q12 0 15 -1l6 -2l6 -3t6 -4t5 -4q3 -4 5 -6t4 -5q4 -5 20 -31t61 -96
q44 -70 44 -81z" />
    <glyph glyph-name="underscore" unicode="_" horiz-adv-x="527" 
d="M27 -50v4q0 25 14 25h446q14 0 14 -25v-2q0 -28 -14 -28h-446q-14 0 -14 26z" />
    <glyph glyph-name="grave" unicode="`" 
d="M187 474h-2q-7 0 -17 10t-59 58q-49 50 -75 76t-26 44t11 28t26 11h1q28 0 54 -40l66 -99t40 -68q0 -20 -19 -20z" />
    <glyph glyph-name="a" unicode="a" horiz-adv-x="423" 
d="M107 103q0 -68 64 -68q49 0 83 41q6 8 6 23v65q0 29 -12 29t-49 -4q-38 -4 -65 -28t-27 -58zM330 91q0 -44 34 -44q18 1 28 17t18 16t7 -18q0 -18 -21 -46t-45 -28q-23 0 -35 4q-18 6 -34 22l-10 10l-3 5l-1 1h-2q-2 0 -2 -2q-2 -2 -8 -7t-32 -23q-28 -18 -78 -18t-82 32
t-31 80v1q0 121 205 136l13 1q8 2 8 14v36q0 52 -24 80q-25 27 -58 27q-53 0 -86 -67q-9 -11 -23 -11t-26 10q-12 11 -13 33t47 52t87 30q59 0 103 -18q64 -26 64 -128v-197z" />
    <glyph glyph-name="b" unicode="b" horiz-adv-x="486" 
d="M259 22q61 0 108 47t47 125t-50 131q-50 52 -117 52q-35 -1 -71 -17t-37 -32v-256l-1 -7q0 -18 14 -24q46 -19 107 -19zM145 389q3 1 19 11q48 30 127 30t133 -61t53 -154q0 -93 -41 -144q-72 -90 -204 -90q-26 -1 -55 9t-44 10t-29 -10t-19 -11q-16 0 -16 30l3 585
q0 14 -9 20t-16 10t-11 7t-10 5t-8 5q-2 2 -8 6q-6 5 -6 11t13 11q111 44 114 44q14 -2 14 -20l-3 -298q0 -6 3 -6z" />
    <glyph glyph-name="c" unicode="c" horiz-adv-x="381" 
d="M358 360q0 -44 -43 -44q-19 0 -53 30t-73 30q-38 0 -72 -46t-34 -112q0 -68 45 -120t107 -52q61 0 105 40q14 14 23 14q17 0 17 -17q0 -8 -16 -30q-16 -23 -60 -47q-42 -24 -95 -24q-85 0 -139 61t-53 159q0 98 59 162t155 64q53 0 90 -22t37 -46z" />
    <glyph glyph-name="d" unicode="d" horiz-adv-x="494" 
d="M235 -21q-96 0 -157 66t-61 158t56 156t166 64h1q56 0 94 -11l14 -4q7 0 7 9v168q0 13 -6 17t-23 12t-19 8q-1 0 -5 2t-7 2q-19 5 -19 16q0 5 9 11q125 61 133 61t8 -14l-3 -324q0 -267 3 -294q0 -13 19 -13h7l21 -1q19 0 19 -14q0 -6 -5 -10t-23 -12t-34 -17t-32 -21
t-23 -16q-7 -6 -13 -6t-6 10v33q0 3 -2 3q-59 -39 -119 -39zM234 383q-70 -1 -110 -45t-40 -126t56 -131q56 -50 118 -50q30 0 59 12q29 11 33 27t5 27v224q0 14 -10 24q-41 38 -111 38z" />
    <glyph glyph-name="e" unicode="e" horiz-adv-x="409" 
d="M290 312q0 10 -34 38q-34 26 -74 26t-67 -38q-26 -38 -26 -105q-1 -7 3 -7t95 36t97 38t6 12zM192 431q116 0 187 -96q8 -10 8 -22v-1q1 -17 -15 -25t-28 -13t-51 -18q-39 -12 -119 -39t-81 -35q0 -8 6 -28t20 -47q14 -29 46 -49t88 -20t107 49q14 14 23 14q16 0 16 -15
q0 -8 -7 -16q-69 -89 -169 -89t-151 65q-50 65 -50 163q0 99 54 161q52 62 116 61z" />
    <glyph glyph-name="f" unicode="f" horiz-adv-x="292" 
d="M84 350q0 10 -26 10h-27q-21 0 -21 24t21 24q13 1 29 1t19 1t3 8v1q4 121 38 181t87 90t95 30t60 -16t18 -34q0 -17 -12 -29t-28 -12t-42 12t-43 12q-51 1 -77 -61t-26 -156v-9q0 -16 10 -16h98q22 0 22 -20v-1q0 -31 -26 -31h-94q-9 0 -9 -8v-290q0 -23 20 -24
q16 -2 26 -2q9 -1 15 -1q16 -1 16 -20q0 -20 -16 -20l-90 6l-91 -6q-15 0 -15 19t16 21t31 5q15 0 17 30t2 281z" />
    <glyph glyph-name="g" unicode="g" horiz-adv-x="440" 
d="M95 70q0 -26 42 -35q43 -9 109 -11t102 -12t60 -42q23 -31 23 -75q-1 -45 -49 -87t-168 -42t-165 62q-22 30 -22 52q-1 22 1 31t5 17t7 14t8 11t9 9q9 10 16 15q8 3 8 5q1 2 -9 8q-28 17 -28 59t56 87q2 2 2 5t-20 14t-40 46t-20 87t46 99q46 46 102 46t96 -18t44 -18
q30 -1 48 27t32 28t27 -13q12 -13 12 -29q-1 -30 -51 -50q-26 -10 -25 -14q-1 -5 5 -23t6 -43q0 -70 -48 -119t-118 -49l-58 9q-14 1 -30 -17t-15 -34zM246 -187q128 -1 127 79q0 54 -87 66q-27 4 -77 6t-87 6h-3q-6 0 -21 -15t-15 -51q1 -36 47 -64t116 -27zM191 399
q-43 -1 -67 -31t-24 -84t29 -95q29 -42 71 -42t68 32q24 32 24 83t-30 94t-71 43z" />
    <glyph glyph-name="h" unicode="h" horiz-adv-x="514" 
d="M293 8v7q-1 13 5 15q8 2 22 4l13 2q9 0 21 2t14 15t2 91q0 138 -48 191q-36 36 -74 36t-66 -18q-29 -18 -29 -44q1 -241 3 -251q6 -23 40 -22q34 0 34 -21t-11 -21l-92 6l-94 -6q-12 0 -12 15t5 19t21 6l11 2q20 4 22 20q6 58 7 289v4q0 221 -4 245q-3 12 -37 20t-34 21
q0 12 16 20q110 64 115 64h1q15 0 15 -19l-1 -308q0 -7 3 -7q3 1 33 19t87 18q135 0 155 -174q6 -46 6 -119q2 -73 4 -79t9 -10t25 -6t18 -21t-13 -19l-91 6l-90 -6q-11 0 -11 14z" />
    <glyph glyph-name="i" unicode="i" horiz-adv-x="243" 
d="M18 10q0 16 6 20q6 3 33 7q27 5 32 13t5 24v142l1 98q-1 10 -7 14t-29 14t-33 14t-11 10t1 8q2 3 6 5q4 1 6 3t7 4t60 28t57 27h1q14 0 14 -16l-1 -32q-5 -80 -5 -195v-33q0 -91 3 -109t31 -21q28 -2 31 -8q3 -5 3 -19t-12 -14l-92 6l-92 -6q-15 0 -15 16zM104 618
q0 20 14 33q14 14 34 14q20 1 34 -13t14 -34t-14 -33q-14 -14 -35 -14q-19 -1 -33 13t-14 34z" />
    <glyph glyph-name="j" unicode="j" horiz-adv-x="232" 
d="M104 604q0 20 14 34t34 13q20 1 34 -13t14 -33t-14 -33t-35 -14q-19 0 -33 14q-14 12 -14 32zM27 380q0 6 9 12q8 4 36 16t34 15t18 7t20 8t10 4q10 0 10 -16l-2 -191l4 -300q0 -55 -101 -137q-35 -30 -57 -29q-44 0 -44 34q0 15 12 29t32 14l30 -3q29 -1 43 23t14 56
l-1 92v88l2 212l-1 11q-1 8 -9 13q-8 4 -14 8l-9 6l-12 8q-8 6 -16 10t-8 10z" />
    <glyph glyph-name="k" unicode="k" horiz-adv-x="454" 
d="M224 11v1q0 23 24 23t23 18q0 19 -50 81q-49 62 -51 64t-6 3q-4 0 -16 -14t-13 -26v-103q0 -14 7 -17q8 -3 34 -7t26 -22q0 -16 -14 -16l-77 4l-78 -4q-17 0 -17 18t24 20q24 4 27 22v539q0 16 -12 24q-45 31 -46 32l-4 8q0 10 20 17q95 42 103 42t7 -17v-472q-1 -4 3 -4
q4 -1 12 9t24 25t23 23q8 8 17 18t13 14q16 18 16 33q0 17 -13 27t-13 15v10q0 13 21 13h58l110 3q15 1 15 -15t-5 -20t-23 -5q-42 -5 -72 -26t-70 -62t-40 -44q-1 -3 41 -52t67 -79t47 -53q22 -22 63 -27q16 -2 16 -20t-16 -18l-96 6l-96 -6q-13 0 -13 17z" />
    <glyph glyph-name="l" unicode="l" horiz-adv-x="239" 
d="M18 13v3q0 13 6 16q6 4 30 6t28 11q5 9 5 27v509q0 12 -10 18q-10 5 -15 8q-6 3 -14 8t-12 7t-10 6q-4 2 -6 4q-8 5 -9 13v1q0 9 43 29t64 32q22 12 28 12q14 0 14 -19v-633q0 -21 6 -25l8 -4q2 0 6 -2q8 -2 19 -4q29 -4 29 -23t-12 -19l-94 6l-90 -5q-14 0 -14 18z" />
    <glyph glyph-name="m" unicode="m" horiz-adv-x="723" 
d="M225 371q-85 0 -85 -65v-241q0 -14 2 -18q2 -3 4 -5q1 -2 4 -2q3 -2 5 -2q1 0 7 -2t8 -2t10 -1t13 -2q14 -1 14 -19t-13 -18l-12 2q-48 4 -73 4l-73 -4q-14 0 -14 15q0 22 27 24q27 1 29 25v248q0 20 -24 36t-25 22q0 6 4 9q5 3 31 20t44 28t24 11t6 -12v-38q0 -6 2 -6
t32 22q29 22 78 22t97 -44l11 -11q1 -1 4 -1q2 0 16 10q58 46 113 46q115 0 145 -109q11 -38 11 -117v-127q-1 -24 9 -28q10 -3 12 -3t12 -3q10 -1 20 -3t9 -20q0 -18 -15 -18l-84 6l-85 -6q-16 0 -16 17v5q1 10 7 12t10 3t8 1q3 0 10 2q8 2 20 4t12 26v139q0 168 -103 168
q-31 0 -61 -17t-30 -29v-3q6 -18 6 -64v-193l-1 -8v-1q0 -16 34 -20q3 -1 5 -1l10 -1q19 -4 19 -22t-13 -18l-93 6q-57 0 -87 -6h-6q-14 0 -14 17t14 19q2 0 8 2q4 1 25 4t27 11q6 9 6 28v185q0 63 -32 87t-65 24z" />
    <glyph glyph-name="n" unicode="n" horiz-adv-x="499" 
d="M427 63q0 -28 31 -28q31 -1 31 -21t-15 -20l-84 6q-48 0 -78 -6h-4q-14 0 -14 17t14 19q2 0 6 2q4 1 11 2q5 1 21 3t16 24v155q0 75 -13 108q-25 60 -107 60q-32 0 -62 -24t-32 -34q-2 -11 -3 -20v-240q0 -25 22 -28q12 -2 20 -3t13 -2t7 -2t5 -2q9 -3 9 -19t-13 -17
l-93 7q-27 0 -75 -4l-13 -2q-16 0 -16 16t6 19t28 7q23 4 27 10q4 8 4 24v239q0 18 -5 24t-40 32q-6 6 -6 10v1q1 7 51 34t54 27q12 0 12 -15v-42l-1 -3q0 -4 3 -4h1q1 0 7 6q58 54 130 54h2q42 1 74 -19q70 -42 70 -176v-19l-1 -154v-2z" />
    <glyph glyph-name="o" unicode="o" horiz-adv-x="467" 
d="M236 30q62 0 102 50t40 124t-44 128t-99 53q-54 0 -95 -43q-41 -44 -41 -128t38 -134q37 -50 99 -50zM21 208q0 98 64 160q64 64 153 64q88 0 148 -64t60 -166t-62 -161q-62 -60 -154 -60q-92 1 -150 65q-59 64 -59 162z" />
    <glyph glyph-name="p" unicode="p" horiz-adv-x="494" 
d="M29 -228q-16 0 -16 16t9 19t14 4t16 3t19 4q22 4 22 28v464q0 15 -13 20q-65 29 -66 31t-1 4v1q-1 6 61 40q62 35 66 35t5 -11v-59q0 -6 3 -6l13 14q48 52 128 52q79 1 133 -63t53 -158t-67 -156t-171 -61l-60 5l-4 1q-7 0 -7 -11v-140q0 -24 22 -26q10 -1 23 -2l19 -2
q34 -4 37 -16q1 -4 1 -11q0 -15 -12 -15l-94 4q-60 0 -114 -6zM264 372q-106 0 -106 -83v-215q0 -19 29 -33t77 -14q48 -1 96 47t48 120t-47 126q-47 52 -97 52z" />
    <glyph glyph-name="q" unicode="q" horiz-adv-x="525" 
d="M308 -235q-18 0 -18 17t24 22q5 1 9 2q5 1 11 2t11 2q29 6 29 40v172q0 7 -4 7q-4 1 -20 -9q-48 -28 -125 -29q-77 0 -143 65t-66 151t63 156q63 71 204 71q37 0 75 -6t47 -7q9 1 18 13t12 12q11 0 11 -55l1 -27v-503q1 -30 11 -38q10 -7 34 -11t24 -15q0 -22 -18 -22
l-55 2q-57 0 -95 -6q-37 -6 -40 -6zM251 401q-63 0 -113 -49t-50 -122q0 -74 55 -126t130 -52q27 0 55 8t38 18q9 9 9 43t-3 222q0 19 -14 29q-44 29 -107 29z" />
    <glyph glyph-name="r" unicode="r" horiz-adv-x="358" 
d="M28 -6q-16 0 -16 17t8 18t19 3t18 4q18 4 18 24v265q1 14 -7 20q-8 5 -12 9t-22 14q-17 11 -18 17q0 3 55 29t63 27t8 -19v-40q0 -5 2 -5t22 14q20 15 52 35q31 20 59 20q27 0 53 -12t26 -32v-1q0 -12 -27 -35l-10 -8q-17 -12 -30 -12t-28 12t-34 13t-44 -15t-31 -24
t-5 -20v-244q0 -28 25 -30q10 -1 30 -2t31 -3q12 -2 12 -21q0 -18 -14 -18l-101 6z" />
    <glyph glyph-name="s" unicode="s" horiz-adv-x="338" 
d="M44 156q12 0 14 -9t3 -25t8 -32q7 -15 40 -35t69 -20q36 1 60 19t24 42t-8 39q-11 19 -52 35q-40 17 -60 17q-111 32 -111 122q-1 47 39 83t105 35l50 -5l25 10q12 0 15 -16t8 -44q5 -26 9 -44t3 -20q0 -16 -19 -16t-25 21t-14 32t-32 23q-25 12 -49 12t-42 -15t-19 -38
q0 -50 79 -72l36 -9t51 -15t51 -39q27 -32 27 -80t-41 -90t-95 -41q-112 0 -154 50q-12 13 -12 34l-1 60q0 19 4 25t14 6z" />
    <glyph glyph-name="t" unicode="t" horiz-adv-x="333" 
d="M72 365h-32q-20 0 -20 13q0 6 34 35t57 70q24 40 35 40t11 -16l-1 -70q0 -20 20 -20h90l8 -1q26 0 26 -19q0 -34 -27 -34h-117q-10 0 -10 -9q-1 -187 -1 -234q0 -74 51 -74q27 0 64 30t45 30q18 0 18 -18q0 -6 -7 -17q-79 -90 -139 -90q-36 0 -69 32t-33 122l4 221
q0 9 -7 9z" />
    <glyph glyph-name="u" unicode="u" horiz-adv-x="505" 
d="M7 398v3q0 13 11 14q100 6 107 6t7 -12v-205q0 -66 16 -98q36 -72 108 -72q50 0 76 28t26 38v246q0 20 -9 24t-11 4t-10 2q-6 2 -10 2t-12 2t-18 3q-10 2 -11 16q0 14 14 16q64 2 84 3q19 1 27 1h12q15 0 15 -20v-313q0 -9 21 -17q21 -9 29 -13t8 -12t-2 -12
q-3 -6 -28 -12q-25 -5 -51 -19q-25 -15 -30 -15q-14 0 -14 20v23q0 4 -2 4q-2 1 -9 -5q-58 -45 -125 -46q-66 0 -108 38t-48 88q-6 49 -6 80l1 161q0 23 -42 33q-16 4 -16 16z" />
    <glyph glyph-name="v" unicode="v" horiz-adv-x="490" 
d="M219 400q0 -16 -5 -20t-38 -4q-33 -1 -33 -20q0 -26 56 -146t63 -126q6 -5 10 -5t4 5q67 119 89 227q7 35 7 43v10t-3 5q-2 2 -4 3q-1 1 -5 2q-4 2 -7 2h-8t-13 2q-8 1 -19 1q-13 8 -15 17v5q0 14 12 14l80 -3l80 3q15 -1 15 -19q-1 -18 -25 -20t-28 -8t-18 -57t-63 -177
t-72 -150q-7 -9 -21 -9t-31 31q-90 159 -132 255t-49 106q-6 10 -28 10q-16 0 -16 19t12 19l95 -3l96 3q14 1 14 -15z" />
    <glyph glyph-name="w" unicode="w" horiz-adv-x="752" 
d="M750 397q0 -18 -23 -21h-8q-20 -5 -30 -41q-11 -37 -33 -106t-108 -229q-13 -25 -31 -25q-19 1 -55 73t-59 117t-26 45t-57 -110t-59 -118q-6 -7 -19 -7t-27 26q-89 170 -126 265q-38 96 -43 104t-23 8q-17 0 -17 18t18 19l74 -3h3l72 3q12 0 12 -17q0 -24 -31 -21
t-31 -15q1 -8 27 -76t91 -194q4 -8 12 -8t8 8q28 44 59 104t32 71v1q0 6 -17 42t-23 46q-13 20 -43 19t-30 17q0 23 16 23l103 -3l103 3q14 0 14 -15v-6q-1 -10 -5 -12t-24 -4t-29 -2q-23 -2 -23 -20t60 -144q60 -127 81 -127q9 0 12 9q62 110 79 180q18 72 18 78v9t-3 5
q-1 2 -3 4t-6 3t-6 1t-8 2q-6 0 -14 1t-21 1q-18 2 -18 20t12 17l78 -4l80 4q15 0 15 -18z" />
    <glyph glyph-name="x" unicode="x" horiz-adv-x="443" 
d="M9 11q0 16 8 20t22 6t39 34q25 33 64 83t39 54q1 4 -59 78t-68 80q-8 8 -26 10t-17 20q0 18 13 19l82 -3l83 3q12 0 12 -14v-2l1 -9q0 -14 -36 -14q-16 -2 -16 -14q0 -4 19 -29t34 -45t17 -23q2 -2 4 -2t38 48t37 53q-1 10 -25 12t-24 14q0 25 13 25l71 -3h3l73 3
q13 0 13 -15t-6 -18q-7 -3 -29 -6t-31 -9t-23 -22q-85 -112 -85 -114q1 -1 71 -91t72 -92t4 -5q2 -1 4 -3t4 -3t4 -1t6 -2t12 -3t8 -18t-15 -17l-81 4l-81 -4q-12 0 -12 14t5 18t31 7t26 16q0 2 -4 10q-92 114 -93 115h-1q-1 1 -3 1q-2 1 -30 -37t-44 -60t-17 -29
q-1 -14 27 -17t31 -7q3 -3 3 -17t-13 -14l-72 4l-72 -5q-10 0 -10 16z" />
    <glyph glyph-name="y" unicode="y" horiz-adv-x="468" 
d="M463 396q0 -20 -39 -20q-10 -2 -14 -8t-12 -31t-14 -38q-120 -312 -218 -460q-40 -62 -74 -62q-16 1 -28 11t-11 26q0 16 13 30q14 12 38 28t41 32t40 53q23 38 23 61q0 24 -80 182t-88 168q-7 10 -21 9q-15 0 -15 19t14 19l78 -3l79 3q13 0 13 -16v-7q0 -16 -26 -17
t-26 -9t25 -75q25 -66 84 -175q0 -6 5 -6t7 2t3 4q0 2 42 102q42 98 42 128t-20 30q-46 0 -47 20q0 20 19 19l78 -3h1l76 3q12 1 12 -19z" />
    <glyph glyph-name="z" unicode="z" horiz-adv-x="361" 
d="M58 294q-19 0 -19 13q0 1 1 6q9 45 9 96v30q0 15 16 15h6q11 0 13 -18t15 -19h218q22 0 22 -15q0 -2 -6 -14q-227 -308 -227 -315q0 -8 16 -8h145l15 -1q14 0 16 8t2 10t2 8q1 6 3 13q2 8 4 22q5 16 23 16t18 -17l-2 -8q-2 -8 -2 -21q-2 -13 -6 -43t-3 -71l1 -45v-9
q0 -20 -24 -20t-23 18v60q0 15 -17 15h-232q-30 0 -30 23q0 9 13 30l204 275q6 6 6 13q0 14 -20 14h-119q-9 1 -12 -5t-7 -25q0 -31 -19 -31z" />
    <glyph glyph-name="braceleft" unicode="{" horiz-adv-x="251" 
d="M137 -70q0 -79 64 -125q0 -3 -29 -3t-64 34t-35 90t16 124t16 92t-4 42q-6 24 -21 42q-16 19 -26 24q-9 5 -9 6q1 1 15 9q14 7 29 31t15 62t-14 113q-14 74 -13 130q0 55 33 87q34 32 66 32t32 -3t-11 -9q-56 -28 -56 -104q-1 -28 13 -90t14 -104t-12 -78
q-12 -37 -22 -57q-12 -19 -12 -21t22 -33t21 -83q0 -51 -14 -114t-14 -94z" />
    <glyph glyph-name="bar" unicode="|" horiz-adv-x="153" 
d="M77 -198h-4q-23 0 -23 13v890q0 13 24 13h2q27 0 27 -13v-890q0 -13 -26 -13z" />
    <glyph glyph-name="braceright" unicode="}" horiz-adv-x="251" 
d="M117 -70q0 31 -14 94q-14 62 -14 98q1 36 11 67t21 47t11 18t-4 10q-42 66 -42 127t14 123t13 89q0 26 -7 46q-6 19 -16 31t-20 20t-17 10q-7 4 -7 7t32 3t66 -32q33 -32 33 -87q1 -56 -13 -130t-14 -103q0 -30 4 -46q10 -41 44 -58q12 -6 11 -8q0 -2 -4 -4
q-56 -31 -56 -104q0 -30 16 -98t16 -124t-35 -90t-64 -34t-29 3q64 46 64 125z" />
    <glyph glyph-name="asciitilde" unicode="~" horiz-adv-x="451" 
d="M40 173q-4 -1 -10 7t-6 12t19 36q19 33 44 58q25 26 59 26t78 -29q46 -29 73 -29q47 0 85 44q16 18 21 18t15 -6t9 -12q0 -6 -19 -32t-56 -55q-37 -28 -74 -28q-36 -1 -78 29t-67 30q-44 0 -86 -64q-3 -5 -7 -5z" />
    <glyph glyph-name="uni00A0" unicode="&#xa0;" horiz-adv-x="250" 
 />
    <glyph glyph-name="exclamdown" unicode="&#xa1;" horiz-adv-x="325" 
d="M160 572q-20 0 -36 15t-16 36t15 36t36 15t37 -14t15 -38q0 -22 -15 -36t-36 -14zM129 -16q-7 0 -7 25v23q0 247 44 414q5 16 19 16t14 -33v-13q3 -106 4 -136q2 -30 3 -58q0 -28 2 -52q2 -23 3 -43t3 -39t2 -36l1 -6q0 -16 -13 -22q-68 -40 -75 -40z" />
    <glyph glyph-name="dieresis" unicode="&#xa8;" horiz-adv-x="255" 
d="M12 618q0 20 14 33q14 14 34 14q20 1 34 -13t14 -34t-14 -33q-14 -14 -34 -14q-20 -1 -34 13t-14 34zM147 618q1 20 15 33q14 14 34 14q20 1 33 -13q14 -14 14 -34t-14 -33q-14 -14 -34 -14q-20 -1 -34 13t-14 34z" />
    <glyph glyph-name="copyright" unicode="&#xa9;" horiz-adv-x="772" 
d="M567 401q1 -17 -17 -17t-18 26t-17 48q-50 62 -123 62t-124 -52t-51 -137t52 -145t116 -60q65 0 111 34t63 90q5 10 15 10t10 -10q-14 -84 -16 -100t-17 -16h-18q-9 0 -16 -5q-56 -41 -143 -41t-155 68t-68 164q-1 96 69 165t152 69t111 -16t31 -17t7 11t16 12t13 -10
q17 -116 17 -133zM30 330q0 148 104 254t252 105q148 1 252 -105t104 -252t-103 -250q-103 -106 -251 -106t-253 104q-105 102 -105 250zM386 27q124 0 214 88t91 215q-1 127 -89 217t-216 90t-216 -90q-88 -91 -89 -217q1 -126 91 -214t214 -89z" />
    <glyph glyph-name="guillemotleft" unicode="&#xab;" horiz-adv-x="365" 
d="M343 316q1 -6 -41 -52t-51 -57q-9 -9 -9 -13t34 -43t49 -57q16 -18 16 -24t-5 -12q-4 -6 -10 -6t-62 50t-79 68q-22 18 -22 24t7 10q154 130 158 130t10 -6t5 -12zM186 334q4 0 10 -6t6 -12t-42 -52t-50 -58q-8 -11 -8 -14t50 -60t49 -62q1 -6 -5 -12t-11 -6t-84 68
t-79 72t7 12q152 130 157 130z" />
    <glyph glyph-name="logicalnot" unicode="&#xac;" horiz-adv-x="701" 
d="M76 231q-23 0 -23 22v13q0 22 24 22h564q8 0 8 -9v-218q0 -20 -19 -20h-14q-24 0 -24 26v164h-516z" />
    <glyph glyph-name="registered" unicode="&#xae;" horiz-adv-x="519" 
d="M258 335q-86 -1 -147 61t-61 149t61 149t148 61q87 1 149 -61t61 -149q0 -87 -62 -149q-63 -62 -149 -61zM259 372q71 0 123 51t51 122q1 71 -51 123t-123 51q-71 1 -123 -51t-51 -123q-1 -71 51 -122t123 -51zM291 604q1 22 -15 38t-40 15q-24 0 -23 -6l1 -1v-86
q0 -4 20 -4q57 0 57 44zM328 610q0 -24 -14 -40t-28 -22q30 -34 50 -68t34 -34l16 8q6 0 6 -6t-10 -18q-10 -11 -28 -11t-36 27l-66 91q-2 5 -8 5h-26q-2 0 -2 -3v-83l-1 -2q-1 -8 21 -9t22 -13t-10 -11l-14 1q-15 1 -32 1l-46 -2q-10 0 -10 12t16 12t16 10v186q0 4 -2 6
q-2 1 -3 2t-4 1t-5 2h-6t-10 2q-6 0 -6 8t8 9h12l80 5q46 0 66 -20q20 -22 20 -46z" />
    <glyph glyph-name="degree" unicode="&#xb0;" horiz-adv-x="212" 
d="M106 653q-22 1 -38 -17t-16 -42t16 -42t40 -18t38 18q16 18 16 42t-16 41q-16 18 -40 18zM106 690q38 0 66 -29t28 -69t-28 -68t-66 -28t-66 28t-28 69t28 69t66 28z" />
    <glyph glyph-name="plusminus" unicode="&#xb1;" horiz-adv-x="701" 
d="M76 -12q-23 0 -23 22v13q0 22 24 22h552q20 0 20 -19v-14q0 -24 -27 -24h-546zM344 71q-22 0 -22 19v190h-246q-23 0 -23 22v14q0 22 24 22h245v193q0 16 20 16h14q23 0 23 -21v-188h250q20 0 20 -20v-14q0 -24 -27 -24h-243v-191q0 -18 -21 -18h-14z" />
    <glyph glyph-name="acute" unicode="&#xb4;" 
d="M34 474q-19 0 -19 20q0 11 43 74t66 98q22 35 44 35q44 0 44 -37q0 -19 -24 -45q-130 -133 -138 -139t-16 -6z" />
    <glyph glyph-name="paragraph" unicode="&#xb6;" horiz-adv-x="750" 
d="M668 612q-20 0 -21 21q-1 9 11 21t12 20q0 20 -30 20t-56 -25q-28 -25 -41 -51q-62 -125 -62 -297v-4q1 -133 29 -241t67 -168q39 -59 74 -63q34 -4 34 -22q1 -11 -11 -19t-27 -8h-4q-54 0 -115 114q-30 58 -51 132q-54 -54 -149 -59l-20 -1q-124 0 -203 90t-79 223
q0 87 33 166t86 133q115 116 245 116q74 0 119 -40q15 -14 17 -14t17 19t48 38q33 20 65 20q32 -1 50 -19t18 -42t-18 -42t-38 -18zM439 665q-1 14 -51 14t-94 -54q-96 -118 -96 -304v-1q0 -130 45 -216t116 -86q17 0 35 6t18 12q0 5 -5 18q-42 109 -42 216q-1 108 7 166
t19 97t22 68t19 45t7 19zM444 294q0 72 6 120t12 81q8 33 16 58t14 39t5 20q0 6 -12 23q-12 18 -16 18t-8 -4q-70 -138 -70 -326q1 -122 21 -196q20 -75 25 -75t15 14t16 25q-24 131 -24 203z" />
    <glyph glyph-name="periodcentered" unicode="&#xb7;" 
d="M113 318q24 0 42 -18t18 -41q0 -24 -17 -41q-18 -17 -42 -17t-42 17t-18 42q0 26 18 42t41 16z" />
    <glyph glyph-name="cedilla" unicode="&#xb8;" horiz-adv-x="199" 
d="M84 -163q38 0 38 33q0 20 -20 34t-38 16t-18 4t32 81h31q-2 -7 -6 -19l-10 -30q0 -3 4 -3h2q37 0 61 -20q24 -19 23 -53t-19 -56t-52 -23q-94 0 -93 20q1 9 5 16q4 8 9 7l25 -4q18 -3 26 -3z" />
    <glyph glyph-name="guillemotright" unicode="&#xbb;" horiz-adv-x="365" 
d="M28 328q6 6 11 6t155 -130q8 -4 8 -10t-14 -18t-78 -68t-70 -56t-11 6t-5 12t50 63t49 60q0 3 -3 8l-94 104q-4 5 -4 11t6 12zM179 334q5 0 55 -44t80 -66q28 -24 28 -30t-14 -18t-78 -68t-70 -56q-4 0 -10 6t-6 11t50 62t49 61q0 4 -14 20q-15 16 -51 58q-36 40 -36 46
t6 12t11 6z" />
    <glyph glyph-name="questiondown" unicode="&#xbf;" horiz-adv-x="380" 
d="M337 52q0 -68 -145 -68q-87 0 -132 46t-45 91q0 44 17 74q18 30 42 53t48 47q58 57 59 128l-1 22q0 18 8 27t18 9q27 1 27 -49q-1 -86 -67 -162t-66 -132t25 -86t54 -30q48 0 67 37q18 37 43 37q24 0 36 -13t12 -31zM193 572q-24 0 -42 18t-18 41q-1 23 17 41t42 18
t43 -17q18 -17 18 -43t-18 -42t-42 -16z" />
    <glyph glyph-name="Agrave" unicode="&#xc0;" horiz-adv-x="821" 
d="M509 352q9 0 9 8t-38 97q-38 91 -46 103t-16 12t-18 -17q-102 -191 -102 -197t6 -6h205zM9 15q0 10 2 14q2 3 3 5t4 4q2 2 4 2q2 2 7 2t11 2t22 2q31 3 49 47q133 297 291 581q9 16 17 24q11 8 24 8q27 0 42 -38l144 -332q109 -265 111 -268q12 -20 42 -24t32 -14t3 -14
q0 -22 -20 -22l-17 2q-64 4 -98 4l-119 -6q-20 0 -20 17q0 11 2 15q3 4 3 6t4 4t6 2t8 2q6 1 31 4t25 19q0 17 -24 91t-51 136q-4 10 -18 10h-235q-16 0 -23 -12q-35 -63 -61 -131q-26 -69 -26 -79v-14t2 -6l4 -4l4 -4t6 -2q4 -2 6 -2t9 -2q11 -2 21 -2q34 -2 33 -25
q0 -23 -22 -23l-110 6l-108 -6q-20 0 -20 21zM536 748q0 -19 -20 -19h-1l-191 88q-36 18 -36 40q0 41 39 41q22 0 52 -23q149 -108 153 -115t4 -12z" />
    <glyph glyph-name="Aacute" unicode="&#xc1;" horiz-adv-x="821" 
d="M509 352q9 0 9 8t-38 97q-38 91 -46 103t-16 12t-18 -17q-102 -191 -102 -197t6 -6h205zM9 15q0 10 2 14q2 3 3 5t4 4q2 2 4 2q2 2 7 2t11 2t22 2q31 3 49 47q133 297 291 581q9 16 17 24q11 8 24 8q27 0 42 -38l144 -332q109 -265 111 -268q12 -20 42 -24t32 -14t3 -14
q0 -22 -20 -22l-17 2q-64 4 -98 4l-119 -6q-20 0 -20 17q0 11 2 15q3 4 3 6t4 4t6 2t8 2q6 1 31 4t25 19q0 17 -24 91t-51 136q-4 10 -18 10h-235q-16 0 -23 -12q-35 -63 -61 -131q-26 -69 -26 -79v-14t2 -6l4 -4l4 -4t6 -2q4 -2 6 -2t9 -2q11 -2 21 -2q34 -2 33 -25
q0 -23 -22 -23l-110 6l-108 -6q-20 0 -20 21zM359 748q0 13 19 26l138 100q30 23 48 23q18 -1 31 -11q12 -10 12 -24t-9 -25t-14 -13q-191 -96 -208 -96t-17 20z" />
    <glyph glyph-name="Acircumflex" unicode="&#xc2;" horiz-adv-x="821" 
d="M509 352q9 0 9 8t-38 97q-38 91 -46 103t-16 12t-18 -17q-102 -191 -102 -197t6 -6h205zM9 15q0 10 2 14q2 3 3 5t4 4q2 2 4 2q2 2 7 2t11 2t22 2q31 3 49 47q133 297 291 581q9 16 17 24q11 8 24 8q27 0 42 -38l144 -332q109 -265 111 -268q12 -20 42 -24t32 -14t3 -14
q0 -22 -20 -22l-17 2q-64 4 -98 4l-119 -6q-20 0 -20 17q0 11 2 15q3 4 3 6t4 4t6 2t8 2q6 1 31 4t25 19q0 17 -24 91t-51 136q-4 10 -18 10h-235q-16 0 -23 -12q-35 -63 -61 -131q-26 -69 -26 -79v-14t2 -6l4 -4l4 -4t6 -2q4 -2 6 -2t9 -2q11 -2 21 -2q34 -2 33 -25
q0 -23 -22 -23l-110 6l-108 -6q-20 0 -20 21zM548 728q-14 0 -26 11t-23 21t-17 14l-12 10q-21 16 -31 16q-11 0 -52 -36t-55 -36t-13 14q1 6 33 46t52 66t35 25q16 0 35 -22q88 -102 88 -115q0 -14 -14 -14z" />
    <glyph glyph-name="Atilde" unicode="&#xc3;" horiz-adv-x="821" 
d="M509 352q9 0 9 8t-38 97q-38 91 -46 103t-16 12t-18 -17q-102 -191 -102 -197t6 -6h205zM9 15q0 10 2 14q2 3 3 5t4 4q2 2 4 2q2 2 7 2t11 2t22 2q31 3 49 47q133 297 291 581q9 16 17 24q11 8 24 8q27 0 42 -38l144 -332q109 -265 111 -268q12 -20 42 -24t32 -14t3 -14
q0 -22 -20 -22l-17 2q-64 4 -98 4l-119 -6q-20 0 -20 17q0 11 2 15q3 4 3 6t4 4t6 2t8 2q6 1 31 4t25 19q0 17 -24 91t-51 136q-4 10 -18 10h-235q-16 0 -23 -12q-35 -63 -61 -131q-26 -69 -26 -79v-14t2 -6l4 -4l4 -4t6 -2q4 -2 6 -2t9 -2q11 -2 21 -2q34 -2 33 -25
q0 -23 -22 -23l-110 6l-108 -6q-20 0 -20 21zM491 799q21 -1 38 11t27 24t14 11q4 0 12 -4q8 -3 7 -9q1 -6 -19 -29q-49 -58 -86 -58q-36 1 -66 23t-50 22q-18 0 -34 -13t-25 -26t-11 -13t-8 6q-5 6 -5 8q-1 4 17 30t34 44q16 16 42 16q24 0 58 -22t55 -21z" />
    <glyph glyph-name="Adieresis" unicode="&#xc4;" horiz-adv-x="821" 
d="M509 352q9 0 9 8t-38 97q-38 91 -46 103t-16 12t-18 -17q-102 -191 -102 -197t6 -6h205zM9 15q0 10 2 14q2 3 3 5t4 4q2 2 4 2q2 2 7 2t11 2t22 2q31 3 49 47q133 297 291 581q9 16 17 24q11 8 24 8q27 0 42 -38l144 -332q109 -265 111 -268q12 -20 42 -24t32 -14t3 -14
q0 -22 -20 -22l-17 2q-64 4 -98 4l-119 -6q-20 0 -20 17q0 11 2 15q3 4 3 6t4 4t6 2t8 2q6 1 31 4t25 19q0 17 -24 91t-51 136q-4 10 -18 10h-235q-16 0 -23 -12q-35 -63 -61 -131q-26 -69 -26 -79v-14t2 -6l4 -4l4 -4t6 -2q4 -2 6 -2t9 -2q11 -2 21 -2q34 -2 33 -25
q0 -23 -22 -23l-110 6l-108 -6q-20 0 -20 21zM325 774q1 20 15 34t34 14t33 -14q14 -14 14 -32q0 -20 -14 -34t-34 -14t-34 14q-14 12 -14 32zM460 774q0 20 14 34t34 14t34 -14t14 -32q0 -20 -14 -34t-34 -14t-34 14q-14 12 -14 32z" />
    <glyph glyph-name="Aring" unicode="&#xc5;" horiz-adv-x="821" 
d="M509 352q9 0 9 8t-38 97q-38 91 -46 103t-16 12t-18 -17q-102 -191 -102 -197t6 -6h205zM9 15q0 10 2 14q2 3 3 5t4 4q2 2 4 2q2 2 7 2t11 2t22 2q31 3 49 47q133 297 291 581q9 16 17 24q11 8 24 8q27 0 42 -38l144 -332q109 -265 111 -268q12 -20 42 -24t32 -14t3 -14
q0 -22 -20 -22l-17 2q-64 4 -98 4l-119 -6q-20 0 -20 17q0 11 2 15q3 4 3 6t4 4t6 2t8 2q6 1 31 4t25 19q0 17 -24 91t-51 136q-4 10 -18 10h-235q-16 0 -23 -12q-35 -63 -61 -131q-26 -69 -26 -79v-14t2 -6l4 -4l4 -4t6 -2q4 -2 6 -2t9 -2q11 -2 21 -2q34 -2 33 -25
q0 -23 -22 -23l-110 6l-108 -6q-20 0 -20 21zM443 851q-19 -1 -32 -15t-13 -34t14 -35t32 -15q19 0 32 15t13 34q1 19 -13 35t-33 15zM444 889q36 0 60 -26q24 -27 24 -63t-25 -62t-60 -25q-35 -1 -60 25t-25 62t25 63q25 26 61 26z" />
    <glyph glyph-name="AE" unicode="&#xc6;" horiz-adv-x="1010" 
d="M-4 13q0 19 8 21t22 6q14 2 28 6q25 8 46 46q167 305 246 416q79 110 79 115t-1 7l-4 4l-4 4t-8 2q-5 2 -10 3q-6 1 -14 2t-15 2t-19 3t-22 3q-20 3 -20 25t14 23q3 -1 59 -5t190 -4h235q102 0 109 -2t9 -18t16 -71q13 -55 13 -60t-8 -11t-19 -5q-12 -1 -16 7t-24 50
t-25 48q-5 8 -31 8h-191q-27 0 -30 -21q-1 -7 -1 -21v-147q0 -22 20 -22h153q25 -1 31 9t7 37v18q0 22 27 22t27 -29v-184q0 -29 -27 -29t-27 22v39q-1 24 -5 30t-21 7h-138q-49 0 -49 -40v-221q0 -25 5 -34q11 -19 124 -19q114 0 140 21q9 6 35 54t32 52t12 4q18 0 18 -23
q0 -6 -31 -143q-3 -14 -10 -17t-25 -3h-335l-137 -6q-17 0 -17 21q0 27 43 27t53 23q4 8 4 29v197q-1 9 -11 9h-152q-54 0 -60 -2q-20 -7 -67 -108q-47 -102 -47 -113t2 -15l4 -8l8 -4t10 -4q8 -2 14 -2t16 -2q11 -2 18 -3q18 -1 18 -23t-17 -22l-17 2q-72 4 -104 4l-120 -6
q-16 0 -16 19zM508 352q9 0 9 9v258q-1 12 -9 12q-8 1 -24 -17q-18 -18 -90 -134t-73 -124q0 -4 9 -4h178z" />
    <glyph glyph-name="Ccedilla" unicode="&#xc7;" horiz-adv-x="700" 
d="M380 -159q40 0 40 32q0 20 -20 35t-38 16t-18 4t19 49q-146 7 -245 111t-99 251q0 146 109 252q109 105 257 105h1q96 0 169 -40q25 -14 30 -13t11 17t15 19l11 1q11 0 13 -12l7 -51q6 -51 13 -104t7 -57q0 -17 -18 -17t-25 9q-6 9 -6 38q-13 84 -113 136q-52 28 -117 28
q-108 0 -188 -82t-80 -216q0 -136 82 -230q83 -94 185 -95q102 0 175 54t100 143q3 13 17 13t14 -11q-22 -156 -26 -168t-21 -11h-29q-20 0 -30 -9q-11 -9 -17 -12q-79 -45 -169 -50l-6 -16q0 -3 4 -3h3q37 0 61 -20t23 -56v-1q0 -30 -19 -52t-52 -23q-34 0 -64 6t-30 11
q0 27 14 27q32 -8 50 -8z" />
    <glyph glyph-name="Egrave" unicode="&#xc8;" horiz-adv-x="578" 
d="M371 427q38 0 38 33v31q-1 22 27 22t28 -29v-184q0 -29 -28 -29t-27 22v54q0 22 -26 22h-138q-49 0 -49 -40v-229q0 -34 32 -38q43 -7 126 -7t111 21q9 6 35 54t34 53q6 3 11 3t11 -6t6 -17v-1q0 -4 -16 -78t-24 -80q-6 -4 -21 -4h-344q-45 0 -83 -6t-46 -6q-7 0 -13 11
t-6 21t8 14q8 5 45 19q37 13 41 21t4 26v521q-1 11 -5 14t-18 5t-26 3q-22 2 -33 6t-11 20q0 22 19 22h460q17 0 22 -16q5 -19 17 -74t12 -65t-18 -9q-18 0 -31 18q-44 77 -51 85t-27 8h-188q-31 0 -31 -38v-151q0 -22 20 -22h153zM409 748q0 -19 -20 -19h-1q-15 0 -107 46
q-93 46 -97 49t-6 5q-16 13 -17 31t11 28t31 10t49 -23q149 -108 153 -115t4 -12z" />
    <glyph glyph-name="Eacute" unicode="&#xc9;" horiz-adv-x="578" 
d="M371 427q38 0 38 33v31q-1 22 27 22t28 -29v-184q0 -29 -28 -29t-27 22v54q0 22 -26 22h-138q-49 0 -49 -40v-229q0 -34 32 -38q43 -7 126 -7t111 21q9 6 35 54t34 53q6 3 11 3t11 -6t6 -17v-1q0 -4 -16 -78t-24 -80q-6 -4 -21 -4h-344q-45 0 -83 -6t-46 -6q-7 0 -13 11
t-6 21t8 14q8 5 45 19q37 13 41 21t4 26v521q-1 11 -5 14t-18 5t-26 3q-22 2 -33 6t-11 20q0 22 19 22h460q17 0 22 -16q5 -19 17 -74t12 -65t-18 -9q-18 0 -31 18q-44 77 -51 85t-27 8h-188q-31 0 -31 -38v-151q0 -22 20 -22h153zM162 748q0 13 19 26l138 100q31 23 49 23
q18 -1 30 -11t12 -24t-9 -25t-14 -13q-191 -96 -208 -96t-17 20z" />
    <glyph glyph-name="Ecircumflex" unicode="&#xca;" horiz-adv-x="578" 
d="M371 427q38 0 38 33v31q-1 22 27 22t28 -29v-184q0 -29 -28 -29t-27 22v54q0 22 -26 22h-138q-49 0 -49 -40v-229q0 -34 32 -38q43 -7 126 -7t111 21q9 6 35 54t34 53q6 3 11 3t11 -6t6 -17v-1q0 -4 -16 -78t-24 -80q-6 -4 -21 -4h-344q-45 0 -83 -6t-46 -6q-7 0 -13 11
t-6 21t8 14q8 5 45 19q37 13 41 21t4 26v521q-1 11 -5 14t-18 5t-26 3q-22 2 -33 6t-11 20q0 22 19 22h460q17 0 22 -16q5 -19 17 -74t12 -65t-18 -9q-18 0 -31 18q-44 77 -51 85t-27 8h-188q-31 0 -31 -38v-151q0 -22 20 -22h153zM393 728q-14 0 -26 11t-23 21
q-10 10 -16 14l-12 10q-21 16 -32 16t-52 -36q-40 -36 -54 -36t-14 14q0 6 32 46t52 66t36 25q16 0 35 -22q88 -102 88 -115q0 -14 -14 -14z" />
    <glyph glyph-name="Edieresis" unicode="&#xcb;" horiz-adv-x="578" 
d="M371 427q38 0 38 33v31q-1 22 27 22t28 -29v-184q0 -29 -28 -29t-27 22v54q0 22 -26 22h-138q-49 0 -49 -40v-229q0 -34 32 -38q43 -7 126 -7t111 21q9 6 35 54t34 53q6 3 11 3t11 -6t6 -17v-1q0 -4 -16 -78t-24 -80q-6 -4 -21 -4h-344q-45 0 -83 -6t-46 -6q-7 0 -13 11
t-6 21t8 14q8 5 45 19q37 13 41 21t4 26v521q-1 11 -5 14t-18 5t-26 3q-22 2 -33 6t-11 20q0 22 19 22h460q17 0 22 -16q5 -19 17 -74t12 -65t-18 -9q-18 0 -31 18q-44 77 -51 85t-27 8h-188q-31 0 -31 -38v-151q0 -22 20 -22h153zM170 774q0 20 14 34t34 14t34 -14t14 -32
q0 -20 -14 -34t-34 -14t-34 14q-14 12 -14 32zM305 774q1 20 15 34t34 14t33 -14q14 -14 14 -32q0 -20 -14 -34t-34 -14t-34 14q-14 12 -14 32z" />
    <glyph glyph-name="Igrave" unicode="&#xcc;" horiz-adv-x="323" 
d="M30 656q0 24 22 24l16 -1q68 -4 99 -4l104 4q17 0 17 -20t-8 -23q-8 -2 -10 -3t-9 -1q-6 0 -10 -2h-12t-14 -2q-16 -1 -16 -17v-540q0 -23 14 -25q23 -2 53 -2t30 -21q0 -29 -20 -29l-127 6l-128 -6q-18 0 -18 22q1 22 9 25t42 5l33 2q21 1 21 28v520l1 14q0 13 -11 17
t-55 4q-23 1 -23 25zM283 748q0 -19 -20 -19h-1q-15 0 -107 46q-93 46 -97 49t-6 5q-16 13 -17 31t11 28t31 10t49 -23q149 -108 153 -115t4 -12z" />
    <glyph glyph-name="Iacute" unicode="&#xcd;" horiz-adv-x="323" 
d="M30 656q0 24 22 24l16 -1q68 -4 99 -4l104 4q17 0 17 -20t-8 -23q-8 -2 -10 -3t-9 -1q-6 0 -10 -2h-12t-14 -2q-16 -1 -16 -17v-540q0 -23 14 -25q23 -2 53 -2t30 -21q0 -29 -20 -29l-127 6l-128 -6q-18 0 -18 22q1 22 9 25t42 5l33 2q21 1 21 28v520l1 14q0 13 -11 17
t-55 4q-23 1 -23 25zM35 748q0 13 19 26l138 100q30 23 48 23q18 -1 31 -11q12 -10 12 -24t-9 -25t-14 -13q-191 -96 -208 -96t-17 20z" />
    <glyph glyph-name="Icircumflex" unicode="&#xce;" horiz-adv-x="323" 
d="M30 656q0 24 22 24l16 -1q68 -4 99 -4l104 4q17 0 17 -20t-8 -23q-8 -2 -10 -3t-9 -1q-6 0 -10 -2h-12t-14 -2q-16 -1 -16 -17v-540q0 -23 14 -25q23 -2 53 -2t30 -21q0 -29 -20 -29l-127 6l-128 -6q-18 0 -18 22q1 22 9 25t42 5l33 2q21 1 21 28v520l1 14q0 13 -11 17
t-55 4q-23 1 -23 25zM267 728q-14 0 -26 11t-23 21q-10 10 -16 14l-12 10q-21 16 -32 16t-52 -36q-40 -36 -54 -36t-14 11t86 116q18 24 34 24t35 -22q88 -102 88 -115q0 -14 -14 -14z" />
    <glyph glyph-name="Idieresis" unicode="&#xcf;" horiz-adv-x="323" 
d="M30 656q0 24 22 24l16 -1q68 -4 99 -4l104 4q17 0 17 -20t-8 -23q-8 -2 -10 -3t-9 -1q-6 0 -10 -2h-12t-14 -2q-16 -1 -16 -17v-540q0 -23 14 -25q23 -2 53 -2t30 -21q0 -29 -20 -29l-127 6l-128 -6q-18 0 -18 22q1 22 9 25t42 5l33 2q21 1 21 28v520l1 14q0 13 -11 17
t-55 4q-23 1 -23 25zM44 774q0 20 14 34t34 14t34 -14t14 -32q0 -20 -14 -34t-34 -14t-34 14q-14 12 -14 32zM179 774q1 20 15 34t34 14t33 -14q14 -14 14 -32q0 -20 -14 -34t-34 -14t-34 14q-14 12 -14 32z" />
    <glyph glyph-name="Ntilde" unicode="&#xd1;" horiz-adv-x="799" 
d="M791 658q1 -29 -45 -24q-18 2 -32 -12t-14 -46q-4 -180 -4 -271l4 -281q0 -47 -20 -47q-12 0 -49 42l-207 236q-219 244 -222 244l-4 -4q-13 -190 -13 -355v-29q0 -39 7 -51q6 -12 40 -13t59 -8q13 -7 13 -26t-17 -19l-122 6q-37 0 -105 -4l-18 -2q-21 0 -21 20
q1 20 11 24t44 6t42 23q9 20 18 206t13 269v4q0 14 -36 48t-86 39q-18 0 -18 24t22 24h123q24 0 40 -19l248 -284q184 -198 189 -202t11 -4t5 134q0 134 -9 281q-1 29 -14 37t-43 12t-30 21q0 24 29 24l96 -3l94 3q21 0 21 -23zM454 789q22 -1 38 11q17 12 27 24t14 11
q3 0 11 -4q8 -3 8 -9t-20 -29q-49 -58 -85 -58q-37 1 -67 23t-49 22t-35 -13t-24 -26t-12 -13q-2 0 -7 6t-5 8q0 4 18 30t34 44q16 16 41 16t58 -22t55 -21z" />
    <glyph glyph-name="Ograve" unicode="&#xd2;" horiz-adv-x="778" 
d="M113 384q-1 -198 127 -298q66 -52 157 -52q125 0 204 94q60 71 60 171q0 204 -110 301q-76 67 -180 67q-104 -1 -181 -73t-77 -210zM760 338q0 -156 -105 -259t-257 -103t-265 109t-114 265t108 262q109 108 263 108t262 -114q108 -112 108 -268zM513 749q0 -19 -20 -19
h-1q-6 0 -186 86q-41 20 -41 42q0 42 39 41q22 0 52 -23q149 -108 153 -115t4 -12z" />
    <glyph glyph-name="Oacute" unicode="&#xd3;" horiz-adv-x="778" 
d="M113 384q-1 -198 127 -298q66 -52 157 -52q125 0 204 94q60 71 60 171q0 204 -110 301q-76 67 -180 67q-104 -1 -181 -73t-77 -210zM760 338q0 -156 -105 -259t-257 -103t-265 109t-114 265t108 262q109 108 263 108t262 -114q108 -112 108 -268zM265 750q0 13 19 26
l138 100q30 23 48 23q18 -1 31 -11q12 -10 12 -24t-9 -25t-14 -13q-191 -96 -208 -96t-17 20z" />
    <glyph glyph-name="Ocircumflex" unicode="&#xd4;" horiz-adv-x="778" 
d="M113 384q-1 -198 127 -298q66 -52 157 -52q125 0 204 94q60 71 60 171q0 204 -110 301q-76 67 -180 67q-104 -1 -181 -73t-77 -210zM760 338q0 -156 -105 -259t-257 -103t-265 109t-114 265t108 262q109 108 263 108t262 -114q108 -112 108 -268zM497 730q-14 0 -26 11
t-23 21q-10 10 -16 14l-12 10q-21 16 -32 16t-52 -36q-40 -36 -54 -36t-14 14q0 6 32 46t52 66t36 25q16 0 35 -22q88 -102 88 -115q0 -14 -14 -14z" />
    <glyph glyph-name="Otilde" unicode="&#xd5;" horiz-adv-x="778" 
d="M113 384q-1 -198 127 -298q66 -52 157 -52q125 0 204 94q60 71 60 171q0 204 -110 301q-76 67 -180 67q-104 -1 -181 -73t-77 -210zM760 338q0 -156 -105 -259t-257 -103t-265 109t-114 265t108 262q109 108 263 108t262 -114q108 -112 108 -268zM443 801q21 -1 38 11
t27 24t14 11q4 0 12 -4q8 -3 7 -9q1 -6 -19 -29q-49 -58 -86 -58q-36 1 -66 23t-50 22q-18 0 -34 -13t-25 -26t-11 -13t-8 6q-5 6 -5 8q-1 4 17 30t34 44q16 16 42 16q24 0 58 -22t55 -21z" />
    <glyph glyph-name="Odieresis" unicode="&#xd6;" horiz-adv-x="778" 
d="M113 384q-1 -198 127 -298q66 -52 157 -52q125 0 204 94q60 71 60 171q0 204 -110 301q-76 67 -180 67q-104 -1 -181 -73t-77 -210zM760 338q0 -156 -105 -259t-257 -103t-265 109t-114 265t108 262q109 108 263 108t262 -114q108 -112 108 -268zM274 786q0 20 14 34
t34 14t34 -14t14 -32q0 -20 -14 -34t-34 -14t-34 14q-14 12 -14 32zM409 786q1 20 15 34t34 14t33 -14q14 -14 14 -32q0 -20 -14 -34t-34 -14t-34 14q-14 12 -14 32z" />
    <glyph glyph-name="multiply" unicode="&#xd7;" horiz-adv-x="552" 
d="M54 68q0 8 9 18l174 173l-118 118q-66 65 -66 72q0 9 12 21t22 12h1q9 0 80 -72t109 -110l123 123q60 60 67 61h1q8 0 20 -12t12 -22v-1q0 -7 -62 -69l-120 -121l110 -110q73 -72 73 -80q0 -9 -12 -21q-13 -12 -21 -12t-17 9l-174 174l-110 -110q-72 -73 -80 -73
q-9 0 -21 12t-12 20z" />
    <glyph glyph-name="Oslash" unicode="&#xd8;" horiz-adv-x="778" 
d="M378 34q56 0 90 9q77 20 135 88t58 169q0 204 -112 302l-291 -529q64 -39 120 -39zM113 384q0 -178 104 -278l288 527q-63 34 -151 34q-88 -1 -164 -73q-77 -72 -77 -210zM760 337q0 -155 -105 -258t-254 -103q-89 0 -173 42q-30 -54 -35 -58t-27 -4t-23 13v1l40 74
q-76 52 -120 134t-45 175q0 151 109 259t260 108q76 0 149 -31q27 51 31 53t27 3q23 0 23 -16q0 -3 -34 -65q81 -52 129 -140t48 -187z" />
    <glyph glyph-name="Ugrave" unicode="&#xd9;" horiz-adv-x="756" 
d="M86 612q0 27 -26 27l-16 2q-27 3 -27 25t20 23l101 -3h6l107 3q19 0 19 -21t-8 -23q-8 -3 -14 -4t-18 -2t-22 -2q-32 -4 -32 -35v-313q0 -67 12 -113t49 -79q60 -55 190 -55q192 0 192 202v14l-1 62v272q0 34 -18 44q-18 9 -45 10q-26 1 -26 22t19 21l88 -3l88 3
q18 0 18 -19t-7 -23t-17 -5t-20 -5q-24 -10 -23 -65l-1 -10v-227l1 -47v-32q0 -70 -17 -126t-80 -101q-63 -44 -156 -44q-92 1 -146 15q-91 25 -130 72q-38 47 -49 88q-12 41 -12 124l1 76v252zM503 748q0 -19 -20 -19h-1q-15 0 -107 46q-93 46 -97 49t-6 5q-16 13 -17 31
t11 28t31 10t49 -23q149 -108 153 -115t4 -12z" />
    <glyph glyph-name="Uacute" unicode="&#xda;" horiz-adv-x="756" 
d="M86 612q0 27 -26 27l-16 2q-27 3 -27 25t20 23l101 -3h6l107 3q19 0 19 -21t-8 -23q-8 -3 -14 -4t-18 -2t-22 -2q-32 -4 -32 -35v-313q0 -67 12 -113t49 -79q60 -55 190 -55q192 0 192 202v14l-1 62v272q0 34 -18 44q-18 9 -45 10q-26 1 -26 22t19 21l88 -3l88 3
q18 0 18 -19t-7 -23t-17 -5t-20 -5q-24 -10 -23 -65l-1 -10v-227l1 -47v-32q0 -70 -17 -126t-80 -101q-63 -44 -156 -44q-92 1 -146 15q-91 25 -130 72q-38 47 -49 88q-12 41 -12 124l1 76v252zM316 748q0 13 19 26l138 100q31 23 49 23q18 -1 30 -11t12 -24t-9 -25t-14 -13
q-191 -96 -208 -96t-17 20z" />
    <glyph glyph-name="Ucircumflex" unicode="&#xdb;" horiz-adv-x="756" 
d="M86 612q0 27 -26 27l-16 2q-27 3 -27 25t20 23l101 -3h6l107 3q19 0 19 -21t-8 -23q-8 -3 -14 -4t-18 -2t-22 -2q-32 -4 -32 -35v-313q0 -67 12 -113t49 -79q60 -55 190 -55q192 0 192 202v14l-1 62v272q0 34 -18 44q-18 9 -45 10q-26 1 -26 22t19 21l88 -3l88 3
q18 0 18 -19t-7 -23t-17 -5t-20 -5q-24 -10 -23 -65l-1 -10v-227l1 -47v-32q0 -70 -17 -126t-80 -101q-63 -44 -156 -44q-92 1 -146 15q-91 25 -130 72q-38 47 -49 88q-12 41 -12 124l1 76v252zM487 728q-14 0 -26 11t-23 21q-10 10 -16 14l-12 10q-21 16 -32 16t-52 -36
q-40 -36 -54 -36t-14 11t86 116q18 24 34 24t35 -22q88 -102 88 -115q0 -14 -14 -14z" />
    <glyph glyph-name="Udieresis" unicode="&#xdc;" horiz-adv-x="756" 
d="M86 612q0 27 -26 27l-16 2q-27 3 -27 25t20 23l101 -3h6l107 3q19 0 19 -21t-8 -23q-8 -3 -14 -4t-18 -2t-22 -2q-32 -4 -32 -35v-313q0 -67 12 -113t49 -79q60 -55 190 -55q192 0 192 202v14l-1 62v272q0 34 -18 44q-18 9 -45 10q-26 1 -26 22t19 21l88 -3l88 3
q18 0 18 -19t-7 -23t-17 -5t-20 -5q-24 -10 -23 -65l-1 -10v-227l1 -47v-32q0 -70 -17 -126t-80 -101q-63 -44 -156 -44q-92 1 -146 15q-91 25 -130 72q-38 47 -49 88q-12 41 -12 124l1 76v252zM288 774q0 20 14 34t34 14t34 -14t14 -32q0 -20 -14 -34t-34 -14t-34 14
q-14 12 -14 32zM423 774q1 20 15 34t34 14t33 -14q14 -14 14 -32q0 -20 -14 -34t-34 -14t-34 14q-14 12 -14 32z" />
    <glyph glyph-name="Yacute" unicode="&#xdd;" horiz-adv-x="667" 
d="M273 669q1 -28 -45 -28t-46 -25v-2q0 -8 40 -78t49 -84q7 -14 23 -40t27 -46t15 -19q4 0 10 6q20 29 78 107t78 110q20 30 19 47q0 29 -46 25t-46 27q0 20 21 20l89 -3h3l89 3q28 0 28 -20q0 -10 -21 -27q-21 -16 -31 -28l-145 -187q-17 -23 -34 -45t-26 -36l-18 -24
t-13 -17q-3 -5 -7 -11t-4 -10t-2 -8v-11v-195q0 -15 10 -18q10 -2 48 -4q37 -2 52 -3q22 -1 22 -24v-8q0 -19 -16 -19l-20 2q-80 4 -121 4l-142 -6q-25 0 -25 28q0 16 10 20t48 5l20 1h4l8 1q16 0 17 21v207q0 21 -5 29q-6 8 -10 15q-4 8 -6 11l-184 295q-10 12 -34 14
t-23 25q0 23 25 23l110 -3l109 3q18 0 18 -20zM259 748q0 13 19 26l138 100q30 23 48 23q18 -1 31 -11q12 -10 12 -24t-9 -25t-14 -13q-191 -96 -208 -96t-17 20z" />
    <glyph glyph-name="germandbls" unicode="&#xdf;" horiz-adv-x="529" 
d="M18 12q0 18 7 20q7 3 40 7q16 1 16 33l1 29q2 50 2 250q0 9 -22 9h-32q-21 0 -21 21q-1 21 9 25t34 3q24 0 28 1q2 1 2 7v2q2 177 88 251q59 49 122 49t96 -31q33 -32 33 -74q0 -74 -56 -122q-56 -49 -56 -85q0 -35 17 -57t60 -57q135 -113 135 -196q0 -51 -36 -83
t-87 -33q-52 0 -96 23t-44 61v66q0 25 16 25t15 -22t10 -41q10 -18 36 -37t55 -19q30 -1 50 17t20 46t-18 48q-18 22 -66 63t-86 79t-38 76t44 101t44 103t-21 64t-43 25q-35 -1 -65 -23q-58 -44 -58 -246v-10l-1 -278v-34q0 -31 30 -33t34 -6q2 -3 2 -19t-11 -16h-5
q-52 10 -160 2l-12 -2q-12 0 -12 18z" />
    <glyph glyph-name="agrave" unicode="&#xe0;" horiz-adv-x="423" 
d="M107 103q0 -68 64 -68q49 0 83 41q6 8 6 23v65q0 29 -12 29t-49 -4q-38 -4 -65 -28t-27 -58zM330 91q0 -44 34 -44q18 1 28 17t18 16t7 -18q0 -18 -21 -46t-45 -28q-23 0 -35 4q-18 6 -34 22l-10 10l-3 5l-1 1h-2q-2 0 -2 -2q-2 -2 -8 -7t-32 -23q-28 -18 -78 -18t-82 32
t-31 80v1q0 121 205 136l13 1q8 2 8 14v36q0 52 -24 80q-25 27 -58 27q-53 0 -86 -67q-9 -11 -23 -11t-26 10q-12 11 -13 33t47 52t87 30q59 0 103 -18q64 -26 64 -128v-197zM224 474h-2q-8 0 -18 10l-58 58q-48 50 -74 76t-27 44q0 18 11 28t26 11h1q28 0 54 -40
q25 -39 65 -99t41 -68q0 -20 -19 -20z" />
    <glyph glyph-name="aacute" unicode="&#xe1;" horiz-adv-x="423" 
d="M107 103q0 -68 64 -68q49 0 83 41q6 8 6 23v65q0 29 -12 29t-49 -4q-38 -4 -65 -28t-27 -58zM330 91q0 -44 34 -44q18 1 28 17t18 16t7 -18q0 -18 -21 -46t-45 -28q-23 0 -35 4q-18 6 -34 22l-10 10l-3 5l-1 1h-2q-2 0 -2 -2q-2 -2 -8 -7t-32 -23q-28 -18 -78 -18t-82 32
t-31 80v1q0 121 205 136l13 1q8 2 8 14v36q0 52 -24 80q-25 27 -58 27q-53 0 -86 -67q-9 -11 -23 -11t-26 10q-12 11 -13 33t47 52t87 30q59 0 103 -18q64 -26 64 -128v-197zM144 474q-19 0 -19 20q0 11 43 74t66 98q22 35 44 35q44 0 44 -37q0 -19 -24 -45
q-130 -133 -138 -139t-16 -6z" />
    <glyph glyph-name="acircumflex" unicode="&#xe2;" horiz-adv-x="423" 
d="M107 103q0 -68 64 -68q49 0 83 41q6 8 6 23v65q0 29 -12 29t-49 -4q-38 -4 -65 -28t-27 -58zM330 91q0 -44 34 -44q18 1 28 17t18 16t7 -18q0 -18 -21 -46t-45 -28q-23 0 -35 4q-18 6 -34 22l-10 10l-3 5l-1 1h-2q-2 0 -2 -2q-2 -2 -8 -7t-32 -23q-28 -18 -78 -18t-82 32
t-31 80v1q0 121 205 136l13 1q8 2 8 14v36q0 52 -24 80q-25 27 -58 27q-53 0 -86 -67q-9 -11 -23 -11t-26 10q-12 11 -13 33t47 52t87 30q59 0 103 -18q64 -26 64 -128v-197zM275 490q1 -16 -13 -16t-24 18t-29 48q-18 32 -24 32q-7 0 -13 -6t-19 -32q-15 -26 -25 -43
t-23 -17t-13 15q0 5 24 77t38 100q12 28 28 29t30 -27q13 -28 33 -88t25 -74t5 -16z" />
    <glyph glyph-name="atilde" unicode="&#xe3;" horiz-adv-x="423" 
d="M107 103q0 -68 64 -68q49 0 83 41q6 8 6 23v65q0 29 -12 29t-49 -4q-38 -4 -65 -28t-27 -58zM330 91q0 -44 34 -44q18 1 28 17t18 16t7 -18q0 -18 -21 -46t-45 -28q-23 0 -35 4q-18 6 -34 22l-10 10l-3 5l-1 1h-2q-2 0 -2 -2q-2 -2 -8 -7t-32 -23q-28 -18 -78 -18t-82 32
t-31 80v1q0 121 205 136l13 1q8 2 8 14v36q0 52 -24 80q-25 27 -58 27q-53 0 -86 -67q-9 -11 -23 -11t-26 10q-12 11 -13 33t47 52t87 30q59 0 103 -18q64 -26 64 -128v-197zM238 622q22 0 38 12q17 12 27 22q10 12 14 12q3 0 11 -4t8 -10t-20 -28q-49 -58 -85 -58
q-37 0 -67 22t-49 23q-19 0 -35 -13t-24 -26t-12 -13q-2 -1 -7 5t-5 10t18 30t34 42t41 17t58 -21t55 -22z" />
    <glyph glyph-name="adieresis" unicode="&#xe4;" horiz-adv-x="423" 
d="M107 103q0 -68 64 -68q49 0 83 41q6 8 6 23v65q0 29 -12 29t-49 -4q-38 -4 -65 -28t-27 -58zM330 91q0 -44 34 -44q18 1 28 17t18 16t7 -18q0 -18 -21 -46t-45 -28q-23 0 -35 4q-18 6 -34 22l-10 10l-3 5l-1 1h-2q-2 0 -2 -2q-2 -2 -8 -7t-32 -23q-28 -18 -78 -18t-82 32
t-31 80v1q0 121 205 136l13 1q8 2 8 14v36q0 52 -24 80q-25 27 -58 27q-53 0 -86 -67q-9 -11 -23 -11t-26 10q-12 11 -13 33t47 52t87 30q59 0 103 -18q64 -26 64 -128v-197zM68 618q0 20 14 33q14 14 34 14q20 1 34 -13t14 -34t-14 -33q-14 -14 -34 -14q-20 -1 -34 13
t-14 34zM203 618q1 20 15 33q14 14 34 14q20 1 33 -13q14 -14 14 -34t-14 -33q-14 -14 -34 -14q-20 -1 -34 13t-14 34z" />
    <glyph glyph-name="aring" unicode="&#xe5;" horiz-adv-x="423" 
d="M107 103q0 -68 64 -68q49 0 83 41q6 8 6 23v65q0 29 -12 29t-49 -4q-38 -4 -65 -28t-27 -58zM330 91q0 -44 34 -44q18 1 28 17t18 16t7 -18q0 -18 -21 -46t-45 -28q-23 0 -35 4q-18 6 -34 22l-10 10l-3 5l-1 1h-2q-2 0 -2 -2q-2 -2 -8 -7t-32 -23q-28 -18 -78 -18t-82 32
t-31 80v1q0 121 205 136l13 1q8 2 8 14v36q0 52 -24 80q-25 27 -58 27q-53 0 -86 -67q-9 -11 -23 -11t-26 10q-12 11 -13 33t47 52t87 30q59 0 103 -18q64 -26 64 -128v-197zM183 612q-19 0 -32 -14t-13 -35q0 -20 14 -35t32 -15q19 0 32 15t13 34q1 18 -13 34t-33 16z
M184 650q36 0 60 -26t24 -62t-25 -62t-60 -26t-60 26t-25 62t25 62t61 26z" />
    <glyph glyph-name="ae" unicode="&#xe6;" horiz-adv-x="645" 
d="M445 432q66 0 124 -46t58 -73v-1q0 -18 -16 -25q-16 -8 -28 -13t-127 -44q-115 -38 -119 -40t-4 -10q0 -6 6 -26t20 -47q14 -29 46 -49t88 -20t107 49q10 14 24 14t14 -11t-20 -37t-66 -49q-48 -23 -88 -23q-40 -1 -65 7q-26 8 -42 19t-28 21q-13 10 -19 18t-7 8t-9 -8
q-72 -68 -135 -68t-95 32t-32 80v1q0 118 186 135l32 2q8 2 8 22v28q0 52 -24 80t-48 27t-36 -5q-21 -7 -32 -20q-12 -13 -28 -42q-10 -11 -24 -11t-26 10q-12 11 -12 33t47 52t95 30t74 -9t38 -19t20 -20q8 -9 13 -9q4 0 9 5q55 52 121 52zM106 101q0 -69 63 -69
q37 0 59 18t27 28q4 9 4 37v29q1 34 -1 40t-9 7h-2q-141 -10 -141 -90zM421 376q-41 0 -67 -39t-26 -104q0 -7 4 -7t94 35q91 35 97 38t6 14t-34 37t-74 26z" />
    <glyph glyph-name="ccedilla" unicode="&#xe7;" horiz-adv-x="381" 
d="M358 360q0 -44 -43 -44q-19 0 -53 30t-73 30q-38 0 -72 -46t-34 -112q0 -68 45 -120t107 -52q61 0 105 40q14 14 23 14q17 0 17 -17q0 -8 -16 -30q-16 -23 -60 -47q-42 -24 -95 -24h-3q-8 -21 -8 -23t4 -2h3q37 0 61 -20t23 -56v-1q0 -30 -19 -52t-52 -23q-34 0 -64 6
t-30 11q0 27 14 27q32 -8 50 -8q40 0 40 32q0 20 -20 35t-38 16t-18 4l4 10q12 30 18 48q-71 12 -114 70t-43 150q0 94 59 158t155 64q53 0 90 -22t37 -46z" />
    <glyph glyph-name="egrave" unicode="&#xe8;" horiz-adv-x="409" 
d="M290 312q0 10 -34 38q-34 26 -74 26t-67 -38q-26 -38 -26 -105q-1 -7 3 -7t95 36t97 38t6 12zM192 431q116 0 187 -96q8 -10 8 -22v-1q1 -17 -15 -25t-28 -13t-51 -18q-39 -12 -119 -39t-81 -35q0 -8 6 -28t20 -47q14 -29 46 -49t88 -20t107 49q14 14 23 14q16 0 16 -15
q0 -8 -7 -16q-69 -89 -169 -89t-151 65q-50 65 -50 163q0 99 54 161q52 62 116 61zM211 472h-2q-7 0 -17 10t-59 58q-49 50 -75 76t-26 44t11 28t26 11h1q28 0 54 -40l66 -99t40 -68q0 -20 -19 -20z" />
    <glyph glyph-name="eacute" unicode="&#xe9;" horiz-adv-x="409" 
d="M290 312q0 10 -34 38q-34 26 -74 26t-67 -38q-26 -38 -26 -105q-1 -7 3 -7t95 36t97 38t6 12zM192 431q116 0 187 -96q8 -10 8 -22v-1q1 -17 -15 -25t-28 -13t-51 -18q-39 -12 -119 -39t-81 -35q0 -8 6 -28t20 -47q14 -29 46 -49t88 -20t107 49q14 14 23 14q16 0 16 -15
q0 -8 -7 -16q-69 -89 -169 -89t-151 65q-50 65 -50 163q0 99 54 161q52 62 116 61zM131 472q-19 0 -19 20q0 11 43 74t66 98t45 35q44 0 43 -37q0 -19 -24 -45q-130 -133 -138 -139t-16 -6z" />
    <glyph glyph-name="ecircumflex" unicode="&#xea;" horiz-adv-x="409" 
d="M290 312q0 10 -34 38q-34 26 -74 26t-67 -38q-26 -38 -26 -105q-1 -7 3 -7t95 36t97 38t6 12zM192 431q116 0 187 -96q8 -10 8 -22v-1q1 -17 -15 -25t-28 -13t-51 -18q-39 -12 -119 -39t-81 -35q0 -8 6 -28t20 -47q14 -29 46 -49t88 -20t107 49q14 14 23 14q16 0 16 -15
q0 -8 -7 -16q-69 -89 -169 -89t-151 65q-50 65 -50 163q0 99 54 161q52 62 116 61zM302 487q0 -16 -14 -16q-14 -1 -24 17t-28 50q-18 31 -24 31q-6 -1 -12 -7t-20 -32t-24 -42q-10 -17 -24 -17q-13 0 -13 15q1 6 25 78t36 100t30 28q16 0 29 -28t33 -86q20 -60 25 -74
t5 -17z" />
    <glyph glyph-name="edieresis" unicode="&#xeb;" horiz-adv-x="409" 
d="M290 312q0 10 -34 38q-34 26 -74 26t-67 -38q-26 -38 -26 -105q-1 -7 3 -7t95 36t97 38t6 12zM192 431q116 0 187 -96q8 -10 8 -22v-1q1 -17 -15 -25t-28 -13t-51 -18q-39 -12 -119 -39t-81 -35q0 -8 6 -28t20 -47q14 -29 46 -49t88 -20t107 49q14 14 23 14q16 0 16 -15
q0 -8 -7 -16q-69 -89 -169 -89t-151 65q-50 65 -50 163q0 99 54 161q52 62 116 61zM95 618q1 20 15 33q14 14 34 14q20 1 33 -13q14 -14 14 -34t-14 -33q-14 -14 -34 -14q-20 -1 -34 13t-14 34zM230 618q0 20 14 33q14 14 34 14q20 1 34 -13t14 -34t-14 -33q-14 -14 -34 -14
q-20 -1 -34 13t-14 34z" />
    <glyph glyph-name="igrave" unicode="&#xec;" horiz-adv-x="243" 
d="M89 10q0 16 6 20q6 3 33 7q27 5 32 13t5 24v47l1 163v30q0 10 -6 14t-30 14t-34 14t-10 10t2 8q2 3 4 5q4 1 6 3t8 4q5 2 60 28t57 27h1q14 0 14 -16l-2 -32q-4 -128 -4 -195v-33q0 -91 3 -109t31 -21q28 -2 31 -8t3 -20q0 -13 -12 -13l-92 6l-92 -6q-15 0 -15 16z
M194 481h-2q-8 -1 -18 9t-58 59t-74 75t-27 45q0 19 11 29t26 10h1q28 0 54 -40q25 -40 65 -100t41 -67q0 -20 -19 -20z" />
    <glyph glyph-name="iacute" unicode="&#xed;" horiz-adv-x="243" 
d="M18 10q0 16 6 20q6 3 33 7q27 5 32 13t5 24v142l1 98q-1 10 -7 14t-29 14t-33 14t-11 10t1 8q2 3 6 5q4 1 6 3t7 4t60 28t57 27h1q14 0 14 -16l-1 -32q-5 -80 -5 -195v-33q0 -91 3 -109t31 -21q28 -2 31 -8q3 -5 3 -19t-12 -14l-92 6l-92 -6q-15 0 -15 16zM43 481
q-19 0 -19 20q0 11 43 74t66 98t45 35q44 0 43 -37q0 -19 -24 -45q-130 -133 -138 -139t-16 -6z" />
    <glyph glyph-name="icircumflex" unicode="&#xee;" horiz-adv-x="243" 
d="M18 10q0 16 6 20q6 3 33 7q27 5 32 13t5 24v142l1 98q-1 10 -7 14t-29 14t-33 14t-11 10t1 8q2 3 6 5q4 1 6 3t7 4t60 28t57 27h1q14 0 14 -16l-1 -32q-5 -80 -5 -195v-33q0 -91 3 -109t31 -21q28 -2 31 -8q3 -5 3 -19t-12 -14l-92 6l-92 -6q-15 0 -15 16zM210 497
q0 -16 -14 -16q-14 -1 -24 17t-28 50t-24 31t-12 -7t-20 -32t-24 -42q-10 -17 -24 -17q-13 0 -13 15q1 6 25 78t36 100t30 28q16 0 29 -28t33 -86q20 -60 25 -74t5 -17z" />
    <glyph glyph-name="idieresis" unicode="&#xef;" horiz-adv-x="243" 
d="M-5 618q1 20 15 33q14 14 34 14q20 1 33 -13q14 -14 14 -34t-14 -33q-14 -14 -34 -14q-20 -1 -34 13t-14 34zM130 618q0 20 14 33q14 14 34 14q20 1 34 -13t14 -34t-14 -33q-14 -14 -34 -14q-20 -1 -34 13t-14 34zM18 10q0 16 6 20q6 3 33 7q27 5 32 13t5 24v142l1 98
q-1 10 -7 14t-29 14t-33 14t-11 10t1 8q2 3 6 5q4 1 6 3t7 4t60 28t57 27h1q14 0 14 -16l-1 -32q-5 -80 -5 -195v-33q0 -91 3 -109t31 -21q28 -2 31 -8q3 -5 3 -19t-12 -14l-92 6l-92 -6q-15 0 -15 16z" />
    <glyph glyph-name="ntilde" unicode="&#xf1;" horiz-adv-x="499" 
d="M427 63q0 -28 31 -28q31 -1 31 -21t-15 -20l-84 6q-48 0 -78 -6h-4q-14 0 -14 17t14 19q2 0 6 2q4 1 11 2q5 1 21 3t16 24v155q0 75 -13 108q-25 60 -107 60q-32 0 -62 -24t-32 -34q-2 -11 -3 -20v-240q0 -25 22 -28q12 -2 20 -3t13 -2t7 -2t5 -2q9 -3 9 -19t-13 -17
l-93 7q-27 0 -75 -4l-13 -2q-16 0 -16 16t6 19t28 7q23 4 27 10q4 8 4 24v239q0 18 -5 24t-40 32q-6 6 -6 10v1q1 7 51 34t54 27q12 0 12 -15v-42l-1 -3q0 -4 3 -4h1q1 0 7 6q58 54 130 54h2q42 1 74 -19q70 -42 70 -176v-19l-1 -154v-2zM298 622q22 0 38 12q17 12 27 22
q10 12 14 12q3 0 11 -4t8 -10t-20 -28q-49 -58 -85 -58q-37 0 -67 22t-49 23q-19 0 -35 -13t-24 -26t-12 -13q-2 -1 -7 5t-5 10t18 30t34 42t41 17t58 -21t55 -22z" />
    <glyph glyph-name="ograve" unicode="&#xf2;" horiz-adv-x="467" 
d="M236 30q62 0 102 50t40 124t-44 128t-99 53q-54 0 -95 -43q-41 -44 -41 -128t38 -134q37 -50 99 -50zM21 208q0 98 64 160q64 64 153 64q88 0 148 -64t60 -166t-62 -161q-62 -60 -154 -60q-92 1 -150 65q-59 64 -59 162zM234 472h-2q-8 0 -18 10l-58 58q-48 50 -74 76
t-27 44q0 18 11 28t26 11h1q28 0 54 -40q25 -39 65 -99t41 -68q0 -20 -19 -20z" />
    <glyph glyph-name="oacute" unicode="&#xf3;" horiz-adv-x="467" 
d="M236 30q62 0 102 50t40 124t-44 128t-99 53q-54 0 -95 -43q-41 -44 -41 -128t38 -134q37 -50 99 -50zM21 208q0 98 64 160q64 64 153 64q88 0 148 -64t60 -166t-62 -161q-62 -60 -154 -60q-92 1 -150 65q-59 64 -59 162zM154 472q-19 0 -19 20q0 11 43 74t66 98
q22 35 44 35q44 0 44 -37q0 -19 -24 -45q-130 -133 -138 -139t-16 -6z" />
    <glyph glyph-name="ocircumflex" unicode="&#xf4;" horiz-adv-x="467" 
d="M236 30q62 0 102 50t40 124t-44 128t-99 53q-54 0 -95 -43q-41 -44 -41 -128t38 -134q37 -50 99 -50zM21 208q0 98 64 160q64 64 153 64q88 0 148 -64t60 -166t-62 -161q-62 -60 -154 -60q-92 1 -150 65q-59 64 -59 162zM325 488q1 -16 -13 -16t-24 18t-29 48
q-18 32 -24 32q-7 0 -13 -6t-19 -32q-15 -26 -25 -43t-23 -17t-13 15q0 5 24 77t38 100q12 28 28 29t30 -27q13 -28 33 -88t25 -74t5 -16z" />
    <glyph glyph-name="otilde" unicode="&#xf5;" horiz-adv-x="467" 
d="M236 30q62 0 102 50t40 124t-44 128t-99 53q-54 0 -95 -43q-41 -44 -41 -128t38 -134q37 -50 99 -50zM21 208q0 98 64 160q64 64 153 64q88 0 148 -64t60 -166t-62 -161q-62 -60 -154 -60q-92 1 -150 65q-59 64 -59 162zM286 622q22 0 38 12q17 12 27 22q10 12 14 12
q3 0 11 -4t8 -10t-20 -28q-49 -58 -85 -58q-37 0 -67 22t-49 23q-19 0 -35 -13t-24 -26t-12 -13q-2 -1 -7 5t-5 10t18 30t34 42t40 17t58 -21t56 -22z" />
    <glyph glyph-name="odieresis" unicode="&#xf6;" horiz-adv-x="467" 
d="M236 30q62 0 102 50t40 124t-44 128t-99 53q-54 0 -95 -43q-41 -44 -41 -128t38 -134q37 -50 99 -50zM21 208q0 98 64 160q64 64 153 64q88 0 148 -64t60 -166t-62 -161q-62 -60 -154 -60q-92 1 -150 65q-59 64 -59 162zM119 618q1 20 15 33q14 14 34 14q20 1 33 -13
q14 -14 14 -34t-14 -33q-14 -14 -34 -14q-20 -1 -34 13t-14 34zM254 618q0 20 14 33q14 14 34 14q20 1 34 -13t14 -34t-14 -33q-14 -14 -34 -14q-20 -1 -34 13t-14 34z" />
    <glyph glyph-name="divide" unicode="&#xf7;" horiz-adv-x="701" 
d="M346 67q-22 0 -38 15t-16 37q0 23 15 37t37 14t38 -15t15 -37q0 -22 -15 -36q-14 -14 -36 -15zM285 400q0 22 16 37t38 15t37 -15t15 -37q1 -22 -15 -36q-16 -15 -38 -15q-22 1 -38 15t-15 36zM76 231q-23 0 -23 22v13q0 22 23 22h552q20 0 20 -19v-14q0 -24 -26 -24
h-546z" />
    <glyph glyph-name="oslash" unicode="&#xf8;" horiz-adv-x="467" 
d="M222 385q-42 0 -82 -43q-41 -44 -41 -128t38 -133l158 284q-31 20 -73 20zM236 30q62 0 102 50t40 124q0 73 -45 128l-160 -285q29 -17 63 -17zM446 213q0 -112 -62 -172t-151 -60q-45 0 -87 18q-11 -32 -28 -32q-35 0 -35 13q0 3 22 43q-84 64 -84 173q0 108 64 172
t152 64q41 0 85 -18l6 12l5 10q3 4 5 7l3 6q5 10 28 10t23 -17q0 -5 -28 -54q82 -63 82 -175z" />
    <glyph glyph-name="ugrave" unicode="&#xf9;" horiz-adv-x="505" 
d="M7 398v3q0 13 11 14q100 6 107 6t7 -12v-205q0 -66 16 -98q36 -72 108 -72q50 0 76 28t26 38v246q0 20 -9 24t-11 4t-10 2q-6 2 -10 2t-12 2t-18 3q-10 2 -11 16q0 14 14 16q64 2 84 3q19 1 27 1h12q15 0 15 -20v-313q0 -9 21 -17q21 -9 29 -13t8 -12t-2 -12
q-3 -6 -28 -12q-25 -5 -51 -19q-25 -15 -30 -15q-14 0 -14 20v23q0 4 -2 4q-2 1 -9 -5q-58 -45 -125 -46q-66 0 -108 38t-48 88q-6 49 -6 80l1 161q0 23 -42 33q-16 4 -16 16zM267 492q0 -20 -19 -20h-2q-8 0 -18 10l-58 58q-48 50 -74 76t-27 44q0 18 11 28t26 11h1
q28 0 55 -42q101 -150 103 -155t2 -10z" />
    <glyph glyph-name="uacute" unicode="&#xfa;" horiz-adv-x="505" 
d="M7 398v3q0 13 11 14q100 6 107 6t7 -12v-205q0 -66 16 -98q36 -72 108 -72q50 0 76 28t26 38v246q0 20 -9 24t-11 4t-10 2q-6 2 -10 2t-12 2t-18 3q-10 2 -11 16q0 14 14 16q64 2 84 3q19 1 27 1h12q15 0 15 -20v-313q0 -9 21 -17q21 -9 29 -13t8 -12t-2 -12
q-3 -6 -28 -12q-25 -5 -51 -19q-25 -15 -30 -15q-14 0 -14 20v23q0 4 -2 4q-2 1 -9 -5q-58 -45 -125 -46q-66 0 -108 38t-48 88q-6 49 -6 80l1 161q0 23 -42 33q-16 4 -16 16zM168 472q-19 0 -19 20q0 11 43 74t66 98q22 35 44 35q44 0 44 -37q0 -19 -24 -45
q-130 -133 -138 -139t-16 -6z" />
    <glyph glyph-name="ucircumflex" unicode="&#xfb;" horiz-adv-x="505" 
d="M7 398v3q0 13 11 14q100 6 107 6t7 -12v-205q0 -66 16 -98q36 -72 108 -72q50 0 76 28t26 38v246q0 20 -9 24t-11 4t-10 2q-6 2 -10 2t-12 2t-18 3q-10 2 -11 16q0 14 14 16q64 2 84 3q19 1 27 1h12q15 0 15 -20v-313q0 -9 21 -17q21 -9 29 -13t8 -12t-2 -12
q-3 -6 -28 -12q-25 -5 -51 -19q-25 -15 -30 -15q-14 0 -14 20v23q0 4 -2 4q-2 1 -9 -5q-58 -45 -125 -46q-66 0 -108 38t-48 88q-6 49 -6 80l1 161q0 23 -42 33q-16 4 -16 16zM339 487q1 -16 -13 -16q-14 -1 -24 17t-29 50q-18 32 -24 31q-7 -1 -13 -7t-19 -32
q-15 -26 -25 -42q-10 -17 -23 -17t-13 15q0 6 24 78t38 100q12 28 28 28t30 -28q13 -28 33 -86q20 -60 25 -74t5 -17z" />
    <glyph glyph-name="udieresis" unicode="&#xfc;" horiz-adv-x="505" 
d="M7 398v3q0 13 11 14q100 6 107 6t7 -12v-205q0 -66 16 -98q36 -72 108 -72q50 0 76 28t26 38v246q0 20 -9 24t-11 4t-10 2q-6 2 -10 2t-12 2t-18 3q-10 2 -11 16q0 14 14 16q64 2 84 3q19 1 27 1h12q15 0 15 -20v-313q0 -9 21 -17q21 -9 29 -13t8 -12t-2 -12
q-3 -6 -28 -12q-25 -5 -51 -19q-25 -15 -30 -15q-14 0 -14 20v23q0 4 -2 4q-2 1 -9 -5q-58 -45 -125 -46q-66 0 -108 38t-48 88q-6 49 -6 80l1 161q0 23 -42 33q-16 4 -16 16zM132 618q0 20 14 33q14 14 34 14q20 1 34 -13t14 -34t-14 -33q-14 -14 -34 -14q-20 -1 -34 13
t-14 34zM267 618q1 20 15 33q14 14 34 14q20 1 33 -13q14 -14 14 -34t-14 -33q-14 -14 -34 -14q-20 -1 -34 13t-14 34z" />
    <glyph glyph-name="yacute" unicode="&#xfd;" horiz-adv-x="468" 
d="M463 396q0 -20 -39 -20q-10 -2 -14 -8t-12 -31t-14 -38q-120 -312 -218 -460q-40 -62 -74 -62q-16 1 -28 11t-11 26q0 16 13 30q14 12 38 28t41 32t40 53q23 38 23 61q0 24 -80 182t-88 168q-7 10 -21 9q-15 0 -15 19t14 19l78 -3l79 3q13 0 13 -16v-7q0 -16 -26 -17
t-26 -9t25 -75q25 -66 84 -175q0 -6 5 -6t7 2t3 4q0 2 42 102q42 98 42 128t-20 30q-46 0 -47 20q0 20 19 19l78 -3h1l76 3q12 1 12 -19zM154 472q-19 0 -19 20q0 11 43 74t66 98q22 35 44 35q44 0 44 -37q0 -19 -24 -45q-130 -133 -138 -139t-16 -6z" />
    <glyph glyph-name="ydieresis" unicode="&#xff;" horiz-adv-x="468" 
d="M463 396q0 -20 -39 -20q-10 -2 -14 -8t-12 -31t-14 -38q-120 -312 -218 -460q-40 -62 -74 -62q-16 1 -28 11t-11 26q0 16 13 30q14 12 38 28t41 32t40 53q23 38 23 61q0 24 -80 182t-88 168q-7 10 -21 9q-15 0 -15 19t14 19l78 -3l79 3q13 0 13 -16v-7q0 -16 -26 -17
t-26 -9t25 -75q25 -66 84 -175q0 -6 5 -6t7 2t3 4q0 2 42 102q42 98 42 128t-20 30q-46 0 -47 20q0 20 19 19l78 -3h1l76 3q12 1 12 -19zM119 618q1 20 15 33q14 14 34 14q20 1 33 -13q14 -14 14 -34t-14 -33q-14 -14 -34 -14q-20 -1 -34 13t-14 34zM254 618q0 20 14 33
q14 14 34 14q20 1 34 -13t14 -34t-14 -33q-14 -14 -34 -14q-20 -1 -34 13t-14 34z" />
    <glyph glyph-name="Abreve" unicode="&#x102;" horiz-adv-x="821" 
d="M509 352q9 0 9 8t-38 97q-38 91 -46 103t-16 12t-18 -17q-102 -191 -102 -197t6 -6h205zM9 15q0 10 2 14q2 3 3 5t4 4q2 2 4 2q2 2 7 2t11 2t22 2q31 3 49 47q133 297 291 581q9 16 17 24q11 8 24 8q27 0 42 -38l144 -332q109 -265 111 -268q12 -20 42 -24t32 -14t3 -14
q0 -22 -20 -22l-17 2q-64 4 -98 4l-119 -6q-20 0 -20 17q0 11 2 15q3 4 3 6t4 4t6 2t8 2q6 1 31 4t25 19q0 17 -24 91t-51 136q-4 10 -18 10h-235q-16 0 -23 -12q-35 -63 -61 -131q-26 -69 -26 -79v-14t2 -6l4 -4l4 -4t6 -2q4 -2 6 -2t9 -2q11 -2 21 -2q34 -2 33 -25
q0 -23 -22 -23l-110 6l-108 -6q-20 0 -20 21zM443 803q29 0 57 17t45 34t23 17q6 1 14 -7t8 -14t-18 -32t-53 -52q-36 -28 -74 -28h-4q-37 0 -73 28t-54 52q-18 26 -17 32q-1 6 7 14t14 7q6 0 24 -17t44 -34q28 -17 57 -17z" />
    <glyph glyph-name="abreve" unicode="&#x103;" horiz-adv-x="423" 
d="M107 103q0 -68 64 -68q49 0 83 41q6 8 6 23v65q0 29 -12 29t-49 -4q-38 -4 -65 -28t-27 -58zM330 91q0 -44 34 -44q18 1 28 17t18 16t7 -18q0 -18 -21 -46t-45 -28q-23 0 -35 4q-18 6 -34 22l-10 10l-3 5l-1 1h-2q-2 0 -2 -2q-2 -2 -8 -7t-32 -23q-28 -18 -78 -18t-82 32
t-31 80v1q0 121 205 136l13 1q8 2 8 14v36q0 52 -24 80q-25 27 -58 27q-53 0 -86 -67q-9 -11 -23 -11t-26 10q-12 11 -13 33t47 52t87 30q59 0 103 -18q64 -26 64 -128v-197zM62 625q0 10 14 10q19 0 22 -15q3 -22 21 -45q27 -34 60 -34h1q47 0 81 61q13 23 15 28q2 4 16 4
q12 0 12 -6t-6 -29q-6 -21 -20 -51t-42 -52t-61 -23q-88 0 -113 149v3z" />
    <glyph glyph-name="Cacute" unicode="&#x106;" horiz-adv-x="700" 
d="M662 456q0 -17 -18 -17t-25 9q-6 9 -6 38q-13 84 -113 136q-52 28 -117 28q-108 0 -188 -82t-80 -216q0 -136 82 -230q83 -94 185 -95q102 0 175 54t100 143q3 13 17 13t14 -11q-22 -156 -26 -168t-21 -11h-29q-20 0 -30 -9q-11 -9 -17 -12q-87 -50 -171 -50
q-162 0 -268 103q-107 103 -107 255q0 151 109 257q109 105 257 105h1q96 0 169 -40q25 -14 30 -13t11 17t15 19l11 1q11 0 13 -12l7 -51q6 -51 13 -104t7 -57zM277 748q0 13 19 26l138 100q30 23 48 23q18 -1 31 -11q12 -10 12 -24t-9 -25t-14 -13q-191 -96 -208 -96
t-17 20z" />
    <glyph glyph-name="cacute" unicode="&#x107;" horiz-adv-x="381" 
d="M358 360q0 -44 -43 -44q-19 0 -53 30t-73 30q-38 0 -72 -46t-34 -112q0 -68 45 -120t107 -52q61 0 105 40q14 14 23 14q17 0 17 -17q0 -8 -16 -30q-16 -23 -60 -47q-42 -24 -95 -24q-85 0 -139 61t-53 159q0 98 59 162t155 64q53 0 90 -22t37 -46zM120 472q-19 0 -19 20
q0 11 43 74t66 98q22 35 44 35q44 0 44 -37q0 -19 -24 -45q-130 -133 -138 -139t-16 -6z" />
    <glyph glyph-name="Ccircumflex" unicode="&#x108;" horiz-adv-x="700" 
d="M662 456q0 -17 -18 -17t-25 9q-6 9 -6 38q-13 84 -113 136q-52 28 -117 28q-108 0 -188 -82t-80 -216q0 -136 82 -230q83 -94 185 -95q102 0 175 54t100 143q3 13 17 13t14 -11q-22 -156 -26 -168t-21 -11h-29q-20 0 -30 -9q-11 -9 -17 -12q-87 -50 -171 -50
q-162 0 -268 103q-107 103 -107 255q0 151 109 257q109 105 257 105h1q96 0 169 -40q25 -14 30 -13t11 17t15 19l11 1q11 0 13 -12l7 -51q6 -51 13 -104t7 -57zM493 728q-14 0 -26 11t-23 21q-10 10 -16 14l-12 10q-21 16 -32 16t-52 -36q-40 -36 -54 -36t-14 14q0 6 32 46
t52 66t36 25q16 0 35 -22q88 -102 88 -115q0 -14 -14 -14z" />
    <glyph glyph-name="ccircumflex" unicode="&#x109;" horiz-adv-x="381" 
d="M358 360q0 -44 -43 -44q-19 0 -53 30t-73 30q-38 0 -72 -46t-34 -112q0 -68 45 -120t107 -52q61 0 105 40q14 14 23 14q17 0 17 -17q0 -8 -16 -30q-16 -23 -60 -47q-42 -24 -95 -24q-85 0 -139 61t-53 159q0 98 59 162t155 64q53 0 90 -22t37 -46zM291 487q1 -16 -13 -16
q-14 -1 -24 17t-29 50q-18 32 -24 31q-7 -1 -13 -7t-19 -32q-15 -26 -25 -42q-10 -17 -23 -17t-13 15q0 6 24 78t38 100q12 28 28 28t30 -28q13 -28 33 -86q20 -60 25 -74t5 -17z" />
    <glyph glyph-name="Cdotaccent" unicode="&#x10a;" horiz-adv-x="700" 
d="M662 456q0 -17 -18 -17t-25 9q-6 9 -6 38q-13 84 -113 136q-52 28 -117 28q-108 0 -188 -82t-80 -216q0 -136 82 -230q83 -94 185 -95q102 0 175 54t100 143q3 13 17 13t14 -11q-22 -156 -26 -168t-21 -11h-29q-20 0 -30 -9q-11 -9 -17 -12q-87 -50 -171 -50
q-162 0 -268 103q-107 103 -107 255q0 151 109 257q109 105 257 105h1q96 0 169 -40q25 -14 30 -13t11 17t15 19l11 1q11 0 13 -12l7 -51q6 -51 13 -104t7 -57zM328 814q0 24 18 40t40 17q24 -1 41 -17t17 -39t-18 -39t-40 -17q-24 0 -41 16q-17 15 -17 39z" />
    <glyph glyph-name="cdotaccent" unicode="&#x10b;" horiz-adv-x="381" 
d="M358 360q0 -44 -43 -44q-19 0 -53 30t-73 30q-38 0 -72 -46t-34 -112q0 -68 45 -120t107 -52q61 0 105 40q14 14 23 14q17 0 17 -17q0 -8 -16 -30q-16 -23 -60 -47q-42 -24 -95 -24q-85 0 -139 61t-53 159q0 98 59 162t155 64q53 0 90 -22t37 -46zM160 528q0 24 18 40
t40 16q24 0 41 -16t17 -40t-18 -40t-40 -16q-24 0 -41 16t-17 40z" />
    <glyph glyph-name="Ccaron" unicode="&#x10c;" horiz-adv-x="700" 
d="M662 456q0 -17 -18 -17t-25 9q-6 9 -6 38q-13 84 -113 136q-52 28 -117 28q-108 0 -188 -82t-80 -216q0 -136 82 -230q83 -94 185 -95q102 0 175 54t100 143q3 13 17 13t14 -11q-22 -156 -26 -168t-21 -11h-29q-20 0 -30 -9q-11 -9 -17 -12q-87 -50 -171 -50
q-162 0 -268 103q-107 103 -107 255q0 151 109 257q109 105 257 105h1q96 0 169 -40q25 -14 30 -13t11 17t15 19l11 1q11 0 13 -12l7 -51q6 -51 13 -104t7 -57zM282 879q14 0 25 -10t19 -18t14 -12q5 -3 11 -9q5 -6 9 -8t8 -6q12 -9 23 -9t52 36t55 36t13 -11
q0 -11 -86 -116q-18 -24 -34 -24t-34 21q-89 104 -89 117t14 13z" />
    <glyph glyph-name="ccaron" unicode="&#x10d;" horiz-adv-x="381" 
d="M358 360q0 -44 -43 -44q-19 0 -53 30t-73 30q-38 0 -72 -46t-34 -112q0 -68 45 -120t107 -52q61 0 105 40q14 14 23 14q17 0 17 -17q0 -8 -16 -30q-16 -23 -60 -47q-42 -24 -95 -24q-85 0 -139 61t-53 159q0 98 59 162t155 64q53 0 90 -22t37 -46zM126 676q0 16 14 16
t22 -16q10 -16 20 -34t18 -30t9 -15q2 -3 10 -3t21 24q14 24 16 29t14 25q11 20 25 20t14 -15q0 -6 -25 -78t-37 -100q-13 -28 -29 -28q-16 -1 -29 27t-33 88t-25 74t-5 16z" />
    <glyph glyph-name="Dcaron" unicode="&#x10e;" horiz-adv-x="709" 
d="M111 88v506q0 24 -15 30t-67 7q-18 0 -18 22t22 22h182q196 0 283 -41q88 -41 142 -116q54 -74 55 -188q0 -114 -88 -208t-202 -116q-35 -6 -89 -6h-283q-23 0 -23 28q0 22 32 22l42 2q27 2 27 36zM300 48q119 0 207 72t88 196q1 166 -133 264q-72 52 -195 53
q-43 0 -55 -6t-12 -25v-509q0 -32 34 -38q34 -7 66 -7zM245 879q14 0 25 -10q12 -10 20 -18t13 -12q5 -3 11 -9t10 -8t7 -6q12 -9 23 -9t52 36q40 36 54 36t14 -11t-86 -116q-18 -24 -34 -24t-34 21q-89 104 -89 117t14 13z" />
    <glyph glyph-name="dcaron" unicode="&#x10f;" horiz-adv-x="734" 
d="M235 -21q-96 0 -157 66t-61 158t56 156t166 64h1q56 0 94 -11l14 -4q7 0 7 9v168q0 13 -6 17t-23 12t-19 8q-1 0 -5 2t-7 2q-19 5 -19 16q0 5 9 11q125 61 133 61t8 -14l-3 -324q0 -267 3 -294q0 -13 19 -13h7l21 -1q19 0 19 -14q0 -6 -5 -10t-23 -12t-34 -17t-32 -21
t-23 -16q-7 -6 -13 -6t-6 10v33q0 3 -2 3q-59 -39 -119 -39zM234 383q-70 -1 -110 -45t-40 -126t56 -131q56 -50 118 -50q30 0 59 12q29 11 33 27t5 27v224q0 14 -10 24q-41 38 -111 38zM619 721q30 1 56 -33t26 -87t-38 -90t-60 -37t-22 17q0 11 17 21q52 30 52 64t-38 38
t-49 20q-11 17 -11 36t18 35t49 16z" />
    <glyph glyph-name="Ebreve" unicode="&#x114;" horiz-adv-x="578" 
d="M371 427q38 0 38 33v31q-1 22 27 22t28 -29v-184q0 -29 -28 -29t-27 22v54q0 22 -26 22h-138q-49 0 -49 -40v-229q0 -34 32 -38q43 -7 126 -7t111 21q9 6 35 54t34 53q6 3 11 3t11 -6t6 -17v-1q0 -4 -16 -78t-24 -80q-6 -4 -21 -4h-344q-45 0 -83 -6t-46 -6q-7 0 -13 11
t-6 21t8 14q8 5 45 19q37 13 41 21t4 26v521q-1 11 -5 14t-18 5t-26 3q-22 2 -33 6t-11 20q0 22 19 22h460q17 0 22 -16q5 -19 17 -74t12 -65t-18 -9q-18 0 -31 18q-44 77 -51 85t-27 8h-188q-31 0 -31 -38v-151q0 -22 20 -22h153zM286 803q29 0 57 17t45 34q16 17 22 17
q6 1 14 -7t9 -14t-17 -32t-54 -52q-36 -28 -74 -28h-4q-38 0 -74 28t-52 52q-18 26 -18 32t8 14t13 7q5 0 23 -17t46 -34t56 -17z" />
    <glyph glyph-name="ebreve" unicode="&#x115;" horiz-adv-x="409" 
d="M290 312q0 10 -34 38q-34 26 -74 26t-67 -38q-26 -38 -26 -105q-1 -7 3 -7t95 36t97 38t6 12zM192 431q116 0 187 -96q8 -10 8 -22v-1q1 -17 -15 -25t-28 -13t-51 -18q-39 -12 -119 -39t-81 -35q0 -8 6 -28t20 -47q14 -29 46 -49t88 -20t107 49q14 14 23 14q16 0 16 -15
q0 -8 -7 -16q-69 -89 -169 -89t-151 65q-50 65 -50 163q0 99 54 161q52 62 116 61zM89 623q1 10 15 10q19 0 21 -15q3 -22 21 -45q27 -34 60 -34h1q47 0 81 61q14 23 16 28q2 4 14 4t13 -6q-1 -6 -7 -29q-6 -21 -20 -51t-40 -52q-28 -22 -62 -23q-88 0 -113 149v3z" />
    <glyph glyph-name="Edotaccent" unicode="&#x116;" horiz-adv-x="578" 
d="M371 427q38 0 38 33v31q-1 22 27 22t28 -29v-184q0 -29 -28 -29t-27 22v54q0 22 -26 22h-138q-49 0 -49 -40v-229q0 -34 32 -38q43 -7 126 -7t111 21q9 6 35 54t34 53q6 3 11 3t11 -6t6 -17v-1q0 -4 -16 -78t-24 -80q-6 -4 -21 -4h-344q-45 0 -83 -6t-46 -6q-7 0 -13 11
t-6 21t8 14q8 5 45 19q37 13 41 21t4 26v521q-1 11 -5 14t-18 5t-26 3q-22 2 -33 6t-11 20q0 22 19 22h460q17 0 22 -16q5 -19 17 -74t12 -65t-18 -9q-18 0 -31 18q-44 77 -51 85t-27 8h-188q-31 0 -31 -38v-151q0 -22 20 -22h153zM228 814q0 24 18 40t40 17q24 -1 41 -17
t17 -39t-18 -39t-40 -17q-24 0 -41 16q-17 15 -17 39z" />
    <glyph glyph-name="edotaccent" unicode="&#x117;" horiz-adv-x="409" 
d="M290 312q0 10 -34 38q-34 26 -74 26t-67 -38q-26 -38 -26 -105q-1 -7 3 -7t95 36t97 38t6 12zM192 431q116 0 187 -96q8 -10 8 -22v-1q1 -17 -15 -25t-28 -13t-51 -18q-39 -12 -119 -39t-81 -35q0 -8 6 -28t20 -47q14 -29 46 -49t88 -20t107 49q14 14 23 14q16 0 16 -15
q0 -8 -7 -16q-69 -89 -169 -89t-151 65q-50 65 -50 163q0 99 54 161q52 62 116 61zM133 528q-1 24 17 40t42 16t40 -16q17 -16 17 -40q1 -24 -17 -40t-42 -16t-40 16q-17 16 -17 40z" />
    <glyph glyph-name="Ecaron" unicode="&#x11a;" horiz-adv-x="578" 
d="M371 427q38 0 38 33v31q-1 22 27 22t28 -29v-184q0 -29 -28 -29t-27 22v54q0 22 -26 22h-138q-49 0 -49 -40v-229q0 -34 32 -38q43 -7 126 -7t111 21q9 6 35 54t34 53q6 3 11 3t11 -6t6 -17v-1q0 -4 -16 -78t-24 -80q-6 -4 -21 -4h-344q-45 0 -83 -6t-46 -6q-7 0 -13 11
t-6 21t8 14q8 5 45 19q37 13 41 21t4 26v521q-1 11 -5 14t-18 5t-26 3q-22 2 -33 6t-11 20q0 22 19 22h460q17 0 22 -16q5 -19 17 -74t12 -65t-18 -9q-18 0 -31 18q-44 77 -51 85t-27 8h-188q-31 0 -31 -38v-151q0 -22 20 -22h153zM178 879q14 0 25 -10t19 -18t14 -12
q5 -3 11 -9q5 -6 9 -8t8 -6q12 -9 23 -9t52 36t55 36t13 -14q-1 -7 -33 -47t-52 -64q-20 -26 -35 -26q-16 0 -34 21q-89 104 -89 117t14 13z" />
    <glyph glyph-name="ecaron" unicode="&#x11b;" horiz-adv-x="409" 
d="M290 312q0 10 -34 38q-34 26 -74 26t-67 -38q-26 -38 -26 -105q-1 -7 3 -7t95 36t97 38t6 12zM192 431q116 0 187 -96q8 -10 8 -22v-1q1 -17 -15 -25t-28 -13t-51 -18q-39 -12 -119 -39t-81 -35q0 -8 6 -28t20 -47q14 -29 46 -49t88 -20t107 49q14 14 23 14q16 0 16 -15
q0 -8 -7 -16q-69 -89 -169 -89t-151 65q-50 65 -50 163q0 99 54 161q52 62 116 61zM116 676q0 16 14 16t22 -16q10 -16 20 -34t18 -30t9 -15q2 -3 10 -3t25 32q18 32 28 48q10 18 24 18q13 0 13 -15q0 -6 -25 -78t-37 -100q-13 -28 -29 -28q-16 -1 -29 27t-33 88t-25 74
t-5 16z" />
    <glyph glyph-name="Gcircumflex" unicode="&#x11c;" horiz-adv-x="691" 
d="M683 287q0 -19 -25 -28t-27 -16t-2 -14v-169q0 -20 -14 -20q-6 0 -16 10t-15 11q-5 0 -13 -8q-87 -77 -217 -77t-234 111t-104 264t98 254t238 101q79 0 122 -22t61 -32t20 -11h4q11 0 26 19t19 21t11 2q14 0 14 -14v-27q-1 -88 5 -134q6 -47 6 -51q0 -16 -20 -16
q-20 1 -24 7t-6 28t-36 70q-35 48 -93 80q-57 32 -109 32q-96 0 -166 -68t-70 -223q0 -209 124 -295q63 -43 129 -43q65 -1 115 23t55 36q6 12 6 23v113q1 20 -11 25t-36 7t-31 3t-16 1q-28 2 -28 24t22 22l103 -4h2l107 4q26 0 26 -19zM457 728q-14 0 -26 11t-23 21
q-10 10 -16 14l-12 10q-21 16 -32 16t-52 -36q-40 -36 -54 -36t-14 14q0 6 32 46t52 66t36 25q16 0 35 -22q88 -102 88 -115q0 -14 -14 -14z" />
    <glyph glyph-name="gcircumflex" unicode="&#x11d;" horiz-adv-x="440" 
d="M95 70q0 -26 42 -35q43 -9 109 -11t102 -12t60 -42q23 -31 23 -75q-1 -45 -49 -87t-168 -42t-165 62q-22 30 -22 52q-1 22 1 31t5 17t7 14t8 11t9 9q9 10 16 15q8 3 8 5q1 2 -9 8q-28 17 -28 59t56 87q2 2 2 5t-20 14t-40 46t-20 87t46 99q46 46 102 46t96 -18t44 -18
q30 -1 48 27t32 28t27 -13q12 -13 12 -29q-1 -30 -51 -50q-26 -10 -25 -14q-1 -5 5 -23t6 -43q0 -70 -48 -119t-118 -49l-58 9q-14 1 -30 -17t-15 -34zM246 -187q128 -1 127 79q0 54 -87 66q-27 4 -77 6t-87 6h-3q-6 0 -21 -15t-15 -51q1 -36 47 -64t116 -27zM191 399
q-43 -1 -67 -31t-24 -84t29 -95q29 -42 71 -42t68 32q24 32 24 83t-30 94t-71 43zM286 495q0 -16 -14 -16q-14 -1 -24 17t-28 50t-24 31t-12 -7t-20 -32t-24 -42q-10 -17 -24 -17q-13 0 -13 15q1 6 25 78t36 100t30 28q16 0 29 -28t33 -86q20 -60 25 -74t5 -17z" />
    <glyph glyph-name="Gbreve" unicode="&#x11e;" horiz-adv-x="691" 
d="M683 287q0 -19 -25 -28t-27 -16t-2 -14v-169q0 -20 -14 -20q-6 0 -16 10t-15 11q-5 0 -13 -8q-87 -77 -217 -77t-234 111t-104 264t98 254t238 101q79 0 122 -22t61 -32t20 -11h4q11 0 26 19t19 21t11 2q14 0 14 -14v-27q-1 -88 5 -134q6 -47 6 -51q0 -16 -20 -16
q-20 1 -24 7t-6 28t-36 70q-35 48 -93 80q-57 32 -109 32q-96 0 -166 -68t-70 -223q0 -209 124 -295q63 -43 129 -43q65 -1 115 23t55 36q6 12 6 23v113q1 20 -11 25t-36 7t-31 3t-16 1q-28 2 -28 24t22 22l103 -4h2l107 4q26 0 26 -19zM350 803q29 0 57 17t45 34
q16 17 22 17q6 1 14 -7t9 -14t-17 -32t-54 -52q-36 -28 -74 -28h-4q-38 0 -74 28t-52 52q-18 26 -18 32t8 14t13 7q5 0 23 -17t46 -34t56 -17z" />
    <glyph glyph-name="gbreve" unicode="&#x11f;" horiz-adv-x="440" 
d="M95 70q0 -26 42 -35q43 -9 109 -11t102 -12t60 -42q23 -31 23 -75q-1 -45 -49 -87t-168 -42t-165 62q-22 30 -22 52q-1 22 1 31t5 17t7 14t8 11t9 9q9 10 16 15q8 3 8 5q1 2 -9 8q-28 17 -28 59t56 87q2 2 2 5t-20 14t-40 46t-20 87t46 99q46 46 102 46t96 -18t44 -18
q30 -1 48 27t32 28t27 -13q12 -13 12 -29q-1 -30 -51 -50q-26 -10 -25 -14q-1 -5 5 -23t6 -43q0 -70 -48 -119t-118 -49l-58 9q-14 1 -30 -17t-15 -34zM246 -187q128 -1 127 79q0 54 -87 66q-27 4 -77 6t-87 6h-3q-6 0 -21 -15t-15 -51q1 -36 47 -64t116 -27zM191 399
q-43 -1 -67 -31t-24 -84t29 -95q29 -42 71 -42t68 32q24 32 24 83t-30 94t-71 43zM105 631q1 10 15 10q19 0 21 -15q3 -22 21 -45q27 -34 60 -34h1q47 0 81 61q14 23 16 28q2 4 14 4t13 -6q-1 -6 -7 -29q-6 -21 -20 -51t-40 -52q-28 -22 -62 -23q-88 0 -113 149v3z" />
    <glyph glyph-name="Gdotaccent" unicode="&#x120;" horiz-adv-x="691" 
d="M683 287q0 -19 -25 -28t-27 -16t-2 -14v-169q0 -20 -14 -20q-6 0 -16 10t-15 11q-5 0 -13 -8q-87 -77 -217 -77t-234 111t-104 264t98 254t238 101q79 0 122 -22t61 -32t20 -11h4q11 0 26 19t19 21t11 2q14 0 14 -14v-27q-1 -88 5 -134q6 -47 6 -51q0 -16 -20 -16
q-20 1 -24 7t-6 28t-36 70q-35 48 -93 80q-57 32 -109 32q-96 0 -166 -68t-70 -223q0 -209 124 -295q63 -43 129 -43q65 -1 115 23t55 36q6 12 6 23v113q1 20 -11 25t-36 7t-31 3t-16 1q-28 2 -28 24t22 22l103 -4h2l107 4q26 0 26 -19zM297 814q-1 24 17 40t42 17
q24 -1 40 -17q17 -16 17 -39q1 -23 -17 -39t-42 -17q-24 0 -40 16q-17 15 -17 39z" />
    <glyph glyph-name="gdotaccent" unicode="&#x121;" horiz-adv-x="440" 
d="M95 70q0 -26 42 -35q43 -9 109 -11t102 -12t60 -42q23 -31 23 -75q-1 -45 -49 -87t-168 -42t-165 62q-22 30 -22 52q-1 22 1 31t5 17t7 14t8 11t9 9q9 10 16 15q8 3 8 5q1 2 -9 8q-28 17 -28 59t56 87q2 2 2 5t-20 14t-40 46t-20 87t46 99q46 46 102 46t96 -18t44 -18
q30 -1 48 27t32 28t27 -13q12 -13 12 -29q-1 -30 -51 -50q-26 -10 -25 -14q-1 -5 5 -23t6 -43q0 -70 -48 -119t-118 -49l-58 9q-14 1 -30 -17t-15 -34zM246 -187q128 -1 127 79q0 54 -87 66q-27 4 -77 6t-87 6h-3q-6 0 -21 -15t-15 -51q1 -36 47 -64t116 -27zM191 399
q-43 -1 -67 -31t-24 -84t29 -95q29 -42 71 -42t68 32q24 32 24 83t-30 94t-71 43zM168 534q0 24 18 40t40 17q24 -1 41 -17t17 -39t-18 -39t-40 -17q-24 0 -41 16q-17 15 -17 39z" />
    <glyph glyph-name="Gcommaaccent" unicode="&#x122;" horiz-adv-x="691" 
d="M683 287q0 -19 -25 -28t-27 -16t-2 -14v-169q0 -20 -14 -20q-6 0 -16 10t-15 11q-5 0 -13 -8q-87 -77 -217 -77t-234 111t-104 264t98 254t238 101q79 0 122 -22t61 -32t20 -11h4q11 0 26 19t19 21t11 2q14 0 14 -14v-27q-1 -88 5 -134q6 -47 6 -51q0 -16 -20 -16
q-20 1 -24 7t-6 28t-36 70q-35 48 -93 80q-57 32 -109 32q-96 0 -166 -68t-70 -223q0 -209 124 -295q63 -43 129 -43q65 -1 115 23t55 36q6 12 6 23v113q1 20 -11 25t-36 7t-31 3t-16 1q-28 2 -28 24t22 22l103 -4h2l107 4q26 0 26 -19zM342 -64q30 0 56 -34t26 -86
q0 -53 -38 -90t-60 -37t-22 17q0 11 17 21q52 30 52 64t-38 38t-49 20q-11 17 -11 36q1 19 19 35t48 16z" />
    <glyph glyph-name="Hcircumflex" unicode="&#x124;" horiz-adv-x="762" 
d="M198 606v-165q0 -14 13 -14h338q17 0 17 18v148q0 36 -21 43q-10 4 -40 5q-31 2 -31 24t24 22l103 -2l131 4q19 0 19 -20q-1 -25 -35 -29q-6 0 -16 -2t-18 -2q-27 -3 -27 -29v-530q0 -30 28 -32q62 1 62 -25t-20 -26l-122 6l-121 -6q-16 0 -16 22t16 24q4 0 10 2h11t15 2
q10 0 24 1q24 2 25 38v271q0 11 -13 11h-341q-15 0 -15 -17v-271q0 -29 48 -33q49 0 49 -22q0 -28 -16 -28l-121 6l-123 -6q-20 0 -20 20t9 24t30 4q39 2 47 9t8 25v529q0 15 -4 19l-6 6q-6 8 -36 10q-29 1 -39 3t-10 17q0 27 23 27l117 -2h3l120 2q17 0 20 -30
q0 -17 -33 -19t-43 -2q-23 -1 -23 -30zM490 728q-14 0 -26 11t-23 21t-17 14l-12 10q-21 16 -31 16q-11 0 -52 -36t-55 -36t-13 11q0 11 86 116q18 24 34 24t35 -22q88 -102 88 -115q0 -14 -14 -14z" />
    <glyph glyph-name="hcircumflex" unicode="&#x125;" horiz-adv-x="514" 
d="M293 8v7q-1 13 5 15q8 2 22 4l13 2q9 0 21 2t14 15t2 91q0 138 -48 191q-36 36 -74 36t-66 -18q-29 -18 -29 -44q1 -241 3 -251q6 -23 40 -22q34 0 34 -21t-11 -21l-92 6l-94 -6q-12 0 -12 15t5 19t21 6l11 2q20 4 22 20q6 58 7 289v4q0 221 -4 245q-3 12 -37 20t-34 21
q0 12 16 20q110 64 115 64h1q15 0 15 -19l-1 -308q0 -7 3 -7q3 1 33 19t87 18q135 0 155 -174q6 -46 6 -119q2 -73 4 -79t9 -10t25 -6t18 -21t-13 -19l-91 6l-90 -6q-11 0 -11 14zM262 728q-14 0 -26 11t-23 21t-17 14l-12 10q-21 16 -31 16q-11 0 -52 -36t-55 -36t-13 14
q1 6 33 46t52 66t35 25q16 0 35 -22q88 -102 88 -115q0 -14 -14 -14z" />
    <glyph glyph-name="Itilde" unicode="&#x128;" horiz-adv-x="323" 
d="M30 656q0 24 22 24l16 -1q68 -4 99 -4l104 4q17 0 17 -20t-8 -23q-8 -2 -10 -3t-9 -1q-6 0 -10 -2h-12t-14 -2q-16 -1 -16 -17v-540q0 -23 14 -25q23 -2 53 -2t30 -21q0 -29 -20 -29l-127 6l-128 -6q-18 0 -18 22q1 22 9 25t42 5l33 2q21 1 21 28v520l1 14q0 13 -11 17
t-55 4q-23 1 -23 25zM213 789q21 -1 38 11t27 24t14 11q4 0 12 -4q8 -3 7 -9q1 -6 -19 -29q-49 -58 -86 -58q-36 1 -66 23t-50 22q-19 0 -35 -13q-17 -13 -25 -26t-10 -13t-8 6q-5 6 -5 8q-1 4 17 30t34 44q16 16 42 16q24 0 58 -22t55 -21z" />
    <glyph glyph-name="itilde" unicode="&#x129;" horiz-adv-x="243" 
d="M18 10q0 16 6 20q6 3 33 7q27 5 32 13t5 24v142l1 98q-1 10 -7 14t-29 14t-33 14t-11 10t1 8q2 3 6 5q4 1 6 3t7 4t60 28t57 27h1q14 0 14 -16l-1 -32q-5 -80 -5 -195v-33q0 -91 3 -109t31 -21q28 -2 31 -8q3 -5 3 -19t-12 -14l-92 6l-92 -6q-15 0 -15 16zM166 622
q22 0 38 12q17 12 27 22q10 12 14 12q3 0 11 -4t8 -10t-20 -28q-49 -58 -85 -58q-37 0 -67 22t-49 23q-19 0 -35 -13t-24 -26t-12 -13q-2 -1 -7 5t-5 10t18 30t34 42t40 17t58 -21t56 -22z" />
    <glyph glyph-name="Ibreve" unicode="&#x12c;" horiz-adv-x="323" 
d="M30 656q0 24 22 24l16 -1q68 -4 99 -4l104 4q17 0 17 -20t-8 -23q-8 -2 -10 -3t-9 -1q-6 0 -10 -2h-12t-14 -2q-16 -1 -16 -17v-540q0 -23 14 -25q23 -2 53 -2t30 -21q0 -29 -20 -29l-127 6l-128 -6q-18 0 -18 22q1 22 9 25t42 5l33 2q21 1 21 28v520l1 14q0 13 -11 17
t-55 4q-23 1 -23 25zM159 803q29 0 57 17t45 34t23 17q6 1 14 -7t8 -14t-18 -32t-53 -52q-36 -28 -74 -28h-4q-37 0 -73 28t-54 52q-18 26 -17 32q-1 6 7 14t14 7q6 0 24 -17t44 -34q28 -17 57 -17z" />
    <glyph glyph-name="ibreve" unicode="&#x12d;" horiz-adv-x="243" 
d="M18 10q0 16 6 20q6 3 33 7q27 5 32 13t5 24v142l1 98q-1 10 -7 14t-29 14t-33 14t-11 10t1 8q2 3 6 5q4 1 6 3t7 4t60 28t57 27h1q14 0 14 -16l-1 -32q-5 -80 -5 -195v-33q0 -91 3 -109t31 -21q28 -2 31 -8q3 -5 3 -19t-12 -14l-92 6l-92 -6q-15 0 -15 16zM1 632
q1 10 15 10q19 0 21 -15q3 -22 21 -45q27 -34 60 -34h1q47 0 81 61q14 23 16 28q2 4 14 4q12 -1 13 -7q-1 -6 -7 -28t-20 -52t-40 -52q-28 -22 -62 -22q-88 0 -113 149v3z" />
    <glyph glyph-name="Idotaccent" unicode="&#x130;" horiz-adv-x="323" 
d="M30 656q0 24 22 24l16 -1q68 -4 99 -4l104 4q17 0 17 -20t-8 -23q-8 -2 -10 -3t-9 -1q-6 0 -10 -2h-12t-14 -2q-16 -1 -16 -17v-540q0 -23 14 -25q23 -2 53 -2t30 -21q0 -29 -20 -29l-127 6l-128 -6q-18 0 -18 22q1 22 9 25t42 5l33 2q21 1 21 28v520l1 14q0 13 -11 17
t-55 4q-23 1 -23 25zM101 814q-1 24 17 40t42 17q24 -1 40 -17q17 -16 17 -39q1 -23 -17 -39t-42 -17q-24 0 -40 16q-17 15 -17 39z" />
    <glyph glyph-name="dotlessi" unicode="&#x131;" horiz-adv-x="243" 
d="M18 10q0 16 6 20q6 3 33 7q27 5 32 13t5 24v142l1 98q-1 10 -7 14t-29 14t-33 14t-11 10t1 8q2 3 6 5q4 1 6 3t7 4t60 28t57 27h1q14 0 14 -16l-1 -32q-5 -80 -5 -195v-33q0 -91 3 -109t31 -21q28 -2 31 -8q3 -5 3 -19t-12 -14l-92 6l-92 -6q-15 0 -15 16z" />
    <glyph glyph-name="IJ" unicode="&#x132;" horiz-adv-x="639" 
d="M30 656q0 24 22 24l16 -1q68 -4 99 -4l104 4q17 0 17 -20t-8 -23q-8 -2 -10 -3t-9 -1q-6 0 -10 -2h-12t-14 -2q-16 -1 -16 -17v-540q0 -23 14 -25q23 -2 53 -2t30 -21q0 -29 -20 -29l-127 6l-128 -6q-18 0 -18 22q1 22 9 25t42 5l33 2q21 1 21 28v520l1 14q0 13 -11 17
t-55 4q-23 1 -23 25zM241 -139q-1 53 47 53q22 0 48 -33q25 -33 46 -33q34 0 50 61q9 32 9 65v621q1 20 -7 24q-8 3 -12 5q-7 2 -29 5q-23 2 -33 3q-22 2 -22 25t22 23l124 -5h4l117 4q17 0 17 -20q0 -29 -30 -29q-10 0 -34 -3q-26 -2 -26 -34v-537q0 -135 -114 -224
q-56 -44 -93 -44q-38 0 -61 24t-23 49z" />
    <glyph glyph-name="ij" unicode="&#x133;" horiz-adv-x="475" 
d="M18 10q0 16 6 20q6 3 33 7q27 5 32 13t5 24v142l1 98q-1 10 -7 14t-29 14t-33 14t-11 10t1 8q2 3 6 5q4 1 6 3t7 4t60 28t57 27h1q14 0 14 -16l-1 -32q-5 -80 -5 -195v-33q0 -91 3 -109t31 -21q28 -2 31 -8q3 -5 3 -19t-12 -14l-92 6l-92 -6q-15 0 -15 16zM104 618
q0 20 14 33q14 14 34 14q20 1 34 -13t14 -34t-14 -33q-14 -14 -35 -14q-19 -1 -33 13t-14 34zM347 604q0 20 14 34t34 13q20 1 34 -13t14 -33q-1 -19 -15 -33t-34 -14t-34 14q-14 12 -13 32zM270 380q0 6 9 12q9 4 37 16t34 15t18 7t18 8q8 4 11 4q10 0 10 -16l-2 -191
l4 -300q0 -55 -101 -137q-36 -30 -58 -29q-44 0 -43 34q0 15 12 29t32 14l30 -3q29 -1 43 23t14 42v42l-1 152l2 212l-1 11q0 8 -8 13q-8 4 -14 8t-10 6l-12 8q-8 6 -16 10t-8 10z" />
    <glyph glyph-name="Jcircumflex" unicode="&#x134;" horiz-adv-x="316" 
d="M-82 -139q0 53 48 53q22 0 47 -33t46 -33q34 0 50 61q9 32 9 65v621q0 20 -8 24q-8 3 -11 5q-7 2 -29 5q-23 2 -33 3q-22 2 -22 25t22 23l124 -5h4l117 4q17 0 17 -20q-1 -29 -31 -29q-10 0 -33 -3q-26 -2 -26 -34v-537q1 -135 -113 -224q-56 -44 -94 -44t-61 24t-23 49z
M264 728q-14 0 -26 11t-23 21t-17 14l-12 10q-21 16 -31 16q-11 0 -52 -36t-55 -36t-13 14q1 6 33 46t52 66t35 25q16 0 35 -22q88 -102 88 -115q0 -14 -14 -14z" />
    <glyph glyph-name="jcircumflex" unicode="&#x135;" horiz-adv-x="232" 
d="M27 380q0 6 9 12q8 4 36 16t34 15t18 7t20 8t10 4q10 0 10 -16l-2 -191l4 -300q0 -55 -101 -137q-35 -30 -57 -29q-44 0 -44 34q0 15 12 29t32 14l30 -3q29 -1 43 23t14 56l-1 92v88l2 212l-1 11q-1 8 -9 13q-8 4 -14 8l-9 6l-12 8q-8 6 -16 10t-8 10zM204 498
q0 -16 -14 -16t-24 18t-28 48q-18 32 -24 32t-12 -6t-20 -32t-24 -43t-24 -17q-13 0 -13 15q1 5 25 77t36 100t30 29q16 1 29 -27t33 -88t25 -74t5 -16z" />
    <glyph glyph-name="Kcommaaccent" unicode="&#x136;" horiz-adv-x="654" 
d="M540 -1q-12 1 -20 1h-11q-19 3 -25 11q-4 7 -128 149t-131 148t-12 7h-1q-14 0 -14 -20v-211q0 -28 16 -32q5 -2 8 -3q2 -1 10 -1t12 -2h16q40 -2 40 -24q0 -28 -20 -28l-125 6l-124 -6q-17 0 -17 23q0 30 42 27t52 21q3 7 3 28v497q0 7 -1 13q-2 7 -2 11t-2 7t-4 5t-7 5
q-5 2 -7 3t-10 2q-8 0 -16 2q-9 2 -22 2q-28 2 -28 25t29 23l110 -4h1l110 4q15 0 22 -8t7 -18q-1 -21 -35 -21q-34 1 -46 -5t-11 -32v-217q0 -17 13 -17q7 0 26 21q178 199 184 207t6 19q0 27 -33 27t-33 22t23 21l105 -2h6l100 2q28 0 28 -20t-38 -26t-50 -11t-23 -13
t-17 -14t-18 -19l-36 -39t-91 -98t-67 -79t8 -15q270 -287 274 -289t14 -9t32 -11t29 -11t7 -15t-8 -16t-21 -7l-47 4h-32zM322 -46q30 0 56 -34t26 -86q0 -53 -38 -90t-60 -37t-22 17q0 11 17 21q52 30 52 64t-38 38t-49 20q-11 17 -11 36q1 19 19 35t48 16z" />
    <glyph glyph-name="kcommaaccent" unicode="&#x137;" horiz-adv-x="454" 
d="M224 11v1q0 23 24 23t23 18q0 19 -50 81q-49 62 -51 64t-6 3q-4 0 -16 -14t-13 -26v-103q0 -14 7 -17q8 -3 34 -7t26 -22q0 -16 -14 -16l-77 4l-78 -4q-17 0 -17 18t24 20q24 4 27 22v539q0 16 -12 24q-45 31 -46 32l-4 8q0 10 20 17q95 42 103 42t7 -17v-472q-1 -4 3 -4
q4 -1 12 9t24 25t23 23q8 8 17 18t13 14q16 18 16 33q0 17 -13 27t-13 15v10q0 13 21 13h58l110 3q15 1 15 -15t-5 -20t-23 -5q-42 -5 -72 -26t-70 -62t-40 -44q-1 -3 41 -52t67 -79t47 -53q22 -22 63 -27q16 -2 16 -20t-16 -18l-96 6l-96 -6q-13 0 -13 17zM217 -46
q30 0 56 -34t26 -86q0 -53 -38 -90t-60 -37t-22 17q0 11 17 21q52 30 52 64t-38 38t-49 20q-11 17 -11 36t18 35t49 16z" />
    <glyph glyph-name="Lacute" unicode="&#x139;" horiz-adv-x="563" 
d="M289 653q0 -25 -22 -25l-38 -1h-13q-28 0 -30 -18q0 -4 -1 -10v-507q0 -32 26 -32h194q37 0 55 27q5 8 22 45q18 36 22 42t13 6q30 0 30 -23l-11 -77t-13 -78t-23 -8l-59 2q-236 4 -358 4h-53q-16 0 -16 17t55 28q23 6 23 32v528q0 17 -7 20q-10 4 -23 4t-32 1
q-19 0 -19 24t19 24l114 -3h7l121 3q17 0 17 -25zM155 748q0 13 19 26l138 100q30 23 48 23q18 -1 31 -11q12 -10 12 -24t-9 -25t-14 -13q-191 -96 -208 -96t-17 20z" />
    <glyph glyph-name="lacute" unicode="&#x13a;" horiz-adv-x="239" 
d="M18 13v3q0 13 6 16q6 4 30 6t28 11q5 9 5 27v509q0 12 -10 18q-10 5 -15 8q-6 3 -14 8t-12 7t-10 6q-4 2 -6 4q-8 5 -9 13v1q0 9 43 29t64 32q22 12 28 12q14 0 14 -19v-633q0 -21 6 -25l8 -4q2 0 6 -2q8 -2 19 -4q29 -4 29 -23t-12 -19l-94 6l-90 -5q-14 0 -14 18z
M40 733q-19 0 -19 20q0 11 43 74t66 98q22 35 44 35q44 0 44 -37q0 -19 -24 -45q-130 -133 -138 -139t-16 -6z" />
    <glyph glyph-name="Lcommaaccent" unicode="&#x13b;" horiz-adv-x="563" 
d="M289 653q0 -25 -22 -25l-38 -1h-13q-28 0 -30 -18q0 -4 -1 -10v-507q0 -32 26 -32h194q37 0 55 27q5 8 22 45q18 36 22 42t13 6q30 0 30 -23l-11 -77t-13 -78t-23 -8l-59 2q-236 4 -358 4h-53q-16 0 -16 17t55 28q23 6 23 32v528q0 17 -7 20q-10 4 -23 4t-32 1
q-19 0 -19 24t19 24l114 -3h7l121 3q17 0 17 -25zM271 -46q30 0 56 -34t26 -86q0 -53 -38 -90t-60 -37t-22 17q0 11 17 21q52 30 52 64t-38 38t-49 20q-11 17 -11 36t18 35t49 16z" />
    <glyph glyph-name="lcommaaccent" unicode="&#x13c;" horiz-adv-x="239" 
d="M18 13v3q0 13 6 16q6 4 30 6t28 11q5 9 5 27v509q0 12 -10 18q-10 5 -15 8q-6 3 -14 8t-12 7t-10 6q-4 2 -6 4q-8 5 -9 13v1q0 9 43 29t64 32q22 12 28 12q14 0 14 -19v-633q0 -21 6 -25l8 -4q2 0 6 -2q8 -2 19 -4q29 -4 29 -23t-12 -19l-94 6l-90 -5q-14 0 -14 18z
M112 -46q30 0 56 -34t26 -86q0 -53 -38 -90t-60 -37t-22 17q0 11 17 21q52 30 52 64t-38 38t-49 20q-11 17 -11 36q1 19 19 35t48 16z" />
    <glyph glyph-name="Lcaron" unicode="&#x13d;" horiz-adv-x="563" 
d="M289 653q0 -25 -22 -25l-38 -1h-13q-28 0 -30 -18q0 -4 -1 -10v-507q0 -32 26 -32h194q37 0 55 27q5 8 22 45q18 36 22 42t13 6q30 0 30 -23l-11 -77t-13 -78t-23 -8l-59 2q-236 4 -358 4h-53q-16 0 -16 17t55 28q23 6 23 32v528q0 17 -7 20q-10 4 -23 4t-32 1
q-19 0 -19 24t19 24l114 -3h7l121 3q17 0 17 -25zM473 718q30 0 56 -34t26 -86q0 -53 -38 -90t-60 -37t-22 17q0 11 17 21q52 30 52 64t-38 38t-49 20q-11 17 -11 36t18 35t49 16z" />
    <glyph glyph-name="lcaron" unicode="&#x13e;" horiz-adv-x="415" 
d="M18 13v3q0 13 6 16q6 4 30 6t28 11q5 9 5 27v509q0 12 -10 18q-10 5 -15 8q-6 3 -14 8t-12 7t-10 6q-4 2 -6 4q-8 5 -9 13v1q0 9 43 29t64 32q22 12 28 12q14 0 14 -19v-633q0 -21 6 -25l8 -4q2 0 6 -2q8 -2 19 -4q29 -4 29 -23t-12 -19l-94 6l-90 -5q-14 0 -14 18z
M310 723q30 1 56 -33t26 -87t-38 -90t-60 -37t-22 17q0 11 17 21q52 30 52 64t-38 38t-49 20q-11 17 -11 36q1 19 19 35t48 16z" />
    <glyph glyph-name="Nacute" unicode="&#x143;" horiz-adv-x="799" 
d="M791 658q1 -29 -45 -24q-18 2 -32 -12t-14 -46q-4 -180 -4 -271l4 -281q0 -47 -20 -47q-12 0 -49 42l-207 236q-219 244 -222 244l-4 -4q-13 -190 -13 -355v-29q0 -39 7 -51q6 -12 40 -13t59 -8q13 -7 13 -26t-17 -19l-122 6q-37 0 -105 -4l-18 -2q-21 0 -21 20
q1 20 11 24t44 6t42 23q9 20 18 206t13 269v4q0 14 -36 48t-86 39q-18 0 -18 24t22 24h123q24 0 40 -19l248 -284q184 -198 189 -202t11 -4t5 134q0 134 -9 281q-1 29 -14 37t-43 12t-30 21q0 24 29 24l96 -3l94 3q21 0 21 -23zM312 748q0 13 19 26l138 100q31 23 49 23
q18 -1 30 -11t12 -24t-9 -25t-14 -13q-191 -96 -208 -96t-17 20z" />
    <glyph glyph-name="nacute" unicode="&#x144;" horiz-adv-x="499" 
d="M427 63q0 -28 31 -28q31 -1 31 -21t-15 -20l-84 6q-48 0 -78 -6h-4q-14 0 -14 17t14 19q2 0 6 2q4 1 11 2q5 1 21 3t16 24v155q0 75 -13 108q-25 60 -107 60q-32 0 -62 -24t-32 -34q-2 -11 -3 -20v-240q0 -25 22 -28q12 -2 20 -3t13 -2t7 -2t5 -2q9 -3 9 -19t-13 -17
l-93 7q-27 0 -75 -4l-13 -2q-16 0 -16 16t6 19t28 7q23 4 27 10q4 8 4 24v239q0 18 -5 24t-40 32q-6 6 -6 10v1q1 7 51 34t54 27q12 0 12 -15v-42l-1 -3q0 -4 3 -4h1q1 0 7 6q58 54 130 54h2q42 1 74 -19q70 -42 70 -176v-19l-1 -154v-2zM171 477q-19 0 -19 20q0 11 43 74
t66 98t45 35q44 0 43 -37q0 -19 -24 -45q-130 -133 -138 -139t-16 -6z" />
    <glyph glyph-name="Ncommaaccent" unicode="&#x145;" horiz-adv-x="799" 
d="M791 658q1 -29 -45 -24q-18 2 -32 -12t-14 -46q-4 -180 -4 -271l4 -281q0 -47 -20 -47q-12 0 -49 42l-207 236q-219 244 -222 244l-4 -4q-13 -190 -13 -355v-29q0 -39 7 -51q6 -12 40 -13t59 -8q13 -7 13 -26t-17 -19l-122 6q-37 0 -105 -4l-18 -2q-21 0 -21 20
q1 20 11 24t44 6t42 23q9 20 18 206t13 269v4q0 14 -36 48t-86 39q-18 0 -18 24t22 24h123q24 0 40 -19l248 -284q184 -198 189 -202t11 -4t5 134q0 134 -9 281q-1 29 -14 37t-43 12t-30 21q0 24 29 24l96 -3l94 3q21 0 21 -23zM392 -62q30 0 56 -34t26 -86q0 -53 -38 -90
t-60 -37t-22 17q0 11 17 21q52 30 52 64t-38 38t-49 20q-11 17 -11 36q1 19 19 35t48 16z" />
    <glyph glyph-name="ncommaaccent" unicode="&#x146;" horiz-adv-x="499" 
d="M427 63q0 -28 31 -28q31 -1 31 -21t-15 -20l-84 6q-48 0 -78 -6h-4q-14 0 -14 17t14 19q2 0 6 2q4 1 11 2q5 1 21 3t16 24v155q0 75 -13 108q-25 60 -107 60q-32 0 -62 -24t-32 -34q-2 -11 -3 -20v-240q0 -25 22 -28q12 -2 20 -3t13 -2t7 -2t5 -2q9 -3 9 -19t-13 -17
l-93 7q-27 0 -75 -4l-13 -2q-16 0 -16 16t6 19t28 7q23 4 27 10q4 8 4 24v239q0 18 -5 24t-40 32q-6 6 -6 10v1q1 7 51 34t54 27q12 0 12 -15v-42l-1 -3q0 -4 3 -4h1q1 0 7 6q58 54 130 54h2q42 1 74 -19q70 -42 70 -176v-19l-1 -154v-2zM243 -47q30 1 56 -33t26 -87
t-38 -90t-60 -37t-22 17q0 11 17 21q52 30 52 64t-38 38t-49 20q-11 17 -11 36t18 35t49 16z" />
    <glyph glyph-name="Ncaron" unicode="&#x147;" horiz-adv-x="799" 
d="M791 658q1 -29 -45 -24q-18 2 -32 -12t-14 -46q-4 -180 -4 -271l4 -281q0 -47 -20 -47q-12 0 -49 42l-207 236q-219 244 -222 244l-4 -4q-13 -190 -13 -355v-29q0 -39 7 -51q6 -12 40 -13t59 -8q13 -7 13 -26t-17 -19l-122 6q-37 0 -105 -4l-18 -2q-21 0 -21 20
q1 20 11 24t44 6t42 23q9 20 18 206t13 269v4q0 14 -36 48t-86 39q-18 0 -18 24t22 24h123q24 0 40 -19l248 -284q184 -198 189 -202t11 -4t5 134q0 134 -9 281q-1 29 -14 37t-43 12t-30 21q0 24 29 24l96 -3l94 3q21 0 21 -23zM292 879q14 0 25 -10t19 -18t14 -12
q5 -3 11 -9q5 -6 9 -8t8 -6q12 -9 23 -9t52 36t55 36t13 -14q-1 -7 -33 -47t-52 -64q-20 -26 -35 -26q-16 0 -34 21q-89 104 -89 117t14 13z" />
    <glyph glyph-name="ncaron" unicode="&#x148;" horiz-adv-x="499" 
d="M427 63q0 -28 31 -28q31 -1 31 -21t-15 -20l-84 6q-48 0 -78 -6h-4q-14 0 -14 17t14 19q2 0 6 2q4 1 11 2q5 1 21 3t16 24v155q0 75 -13 108q-25 60 -107 60q-32 0 -62 -24t-32 -34q-2 -11 -3 -20v-240q0 -25 22 -28q12 -2 20 -3t13 -2t7 -2t5 -2q9 -3 9 -19t-13 -17
l-93 7q-27 0 -75 -4l-13 -2q-16 0 -16 16t6 19t28 7q23 4 27 10q4 8 4 24v239q0 18 -5 24t-40 32q-6 6 -6 10v1q1 7 51 34t54 27q12 0 12 -15v-42l-1 -3q0 -4 3 -4h1q1 0 7 6q58 54 130 54h2q42 1 74 -19q70 -42 70 -176v-19l-1 -154v-2zM159 682q-1 16 13 16t24 -16t19 -34
t17 -30l10 -15t10 -3t21 24q15 24 17 29t13 25t25 20t14 -15q0 -6 -25 -78t-37 -100t-28 -28q-16 -1 -30 27q-13 28 -33 88t-25 74t-5 16z" />
    <glyph glyph-name="Obreve" unicode="&#x14e;" horiz-adv-x="778" 
d="M113 384q-1 -198 127 -298q66 -52 157 -52q125 0 204 94q60 71 60 171q0 204 -110 301q-76 67 -180 67q-104 -1 -181 -73t-77 -210zM760 338q0 -156 -105 -259t-257 -103t-265 109t-114 265t108 262q109 108 263 108t262 -114q108 -112 108 -268zM389 805q29 0 57 17
t45 34t23 17q6 1 14 -7t8 -14t-18 -32t-53 -52q-36 -28 -74 -28h-4q-37 0 -73 28t-54 52q-18 26 -17 32q-1 6 7 14t14 7q6 0 24 -17t44 -34q28 -17 57 -17z" />
    <glyph glyph-name="obreve" unicode="&#x14f;" horiz-adv-x="467" 
d="M236 30q62 0 102 50t40 124t-44 128t-99 53q-54 0 -95 -43q-41 -44 -41 -128t38 -134q37 -50 99 -50zM21 208q0 98 64 160q64 64 153 64q88 0 148 -64t60 -166t-62 -161q-62 -60 -154 -60q-92 1 -150 65q-59 64 -59 162zM112 623q0 10 14 10q19 0 22 -15q3 -22 21 -45
q27 -34 60 -34h1q47 0 81 61q13 23 15 28q2 4 16 4q12 0 12 -6t-6 -29q-6 -21 -20 -51t-42 -52t-61 -23q-88 0 -113 149v3z" />
    <glyph glyph-name="OE" unicode="&#x152;" horiz-adv-x="1018" 
d="M371 667h-1q-102 -1 -180 -73t-78 -209t74 -244t211 -107q76 0 136 37q11 7 13 11t2 22v497q-74 66 -177 66zM850 491q0 23 28 23t27 -30v-184q1 -29 -27 -29t-28 22v54q0 22 -26 22h-112q-50 -1 -62 -7t-12 -33v-232q0 -15 6 -23q28 -32 200 -14q48 6 58 13t62 96
q9 17 24 17t15 -23v-1q0 -4 -16 -78t-22 -79q-6 -6 -24 -5h-278q-88 0 -168 -12t-94 -12q-157 0 -270 111t-113 264t108 261t260 108q51 0 93 -9q89 -19 137 -19l15 -1h305q15 0 20 -16l28 -126v-3q0 -21 -24 -21q-14 0 -18 9t-5 11l-43 73q-12 20 -30 20h-194
q-31 0 -31 -24v-165q0 -22 15 -22h158q38 0 38 33v31z" />
    <glyph glyph-name="oe" unicode="&#x153;" horiz-adv-x="763" 
d="M236 30q62 0 102 50t40 124t-44 128t-99 53q-54 0 -95 -43q-41 -44 -41 -128t38 -134q37 -50 99 -50zM647 312q0 10 -34 38q-35 26 -75 26t-66 -38t-26 -105q0 -7 3 -7t95 36t98 38t5 12zM564 431q50 1 96 -27t75 -69q9 -11 9 -22v-1q0 -18 -16 -25q-16 -8 -28 -13
t-127 -44q-115 -38 -119 -40t-4 -10q0 -6 6 -26t20 -47q14 -29 46 -49t88 -20t107 49q11 14 25 14t14 -15q0 -8 -7 -16q-67 -89 -177 -89q-109 0 -162 91q-28 -43 -76 -67t-101 -24q-94 1 -153 65t-59 162t64 160q64 64 164 64t161 -95q53 94 154 94z" />
    <glyph glyph-name="Racute" unicode="&#x154;" horiz-adv-x="696" 
d="M516 495q0 -47 -40 -91t-74 -57q-5 -3 -5 -5t37 -46q38 -44 90 -124q52 -82 70 -102t38 -21q20 0 32 11t20 11q8 -1 7 -15t-25 -42t-68 -27q-44 0 -100 73l-100 142q-86 120 -92 124t-17 4h-73q-14 0 -14 -15v-234q0 -29 26 -32t38 -3q52 0 53 -30q0 -22 -20 -22l-129 6
l-128 -6q-18 0 -18 20t9 24t28 5t31 3q22 3 21 34v517q0 20 -13 27t-71 16q-15 3 -15 19t13 16h35l221 12q173 0 221 -117q12 -28 12 -75zM264 366q174 0 174 140q0 52 -50 96q-50 46 -112 46q-60 0 -70 -7t-9 -19l1 -1v-237q0 -14 10 -16t56 -2zM229 748q0 13 19 26
l138 100q30 23 48 23q18 -1 31 -11q12 -10 12 -24t-9 -25t-14 -13q-191 -96 -208 -96t-17 20z" />
    <glyph glyph-name="racute" unicode="&#x155;" horiz-adv-x="358" 
d="M28 -6q-16 0 -16 17t8 18t19 3t18 4q18 4 18 24v265q1 14 -7 20q-8 5 -12 9t-22 14q-17 11 -18 17q0 3 55 29t63 27t8 -19v-40q0 -5 2 -5t22 14q20 15 52 35q31 20 59 20q27 0 53 -12t26 -32v-1q0 -12 -27 -35l-10 -8q-17 -12 -30 -12t-28 12t-34 13t-44 -15t-31 -24
t-5 -20v-244q0 -28 25 -30q10 -1 30 -2t31 -3q12 -2 12 -21q0 -18 -14 -18l-101 6zM104 487q-19 0 -19 20q0 11 43 74t66 98q22 35 44 35q44 0 44 -37q0 -19 -24 -45q-130 -133 -138 -139t-16 -6z" />
    <glyph glyph-name="Rcommaaccent" unicode="&#x156;" horiz-adv-x="696" 
d="M516 495q0 -47 -40 -91t-74 -57q-5 -3 -5 -5t37 -46q38 -44 90 -124q52 -82 70 -102t38 -21q20 0 32 11t20 11q8 -1 7 -15t-25 -42t-68 -27q-44 0 -100 73l-100 142q-86 120 -92 124t-17 4h-73q-14 0 -14 -15v-234q0 -29 26 -32t38 -3q52 0 53 -30q0 -22 -20 -22l-129 6
l-128 -6q-18 0 -18 20t9 24t28 5t31 3q22 3 21 34v517q0 20 -13 27t-71 16q-15 3 -15 19t13 16h35l221 12q173 0 221 -117q12 -28 12 -75zM264 366q174 0 174 140q0 52 -50 96q-50 46 -112 46q-60 0 -70 -7t-9 -19l1 -1v-237q0 -14 10 -16t56 -2zM345 -53q30 1 56 -33
t26 -87t-38 -90t-60 -37t-22 17q0 11 17 21q52 30 52 64t-38 38t-49 20q-11 17 -11 36t18 35t49 16z" />
    <glyph glyph-name="rcommaaccent" unicode="&#x157;" horiz-adv-x="358" 
d="M28 -6q-16 0 -16 17t8 18t19 3t18 4q18 4 18 24v265q1 14 -7 20q-8 5 -12 9t-22 14q-17 11 -18 17q0 3 55 29t63 27t8 -19v-40q0 -5 2 -5t22 14q20 15 52 35q31 20 59 20q27 0 53 -12t26 -32v-1q0 -12 -27 -35l-10 -8q-17 -12 -30 -12t-28 12t-34 13t-44 -15t-31 -24
t-5 -20v-244q0 -28 25 -30q10 -1 30 -2t31 -3q12 -2 12 -21q0 -18 -14 -18l-101 6zM176 -46q30 0 56 -34t26 -86q0 -53 -38 -90t-60 -37t-22 17q0 11 17 21q52 30 52 64t-38 38t-49 20q-11 17 -11 36q1 19 19 35t48 16z" />
    <glyph glyph-name="Rcaron" unicode="&#x158;" horiz-adv-x="696" 
d="M516 495q0 -47 -40 -91t-74 -57q-5 -3 -5 -5t37 -46q38 -44 90 -124q52 -82 70 -102t38 -21q20 0 32 11t20 11q8 -1 7 -15t-25 -42t-68 -27q-44 0 -100 73l-100 142q-86 120 -92 124t-17 4h-73q-14 0 -14 -15v-234q0 -29 26 -32t38 -3q52 0 53 -30q0 -22 -20 -22l-129 6
l-128 -6q-18 0 -18 20t9 24t28 5t31 3q22 3 21 34v517q0 20 -13 27t-71 16q-15 3 -15 19t13 16h35l221 12q173 0 221 -117q12 -28 12 -75zM264 366q174 0 174 140q0 52 -50 96q-50 46 -112 46q-60 0 -70 -7t-9 -19l1 -1v-237q0 -14 10 -16t56 -2zM185 879q14 0 25 -10
q12 -10 20 -18t13 -12q5 -3 11 -9t10 -8t7 -6q12 -9 23 -9t52 36q40 36 54 36t14 -14q0 -7 -32 -47t-52 -64q-20 -26 -36 -26t-34 21q-89 104 -89 117t14 13z" />
    <glyph glyph-name="rcaron" unicode="&#x159;" horiz-adv-x="358" 
d="M28 -6q-16 0 -16 17t8 18t19 3t18 4q18 4 18 24v265q1 14 -7 20q-8 5 -12 9t-22 14q-17 11 -18 17q0 3 55 29t63 27t8 -19v-40q0 -5 2 -5t22 14q20 15 52 35q31 20 59 20q27 0 53 -12t26 -32v-1q0 -12 -27 -35l-10 -8q-17 -12 -30 -12t-28 12t-34 13t-44 -15t-31 -24
t-5 -20v-244q0 -28 25 -30q10 -1 30 -2t31 -3q12 -2 12 -21q0 -18 -14 -18l-101 6zM92 691q0 16 14 16q14 -1 22 -17q10 -16 20 -34t18 -29q8 -12 9 -15q2 -3 10 -3q8 -1 25 31q18 32 28 50t24 17q13 0 13 -15q0 -6 -25 -78t-37 -100q-13 -28 -29 -28t-29 28t-33 86
q-20 60 -25 74t-5 17z" />
    <glyph glyph-name="Sacute" unicode="&#x15a;" horiz-adv-x="492" 
d="M25 64q0 3 8 44t15 119q2 21 22 21q15 0 19 -10t7 -35t4 -37q2 -12 2 -17v-9t2 -8t4 -6q2 -3 16 -21q49 -66 119 -66q71 1 113 41t42 103q0 106 -160 146q-68 17 -87 25q-119 46 -119 170q0 60 51 111q51 50 121 50t101 -20t36 -20t17 20t26 20t14 -19l-4 -83l4 -81
q0 -15 -17 -15h-1q-14 1 -20 11t-18 34t-31 47q-50 56 -101 56q-50 1 -78 -27t-28 -75t41 -76t109 -46t108 -33t74 -66q34 -48 35 -126t-63 -140t-154 -63q-90 0 -154 55q-16 14 -31 14l-26 -3q-18 0 -18 15zM124 748q0 13 19 26l138 100q31 23 49 23q18 -1 30 -11t12 -24
t-9 -25t-14 -13q-191 -96 -208 -96t-17 20z" />
    <glyph glyph-name="sacute" unicode="&#x15b;" horiz-adv-x="338" 
d="M44 156q12 0 14 -9t3 -25t8 -32q7 -15 40 -35t69 -20q36 1 60 19t24 42t-8 39q-11 19 -52 35q-40 17 -60 17q-111 32 -111 122q-1 47 39 83t105 35l50 -5l25 10q12 0 15 -16t8 -44q5 -26 9 -44t3 -20q0 -16 -19 -16t-25 21t-14 32t-32 23q-25 12 -49 12t-42 -15t-19 -38
q0 -50 79 -72l36 -9t51 -15t51 -39q27 -32 27 -80t-41 -90t-95 -41q-112 0 -154 50q-12 13 -12 34l-1 60q0 19 4 25t14 6zM98 472q-19 0 -19 20q0 11 43 74t66 98q22 35 44 35q44 0 44 -37q0 -19 -24 -45q-130 -133 -138 -139t-16 -6z" />
    <glyph glyph-name="Scircumflex" unicode="&#x15c;" horiz-adv-x="492" 
d="M25 64q0 3 8 44t15 119q2 21 22 21q15 0 19 -10t7 -35t4 -37q2 -12 2 -17v-9t2 -8t4 -6q2 -3 16 -21q49 -66 119 -66q71 1 113 41t42 103q0 106 -160 146q-68 17 -87 25q-119 46 -119 170q0 60 51 111q51 50 121 50t101 -20t36 -20t17 20t26 20t14 -19l-4 -83l4 -81
q0 -15 -17 -15h-1q-14 1 -20 11t-18 34t-31 47q-50 56 -101 56q-50 1 -78 -27t-28 -75t41 -76t109 -46t108 -33t74 -66q34 -48 35 -126t-63 -140t-154 -63q-90 0 -154 55q-16 14 -31 14l-26 -3q-18 0 -18 15zM356 728q-14 0 -26 11t-23 21t-17 14l-12 10q-21 16 -31 16
q-11 0 -52 -36t-55 -36t-13 14q1 6 33 46t52 66t35 25q16 0 35 -22q88 -102 88 -115q0 -14 -14 -14z" />
    <glyph glyph-name="scircumflex" unicode="&#x15d;" horiz-adv-x="338" 
d="M44 156q12 0 14 -9t3 -25t8 -32q7 -15 40 -35t69 -20q36 1 60 19t24 42t-8 39q-11 19 -52 35q-40 17 -60 17q-111 32 -111 122q-1 47 39 83t105 35l50 -5l25 10q12 0 15 -16t8 -44q5 -26 9 -44t3 -20q0 -16 -19 -16t-25 21t-14 32t-32 23q-25 12 -49 12t-42 -15t-19 -38
q0 -50 79 -72l36 -9t51 -15t51 -39q27 -32 27 -80t-41 -90t-95 -41q-112 0 -154 50q-12 13 -12 34l-1 60q0 19 4 25t14 6zM269 488q1 -16 -13 -16t-24 18t-29 48q-18 32 -24 32q-7 0 -13 -6t-19 -32q-15 -26 -25 -43t-23 -17t-13 15q0 5 24 77t38 100q12 28 28 29t30 -27
q13 -28 33 -88t25 -74t5 -16z" />
    <glyph glyph-name="Scedilla" unicode="&#x15e;" horiz-adv-x="492" 
d="M381 487h-1q-14 1 -20 11t-18 34t-31 47q-50 56 -101 56q-50 1 -78 -27t-28 -75t41 -76t109 -46t108 -33t74 -66q34 -48 35 -123q0 -75 -59 -139t-150 -67q-8 -21 -8 -24q0 -2 4 -2h3q37 0 61 -20t23 -56v-1q0 -30 -19 -52t-52 -23q-34 0 -64 6t-30 11q0 27 14 27
q32 -8 50 -8q40 0 40 32q0 20 -20 35t-38 16t-18 4l4 10q2 10 8 24t9 22q-71 7 -109 38q-39 30 -51 30l-26 -3q-18 0 -18 15q0 3 8 44t15 119q2 21 22 21q15 0 19 -10t7 -35t4 -37q2 -12 2 -17v-9t2 -8t4 -6q2 -3 16 -21q49 -66 119 -66q71 1 113 41t42 103q0 106 -160 146
q-68 17 -87 25q-119 46 -119 170q0 60 51 111q51 50 121 50t101 -20t36 -20t17 20t26 20t14 -19l-4 -83l4 -81q0 -15 -17 -15z" />
    <glyph glyph-name="scedilla" unicode="&#x15f;" horiz-adv-x="338" 
d="M156 -159q40 0 40 32q0 20 -20 35t-38 16t-18 4l4 10q2 10 8 24t9 22q-34 5 -74 24t-40 57v39q0 42 4 48q5 4 15 4t12 -9t3 -25t8 -32q7 -15 40 -35t69 -20q36 1 60 19t24 42t-8 39q-11 19 -52 35q-40 17 -60 17q-111 32 -111 122q-1 47 39 83t105 35l50 -5l25 10
q12 0 15 -16t8 -44q5 -26 9 -44t3 -20q0 -16 -19 -16t-25 21t-14 32t-32 23q-25 12 -49 12t-42 -15t-19 -38q0 -50 79 -72l36 -9t51 -15t51 -39q27 -32 27 -80t-41 -90t-111 -41h-4q-7 -20 -7 -22t4 -2h3q37 0 61 -20t23 -56v-1q0 -30 -19 -52t-52 -23q-34 0 -64 6t-30 11
q0 27 14 27q32 -8 50 -8z" />
    <glyph glyph-name="Scaron" unicode="&#x160;" horiz-adv-x="492" 
d="M25 64q0 3 8 44t15 119q2 21 22 21q15 0 19 -10t7 -35t4 -37q2 -12 2 -17v-9t2 -8t4 -6q2 -3 16 -21q49 -66 119 -66q71 1 113 41t42 103q0 106 -160 146q-68 17 -87 25q-119 46 -119 170q0 60 51 111q51 50 121 50t101 -20t36 -20t17 20t26 20t14 -19l-4 -83l4 -81
q0 -15 -17 -15h-1q-14 1 -20 11t-18 34t-31 47q-50 56 -101 56q-50 1 -78 -27t-28 -75t41 -76t109 -46t108 -33t74 -66q34 -48 35 -126t-63 -140t-154 -63q-90 0 -154 55q-16 14 -31 14l-26 -3q-18 0 -18 15zM141 879q14 0 25 -10q12 -10 20 -18t13 -12q5 -3 11 -9t10 -8
t7 -6q12 -9 23 -9t52 36q40 36 54 36t14 -14q0 -7 -32 -47t-52 -64q-20 -26 -36 -26t-34 21q-89 104 -89 117t14 13z" />
    <glyph glyph-name="scaron" unicode="&#x161;" horiz-adv-x="338" 
d="M44 156q12 0 14 -9t3 -25t8 -32q7 -15 40 -35t69 -20q36 1 60 19t24 42t-8 39q-11 19 -52 35q-40 17 -60 17q-111 32 -111 122q-1 47 39 83t105 35l50 -5l25 10q12 0 15 -16t8 -44q5 -26 9 -44t3 -20q0 -16 -19 -16t-25 21t-14 32t-32 23q-25 12 -49 12t-42 -15t-19 -38
q0 -50 79 -72l36 -9t51 -15t51 -39q27 -32 27 -80t-41 -90t-95 -41q-112 0 -154 50q-12 13 -12 34l-1 60q0 19 4 25t14 6zM86 677q0 16 14 16q14 -1 22 -17q10 -16 20 -34t18 -29q8 -12 9 -15q2 -3 10 -3q8 -1 25 31q18 32 28 50t24 17q13 0 13 -15q0 -6 -25 -78t-37 -100
q-13 -28 -29 -28t-29 28t-33 86q-20 60 -25 74t-5 17z" />
    <glyph glyph-name="Tcommaaccent" unicode="&#x162;" horiz-adv-x="692" 
d="M689 537q0 -22 -19 -22q-12 1 -20 15t-16 26q-6 12 -10 18t-8 15q-4 7 -8 11q-2 4 -5 8t-5 6t-6 4q-5 4 -21 4h-147q-22 0 -22 -27v-524q0 -16 10 -20t51 -7q42 -2 45 -8t3 -24t-17 -18l-18 2q-76 4 -112 4q-14 -39 -14 -41t4 -2h3q37 0 61 -20t23 -56v-1q0 -30 -19 -52
t-52 -23q-34 0 -64 6t-30 11q0 27 14 27q32 -8 50 -8q40 0 40 32q0 20 -20 35t-38 16t-18 5t28 71l-110 -6q-20 0 -20 20t8 25q8 3 32 5t38 4q28 3 29 36v507q0 31 -27 31h-149q-28 0 -36 -16q-7 -16 -13 -26q-6 -12 -10 -19t-6 -15l-6 -12t-6 -8l-4 -8q-8 -10 -18 -9
q-22 0 -22 25v1q0 4 29 138q3 15 21 15h583q11 0 15 -6t16 -72q13 -67 13 -73z" />
    <glyph glyph-name="tcommaaccent" unicode="&#x163;" horiz-adv-x="333" 
d="M305 106q18 0 18 -18q0 -6 -7 -17q-73 -85 -131 -89q-3 -8 -5 -14t-2 -9q0 -2 4 -2h3q37 0 61 -20t23 -56v-1q0 -30 -19 -52t-52 -23q-34 0 -64 6t-30 11q0 27 14 27q32 -8 50 -8q40 0 40 32q0 20 -20 35t-38 16q-18 0 -18 4t22 56q-79 21 -79 151l4 221q0 9 -7 9h-32
q-20 0 -20 13q0 6 34 35t57 70q24 40 35 40t11 -16l-1 -70q0 -20 20 -20h90l8 -1q26 0 26 -19q0 -34 -27 -34h-117q-10 0 -10 -9q-1 -187 -1 -234q0 -74 51 -74q27 0 64 30t45 30z" />
    <glyph glyph-name="Tcaron" unicode="&#x164;" horiz-adv-x="692" 
d="M689 537q0 -22 -19 -22q-12 1 -20 15t-16 26q-6 12 -10 18t-8 15q-4 7 -8 11q-2 4 -5 8t-5 6t-6 4q-5 4 -21 4h-147q-22 0 -22 -27v-524q0 -16 10 -20t51 -7q42 -2 45 -8t3 -24t-17 -18l-20 2q-76 4 -116 4l-136 -6q-20 0 -20 20t8 25q8 3 32 5t38 4q28 3 29 36v507
q0 31 -27 31h-149q-28 0 -36 -16q-7 -16 -13 -26q-6 -12 -10 -19t-6 -15l-6 -12t-6 -8l-4 -8q-8 -10 -18 -9q-22 0 -22 25v1q0 4 29 138q3 15 21 15h583q11 0 15 -6t16 -72q13 -67 13 -73zM243 879q14 0 25 -10q12 -10 20 -18t13 -12q5 -3 11 -9t10 -8t7 -6q12 -9 23 -9
t52 36q40 36 54 36t14 -11t-86 -116q-18 -24 -34 -24t-34 21q-89 104 -89 117t14 13z" />
    <glyph glyph-name="tcaron" unicode="&#x165;" horiz-adv-x="493" 
d="M72 365h-32q-20 0 -20 13q0 6 34 35t57 70q24 40 35 40t11 -16l-1 -70q0 -20 20 -20h90l8 -1q26 0 26 -19q0 -34 -27 -34h-117q-10 0 -10 -9q-1 -187 -1 -234q0 -74 51 -74q27 0 64 30t45 30q18 0 18 -18q0 -6 -7 -17q-79 -90 -139 -90q-36 0 -69 32t-33 122l4 221
q0 9 -7 9zM386 523q30 1 56 -33t26 -87t-38 -90t-60 -37t-22 17q0 11 17 21q52 30 52 64t-38 38t-49 20q-11 17 -11 36q1 19 19 35t48 16z" />
    <glyph glyph-name="Utilde" unicode="&#x168;" horiz-adv-x="756" 
d="M86 612q0 27 -26 27l-16 2q-27 3 -27 25t20 23l101 -3h6l107 3q19 0 19 -21t-8 -23q-8 -3 -14 -4t-18 -2t-22 -2q-32 -4 -32 -35v-313q0 -67 12 -113t49 -79q60 -55 190 -55q192 0 192 202v14l-1 62v272q0 34 -18 44q-18 9 -45 10q-26 1 -26 22t19 21l88 -3l88 3
q18 0 18 -19t-7 -23t-17 -5t-20 -5q-24 -10 -23 -65l-1 -10v-227l1 -47v-32q0 -70 -17 -126t-80 -101q-63 -44 -156 -44q-92 1 -146 15q-91 25 -130 72q-38 47 -49 88q-12 41 -12 124l1 76v252zM470 789q22 -1 38 11q17 12 27 24t14 11q3 0 11 -4q8 -3 8 -9t-20 -29
q-49 -58 -85 -58q-37 1 -67 23t-49 22t-35 -13t-24 -26t-12 -13q-2 0 -7 6t-5 8q0 4 18 30t34 44q16 16 41 16t58 -22t55 -21z" />
    <glyph glyph-name="utilde" unicode="&#x169;" horiz-adv-x="505" 
d="M7 398v3q0 13 11 14q100 6 107 6t7 -12v-205q0 -66 16 -98q36 -72 108 -72q50 0 76 28t26 38v246q0 20 -9 24t-11 4t-10 2q-6 2 -10 2t-12 2t-18 3q-10 2 -11 16q0 14 14 16q64 2 84 3q19 1 27 1h12q15 0 15 -20v-313q0 -9 21 -17q21 -9 29 -13t8 -12t-2 -12
q-3 -6 -28 -12q-25 -5 -51 -19q-25 -15 -30 -15q-14 0 -14 20v23q0 4 -2 4q-2 1 -9 -5q-58 -45 -125 -46q-66 0 -108 38t-48 88q-6 49 -6 80l1 161q0 23 -42 33q-16 4 -16 16zM297 622q21 0 38 12t27 22q10 12 14 12t12 -4t7 -10q1 -6 -19 -28q-49 -58 -86 -58q-36 0 -66 22
t-50 23q-19 0 -35 -13q-17 -13 -25 -26t-10 -13q-2 -1 -8 5q-5 6 -5 10q-1 4 17 30t34 42t42 17q24 1 58 -21t55 -22z" />
    <glyph glyph-name="Ubreve" unicode="&#x16c;" horiz-adv-x="756" 
d="M86 612q0 27 -26 27l-16 2q-27 3 -27 25t20 23l101 -3h6l107 3q19 0 19 -21t-8 -23q-8 -3 -14 -4t-18 -2t-22 -2q-32 -4 -32 -35v-313q0 -67 12 -113t49 -79q60 -55 190 -55q192 0 192 202v14l-1 62v272q0 34 -18 44q-18 9 -45 10q-26 1 -26 22t19 21l88 -3l88 3
q18 0 18 -19t-7 -23t-17 -5t-20 -5q-24 -10 -23 -65l-1 -10v-227l1 -47v-32q0 -70 -17 -126t-80 -101q-63 -44 -156 -44q-92 1 -146 15q-91 25 -130 72q-38 47 -49 88q-12 41 -12 124l1 76v252zM400 793q29 0 57 17t45 34q16 17 22 17q6 1 14 -7t9 -14t-17 -32t-54 -52
q-36 -28 -74 -28h-4q-38 0 -74 28t-52 52q-18 26 -18 32t8 14t13 7q5 0 23 -17t46 -34t56 -17z" />
    <glyph glyph-name="ubreve" unicode="&#x16d;" horiz-adv-x="505" 
d="M7 398v3q0 13 11 14q100 6 107 6t7 -12v-205q0 -66 16 -98q36 -72 108 -72q50 0 76 28t26 38v246q0 20 -9 24t-11 4t-10 2q-6 2 -10 2t-12 2t-18 3q-10 2 -11 16q0 14 14 16q64 2 84 3q19 1 27 1h12q15 0 15 -20v-313q0 -9 21 -17q21 -9 29 -13t8 -12t-2 -12
q-3 -6 -28 -12q-25 -5 -51 -19q-25 -15 -30 -15q-14 0 -14 20v23q0 4 -2 4q-2 1 -9 -5q-58 -45 -125 -46q-66 0 -108 38t-48 88q-6 49 -6 80l1 161q0 23 -42 33q-16 4 -16 16zM126 623q0 10 14 10q19 0 22 -15q3 -22 21 -45q27 -34 60 -34h1q47 0 81 61q13 23 15 28
q2 4 16 4q12 0 12 -6t-6 -29q-6 -21 -20 -51t-42 -52t-61 -23q-88 0 -113 149v3z" />
    <glyph glyph-name="Uring" unicode="&#x16e;" horiz-adv-x="756" 
d="M86 612q0 27 -26 27l-16 2q-27 3 -27 25t20 23l101 -3h6l107 3q19 0 19 -21t-8 -23q-8 -3 -14 -4t-18 -2t-22 -2q-32 -4 -32 -35v-313q0 -67 12 -113t49 -79q60 -55 190 -55q192 0 192 202v14l-1 62v272q0 34 -18 44q-18 9 -45 10q-26 1 -26 22t19 21l88 -3l88 3
q18 0 18 -19t-7 -23t-17 -5t-20 -5q-24 -10 -23 -65l-1 -10v-227l1 -47v-32q0 -70 -17 -126t-80 -101q-63 -44 -156 -44q-92 1 -146 15q-91 25 -130 72q-38 47 -49 88q-12 41 -12 124l1 76v252zM381 867q-19 -1 -32 -15t-13 -34t14 -35t32 -15q19 0 32 15t13 34q1 19 -13 35
t-33 15zM382 905q36 0 60 -26q24 -27 24 -63t-25 -62t-60 -25q-35 -1 -60 25t-25 62t25 63q25 26 61 26z" />
    <glyph glyph-name="uring" unicode="&#x16f;" horiz-adv-x="505" 
d="M7 398v3q0 13 11 14q100 6 107 6t7 -12v-205q0 -66 16 -98q36 -72 108 -72q50 0 76 28t26 38v246q0 20 -9 24t-11 4t-10 2q-6 2 -10 2t-12 2t-18 3q-10 2 -11 16q0 14 14 16q64 2 84 3q19 1 27 1h12q15 0 15 -20v-313q0 -9 21 -17q21 -9 29 -13t8 -12t-2 -12
q-3 -6 -28 -12q-25 -5 -51 -19q-25 -15 -30 -15q-14 0 -14 20v23q0 4 -2 4q-2 1 -9 -5q-58 -45 -125 -46q-66 0 -108 38t-48 88q-6 49 -6 80l1 161q0 23 -42 33q-16 4 -16 16zM223 610q-19 0 -32 -14t-13 -35q0 -20 14 -35t32 -15q19 0 32 15t13 34q1 18 -13 34t-33 16z
M224 648q36 0 60 -26t24 -62t-25 -62t-60 -26t-60 26t-25 62t25 62t61 26z" />
    <glyph glyph-name="Wcircumflex" unicode="&#x174;" horiz-adv-x="1002" 
d="M1000 665q0 -24 -30 -22q-30 1 -43 -23q-1 -2 -11 -32t-30 -84q-83 -234 -199 -478q-22 -48 -43 -48t-40 53q-120 300 -123 303q-2 0 -62 -156q-61 -156 -69 -176q-8 -18 -15 -21h-1q-4 -3 -10 -3t-10 4q-6 4 -10 10t-6 12t-6 16t-24 58q-20 50 -55 142q-46 122 -89 252
q-43 131 -48 149q-7 17 -30 18q-33 1 -33 22q0 28 25 28l96 -3l94 3q18 0 18 -24t-29 -22q-29 3 -37 -7q-8 -9 -8 -16q0 -31 159 -456q7 -18 14 -18t19 25t51 129q40 104 40 108v1q0 5 -38 115q-37 110 -45 114t-53 6q-17 0 -17 22t23 23l103 -3h1l102 3q17 1 17 -17t-9 -23
t-37 -7t-28 -23q0 -3 24 -79t86 -228q60 -152 70 -165t14 -13h1q10 0 16 18q89 188 127 319q38 133 38 141t-1 12t-3 5l-4 4l-6 3t-6 2q-4 0 -10 2q-10 2 -22 2q-34 2 -34 25q0 22 18 22l101 -3h1l99 3q17 0 17 -24zM614 728q-14 0 -26 11t-23 21t-17 14l-12 10
q-21 16 -31 16q-11 0 -52 -36t-55 -36t-13 11q0 11 86 116q18 24 34 24t35 -22q88 -102 88 -115q0 -14 -14 -14z" />
    <glyph glyph-name="wcircumflex" unicode="&#x175;" horiz-adv-x="752" 
d="M750 397q0 -18 -23 -21h-8q-20 -5 -30 -41q-11 -37 -33 -106t-108 -229q-13 -25 -31 -25q-19 1 -55 73t-59 117t-26 45t-57 -110t-59 -118q-6 -7 -19 -7t-27 26q-89 170 -126 265q-38 96 -43 104t-23 8q-17 0 -17 18t18 19l74 -3h3l72 3q12 0 12 -17q0 -24 -31 -21
t-31 -15q1 -8 27 -76t91 -194q4 -8 12 -8t8 8q28 44 59 104t32 71v1q0 6 -17 42t-23 46q-13 20 -43 19t-30 17q0 23 16 23l103 -3l103 3q14 0 14 -15v-6q-1 -10 -5 -12t-24 -4t-29 -2q-23 -2 -23 -20t60 -144q60 -127 81 -127q9 0 12 9q62 110 79 180q18 72 18 78v9t-3 5
q-1 2 -3 4t-6 3t-6 1t-8 2q-6 0 -14 1t-21 1q-18 2 -18 20t12 17l78 -4l80 4q15 0 15 -18zM469 487q1 -16 -13 -16q-14 -1 -24 17t-29 50q-18 32 -24 31q-7 -1 -13 -7t-19 -32q-15 -26 -25 -42q-10 -17 -23 -17t-13 15q0 6 24 78t38 100q12 28 28 28t30 -28q13 -28 33 -86
q20 -60 25 -74t5 -17z" />
    <glyph glyph-name="Ycircumflex" unicode="&#x176;" horiz-adv-x="667" 
d="M273 669q1 -28 -45 -28t-46 -25v-2q0 -8 40 -78t49 -84q7 -14 23 -40t27 -46t15 -19q4 0 10 6q20 29 78 107t78 110q20 30 19 47q0 29 -46 25t-46 27q0 20 21 20l89 -3h3l89 3q28 0 28 -20q0 -10 -21 -27q-21 -16 -31 -28l-145 -187q-17 -23 -34 -45t-26 -36l-18 -24
t-13 -17q-3 -5 -7 -11t-4 -10t-2 -8v-11v-195q0 -15 10 -18q10 -2 48 -4q37 -2 52 -3q22 -1 22 -24v-8q0 -19 -16 -19l-20 2q-80 4 -121 4l-142 -6q-25 0 -25 28q0 16 10 20t48 5l20 1h4l8 1q16 0 17 21v207q0 21 -5 29q-6 8 -10 15q-4 8 -6 11l-184 295q-10 12 -34 14
t-23 25q0 23 25 23l110 -3l109 3q18 0 18 -20zM455 728q-14 0 -26 11t-23 21q-10 10 -16 14l-12 10q-21 16 -32 16t-52 -36q-40 -36 -54 -36t-14 14q0 6 32 46t52 66t36 25q16 0 35 -22q88 -102 88 -115q0 -14 -14 -14z" />
    <glyph glyph-name="ycircumflex" unicode="&#x177;" horiz-adv-x="468" 
d="M463 396q0 -20 -39 -20q-10 -2 -14 -8t-12 -31t-14 -38q-120 -312 -218 -460q-40 -62 -74 -62q-16 1 -28 11t-11 26q0 16 13 30q14 12 38 28t41 32t40 53q23 38 23 61q0 24 -80 182t-88 168q-7 10 -21 9q-15 0 -15 19t14 19l78 -3l79 3q13 0 13 -16v-7q0 -16 -26 -17
t-26 -9t25 -75q25 -66 84 -175q0 -6 5 -6t7 2t3 4q0 2 42 102q42 98 42 128t-20 30q-46 0 -47 20q0 20 19 19l78 -3h1l76 3q12 1 12 -19zM325 487q1 -16 -13 -16q-14 -1 -24 17t-29 50q-18 32 -24 31q-7 -1 -13 -7t-19 -32q-15 -26 -25 -42q-10 -17 -23 -17t-13 15
q0 6 24 78t38 100q12 28 28 28t30 -28q13 -28 33 -86q20 -60 25 -74t5 -17z" />
    <glyph glyph-name="Ydieresis" unicode="&#x178;" horiz-adv-x="667" 
d="M273 669q1 -28 -45 -28t-46 -25v-2q0 -8 40 -78t49 -84q7 -14 23 -40t27 -46t15 -19q4 0 10 6q20 29 78 107t78 110q20 30 19 47q0 29 -46 25t-46 27q0 20 21 20l89 -3h3l89 3q28 0 28 -20q0 -10 -21 -27q-21 -16 -31 -28l-145 -187q-17 -23 -34 -45t-26 -36l-18 -24
t-13 -17q-3 -5 -7 -11t-4 -10t-2 -8v-11v-195q0 -15 10 -18q10 -2 48 -4q37 -2 52 -3q22 -1 22 -24v-8q0 -19 -16 -19l-20 2q-80 4 -121 4l-142 -6q-25 0 -25 28q0 16 10 20t48 5l20 1h4l8 1q16 0 17 21v207q0 21 -5 29q-6 8 -10 15q-4 8 -6 11l-184 295q-10 12 -34 14
t-23 25q0 23 25 23l110 -3l109 3q18 0 18 -20zM232 774q0 20 14 34t34 14t34 -14t14 -32q0 -20 -14 -34t-34 -14t-34 14q-14 12 -14 32zM367 774q1 20 15 34t34 14t33 -14q14 -14 14 -32q0 -20 -14 -34t-34 -14t-34 14q-14 12 -14 32z" />
    <glyph glyph-name="Zacute" unicode="&#x179;" horiz-adv-x="629" 
d="M24 698q0 28 21 28q15 0 26 -24q8 -27 55 -27h436q24 0 24 -18q0 -8 -30 -47t-38 -50t-22 -29l-145 -182q-109 -132 -160 -222q-5 -8 -5 -15q0 -16 18 -20q46 -12 180 -11h21q67 1 99 11q48 15 63 107q7 41 12 49t15 8q26 0 26 -28v-1q0 -25 -5 -57t-7 -47t-2 -39
q-2 -35 -8 -59q-5 -24 -29 -25h-525q-28 0 -28 21q0 9 8 19q194 275 422 527q14 17 14 25t-14 8h-323q-31 0 -36 -7l-9 -9t-5 -13l-5 -15t-4 -22q-4 -16 -7 -26q-5 -22 -23 -22t-18 25l8 150v37zM194 756q0 13 19 26l138 100q31 23 49 23q18 -1 30 -11t12 -24t-9 -25
t-14 -13q-191 -96 -208 -96t-17 20z" />
    <glyph glyph-name="zacute" unicode="&#x17a;" horiz-adv-x="361" 
d="M58 294q-19 0 -19 13q0 1 1 6q9 45 9 96v30q0 15 16 15h6q11 0 13 -18t15 -19h218q22 0 22 -15q0 -2 -6 -14q-227 -308 -227 -315q0 -8 16 -8h145l15 -1q14 0 16 8t2 10t2 8q1 6 3 13q2 8 4 22q5 16 23 16t18 -17l-2 -8q-2 -8 -2 -21q-2 -13 -6 -43t-3 -71l1 -45v-9
q0 -20 -24 -20t-23 18v60q0 15 -17 15h-232q-30 0 -30 23q0 9 13 30l204 275q6 6 6 13q0 14 -20 14h-119q-9 1 -12 -5t-7 -25q0 -31 -19 -31zM101 494q-19 0 -19 20q0 11 43 74t66 98t45 35q44 0 43 -37q0 -19 -24 -45q-130 -133 -138 -139t-16 -6z" />
    <glyph glyph-name="Zdotaccent" unicode="&#x17b;" horiz-adv-x="629" 
d="M24 698q0 28 21 28q15 0 26 -24q8 -27 55 -27h436q24 0 24 -18q0 -8 -30 -47t-38 -50t-22 -29l-145 -182q-109 -132 -160 -222q-5 -8 -5 -15q0 -16 18 -20q46 -12 180 -11h21q67 1 99 11q48 15 63 107q7 41 12 49t15 8q26 0 26 -28v-1q0 -25 -5 -57t-7 -47t-2 -39
q-2 -35 -8 -59q-5 -24 -29 -25h-525q-28 0 -28 21q0 9 8 19q194 275 422 527q14 17 14 25t-14 8h-323q-31 0 -36 -7l-9 -9t-5 -13l-5 -15t-4 -22q-4 -16 -7 -26q-5 -22 -23 -22t-18 25l8 150v37zM260 822q0 24 18 40t40 16q24 0 41 -16t17 -40t-18 -40t-40 -16q-24 0 -41 16
t-17 40z" />
    <glyph glyph-name="zdotaccent" unicode="&#x17c;" horiz-adv-x="361" 
d="M58 294q-19 0 -19 13q0 1 1 6q9 45 9 96v30q0 15 16 15h6q11 0 13 -18t15 -19h218q22 0 22 -15q0 -2 -6 -14q-227 -308 -227 -315q0 -8 16 -8h145l15 -1q14 0 16 8t2 10t2 8q1 6 3 13q2 8 4 22q5 16 23 16t18 -17l-2 -8q-2 -8 -2 -21q-2 -13 -6 -43t-3 -71l1 -45v-9
q0 -20 -24 -20t-23 18v60q0 15 -17 15h-232q-30 0 -30 23q0 9 13 30l204 275q6 6 6 13q0 14 -20 14h-119q-9 1 -12 -5t-7 -25q0 -31 -19 -31zM123 550q-1 24 17 40t42 16t40 -16q17 -16 17 -40q1 -24 -17 -40t-42 -16t-40 16q-17 16 -17 40z" />
    <glyph glyph-name="Zcaron" unicode="&#x17d;" horiz-adv-x="629" 
d="M24 698q0 28 21 28q15 0 26 -24q8 -27 55 -27h436q24 0 24 -18q0 -8 -30 -47t-38 -50t-22 -29l-145 -182q-109 -132 -160 -222q-5 -8 -5 -15q0 -16 18 -20q46 -12 180 -11h21q67 1 99 11q48 15 63 107q7 41 12 49t15 8q26 0 26 -28v-1q0 -25 -5 -57t-7 -47t-2 -39
q-2 -35 -8 -59q-5 -24 -29 -25h-525q-28 0 -28 21q0 9 8 19q194 275 422 527q14 17 14 25t-14 8h-323q-31 0 -36 -7l-9 -9t-5 -13l-5 -15t-4 -22q-4 -16 -7 -26q-5 -22 -23 -22t-18 25l8 150v37zM210 887q14 0 25 -10t19 -18t14 -12q5 -3 11 -9q5 -6 9 -8t8 -6q12 -9 23 -9
t52 36t55 36t13 -11q0 -11 -86 -116q-18 -24 -34 -24t-34 21q-89 104 -89 117t14 13z" />
    <glyph glyph-name="zcaron" unicode="&#x17e;" horiz-adv-x="361" 
d="M58 294q-19 0 -19 13q0 1 1 6q9 45 9 96v30q0 15 16 15h6q11 0 13 -18t15 -19h218q22 0 22 -15q0 -2 -6 -14q-227 -308 -227 -315q0 -8 16 -8h145l15 -1q14 0 16 8t2 10t2 8q1 6 3 13q2 8 4 22q5 16 23 16t18 -17l-2 -8q-2 -8 -2 -21q-2 -13 -6 -43t-3 -71l1 -45v-9
q0 -20 -24 -20t-23 18v60q0 15 -17 15h-232q-30 0 -30 23q0 9 13 30l204 275q6 6 6 13q0 14 -20 14h-119q-9 1 -12 -5t-7 -25q0 -31 -19 -31zM89 699q-1 16 13 16q14 -1 24 -17t19 -34t17 -29l10 -15t10 -3q8 -1 25 31q19 32 29 50t23 17q13 0 13 -15q0 -6 -25 -78t-37 -100
t-28 -28t-30 28q-13 28 -33 86q-20 60 -25 74t-5 17z" />
    <glyph glyph-name="longs" unicode="&#x17f;" horiz-adv-x="240" 
d="M84 350q0 10 -26 10h-27q-21 0 -21 24t21 24q13 1 29 1t19 1t3 8v1q4 121 38 181t87 90t95 30t60 -16t18 -34q0 -17 -12 -29t-28 -12t-42 12t-43 12q-51 1 -77 -61t-26 -156l1 -71v-304q0 -23 20 -24q16 -2 26 -2q9 -1 15 -1q16 -1 16 -20q0 -20 -16 -20l-90 6l-91 -6
q-15 0 -15 19t16 21t31 5q15 0 17 30t2 281z" />
    <glyph glyph-name="uni0237" unicode="&#x237;" horiz-adv-x="232" 
d="M27 380q0 6 9 12q8 4 36 16t34 15t18 7t20 8t10 4q10 0 10 -16l-2 -191l4 -300q0 -55 -101 -137q-35 -30 -57 -29q-44 0 -44 34q0 15 12 29t32 14l30 -3q29 -1 43 23t14 56l-1 92v88l2 212l-1 11q-1 8 -9 13q-8 4 -14 8l-9 6l-12 8q-8 6 -16 10t-8 10z" />
    <glyph glyph-name="circumflex" unicode="&#x2c6;" horiz-adv-x="215" 
d="M199 495q1 -16 -13 -16q-14 -1 -24 17t-29 50q-18 32 -24 31q-7 -1 -13 -7t-19 -32q-15 -26 -25 -42q-10 -17 -23 -17t-13 15q0 6 24 78t38 100q12 28 28 28t30 -28q13 -28 33 -86q20 -60 25 -74t5 -17z" />
    <glyph glyph-name="caron" unicode="&#x2c7;" horiz-adv-x="215" 
d="M16 684q0 16 14 16t22 -16q10 -16 20 -34t18 -30t9 -15q2 -3 10 -3t25 32q18 32 28 48q10 18 24 18q13 0 13 -15q0 -6 -25 -78t-37 -100q-13 -28 -29 -28q-16 -1 -29 27t-33 88t-25 74t-5 16z" />
    <glyph glyph-name="breve" unicode="&#x2d8;" horiz-adv-x="272" 
d="M15 633q1 10 15 10q19 0 21 -15q3 -22 21 -45q27 -34 60 -34h1q47 0 81 61q14 23 16 28q2 4 14 4t13 -6q-1 -6 -7 -29q-6 -21 -20 -51t-40 -52q-28 -22 -62 -23q-88 0 -113 149v3z" />
    <glyph glyph-name="dotaccent" unicode="&#x2d9;" horiz-adv-x="146" 
d="M15 534q-1 24 17 40t42 17q24 -1 40 -17q17 -16 17 -39q1 -23 -17 -39t-42 -17q-24 0 -40 16q-17 15 -17 39z" />
    <glyph glyph-name="ring" unicode="&#x2da;" horiz-adv-x="196" 
d="M98 612q-19 0 -32 -14t-13 -35q-1 -20 13 -35t33 -15t32 15t13 34q0 18 -14 34t-32 16zM98 650q36 0 60 -26t25 -62q0 -36 -25 -62t-60 -26t-60 26t-25 62t25 62q24 26 60 26z" />
    <glyph glyph-name="tilde" unicode="&#x2dc;" horiz-adv-x="336" 
d="M222 622q22 0 38 12q17 12 27 22q10 12 14 12q3 0 11 -4t8 -10t-20 -28q-49 -58 -85 -58q-37 0 -67 22t-49 23q-19 0 -35 -13t-24 -26t-12 -13q-2 -1 -7 5t-5 10t18 30t34 42t41 17t58 -21t55 -22z" />
    <glyph glyph-name="endash" unicode="&#x2013;" horiz-adv-x="527" 
d="M27 250v4q0 25 14 25h446q14 0 14 -25v-2q0 -28 -14 -28h-446q-14 0 -14 26z" />
    <glyph glyph-name="emdash" unicode="&#x2014;" horiz-adv-x="1068" 
d="M1042 252q0 -28 -14 -28h-987q-14 0 -14 26v4q0 25 14 25h987q14 0 14 -25v-2z" />
    <glyph glyph-name="quoteleft" unicode="&#x2018;" 
d="M139 563q50 1 50 -45q1 -18 -17 -36t-48 -18t-58 28q-27 28 -27 74q0 47 16 84t37 36q22 -1 22 -19q0 -5 -18 -25t-18 -39q0 -41 43 -41z" />
    <glyph glyph-name="quoteright" unicode="&#x2019;" 
d="M88 585q-49 -1 -49 45q0 18 17 36q18 18 48 18t58 -28t27 -74q0 -48 -16 -84t-38 -36t-22 19q0 5 18 26t18 39q0 40 -43 40z" />
    <glyph glyph-name="quotesinglbase" unicode="&#x201a;" 
d="M88 -45q-50 -1 -50 45q0 18 18 36t48 18t57 -28t27 -74t-16 -83t-37 -37q-22 0 -22 19q-1 5 17 26t18 42q0 37 -43 37z" />
    <glyph glyph-name="quotedblleft" unicode="&#x201c;" horiz-adv-x="416" 
d="M139 563q49 1 49 -45q0 -18 -17 -36t-47 -18t-58 28t-28 74q0 47 16 84t38 36t22 -19q0 -5 -18 -25t-18 -42q0 -38 43 -38zM329 563q49 1 49 -45q0 -18 -17 -36t-47 -18t-58 28t-28 74q0 47 16 84t38 36t22 -19q0 -5 -18 -25t-18 -42q0 -38 43 -38z" />
    <glyph glyph-name="quotedblright" unicode="&#x201d;" horiz-adv-x="416" 
d="M278 585q-50 -1 -50 45q0 18 18 36t48 18t57 -28t27 -74t-16 -83t-40 -37h-1q-7 0 -13 6t-5 12q-1 6 17 27t18 42q0 37 -43 37zM88 585q-50 -1 -50 45q0 18 18 36t48 18t57 -28t27 -74t-16 -83t-40 -37h-1q-7 0 -13 6t-5 12q-1 6 17 27t18 42q0 37 -43 37z" />
    <glyph glyph-name="quotedblbase" unicode="&#x201e;" horiz-adv-x="416" 
d="M278 -45q-50 -1 -50 45q0 18 18 36t48 18t57 -28t27 -74t-16 -83t-37 -37q-22 0 -22 19q-1 5 17 26t18 42q0 37 -43 37zM88 -45q-50 -1 -50 45q0 18 18 36t48 18t57 -28t27 -74t-16 -83t-37 -37q-22 0 -22 19q-1 5 17 26t18 42q0 37 -43 37z" />
    <glyph glyph-name="bullet" unicode="&#x2022;" horiz-adv-x="286" 
d="M142 188q-33 0 -56 24t-23 57t24 56t57 23t56 -24t23 -57t-24 -56t-57 -23z" />
    <glyph glyph-name="minute" unicode="&#x2032;" horiz-adv-x="224" 
d="M58 457q-20 0 -20 23v1q0 4 59 178q21 56 53 56q17 0 27 -11q10 -12 10 -26t-14 -40q-93 -166 -99 -174t-16 -7z" />
    <glyph glyph-name="second" unicode="&#x2033;" horiz-adv-x="389" 
d="M223 457q-20 0 -20 22v1q0 5 60 179q19 56 53 56q16 0 26 -11q10 -10 10 -26t-13 -39t-54 -96t-47 -80q-5 -6 -15 -6zM58 457q-20 0 -20 22v1q0 5 59 179q21 56 53 56q17 0 27 -11q10 -12 10 -26t-14 -40q-93 -166 -99 -174t-16 -7z" />
    <glyph glyph-name="guilsinglleft" unicode="&#x2039;" horiz-adv-x="223" 
d="M201 316q0 -6 -41 -52t-50 -57q-9 -10 -9 -14q-1 -4 49 -61t50 -62q0 -6 -5 -12t-11 -6t-157 132q-5 5 -5 10t7 10q151 130 157 130t10 -6q5 -6 5 -12z" />
    <glyph glyph-name="guilsinglright" unicode="&#x203a;" horiz-adv-x="223" 
d="M38 334q4 0 61 -49t79 -67t23 -25v-1q1 -4 -53 -50t-79 -68t-30 -22t-11 6t-5 11q-1 6 49 63t50 61t-4 8l-92 104q-4 4 -4 10q0 7 6 13t10 6z" />
    <glyph glyph-name="fraction" unicode="&#x2044;" horiz-adv-x="435" 
d="M25 -187q-19 0 -19 9t377 749q5 9 25 9t21 -18q-1 -1 -189 -371t-192 -374t-23 -4z" />
    <glyph glyph-name="Euro" unicode="&#x20ac;" horiz-adv-x="713" 
d="M668 64q-98 -78 -203 -78t-199 56q-95 56 -137 192h-105l25 62h70v49h-99l25 61h84q54 184 235 236q44 12 100 12q126 0 229 -100l-28 -63q-15 24 -52 51q-71 52 -155 52q-83 0 -156 -45t-109 -143h437l-25 -61h-425l-1 -24l1 -25h404l-26 -62h-365q21 -64 67 -108
q83 -80 184 -80q100 0 160 44q31 23 60 53l4 -1v-78z" />
    <glyph glyph-name="trademark" unicode="&#x2122;" horiz-adv-x="919" 
d="M376 636q0 -13 -12 -13q-4 0 -14 10q-2 6 -6 12q-4 5 -6 9l-4 8t-3 5q-1 2 -3 4l-2 3q-4 2 -6 1h-76q-8 0 -8 -11v-254q0 -6 6 -8t24 -4t20 -4q2 -4 2 -14t-10 -10l-64 3h-2l-66 -3q-12 0 -12 14t12 14l12 1l14 1q14 2 14 16v246q0 13 -10 13h-74q-9 0 -13 -4
q-4 -3 -11 -19t-10 -21q0 -11 -13 -11t-13 15l14 68q3 8 12 8h284q9 -1 11 -7q1 -6 7 -36t6 -32zM398 386q0 16 38 15q8 1 11 11t9 96t6 112t-11 44t-31 18t-20 12t10 11h70q10 0 14 -7l92 -153q60 -96 64 -96t4 5l128 237q1 3 2 5q4 9 12 9h72q10 -1 10 -13t-25 -15
t-25 -16q0 -47 2 -234v-6q0 -21 17 -23q4 0 19 -1q12 1 12 -13t-12 -14l-60 3h-2l-62 -3q-12 0 -12 12t7 13t23 3t18 7q4 5 4 18v103q0 79 -2 79q-8 -5 -70 -120t-66 -118q-4 -2 -8 -2h-2q-8 0 -17 19q-51 107 -88 164t-39 57l-2 -101q0 -75 2 -89t8 -14q38 1 38 -15
t-10 -16l-58 3l-60 -3q-10 0 -10 16z" />
    <glyph glyph-name="minus" unicode="&#x2212;" horiz-adv-x="701" 
d="M76 231q-23 0 -23 22v13q0 22 24 22h552q20 0 20 -19v-14q0 -24 -27 -24h-546z" />
    <glyph glyph-name="dotmath" unicode="&#x22c5;" 
d="M113 318q24 0 42 -18t18 -41q0 -24 -17 -41q-18 -17 -42 -17t-42 17t-18 42q0 26 18 42t41 16z" />
    <glyph glyph-name="circumflex.cap" horiz-adv-x="271" 
d="M243 732q-14 0 -26 11t-23 21q-10 10 -16 14l-12 10q-21 16 -32 16t-52 -36q-40 -36 -54 -36t-14 14q0 6 32 46t52 66t36 25q16 0 35 -22q88 -102 88 -115q0 -14 -14 -14z" />
    <glyph glyph-name="acute.cap" horiz-adv-x="282" 
d="M17 750q0 13 19 26l138 100q30 23 48 23q18 -1 31 -11q12 -10 12 -24t-9 -25t-14 -13q-191 -96 -208 -96t-17 20z" />
    <glyph glyph-name="grave.cap" horiz-adv-x="282" 
d="M265 749q0 -19 -20 -19h-1q-6 0 -186 86q-41 20 -41 42q0 42 39 41q22 0 52 -23q149 -108 153 -115t4 -12z" />
    <glyph glyph-name="breve.cap" horiz-adv-x="324" 
d="M162 793q29 0 57 17t45 34q16 17 22 17q6 1 14 -7t9 -14t-17 -32t-54 -52q-36 -28 -74 -28h-4q-38 0 -74 28t-52 52q-18 26 -18 32t8 14t13 7q5 0 23 -17t46 -34t56 -17z" />
    <glyph glyph-name="caron.cap" horiz-adv-x="271" 
d="M28 883q14 0 25 -10t19 -18t14 -12q5 -3 11 -9q5 -6 9 -8t8 -6q12 -9 23 -9t52 36t55 36t13 -14q-1 -7 -33 -47t-52 -64q-20 -26 -35 -26q-16 0 -34 21q-89 104 -89 117t14 13z" />
    <glyph glyph-name="quotedblleft.001" horiz-adv-x="476" 
d="M139 563q49 1 49 -45q0 -18 -17 -36t-47 -18t-58 28t-28 74q0 47 16 84t38 36t22 -19q0 -5 -18 -25t-18 -42q0 -38 43 -38zM389 563q49 1 49 -45q0 -18 -17 -36t-47 -18t-58 28t-28 74q0 47 16 84t38 36t22 -19q0 -5 -18 -25t-18 -42q0 -38 43 -38z" />
    <glyph glyph-name="quotedblright.001" horiz-adv-x="476" 
d="M338 585q-50 -1 -50 45q0 18 18 36t48 18t57 -28t27 -74t-16 -83t-40 -37h-1q-7 0 -13 6t-5 12q-1 6 17 27t18 42q0 37 -43 37zM88 585q-50 -1 -50 45q0 18 18 36t48 18t57 -28t27 -74t-16 -83t-40 -37h-1q-7 0 -13 6t-5 12q-1 6 17 27t18 42q0 37 -43 37z" />
    <glyph glyph-name="quotedblbase.001" horiz-adv-x="476" 
d="M338 -45q-50 -1 -50 45q0 18 18 36t48 18t57 -28t27 -74t-16 -83t-37 -37q-22 0 -22 19q-1 5 17 26t18 42q0 37 -43 37zM88 -45q-50 -1 -50 45q0 18 18 36t48 18t57 -28t27 -74t-16 -83t-37 -37q-22 0 -22 19q-1 5 17 26t18 42q0 37 -43 37z" />
    </font>
</defs>
</svg>
