<?xml version="1.0" standalone="no"?>
<!DOCTYPE svg PUBLIC "-//W3C//DTD SVG 1.1//EN" "http://www.w3.org/Graphics/SVG/1.1/DTD/svg11.dtd" >
<svg xmlns="http://www.w3.org/2000/svg">
<metadata>
Created by Font 20130207 at Fri May 10 10:51:34 2013
 By Olivier van Helden
(c) 1987, 2001 Adobe Systems Incorporated. All rights reserved.
</metadata>
<defs>
<font id="afurpvibmf" >
  <font-face 
    font-family="OratorStd"
    font-weight="400"
    font-stretch="normal"
    units-per-em="1000"
    panose-1="2 13 5 9 2 2 3 3 2 4"
    ascent="667"
    descent="-333"
    x-height="521"
    cap-height="667"
    bbox="-3 -288 604 1046"
    underline-thickness="63"
    underline-position="-28"
    unicode-range="U+0020-FB02"
  />
<missing-glyph 
d="M100 605v-510l170 255zM130 50h340l-170 255zM330 350l170 -255v510zM300 395l170 255h-340zM50 0v700h500v-700h-500z" />
    <glyph glyph-name=".notdef" 
d="M100 605v-510l170 255zM130 50h340l-170 255zM330 350l170 -255v510zM300 395l170 255h-340zM50 0v700h500v-700h-500z" />
    <glyph glyph-name=".null" horiz-adv-x="0" 
 />
    <glyph glyph-name="nonmarkingreturn" 
 />
    <glyph glyph-name="space" unicode=" " 
 />
    <glyph glyph-name="exclam" unicode="!" 
d="M254 0v148h92v-148h-92zM331 207h-64l-18 460h102z" />
    <glyph glyph-name="quotedbl" unicode="&#x22;" 
d="M333 676h92v-111l-27 -135h-38l-27 135v111zM176 676h92v-111l-27 -135h-38l-27 135v111z" />
    <glyph glyph-name="numbersign" unicode="#" 
d="M329 -96h-45l165 901h44l-58 -321h135l-9 -44h-134l-28 -157h134l-8 -44h-134zM267 805h44l-162 -901h-45l61 335h-134l8 44h134l28 157h-134l8 44h134z" />
    <glyph glyph-name="dollar" unicode="$" 
d="M136 458q0 52 37 89t89 46v83h70v-83q78 -7 140 -87l-49 -43q-55 62 -91 67v-164q66 -10 109 -48t43 -100t-46 -102t-106 -42v-83h-70v83q-87 4 -146 99l55 40q48 -70 91 -76v181q-54 14 -90 50q-36 38 -36 90zM206 456q0 -24 16 -44t40 -27v145q-24 -6 -40 -28t-16 -46z
M414 216q0 33 -24 55t-58 27v-161q34 2 58 24t24 55z" />
    <glyph glyph-name="percent" unicode="%" 
d="M214 475q50 -1 49 75q1 76 -49 76t-50 -76t50 -75zM493 116q0 -52 -29 -88q-28 -36 -80 -37q-52 1 -81 37t-29 88t29 88t81 37q52 -1 80 -37q29 -36 29 -88zM366 595q-26 0 -52 9q9 -26 9 -66t-29 -76q-28 -36 -80 -37q-52 1 -81 37t-29 88t29 90q29 36 81 36
q22 0 70 -16t100 -15q52 0 98 30l36 -20l-376 -664l-60 32l330 580q-20 -8 -46 -8zM334 116q0 -75 50 -75t49 75q1 75 -49 75t-50 -75z" />
    <glyph glyph-name="ampersand" unicode="&#x26;" 
d="M147 438q-1 48 35 86t94 38t96 -40q37 -40 37 -91q-1 -53 -25 -87t-84 -74l98 -133q24 36 29 98l66 -13q-10 -83 -53 -142l41 -57l-51 -37l-36 49q-58 -44 -122 -44t-110 43t-46 99q0 55 24 87t71 64l-15 20q-26 34 -38 60t-11 74zM276 499q-66 1 -66 -75q0 -36 54 -105
l21 15q38 27 49 48q12 21 12 48t-19 48t-51 21zM186 140q0 -36 26 -61t68 -25t78 33l-110 149q-32 -22 -47 -42q-15 -18 -15 -54z" />
    <glyph glyph-name="quotesingle" unicode="'" 
d="M254 676h92v-111l-27 -135h-38l-27 135v111z" />
    <glyph glyph-name="parenleft" unicode="(" 
d="M278 305q0 -214 124 -332l-40 -40q-74 63 -114 165t-40 207t40 207t114 164l40 -39q-124 -118 -124 -332z" />
    <glyph glyph-name="parenright" unicode=")" 
d="M392 305q0 -105 -40 -207t-114 -165l-40 40q124 118 124 332t-124 332l40 39q74 -62 114 -164t40 -207z" />
    <glyph glyph-name="asterisk" unicode="*" 
d="M300 548q-12 0 -20 -8t-8 -20t8 -20t20 -8t20 8t8 20t-8 20t-20 8zM143 564l100 -10l-63 74l68 48l52 -94l52 94l68 -48l-63 -74l100 10v-88l-100 9l63 -73l-68 -49l-52 95l-52 -95l-68 49l63 73l-100 -9v88z" />
    <glyph glyph-name="plus" unicode="+" 
d="M566 382v-44h-244v-244h-44v244h-244v44h244v244h44v-244h244z" />
    <glyph glyph-name="comma" unicode="," 
d="M265 148h92v-45q1 -49 -31 -93t-80 -69l-23 55q42 27 42 91v61z" />
    <glyph glyph-name="hyphen" unicode="-" 
d="M189 229v63h222v-63h-222z" />
    <glyph glyph-name="period" unicode="." 
d="M254 0v148h92v-148h-92z" />
    <glyph glyph-name="slash" unicode="/" 
d="M175 -27h-46l296 774h46z" />
    <glyph glyph-name="zero" unicode="0" 
d="M184 379v-46q0 -213 46 -257q24 -22 63 -22t58 9t42 50t23 168q0 128 -6 180q-11 99 -37 126q-27 26 -67 26t-63 -16t-35 -35q-24 -41 -24 -183zM114 400q0 78 12 131q30 145 174 145q111 0 149 -83t38 -174l-1 -86v-24q-1 -25 0 -54t-3 -59t-10 -60t-20 -56t-33 -46
t-50 -32t-70 -11q-39 0 -70 11q-31 10 -50 30t-33 46t-20 54q-6 30 -10 60t-3 60v49v99z" />
    <glyph glyph-name="one" unicode="1" 
d="M279 60v526l-122 -47l-21 61l210 80v-620h143v-60h-378v60h168z" />
    <glyph glyph-name="two" unicode="2" 
d="M114 0v60l247 319q56 73 56 123q1 50 -29 80t-82 31t-84 -37t-41 -97l-66 9q13 88 61 138t132 50q82 0 130 -46t49 -121q0 -76 -70 -166l-218 -283h287v-60h-372z" />
    <glyph glyph-name="three" unicode="3" 
d="M111 607v60h370v-60l-185 -189q82 2 138 -44t55 -126q0 -129 -121 -203q-87 -54 -248 -54v63q136 0 188 28q112 62 111 164q0 60 -43 86t-106 26q-9 0 -78 -8v54l197 203h-278z" />
    <glyph glyph-name="four" unicode="4" 
d="M371 167h-261l99 513l67 -18l-86 -435h181v339h67v-339h53v-60h-53v-167h-67v167z" />
    <glyph glyph-name="five" unicode="5" 
d="M137 325v342h342v-60h-275v-205q58 21 116 21t112 -48q52 -49 52 -121q0 -138 -118 -213q-79 -50 -250 -50v63q141 0 191 27q107 58 107 165q0 54 -32 84t-82 30q-49 0 -115 -35h-48z" />
    <glyph glyph-name="six" unicode="6" 
d="M301 54q57 0 87 44t30 109q0 154 -112 154q-54 0 -123 -65q-1 -197 73 -233q18 -9 45 -9zM326 613q-40 0 -62 -11t-36 -33q-29 -47 -36 -96t-9 -103q65 54 143 54t120 -61t42 -154t-50 -155t-142 -63q-49 -1 -85 23q-62 40 -80 127t-18 185q0 350 199 350q85 0 148 -58
l-38 -55q-56 50 -96 50z" />
    <glyph glyph-name="seven" unicode="7" 
d="M144 607v60h372l-303 -680l-60 27l266 593h-275z" />
    <glyph glyph-name="eight" unicode="8" 
d="M469 497q0 -82 -111 -152q65 -33 99 -72t34 -111t-55 -122t-136 -49q-81 -1 -136 49t-55 122t34 111t100 72q-112 70 -112 152q0 83 48 131t121 48t121 -48t48 -131zM300 613q-46 -1 -72 -31t-27 -59q1 -29 3 -41t5 -19q3 -8 11 -18q8 -11 12 -15t16 -14q15 -12 34 -24
l18 -12l18 12q62 41 71 67q10 26 10 59q-1 34 -27 64t-72 31zM300 54q51 0 86 31t35 74q1 43 -11 60q-12 18 -18 26t-20 19q-16 12 -22 16t-25 16l-25 15l-25 -15q-19 -12 -25 -16t-22 -16q-50 -35 -49 -92q0 -56 35 -87t86 -31z" />
    <glyph glyph-name="nine" unicode="9" 
d="M300 613q-58 0 -88 -44t-29 -110q0 -153 112 -153q54 0 122 64q0 198 -72 234q-19 10 -45 9zM274 54q42 0 64 11t36 33q28 45 34 96q7 50 9 103q-62 -54 -141 -54t-121 61t-42 154q-1 94 49 156t138 62t129 -60q40 -60 49 -129t9 -146q0 -350 -199 -350q-85 0 -148 58
l38 55q55 -50 96 -50z" />
    <glyph glyph-name="colon" unicode=":" 
d="M254 284v148h92v-148h-92zM254 0v148h92v-148h-92z" />
    <glyph glyph-name="semicolon" unicode=";" 
d="M265 284v148h92v-148h-92zM265 148h92v-45q1 -49 -31 -93t-80 -69l-23 55q42 27 42 91v61z" />
    <glyph glyph-name="less" unicode="&#x3c;" 
d="M98 360l379 360l25 -32l-340 -328l340 -328l-25 -32z" />
    <glyph glyph-name="equal" unicode="=" 
d="M566 315v-44h-532v44h532zM566 449v-44h-532v44h532z" />
    <glyph glyph-name="greater" unicode="&#x3e;" 
d="M123 720l379 -360l-379 -360l-25 32l340 328l-340 328z" />
    <glyph glyph-name="question" unicode="?" 
d="M250 0v148h92v-148h-92zM311 613q-104 0 -127 -138l-66 17q36 184 191 184q77 0 125 -46t48 -111t-25 -103t-67 -74t-50 -52q-9 -16 -9 -56v-14h-69v17q0 54 10 77q10 22 48 54q36 32 48 44t28 38q16 27 16 65t-26 68t-75 30z" />
    <glyph glyph-name="at" unicode="@" 
d="M233 264q0 -30 26 -31q57 0 87 156l5 26q-49 0 -73 -29q-45 -54 -45 -122zM292 -9q-117 -1 -195 73t-78 216q-1 142 75 265q36 59 97 95q60 36 118 36q104 0 188 -68t84 -198t-64 -200q-37 -40 -77 -40t-56 8t-38 33q-26 -21 -44 -31t-54 -10q-34 0 -60 25t-25 65
q0 90 54 159q25 32 71 47t140 12l-25 -151q-7 -45 -7 -54q0 -40 34 -40q59 0 77 114q4 25 4 46q0 99 -53 159q-52 60 -142 61q-90 0 -158 -91t-69 -246q0 -102 53 -162t147 -60t213 77l24 -63q-117 -77 -234 -77z" />
    <glyph glyph-name="A" unicode="A" 
d="M375 266l-74 312h-2l-74 -312h150zM391 206h-182l-52 -219l-66 18l169 662h80l169 -662l-66 -18z" />
    <glyph glyph-name="B" unicode="B" 
d="M337 0h-215v60h54v547h-54v60h204q60 0 104 -46t44 -129t-71 -122q102 -45 102 -170q0 -100 -47 -150t-121 -50zM243 393h60q101 0 101 106q0 60 -30 84t-92 24h-39v-214zM243 60h91q47 0 74 36t27 105q0 132 -119 132h-73v-273z" />
    <glyph glyph-name="C" unicode="C" 
d="M314 -9q-200 0 -200 342q0 249 112 319q38 24 88 24q104 0 163 -108l-57 -34q-40 79 -106 79q-130 1 -130 -279t130 -280q67 0 118 84l55 -38q-67 -109 -173 -109z" />
    <glyph glyph-name="D" unicode="D" 
d="M240 607v-547h55q90 0 116 67q27 67 27 173t-8 158q-15 96 -46 123q-31 26 -73 26h-71zM173 607h-54v60h176q104 0 159 -67q54 -67 54 -233q0 -167 -14 -210q-27 -87 -72 -122q-46 -35 -125 -35h-178v60h54v547z" />
    <glyph glyph-name="E" unicode="E" 
d="M157 0v667h325v-60h-258v-220h213v-60h-213v-267h258v-60h-325z" />
    <glyph glyph-name="F" unicode="F" 
d="M176 0v667h328v-60h-261v-220h219v-60h-219v-327h-67z" />
    <glyph glyph-name="G" unicode="G" 
d="M476 346v-297q-72 -58 -138 -58t-104 23q-66 41 -90 131q-25 91 -25 167q-1 76 7 128t28 109t60 92q41 35 100 35q102 0 167 -107l-59 -36q-45 80 -112 80q-40 1 -66 -31q-56 -66 -55 -252q0 -276 133 -276q49 0 87 31v201h-125v60h192z" />
    <glyph glyph-name="H" unicode="H" 
d="M130 0v667h67v-280h206v280h67v-667h-67v327h-206v-327h-67z" />
    <glyph glyph-name="I" unicode="I" 
d="M266 60v547h-90v60h248v-60h-91v-547h91v-60h-248v60h90z" />
    <glyph glyph-name="J" unicode="J" 
d="M109 242h67v-67q0 -49 24 -85t71 -36q48 0 74 36t26 94v483h67v-490q0 -90 -49 -138t-117 -48q-68 1 -116 49q-47 48 -47 140v62z" />
    <glyph glyph-name="K" unicode="K" 
d="M229 667v-275h18l186 288l54 -34l-183 -282l219 -343l-56 -34l-215 345h-23v-332h-67v667h67z" />
    <glyph glyph-name="L" unicode="L" 
d="M169 0v667h67v-607h274v-60h-341z" />
    <glyph glyph-name="M" unicode="M" 
d="M300 384l96 283h84l20 -667h-71l-13 556h-2l-114 -335l-114 335h-2l-13 -556h-70l20 667h83z" />
    <glyph glyph-name="N" unicode="N" 
d="M126 0v667h84l198 -561l2 2l-3 149v410h67v-667h-84l-198 562l-2 -2l3 -151v-409h-67z" />
    <glyph glyph-name="O" unicode="O" 
d="M306 613q-22 -1 -38 -5q-14 -4 -25 -15t-20 -21t-15 -30t-10 -31q-4 -12 -6 -37t-4 -36q-2 -18 -3 -72v-32q0 -144 24 -212t91 -68q45 0 62 22q18 22 26 36t13 40t8 42q6 34 6 94v55q0 142 -11 173q-11 32 -23 54q-13 22 -33 32t-42 11zM298 676q42 0 72 -16t49 -36
t33 -56q34 -88 33 -224q0 -127 -10 -167q-24 -97 -63 -141q-39 -45 -121 -45t-129 80q-47 79 -47 227v36q-1 148 19 197t39 80t51 48t74 17z" />
    <glyph glyph-name="P" unicode="P" 
d="M229 607v-250l94 1q98 2 98 126q0 123 -115 123h-77zM229 297v-297h-67v667h145q89 0 137 -46q48 -45 47 -133q1 -88 -45 -140t-117 -51h-100z" />
    <glyph glyph-name="Q" unicode="Q" 
d="M415 331q0 282 -115 282t-115 -285q0 -177 51 -243q24 -31 60 -31t57 22l-85 101l51 43l70 -83q26 79 26 194zM300 -9q-78 0 -132 84t-53 255q-1 170 51 258t132 88t134 -84t53 -252q0 -170 -50 -259l49 -58l-51 -42l-39 47q-42 -37 -94 -37z" />
    <glyph glyph-name="R" unicode="R" 
d="M162 0v667h180q56 0 102 -47q46 -48 47 -122q0 -157 -115 -196l138 -286l-60 -29l-150 310h-75v-297h-67zM327 357q94 0 94 125t-110 125h-82v-250h98z" />
    <glyph glyph-name="S" unicode="S" 
d="M304 613q-44 -1 -66 -31t-22 -74t20 -66q20 -24 94 -68t107 -84t33 -117t-44 -129t-124 -53q-154 0 -171 184l67 9q8 -66 29 -98t71 -32q104 0 105 119q-1 46 -15 67l-21 30t-32 26q-25 17 -60 36q-62 36 -94 70t-32 104t43 120t112 50q126 0 157 -151l-65 -10
q-22 98 -92 98z" />
    <glyph glyph-name="T" unicode="T" 
d="M268 0v607h-144v60h352v-60h-141v-607h-67z" />
    <glyph glyph-name="U" unicode="U" 
d="M137 667h67v-485q0 -60 20 -94t76 -34q57 0 77 35t20 93v485h67v-505q0 -78 -45 -124t-119 -47q-74 1 -119 47q-44 46 -44 121v508z" />
    <glyph glyph-name="V" unicode="V" 
d="M300 181l138 499l68 -14l-198 -679h-16l-198 679l68 14z" />
    <glyph glyph-name="W" unicode="W" 
d="M441 680l67 -13l-67 -680h-29l-111 403h-2l-111 -403h-29l-67 680l67 13l32 -501h2l97 351h20l97 -351h2z" />
    <glyph glyph-name="X" unicode="X" 
d="M301 292l-148 -305l-60 28l174 348l-143 286l62 31l114 -249l114 249l62 -31l-143 -286l174 -348l-60 -28z" />
    <glyph glyph-name="Y" unicode="Y" 
d="M333 0h-67v263l-172 392l62 25l144 -339l144 339l62 -25l-173 -392v-263z" />
    <glyph glyph-name="Z" unicode="Z" 
d="M133 607v60h355l-282 -607h290v-60h-392l283 607h-254z" />
    <glyph glyph-name="bracketleft" unicode="[" 
d="M178 676h270v-60h-203v-594h203v-60h-270v714z" />
    <glyph glyph-name="backslash" unicode="\" 
d="M425 -27l-296 774h46l296 -774h-46z" />
    <glyph glyph-name="bracketright" unicode="]" 
d="M422 676v-714h-270v60h203v594h-203v60h270z" />
    <glyph glyph-name="asciicircum" unicode="^" 
d="M160 357h-50l164 323h52l161 -323h-50l-137 275z" />
    <glyph glyph-name="underscore" unicode="_" 
d="M600 -108h-600v36h600v-36z" />
    <glyph glyph-name="grave" unicode="`" 
d="M236 695l177 -101l-26 -44l-187 82z" />
    <glyph glyph-name="a" unicode="a" 
d="M374 202l-74 241l-74 -241h148zM393 142h-185l-49 -155l-66 24l164 510h86l164 -510l-66 -24z" />
    <glyph glyph-name="b" unicode="b" 
d="M416 275q89 -28 89 -139q-1 -58 -45 -97t-126 -39h-212v60h54v401h-54v60h164q189 0 189 -139q0 -75 -59 -107zM243 298h75q42 0 64 24t23 60q0 79 -91 79h-71v-163zM321 60q114 0 114 80q0 46 -26 72t-72 26h-94v-178h78z" />
    <glyph glyph-name="c" unicode="c" 
d="M184 278q0 -224 125 -224q43 0 69 21t54 63l55 -38q-69 -109 -173 -109q-150 0 -190 172q-10 45 -10 108q0 138 62 198q62 61 126 61t102 -28t69 -83l-61 -31q-41 79 -109 79t-94 -68q-25 -69 -25 -121z" />
    <glyph glyph-name="d" unicode="d" 
d="M240 461v-401h71q67 0 97 45t30 157t-32 156t-97 43h-69zM119 461v60h174q115 -1 165 -57t50 -210t-55 -204t-160 -50h-174v60h54v401h-54z" />
    <glyph glyph-name="e" unicode="e" 
d="M157 0v521h325v-60h-258v-156h213v-60h-213v-185h258v-60h-325z" />
    <glyph glyph-name="f" unicode="f" 
d="M176 0v521h328v-60h-261v-156h219v-60h-219v-245h-67z" />
    <glyph glyph-name="g" unicode="g" 
d="M119 233q0 297 195 297q106 0 167 -100l-57 -37q-44 74 -116 74t-96 -69q-23 -69 -23 -122q0 -89 24 -155q24 -67 89 -67q64 0 107 27v137h-125v60h192v-230q-70 -57 -143 -57q-127 0 -171 82q-43 81 -43 160z" />
    <glyph glyph-name="h" unicode="h" 
d="M130 0v521h67v-216h206v216h67v-521h-67v245h-206v-245h-67z" />
    <glyph glyph-name="i" unicode="i" 
d="M193 0v60h73v401h-73v60h214v-60h-74v-401h74v-60h-214z" />
    <glyph glyph-name="j" unicode="j" 
d="M270 54q101 0 101 104v363h67v-376q0 -62 -44 -108t-126 -46t-120 49t-39 154h67q-2 -76 20 -108t74 -32z" />
    <glyph glyph-name="k" unicode="k" 
d="M229 521v-222h25l179 235l51 -40l-173 -219l203 -245l-51 -43l-211 257h-23v-244h-67v521h67z" />
    <glyph glyph-name="l" unicode="l" 
d="M170 0v521h67v-461h273v-60h-340z" />
    <glyph glyph-name="m" unicode="m" 
d="M300 147l-117 275h-2l-13 -422h-71l21 521h88l94 -226l94 226h88l21 -521h-71l-13 422h-2z" />
    <glyph glyph-name="n" unicode="n" 
d="M126 0v521h83l202 -439l2 2l-6 135v302h67v-521h-83l-202 439l-2 -2l6 -136v-301h-67z" />
    <glyph glyph-name="o" unicode="o" 
d="M300 54q115 0 115 206t-115 207q-115 -1 -115 -207t115 -206zM427 470q58 -60 58 -210q1 -206 -117 -256q-30 -13 -63 -13q-33 -1 -57 7q-57 17 -95 81q-38 63 -38 159q1 96 17 151t44 85q53 56 123 56t128 -60z" />
    <glyph glyph-name="p" unicode="p" 
d="M229 284h92q101 0 101 88t-101 89h-92v-177zM229 224v-224h-67v521h162q84 0 126 -40q42 -39 42 -109t-45 -109t-106 -39h-112z" />
    <glyph glyph-name="q" unicode="q" 
d="M300 467q-115 -1 -115 -207t115 -206q27 0 52 14l-87 79l41 46l84 -77q25 59 25 144q0 207 -115 207zM311 -9q-79 0 -138 59q-58 59 -58 204q0 144 53 210t127 66t132 -60t58 -198q0 -137 -44 -202l59 -54l-42 -45l-58 53q-44 -33 -89 -33z" />
    <glyph glyph-name="r" unicode="r" 
d="M149 0v521h177q70 0 113 -35q43 -36 43 -96t-30 -102t-76 -55l128 -211l-58 -35l-133 236h-97v-223h-67zM216 283h88q48 0 78 26q30 27 30 67q0 86 -88 85h-108v-178z" />
    <glyph glyph-name="s" unicode="s" 
d="M305 54q43 0 71 23t27 61q0 38 -13 52q-13 12 -21 18t-12 8t-14 8q-10 4 -14 6q-3 2 -15 7t-16 7t-24 9q-20 8 -26 11q-6 2 -22 10t-22 13t-16 13q-12 8 -16 18q-4 8 -14 24q-8 16 -8 65q0 51 44 87t109 36q125 0 159 -131l-64 -19q-20 87 -96 87q-35 0 -60 -18
q-25 -17 -25 -43q0 -43 17 -58q17 -14 53 -31l111 -49q72 -40 72 -118t-46 -118q-46 -41 -118 -41t-118 42t-57 113l60 19q23 -111 114 -111z" />
    <glyph glyph-name="t" unicode="t" 
d="M268 0v461h-144v60h352v-60h-141v-461h-67z" />
    <glyph glyph-name="u" unicode="u" 
d="M137 521h67v-355q0 -60 20 -86t76 -26q55 0 76 26t21 86v355h67v-387q0 -58 -42 -100t-122 -43q-80 1 -122 43t-41 104v383z" />
    <glyph glyph-name="v" unicode="v" 
d="M300 152l142 382l64 -24l-200 -523h-12l-200 523l64 24z" />
    <glyph glyph-name="w" unicode="w" 
d="M93 526l69 8l40 -366h2l87 256h18l87 -256h2l41 366l68 -8l-75 -539h-23l-109 321l-109 -321h-23z" />
    <glyph glyph-name="x" unicode="x" 
d="M300 217l-139 -230l-60 34l161 255l-147 223l61 35l124 -198l124 198l61 -35l-147 -223l161 -255l-60 -34z" />
    <glyph glyph-name="y" unicode="y" 
d="M333 0h-67v201l-168 300l63 33l139 -268l139 268l63 -33l-169 -300v-201z" />
    <glyph glyph-name="z" unicode="z" 
d="M133 461v60h355l-271 -461h279v-60h-392l273 461h-244z" />
    <glyph glyph-name="braceleft" unicode="{" 
d="M323 199v-140q-1 -57 23 -79t92 -22h23v-25h-33q-100 1 -136 31t-36 109v132q0 54 -14 66q-14 11 -22 14t-30 9q-24 6 -39 10q13 6 37 12q37 10 53 23q15 13 15 65v133q0 75 34 107t115 32h56v-25h-24q-70 1 -92 -21t-22 -79v-140q0 -65 -15 -81t-31 -26q30 -16 38 -40
t8 -65z" />
    <glyph glyph-name="bar" unicode="|" 
d="M278 -288v1080h44v-1080h-44z" />
    <glyph glyph-name="braceright" unicode="}" 
d="M277 410v140q1 57 -23 79t-92 22h-23v25h33q100 0 136 -30t36 -110v-132q0 -54 14 -66q14 -11 22 -14q8 -2 30 -8q24 -6 39 -11q-13 -5 -37 -11q-37 -10 -53 -24q-15 -13 -15 -65v-133q0 -76 -34 -108t-115 -31h-56v25h24q70 0 92 22t22 78v140q0 66 15 82t31 25
q-30 15 -38 39t-8 66z" />
    <glyph glyph-name="asciitilde" unicode="~" 
d="M428 304q-38 0 -130 38t-119 37q-25 0 -49 -16q-24 -17 -35 -31t-21 -32t-13 -21l-31 23q68 121 145 121q43 1 131 -37t118 -38t64 28q32 28 50 65l32 -23q-24 -46 -64 -80t-78 -34z" />
    <glyph glyph-name="uni00A0" unicode="&#xa0;" 
 />
    <glyph glyph-name="exclamdown" unicode="&#xa1;" 
d="M326 460l20 -460h-102l18 460h64zM249 519v148h92v-148h-92z" />
    <glyph glyph-name="cent" unicode="&#xa2;" 
d="M184 336q0 -168 89 -200v401q-89 -33 -89 -201zM340 -9h-67v79q-123 24 -151 180q-8 40 -8 86q0 94 35 171t124 96v73h67v-72q82 -10 133 -108l-61 -32q-30 58 -72 74v-405q49 12 92 81l55 -38q-62 -98 -147 -108v-77z" />
    <glyph glyph-name="sterling" unicode="&#xa3;" 
d="M414 53q29 0 65 36l40 -44q-56 -54 -93 -54t-77 19t-76 19t-106 -38l-36 47q78 130 78 176t-23 130h-106v60h89q-23 75 -23 111q0 69 52 115t116 46q65 0 112 -31t69 -85l-61 -22q-37 78 -111 78q-47 0 -77 -30t-30 -70q0 -41 20 -112h184v-60h-166q5 -23 15 -57t10 -63
q0 -53 -49 -140q34 8 66 8t71 -20q40 -20 47 -19z" />
    <glyph glyph-name="currency" unicode="&#xa4;" 
d="M300 169q81 0 136 55t55 136q0 80 -55 136t-136 56t-136 -56t-55 -136q0 -81 55 -136t136 -55zM300 590q84 0 148 -52l108 107l33 -32l-109 -107q50 -68 50 -146t-50 -146l109 -107l-33 -32l-108 107q-64 -52 -148 -52t-148 52l-108 -107l-33 32l109 107q-50 68 -50 146
t50 146l-109 107l33 32l108 -107q64 52 148 52z" />
    <glyph glyph-name="yen" unicode="&#xa5;" 
d="M480 327v-60h-147v-267h-67v267h-146v60h122l-148 328l62 25l144 -339l144 339l62 -25l-148 -328h122z" />
    <glyph glyph-name="brokenbar" unicode="&#xa6;" 
d="M278 72h44v-360h-44v360zM278 792h44v-360h-44v360z" />
    <glyph glyph-name="section" unicode="&#xa7;" 
d="M220 365q0 -36 40 -57l102 -54q33 25 33 64t-48 63q-8 4 -25 13l-71 36q-31 -29 -31 -65zM396 109q0 21 -2 29t-4 12q-2 6 -8 12l-10 10q-4 2 -12 8l-18 12t-21 10l-48 25q-3 2 -19 10q-16 9 -21 11q-3 2 -17 10t-19 12t-15 14q-10 8 -14 15t-10 21q-8 14 -8 41
q0 62 51 97q-42 36 -42 92t45 91q44 35 98 35t95 -28t60 -75l-59 -26q-30 69 -93 69q-33 0 -55 -18t-21 -40q0 -22 4 -31q5 -9 9 -15t15 -14t16 -10t19 -9l16 -8l44 -22q88 -46 104 -80q8 -19 9 -43q0 -60 -54 -101q55 -42 55 -101t-47 -96t-110 -37q-63 -1 -111 35t-64 96
l67 23q29 -94 113 -94q34 1 58 19t24 39z" />
    <glyph glyph-name="dieresis" unicode="&#xa8;" 
d="M392 680q24 0 36 -20t12 -43t-12 -43t-36 -20t-36 20t-12 43t12 43t36 20zM208 680q24 0 36 -20t12 -43t-12 -43t-36 -20t-36 20t-12 43t12 43t36 20z" />
    <glyph glyph-name="copyright" unicode="&#xa9;" 
d="M304 138q-62 0 -108 57t-47 143q1 86 45 140q44 56 108 56t102 -34t45 -95h-50q-12 79 -86 79q-56 0 -85 -40t-29 -104q0 -66 30 -109t85 -43q76 0 85 84h50q-7 -58 -45 -96t-100 -38zM302 626q-98 0 -174 -80t-75 -206q0 -125 74 -212q75 -87 167 -87q92 1 172 81
t81 204q0 124 -73 212q-74 88 -172 88zM301 676q124 0 210 -100t86 -242q0 -143 -86 -243t-210 -100q-124 1 -211 101t-87 242t87 242t211 100z" />
    <glyph glyph-name="ordfeminine" unicode="&#xaa;" 
d="M140 236v55h320v-55h-320zM333 483l-33 97l-33 -97h66zM351 428h-102l-32 -90l-63 20l111 309h70l111 -309l-63 -20z" />
    <glyph glyph-name="guillemotleft" unicode="&#xab;" 
d="M517 570l47 -49l-205 -191l205 -192l-47 -50l-254 242zM293 570l47 -49l-205 -191l205 -192l-47 -50l-254 242z" />
    <glyph glyph-name="logicalnot" unicode="&#xac;" 
d="M522 173v232h-488v44h532v-276h-44z" />
    <glyph glyph-name="uni00AD" unicode="&#xad;" 
d="M189 229v63h222v-63h-222z" />
    <glyph glyph-name="registered" unicode="&#xae;" 
d="M240 472v-105h91q72 0 72 56q0 31 -19 40t-58 9h-86zM240 317v-176h-50v381h145q118 0 118 -100t-104 -105l101 -176h-59l-95 176h-56zM299 41q101 -1 176 83t75 208t-78 206q-78 84 -172 84t-172 -83t-78 -205t74 -207q74 -86 175 -86zM300 -9q-124 -1 -212 99t-88 242
t88 240q88 100 212 100t212 -100t88 -240q0 -142 -88 -242t-212 -99z" />
    <glyph glyph-name="macron" unicode="&#xaf;" 
d="M444 586h-287v60h287v-60z" />
    <glyph glyph-name="degree" unicode="&#xb0;" 
d="M149 549q1 -63 45 -107t106 -44t106 44t45 107q-1 63 -45 107t-106 44t-106 -44t-45 -107zM107 549q1 81 57 137t136 56t136 -56t57 -137q-1 -81 -57 -137t-136 -56t-136 56t-57 137z" />
    <glyph glyph-name="plusminus" unicode="&#xb1;" 
d="M566 91v-44h-532v44h532zM566 429v-44h-244v-244h-44v244h-244v44h244v244h44v-244h244z" />
    <glyph glyph-name="twosuperior" unicode="&#xb2;" 
d="M189 332v42l132 152q1 2 9 10q22 24 22 46q0 44 -46 44q-54 0 -61 -65l-57 7q6 52 36 80t78 28t79 -24t31 -65t-45 -92l-100 -113h144v-50h-222z" />
    <glyph glyph-name="threesuperior" unicode="&#xb3;" 
d="M408 676v-42l-86 -79q38 -4 65 -28t27 -52q0 -51 -45 -101t-177 -42v50q162 -2 162 83q0 46 -70 46q-17 0 -53 -6v39l92 82h-136v50h221z" />
    <glyph glyph-name="acute" unicode="&#xb4;" 
d="M377 695l36 -63l-187 -82l-26 44z" />
    <glyph glyph-name="mu" unicode="&#xb5;" 
d="M402 0v44q-38 -53 -102 -53t-101 49v-251h-67v732h67v-344q0 -91 71 -117q15 -6 27 -6q53 0 79 44t26 100v323h67v-521h-67z" />
    <glyph glyph-name="paragraph" unicode="&#xb6;" 
d="M57 481q0 195 240 195h246v-60h-46v-683h-67v683h-85v-683h-67v356q-91 -7 -156 47t-65 145z" />
    <glyph glyph-name="periodcentered" unicode="&#xb7;" 
d="M250 360q0 22 14 36t36 14t36 -14t14 -36t-14 -36t-36 -14t-36 14t-14 36z" />
    <glyph glyph-name="cedilla" unicode="&#xb8;" 
d="M338 -110q0 32 -85 32l33 91h60l-18 -55q34 -2 57 -20t23 -52t-29 -54q-29 -22 -65 -22t-101 29l20 51q41 -20 73 -20t32 20z" />
    <glyph glyph-name="onesuperior" unicode="&#xb9;" 
d="M281 382v227l-62 -21l-18 45l140 47v-298h58v-50h-192v50h74z" />
    <glyph glyph-name="ordmasculine" unicode="&#xba;" 
d="M300 621q-62 1 -62 -109t62 -110t63 110q-1 110 -63 109zM300 676q66 0 98 -48t32 -117t-32 -117t-98 -47q-66 -1 -98 47t-31 118q-1 70 31 116q32 48 98 48zM140 236v55h320v-55h-320z" />
    <glyph glyph-name="guillemotright" unicode="&#xbb;" 
d="M307 570l254 -240l-254 -242l-47 50l205 192l-205 191zM83 570l254 -240l-254 -242l-47 50l205 192l-205 191z" />
    <glyph glyph-name="onequarter" unicode="&#xbc;" 
d="M460 680l53 -29l-377 -664l-53 26zM116 382v227l-62 -21l-18 45l140 47v-298h58v-50h-192v50h74zM476 78h-143l58 267l57 -10l-46 -207h74v162h60v-162h28v-50h-28v-78h-60v78z" />
    <glyph glyph-name="onehalf" unicode="&#xbd;" 
d="M334 0v42l132 152q0 2 8 10q22 24 23 46q0 44 -46 44q-54 0 -61 -65l-57 7q6 52 36 80t78 28t79 -24t31 -65t-45 -92l-100 -113h144v-50h-222zM464 680l53 -29l-377 -664l-53 26zM123 382v227l-62 -21l-18 45l140 47v-298h58v-50h-192v50h74z" />
    <glyph glyph-name="threequarters" unicode="&#xbe;" 
d="M257 676v-42l-86 -79q38 -4 65 -28t27 -50q-1 -26 -5 -42q-12 -42 -62 -75t-155 -27v50q162 -2 162 82q0 46 -70 46q-17 0 -53 -6v39l92 82h-136v50h221zM461 680l53 -29l-377 -664l-53 26zM477 78h-143l58 267l57 -10l-46 -207h74v162h60v-162h28v-50h-28v-78h-60v78z
" />
    <glyph glyph-name="questiondown" unicode="&#xbf;" 
d="M257 519v148h92v-148h-92zM289 54q104 0 127 138l66 -17q-36 -184 -191 -184q-77 0 -125 46t-48 111t25 103t67 74q42 35 50 51q9 16 9 57v14h69v-17q0 -54 -10 -77t-48 -55q-36 -32 -48 -42q-12 -12 -28 -39t-16 -65t26 -68t75 -30z" />
    <glyph glyph-name="Agrave" unicode="&#xc0;" 
d="M236 841l177 -101l-26 -44l-187 82zM375 266l-74 312h-2l-74 -312h150zM391 206h-182l-52 -219l-66 18l169 662h80l169 -662l-66 -18z" />
    <glyph glyph-name="Aacute" unicode="&#xc1;" 
d="M377 841l36 -63l-187 -82l-26 44zM375 266l-74 312h-2l-74 -312h150zM391 206h-182l-52 -219l-66 18l169 662h80l169 -662l-66 -18z" />
    <glyph glyph-name="Acircumflex" unicode="&#xc2;" 
d="M300 759l-127 -62l-24 36l151 102l151 -102l-23 -36zM375 266l-74 312h-2l-74 -312h150zM391 206h-182l-52 -219l-66 18l169 662h80l169 -662l-66 -18z" />
    <glyph glyph-name="Atilde" unicode="&#xc3;" 
d="M243 762q-27 0 -48 -62l-49 19q12 31 20 49t30 36q20 18 46 18t65 -29q38 -29 49 -29t16 2q4 2 8 7t7 9q6 8 10 25q4 16 6 19l51 -16q-20 -77 -54 -96q-16 -9 -42 -9q-26 1 -62 29t-53 28zM375 266l-74 312h-2l-74 -312h150zM391 206h-182l-52 -219l-66 18l169 662h80
l169 -662l-66 -18z" />
    <glyph glyph-name="Adieresis" unicode="&#xc4;" 
d="M392 826q24 0 36 -20t12 -43t-12 -43t-36 -20t-36 20t-12 43t12 43t36 20zM208 826q24 0 36 -20t12 -43t-12 -43t-36 -20t-36 20t-12 43t12 43t36 20zM375 266l-74 312h-2l-74 -312h150zM391 206h-182l-52 -219l-66 18l169 662h80l169 -662l-66 -18z" />
    <glyph glyph-name="Aring" unicode="&#xc5;" 
d="M300 807q-19 1 -33 -13t-14 -33q-1 -19 13 -33t34 -14t34 14t13 33q0 19 -14 33t-33 13zM300 847q36 1 62 -25t25 -62q1 -36 -25 -60q-26 -26 -62 -26t-62 26t-25 60q-1 36 25 62t62 25zM375 266l-74 312h-2l-74 -312h150zM391 206h-182l-52 -219l-66 18l169 662h80
l169 -662l-66 -18z" />
    <glyph glyph-name="AE" unicode="&#xc6;" 
d="M284 0v206h-120l-53 -219l-68 18l168 662h297v-60h-157v-220h145v-60h-145v-267h157v-60h-224zM284 266v341h-27l-80 -341h107z" />
    <glyph glyph-name="Ccedilla" unicode="&#xc7;" 
d="M338 -110q0 32 -85 32l26 72q-110 18 -148 174q-17 70 -17 141q0 69 4 111q10 107 55 182q44 74 145 74q100 0 159 -108l-57 -34q-40 79 -106 79q-130 1 -130 -279t130 -280q67 0 118 84l55 -38q-59 -94 -148 -107l-11 -35q34 -2 57 -20t23 -52t-29 -54q-29 -22 -65 -22
t-101 29l20 51q41 -20 73 -20t32 20z" />
    <glyph glyph-name="Egrave" unicode="&#xc8;" 
d="M236 841l177 -101l-26 -44l-187 82zM157 0v667h325v-60h-258v-220h213v-60h-213v-267h258v-60h-325z" />
    <glyph glyph-name="Eacute" unicode="&#xc9;" 
d="M377 841l36 -63l-187 -82l-26 44zM157 0v667h325v-60h-258v-220h213v-60h-213v-267h258v-60h-325z" />
    <glyph glyph-name="Ecircumflex" unicode="&#xca;" 
d="M300 759l-127 -62l-24 36l151 102l151 -102l-23 -36zM157 0v667h325v-60h-258v-220h213v-60h-213v-267h258v-60h-325z" />
    <glyph glyph-name="Edieresis" unicode="&#xcb;" 
d="M392 826q24 0 36 -20t12 -43t-12 -43t-36 -20t-36 20t-12 43t12 43t36 20zM208 826q24 0 36 -20t12 -43t-12 -43t-36 -20t-36 20t-12 43t12 43t36 20zM157 0v667h325v-60h-258v-220h213v-60h-213v-267h258v-60h-325z" />
    <glyph glyph-name="Igrave" unicode="&#xcc;" 
d="M236 841l177 -101l-26 -44l-187 82zM266 60v547h-90v60h248v-60h-91v-547h91v-60h-248v60h90z" />
    <glyph glyph-name="Iacute" unicode="&#xcd;" 
d="M377 841l36 -63l-187 -82l-26 44zM266 60v547h-90v60h248v-60h-91v-547h91v-60h-248v60h90z" />
    <glyph glyph-name="Icircumflex" unicode="&#xce;" 
d="M300 759l-127 -62l-24 36l151 102l151 -102l-23 -36zM266 60v547h-90v60h248v-60h-91v-547h91v-60h-248v60h90z" />
    <glyph glyph-name="Idieresis" unicode="&#xcf;" 
d="M392 826q24 0 36 -20t12 -43t-12 -43t-36 -20t-36 20t-12 43t12 43t36 20zM208 826q24 0 36 -20t12 -43t-12 -43t-36 -20t-36 20t-12 43t12 43t36 20zM266 60v547h-90v60h248v-60h-91v-547h91v-60h-248v60h90z" />
    <glyph glyph-name="Eth" unicode="&#xd0;" 
d="M240 607v-244h79v-60h-79v-243h55q90 0 116 67q27 67 27 173t-8 158q-15 96 -46 123q-31 26 -73 26h-71zM173 607h-54v60h176q104 0 159 -67q54 -67 54 -233q0 -167 -14 -210q-27 -87 -72 -122q-46 -35 -125 -35h-178v60h54v243h-54v60h54v244z" />
    <glyph glyph-name="Ntilde" unicode="&#xd1;" 
d="M243 762q-27 0 -48 -62l-49 19q12 31 20 49t30 36q20 18 46 18t65 -29q38 -29 49 -29t16 2q4 2 8 7t7 9q6 8 10 25q4 16 6 19l51 -16q-20 -77 -54 -96q-16 -9 -42 -9q-26 1 -62 29t-53 28zM126 0v667h84l198 -561l2 2l-3 149v410h67v-667h-84l-198 562l-2 -2l3 -151v-409
h-67z" />
    <glyph glyph-name="Ograve" unicode="&#xd2;" 
d="M236 841l177 -101l-26 -44l-187 82zM306 613q-22 -1 -38 -5q-14 -4 -25 -15t-20 -21t-15 -30t-10 -31q-4 -12 -6 -37t-4 -36q-2 -18 -3 -72v-32q0 -144 24 -212t91 -68q45 0 62 22q18 22 26 36t13 40t8 42q6 34 6 94v55q0 142 -11 173q-11 32 -23 54q-13 22 -33 32
t-42 11zM298 676q42 0 72 -16t49 -36t33 -56q34 -88 33 -224q0 -127 -10 -167q-24 -97 -63 -141q-39 -45 -121 -45t-129 80q-47 79 -47 227v36q-1 148 19 197t39 80t51 48t74 17z" />
    <glyph glyph-name="Oacute" unicode="&#xd3;" 
d="M377 841l36 -63l-187 -82l-26 44zM306 613q-22 -1 -38 -5q-14 -4 -25 -15t-20 -21t-15 -30t-10 -31q-4 -12 -6 -37t-4 -36q-2 -18 -3 -72v-32q0 -144 24 -212t91 -68q45 0 62 22q18 22 26 36t13 40t8 42q6 34 6 94v55q0 142 -11 173q-11 32 -23 54q-13 22 -33 32t-42 11z
M298 676q42 0 72 -16t49 -36t33 -56q34 -88 33 -224q0 -127 -10 -167q-24 -97 -63 -141q-39 -45 -121 -45t-129 80q-47 79 -47 227v36q-1 148 19 197t39 80t51 48t74 17z" />
    <glyph glyph-name="Ocircumflex" unicode="&#xd4;" 
d="M300 759l-127 -62l-24 36l151 102l151 -102l-23 -36zM306 613q-22 -1 -38 -5q-14 -4 -25 -15t-20 -21t-15 -30t-10 -31q-4 -12 -6 -37t-4 -36q-2 -18 -3 -72v-32q0 -144 24 -212t91 -68q45 0 62 22q18 22 26 36t13 40t8 42q6 34 6 94v55q0 142 -11 173q-11 32 -23 54
q-13 22 -33 32t-42 11zM298 676q42 0 72 -16t49 -36t33 -56q34 -88 33 -224q0 -127 -10 -167q-24 -97 -63 -141q-39 -45 -121 -45t-129 80q-47 79 -47 227v36q-1 148 19 197t39 80t51 48t74 17z" />
    <glyph glyph-name="Otilde" unicode="&#xd5;" 
d="M243 762q-27 0 -48 -62l-49 19q12 31 20 49t30 36q20 18 46 18t65 -29q38 -29 49 -29t16 2q4 2 8 7t7 9q6 8 10 25q4 16 6 19l51 -16q-20 -77 -54 -96q-16 -9 -42 -9q-26 1 -62 29t-53 28zM306 613q-22 -1 -38 -5q-14 -4 -25 -15t-20 -21t-15 -30t-10 -31q-4 -12 -6 -37
t-4 -36q-2 -18 -3 -72v-32q0 -144 24 -212t91 -68q45 0 62 22q18 22 26 36t13 40t8 42q6 34 6 94v55q0 142 -11 173q-11 32 -23 54q-13 22 -33 32t-42 11zM298 676q42 0 72 -16t49 -36t33 -56q34 -88 33 -224q0 -127 -10 -167q-24 -97 -63 -141q-39 -45 -121 -45t-129 80
q-47 79 -47 227v36q-1 148 19 197t39 80t51 48t74 17z" />
    <glyph glyph-name="Odieresis" unicode="&#xd6;" 
d="M392 826q24 0 36 -20t12 -43t-12 -43t-36 -20t-36 20t-12 43t12 43t36 20zM208 826q24 0 36 -20t12 -43t-12 -43t-36 -20t-36 20t-12 43t12 43t36 20zM306 613q-22 -1 -38 -5q-14 -4 -25 -15t-20 -21t-15 -30t-10 -31q-4 -12 -6 -37t-4 -36q-2 -18 -3 -72v-32
q0 -144 24 -212t91 -68q45 0 62 22q18 22 26 36t13 40t8 42q6 34 6 94v55q0 142 -11 173q-11 32 -23 54q-13 22 -33 32t-42 11zM298 676q42 0 72 -16t49 -36t33 -56q34 -88 33 -224q0 -127 -10 -167q-24 -97 -63 -141q-39 -45 -121 -45t-129 80q-47 79 -47 227v36
q-1 148 19 197t39 80t51 48t74 17z" />
    <glyph glyph-name="multiply" unicode="&#xd7;" 
d="M566 126l-31 -32l-235 235l-235 -235l-31 32l235 234l-235 235l31 31l235 -235l235 235l31 -31l-235 -235z" />
    <glyph glyph-name="Oslash" unicode="&#xd8;" 
d="M122 284v99q0 101 24 162t42 81q47 50 117 50t118 -50l32 58l52 -27l-48 -88q33 -83 33 -233t-20 -200t-38 -81q-39 -64 -123 -64t-133 65l-33 -59l-51 26l52 97q-24 82 -24 164zM306 54q116 0 116 244q0 114 -8 187v2h-2l-197 -363v-2q28 -68 91 -68zM302 613
q-110 0 -110 -248q0 -115 5 -153l193 353q-28 48 -88 48z" />
    <glyph glyph-name="Ugrave" unicode="&#xd9;" 
d="M236 841l177 -101l-26 -44l-187 82zM137 667h67v-485q0 -60 20 -94t76 -34q57 0 77 35t20 93v485h67v-505q0 -78 -45 -124t-119 -47q-74 1 -119 47q-44 46 -44 121v508z" />
    <glyph glyph-name="Uacute" unicode="&#xda;" 
d="M377 841l36 -63l-187 -82l-26 44zM137 667h67v-485q0 -60 20 -94t76 -34q57 0 77 35t20 93v485h67v-505q0 -78 -45 -124t-119 -47q-74 1 -119 47q-44 46 -44 121v508z" />
    <glyph glyph-name="Ucircumflex" unicode="&#xdb;" 
d="M300 759l-127 -62l-24 36l151 102l151 -102l-23 -36zM137 667h67v-485q0 -60 20 -94t76 -34q57 0 77 35t20 93v485h67v-505q0 -78 -45 -124t-119 -47q-74 1 -119 47q-44 46 -44 121v508z" />
    <glyph glyph-name="Udieresis" unicode="&#xdc;" 
d="M392 826q24 0 36 -20t12 -43t-12 -43t-36 -20t-36 20t-12 43t12 43t36 20zM208 826q24 0 36 -20t12 -43t-12 -43t-36 -20t-36 20t-12 43t12 43t36 20zM137 667h67v-485q0 -60 20 -94t76 -34q57 0 77 35t20 93v485h67v-505q0 -78 -45 -124t-119 -47q-74 1 -119 47
q-44 46 -44 121v508z" />
    <glyph glyph-name="Yacute" unicode="&#xdd;" 
d="M377 841l36 -63l-187 -82l-26 44zM333 0h-67v263l-172 392l62 25l144 -339l144 339l62 -25l-173 -392v-263z" />
    <glyph glyph-name="Thorn" unicode="&#xde;" 
d="M229 459v-250h94q46 0 72 35t26 98q0 117 -115 117h-77zM229 149v-149h-67v667h67v-148h78q89 0 137 -46q48 -45 47 -133q1 -88 -45 -140t-117 -51h-100z" />
    <glyph glyph-name="germandbls" unicode="&#xdf;" 
d="M357 291q97 -25 97 -153q0 -62 -42 -100t-93 -38h-61v60h46q80 0 80 88q0 103 -107 100v60q31 4 48 28t17 59q0 72 -64 72q-58 -1 -64 -59q-2 -14 -1 -36v-372h-67v419q0 37 36 74t98 37t97 -36t35 -103q0 -68 -55 -100z" />
    <glyph glyph-name="agrave" unicode="&#xe0;" 
d="M236 695l177 -101l-26 -44l-187 82zM374 202l-74 241l-74 -241h148zM393 142h-185l-49 -155l-66 24l164 510h86l164 -510l-66 -24z" />
    <glyph glyph-name="aacute" unicode="&#xe1;" 
d="M377 695l36 -63l-187 -82l-26 44zM374 202l-74 241l-74 -241h148zM393 142h-185l-49 -155l-66 24l164 510h86l164 -510l-66 -24z" />
    <glyph glyph-name="acircumflex" unicode="&#xe2;" 
d="M300 613l-127 -62l-24 36l151 102l151 -102l-23 -36zM374 202l-74 241l-74 -241h148zM393 142h-185l-49 -155l-66 24l164 510h86l164 -510l-66 -24z" />
    <glyph glyph-name="atilde" unicode="&#xe3;" 
d="M243 616q-27 0 -48 -62l-49 19q12 31 20 49t30 36q20 18 46 18t65 -29q38 -29 49 -29t16 2q4 2 8 7t7 9q6 8 10 25q4 16 6 19l51 -16q-20 -77 -54 -96q-16 -9 -42 -9q-26 1 -62 29t-53 28zM374 202l-74 241l-74 -241h148zM393 142h-185l-49 -155l-66 24l164 510h86
l164 -510l-66 -24z" />
    <glyph glyph-name="adieresis" unicode="&#xe4;" 
d="M392 680q24 0 36 -20t12 -43t-12 -43t-36 -20t-36 20t-12 43t12 43t36 20zM208 680q24 0 36 -20t12 -43t-12 -43t-36 -20t-36 20t-12 43t12 43t36 20zM374 202l-74 241l-74 -241h148zM393 142h-185l-49 -155l-66 24l164 510h86l164 -510l-66 -24z" />
    <glyph glyph-name="aring" unicode="&#xe5;" 
d="M300 661q-19 1 -33 -13t-14 -33q-1 -19 13 -33t34 -14t34 14t13 33q0 19 -14 33t-33 13zM300 701q36 1 62 -25t25 -62q1 -36 -25 -60q-26 -26 -62 -26t-62 26t-25 60q-1 36 25 62t62 25zM374 202l-74 241l-74 -241h148zM393 142h-185l-49 -155l-66 24l164 510h86
l164 -510l-66 -24z" />
    <glyph glyph-name="ae" unicode="&#xe6;" 
d="M291 0v142h-137l-48 -155l-66 24l164 510h332v-60h-178v-156h145v-60h-145v-185h178v-60h-245zM291 202v259h-42l-76 -259h118z" />
    <glyph glyph-name="ccedilla" unicode="&#xe7;" 
d="M184 278q0 -224 125 -224q43 0 69 21t54 63l55 -38q-60 -96 -148 -108l-11 -34q34 -2 57 -20t23 -52t-29 -54q-29 -22 -65 -22t-101 29l20 51q41 -20 73 -20t32 20q0 32 -85 32l26 72q-85 14 -125 90t-40 162q0 162 62 223t126 61t102 -28t69 -83l-61 -31q-41 79 -109 79
t-94 -68q-25 -69 -25 -121z" />
    <glyph glyph-name="egrave" unicode="&#xe8;" 
d="M236 695l177 -101l-26 -44l-187 82zM157 0v521h325v-60h-258v-156h213v-60h-213v-185h258v-60h-325z" />
    <glyph glyph-name="eacute" unicode="&#xe9;" 
d="M377 695l36 -63l-187 -82l-26 44zM157 0v521h325v-60h-258v-156h213v-60h-213v-185h258v-60h-325z" />
    <glyph glyph-name="ecircumflex" unicode="&#xea;" 
d="M300 613l-127 -62l-24 36l151 102l151 -102l-23 -36zM157 0v521h325v-60h-258v-156h213v-60h-213v-185h258v-60h-325z" />
    <glyph glyph-name="edieresis" unicode="&#xeb;" 
d="M392 680q24 0 36 -20t12 -43t-12 -43t-36 -20t-36 20t-12 43t12 43t36 20zM208 680q24 0 36 -20t12 -43t-12 -43t-36 -20t-36 20t-12 43t12 43t36 20zM157 0v521h325v-60h-258v-156h213v-60h-213v-185h258v-60h-325z" />
    <glyph glyph-name="igrave" unicode="&#xec;" 
d="M236 695l177 -101l-26 -44l-187 82zM193 0v60h73v401h-73v60h214v-60h-74v-401h74v-60h-214z" />
    <glyph glyph-name="iacute" unicode="&#xed;" 
d="M377 695l36 -63l-187 -82l-26 44zM193 0v60h73v401h-73v60h214v-60h-74v-401h74v-60h-214z" />
    <glyph glyph-name="icircumflex" unicode="&#xee;" 
d="M300 613l-127 -62l-24 36l151 102l151 -102l-23 -36zM193 0v60h73v401h-73v60h214v-60h-74v-401h74v-60h-214z" />
    <glyph glyph-name="idieresis" unicode="&#xef;" 
d="M392 680q24 0 36 -20t12 -43t-12 -43t-36 -20t-36 20t-12 43t12 43t36 20zM208 680q24 0 36 -20t12 -43t-12 -43t-36 -20t-36 20t-12 43t12 43t36 20zM193 0v60h73v401h-73v60h214v-60h-74v-401h74v-60h-214z" />
    <glyph glyph-name="eth" unicode="&#xf0;" 
d="M240 290h79v-60h-79v-170h71q67 0 97 45t30 157t-32 156t-97 43h-69v-171zM173 290v171h-54v60h174q115 -1 165 -57t50 -210t-55 -204t-160 -50h-174v60h54v170h-54v60h54z" />
    <glyph glyph-name="ntilde" unicode="&#xf1;" 
d="M243 616q-27 0 -48 -62l-49 19q12 31 20 49t30 36q20 18 46 18t65 -29q38 -29 49 -29t16 2q4 2 8 7t7 9q6 8 10 25q4 16 6 19l51 -16q-20 -77 -54 -96q-16 -9 -42 -9q-26 1 -62 29t-53 28zM126 0v521h83l202 -439l2 2l-6 135v302h67v-521h-83l-202 439l-2 -2l6 -136v-301
h-67z" />
    <glyph glyph-name="ograve" unicode="&#xf2;" 
d="M236 695l177 -101l-26 -44l-187 82zM300 54q115 0 115 206t-115 207q-115 -1 -115 -207t115 -206zM427 470q58 -60 58 -210q1 -206 -117 -256q-30 -13 -63 -13q-33 -1 -57 7q-57 17 -95 81q-38 63 -38 159q1 96 17 151t44 85q53 56 123 56t128 -60z" />
    <glyph glyph-name="oacute" unicode="&#xf3;" 
d="M377 695l36 -63l-187 -82l-26 44zM300 54q115 0 115 206t-115 207q-115 -1 -115 -207t115 -206zM427 470q58 -60 58 -210q1 -206 -117 -256q-30 -13 -63 -13q-33 -1 -57 7q-57 17 -95 81q-38 63 -38 159q1 96 17 151t44 85q53 56 123 56t128 -60z" />
    <glyph glyph-name="ocircumflex" unicode="&#xf4;" 
d="M300 613l-127 -62l-24 36l151 102l151 -102l-23 -36zM300 54q115 0 115 206t-115 207q-115 -1 -115 -207t115 -206zM427 470q58 -60 58 -210q1 -206 -117 -256q-30 -13 -63 -13q-33 -1 -57 7q-57 17 -95 81q-38 63 -38 159q1 96 17 151t44 85q53 56 123 56t128 -60z" />
    <glyph glyph-name="otilde" unicode="&#xf5;" 
d="M243 616q-27 0 -48 -62l-49 19q12 31 20 49t30 36q20 18 46 18t65 -29q38 -29 49 -29t16 2q4 2 8 7t7 9q6 8 10 25q4 16 6 19l51 -16q-20 -77 -54 -96q-16 -9 -42 -9q-26 1 -62 29t-53 28zM300 54q115 0 115 206t-115 207q-115 -1 -115 -207t115 -206zM427 470
q58 -60 58 -210q1 -206 -117 -256q-30 -13 -63 -13q-33 -1 -57 7q-57 17 -95 81q-38 63 -38 159q1 96 17 151t44 85q53 56 123 56t128 -60z" />
    <glyph glyph-name="odieresis" unicode="&#xf6;" 
d="M392 680q24 0 36 -20t12 -43t-12 -43t-36 -20t-36 20t-12 43t12 43t36 20zM208 680q24 0 36 -20t12 -43t-12 -43t-36 -20t-36 20t-12 43t12 43t36 20zM300 54q115 0 115 206t-115 207q-115 -1 -115 -207t115 -206zM427 470q58 -60 58 -210q1 -206 -117 -256
q-30 -13 -63 -13q-33 -1 -57 7q-57 17 -95 81q-38 63 -38 159q1 96 17 151t44 85q53 56 123 56t128 -60z" />
    <glyph glyph-name="divide" unicode="&#xf7;" 
d="M343 515q-1 -19 -13 -31t-30 -12t-30 12t-13 31q1 19 13 31t30 12t30 -12t13 -31zM343 205q-1 -19 -13 -31t-30 -12t-30 12t-13 31q1 19 13 31t30 12t30 -12t13 -31zM566 382v-44h-532v44h532z" />
    <glyph glyph-name="oslash" unicode="&#xf8;" 
d="M485 253q0 -131 -53 -197t-121 -65q-68 0 -109 32l-21 -39l-51 27l31 57q-46 67 -46 199q0 131 53 197q52 66 120 66t108 -30l21 38l50 -28l-29 -55q47 -71 47 -202zM300 54q115 0 115 206q0 71 -16 123l-166 -303q29 -26 67 -26zM300 467q-115 0 -115 -207
q0 -67 15 -119l165 301q-25 25 -65 25z" />
    <glyph glyph-name="ugrave" unicode="&#xf9;" 
d="M236 695l177 -101l-26 -44l-187 82zM137 521h67v-355q0 -60 20 -86t76 -26q55 0 76 26t21 86v355h67v-387q0 -58 -42 -100t-122 -43q-80 1 -122 43t-41 104v383z" />
    <glyph glyph-name="uacute" unicode="&#xfa;" 
d="M377 695l36 -63l-187 -82l-26 44zM137 521h67v-355q0 -60 20 -86t76 -26q55 0 76 26t21 86v355h67v-387q0 -58 -42 -100t-122 -43q-80 1 -122 43t-41 104v383z" />
    <glyph glyph-name="ucircumflex" unicode="&#xfb;" 
d="M300 613l-127 -62l-24 36l151 102l151 -102l-23 -36zM137 521h67v-355q0 -60 20 -86t76 -26q55 0 76 26t21 86v355h67v-387q0 -58 -42 -100t-122 -43q-80 1 -122 43t-41 104v383z" />
    <glyph glyph-name="udieresis" unicode="&#xfc;" 
d="M392 680q24 0 36 -20t12 -43t-12 -43t-36 -20t-36 20t-12 43t12 43t36 20zM208 680q24 0 36 -20t12 -43t-12 -43t-36 -20t-36 20t-12 43t12 43t36 20zM137 521h67v-355q0 -60 20 -86t76 -26q55 0 76 26t21 86v355h67v-387q0 -58 -42 -100t-122 -43q-80 1 -122 43t-41 104
v383z" />
    <glyph glyph-name="yacute" unicode="&#xfd;" 
d="M377 695l36 -63l-187 -82l-26 44zM333 0h-67v201l-168 300l63 33l139 -268l139 268l63 -33l-169 -300v-201z" />
    <glyph glyph-name="thorn" unicode="&#xfe;" 
d="M229 172h92q101 0 101 88t-101 89h-92v-177zM229 112v-112h-67v521h67v-112h95q84 0 126 -40q42 -39 42 -109t-45 -109t-106 -39h-112z" />
    <glyph glyph-name="ydieresis" unicode="&#xff;" 
d="M392 680q24 0 36 -20t12 -43t-12 -43t-36 -20t-36 20t-12 43t12 43t36 20zM208 680q24 0 36 -20t12 -43t-12 -43t-36 -20t-36 20t-12 43t12 43t36 20zM333 0h-67v201l-168 300l63 33l139 -268l139 268l63 -33l-169 -300v-201z" />
    <glyph glyph-name="dcroat" unicode="&#x111;" 
d="M309 461h-69v-170h79v-60h-79v-171h71q67 0 97 45t30 157t-32 156t-97 43zM173 461h-54v60h174q115 -1 165 -57t50 -210t-55 -204t-160 -50h-174v60h54v171h-54v60h54v170z" />
    <glyph glyph-name="Hbar" unicode="&#x126;" 
d="M197 557h206v110h67v-110h65v-60h-65v-497h-67v327h-206v-327h-67v497h-65v60h65v110h67v-110zM403 387v110h-206v-110h206z" />
    <glyph glyph-name="hbar" unicode="&#x127;" 
d="M403 245h-206v-245h-67v382h-70v60h70v79h67v-79h206v79h67v-79h70v-60h-70v-382h-67v245zM403 382h-206v-77h206v77z" />
    <glyph glyph-name="dotlessi" unicode="&#x131;" 
d="M193 0v60h73v401h-73v60h214v-60h-74v-401h74v-60h-214z" />
    <glyph glyph-name="IJ" unicode="&#x132;" 
d="M316 242q-12 -188 72 -188q65 0 80 56q10 39 10 97v460h67v-473q0 -203 -146 -203q-73 0 -101 34q-49 58 -49 217h67zM26 0v60h74v547h-74v60h215v-60h-74v-547h74v-60h-215z" />
    <glyph glyph-name="ij" unicode="&#x133;" 
d="M239 242h67v-60q0 -128 81 -128t81 137v330h67v-335q0 -195 -148 -195t-148 178v73zM23 0v60h63v401h-63v60h194v-60h-64v-401h64v-60h-194z" />
    <glyph glyph-name="kgreenlandic" unicode="&#x138;" 
d="M229 521v-222h25l127 167q39 48 68 56t79 8v-55q-38 3 -58 -7t-46 -44l-113 -149l203 -245l-51 -43l-211 257h-23v-244h-67v521h67z" />
    <glyph glyph-name="Ldot" unicode="&#x13f;" 
d="M454 304v128h82v-128h-82zM169 0v667h67v-607h274v-60h-341z" />
    <glyph glyph-name="ldot" unicode="&#x140;" 
d="M460 228v123h82v-123h-82zM170 0v521h67v-461h273v-60h-340z" />
    <glyph glyph-name="Lslash" unicode="&#x141;" 
d="M183 667h67v-271l99 38v-67l-99 -38v-269h274v-60h-341v304l-100 -37v66l100 38v296z" />
    <glyph glyph-name="lslash" unicode="&#x142;" 
d="M237 521v-183l87 33v-67l-87 -33v-211h273v-60h-340v246l-87 -33v67l87 33v208h67z" />
    <glyph glyph-name="napostrophe" unicode="&#x149;" 
d="M212 0v521h83l202 -439l2 2l-6 135v302h67v-521h-83l-202 439l-2 -2l6 -136v-301h-67zM89 667h92v-45q1 -49 -31 -93t-80 -69l-23 55q42 27 42 91v61z" />
    <glyph glyph-name="Eng" unicode="&#x14a;" 
d="M193 0h-67v667h67v-40q40 49 115 49q150 0 168 -136q6 -41 5 -93v-324q1 -103 -17 -128t-38 -43q-38 -35 -128 -39v63q72 2 94 30t22 117v324q0 103 -24 135t-92 31q-90 0 -105 -113v-500z" />
    <glyph glyph-name="eng" unicode="&#x14b;" 
d="M193 521v-38q47 47 101 47t84 -12t49 -38q38 -53 46 -115t8 -161t-17 -154q-37 -119 -166 -118v60q34 0 52 6t34 31q30 43 30 191t-30 199t-78 51t-80 -26t-33 -64v-380h-67v521h67z" />
    <glyph glyph-name="OE" unicode="&#x152;" 
d="M260 613q-32 1 -50 -9t-36 -37q-34 -53 -35 -224q0 -171 29 -230t87 -59q31 0 55 19v524q-18 16 -50 16zM255 676q41 0 60 -9h216v-60h-154v-220h142v-60h-142v-267h154v-60h-220q-20 -9 -51 -9q-192 9 -192 347t187 338z" />
    <glyph glyph-name="oe" unicode="&#x153;" 
d="M245 467q-115 -1 -115 -207t115 -206q28 0 51 14v385q-23 14 -51 14zM240 -9q-43 0 -82 24q-38 24 -68 83t-30 148q0 164 58 224t127 60q35 0 58 -9h238v-60h-178v-156h146v-60h-146v-185h178v-60h-238q-20 -9 -63 -9z" />
    <glyph glyph-name="Scaron" unicode="&#x160;" 
d="M173 833l127 -62l128 62l23 -36l-151 -102l-151 102zM304 613q-44 -1 -66 -31t-22 -74t20 -66q20 -24 94 -68t107 -84t33 -117t-44 -129t-124 -53q-154 0 -171 184l67 9q8 -66 29 -98t71 -32q104 0 105 119q-1 46 -15 67l-21 30t-32 26q-25 17 -60 36q-62 36 -94 70
t-32 104t43 120t112 50q126 0 157 -151l-65 -10q-22 98 -92 98z" />
    <glyph glyph-name="scaron" unicode="&#x161;" 
d="M173 687l127 -62l128 62l23 -36l-151 -102l-151 102zM305 54q43 0 71 23t27 61q0 38 -13 52q-13 12 -21 18t-12 8t-14 8q-10 4 -14 6q-3 2 -15 7t-16 7t-24 9q-20 8 -26 11q-6 2 -22 10t-22 13t-16 13q-12 8 -16 18q-4 8 -14 24q-8 16 -8 65q0 51 44 87t109 36
q125 0 159 -131l-64 -19q-20 87 -96 87q-35 0 -60 -18q-25 -17 -25 -43q0 -43 17 -58q17 -14 53 -31l111 -49q72 -40 72 -118t-46 -118q-46 -41 -118 -41t-118 42t-57 113l60 19q23 -111 114 -111z" />
    <glyph glyph-name="Tbar" unicode="&#x166;" 
d="M476 607h-141v-224h118v-60h-118v-323h-67v323h-118v60h118v224h-144v60h352v-60z" />
    <glyph glyph-name="tbar" unicode="&#x167;" 
d="M476 461h-141v-147h100v-60h-100v-254h-67v254h-100v60h100v147h-144v60h352v-60z" />
    <glyph glyph-name="Ydieresis" unicode="&#x178;" 
d="M392 826q24 0 36 -20t12 -43t-12 -43t-36 -20t-36 20t-12 43t12 43t36 20zM208 826q24 0 36 -20t12 -43t-12 -43t-36 -20t-36 20t-12 43t12 43t36 20zM333 0h-67v263l-172 392l62 25l144 -339l144 339l62 -25l-173 -392v-263z" />
    <glyph glyph-name="Zcaron" unicode="&#x17d;" 
d="M173 833l127 -62l128 62l23 -36l-151 -102l-151 102zM133 607v60h355l-282 -607h290v-60h-392l283 607h-254z" />
    <glyph glyph-name="zcaron" unicode="&#x17e;" 
d="M173 687l127 -62l128 62l23 -36l-151 -102l-151 102zM133 461v60h355l-271 -461h279v-60h-392l273 461h-244z" />
    <glyph glyph-name="florin" unicode="&#x192;" 
d="M444 391v-60h-103l-35 -292l-1 -11q-13 -134 -107 -158q-18 -4 -38 -4h-51v60h43q48 0 64 30t23 92l34 283h-107v60h114l14 112l1 11q13 134 107 158q18 4 38 4h51v-60h-43q-57 0 -73 -50q-9 -27 -14 -72l-13 -103h96z" />
    <glyph glyph-name="circumflex" unicode="&#x2c6;" 
d="M300 613l-127 -62l-24 36l151 102l151 -102l-23 -36z" />
    <glyph glyph-name="caron" unicode="&#x2c7;" 
d="M173 687l127 -62l128 62l23 -36l-151 -102l-151 102z" />
    <glyph glyph-name="uni02C9" unicode="&#x2c9;" 
d="M444 586h-287v60h287v-60z" />
    <glyph glyph-name="breve" unicode="&#x2d8;" 
d="M392 682h60q-1 -60 -41 -92t-104 -32q-155 0 -159 124h60q-2 -74 91 -74t93 74z" />
    <glyph glyph-name="dotaccent" unicode="&#x2d9;" 
d="M300 680q24 0 36 -20t12 -43t-12 -43t-36 -20t-36 20t-12 43t12 43t36 20z" />
    <glyph glyph-name="ring" unicode="&#x2da;" 
d="M300 641q-19 1 -33 -13t-14 -33q-1 -19 13 -33t34 -14t34 14t13 33q0 19 -14 33t-33 13zM300 681q36 1 62 -25t25 -62q1 -36 -25 -60q-26 -26 -62 -26t-62 26t-25 60q-1 36 25 62t62 25z" />
    <glyph glyph-name="ogonek" unicode="&#x2db;" 
d="M259 -177q-44 0 -79 23t-35 70q0 69 86 107h98q-3 -3 -39 -25q-75 -47 -75 -80q1 -40 49 -40t97 26v-59q-58 -22 -102 -22z" />
    <glyph glyph-name="tilde" unicode="&#x2dc;" 
d="M243 616q-27 0 -48 -62l-49 19q12 31 20 49t30 36q20 18 46 18t65 -29q38 -29 49 -29t16 2q4 2 8 7t7 9q6 8 10 25q4 16 6 19l51 -16q-20 -77 -54 -96q-16 -9 -42 -9q-26 1 -62 29t-53 28z" />
    <glyph glyph-name="hungarumlaut" unicode="&#x2dd;" 
d="M470 683l41 -58l-186 -82l-31 41zM265 683l41 -58l-186 -82l-31 41z" />
    <glyph glyph-name="Gamma" unicode="&#x393;" 
d="M160 667h333v-60h-266v-607h-67v667z" />
    <glyph glyph-name="Theta" unicode="&#x398;" 
d="M181 369h237v-60h-237v60zM300 616q-68 0 -128 -74t-60 -209q0 -206 132 -268q30 -14 57 -14q59 0 123 68t64 214q0 203 -132 268q-30 15 -56 15zM45 335q0 168 83 255q83 86 174 86t172 -89t81 -255q0 -167 -83 -254q-82 -87 -172 -87q-91 0 -173 88t-82 256z" />
    <glyph glyph-name="Phi" unicode="&#x3a6;" 
d="M333 563v-458q51 1 89 39t53 88t15 101t-14 101t-52 90t-91 39zM266 104v459q-112 1 -148 -155q-9 -38 -9 -84q0 -44 15 -94q14 -50 52 -88t90 -38zM266 680h66v-62q104 -2 166 -88t62 -175t-25 -153t-78 -108t-124 -45l-1 -62h-66v62q-71 1 -124 44q-103 84 -103 238
q0 155 103 242q53 45 124 45v62z" />
    <glyph glyph-name="uni03A9" unicode="&#x3a9;" 
d="M169 51v2q-67 48 -109 124q-42 75 -42 163q0 166 88 248t205 82t194 -89t77 -209q0 -214 -153 -319v-2h168v-51h-255v38q74 39 124 118t50 194q0 114 -56 192t-156 78q-98 0 -160 -75t-61 -191q-1 -116 51 -198q52 -81 124 -118v-38h-255v51h166z" />
    <glyph glyph-name="alpha" unicode="&#x3b1;" 
d="M249 -9q-81 0 -128 72q-48 72 -48 199q0 128 57 198q58 70 122 70t104 -43t58 -112l51 163l63 -17l-88 -252l71 -269h-66l-35 154h-2q-40 -163 -159 -163zM252 470q-40 0 -74 -58t-35 -156t31 -152q32 -53 76 -53t81 64q36 64 36 131q-1 68 -11 110t-38 78q-26 36 -66 36
z" />
    <glyph glyph-name="delta" unicode="&#x3b4;" 
d="M500 227q0 -95 -56 -165t-144 -71q-88 0 -144 70t-56 168q0 99 52 155t134 67l-131 135v81h293v-60h-231l200 -199q83 -86 83 -181zM430 223q0 65 -35 117t-97 51q-62 0 -94 -54q-34 -53 -34 -117t34 -116t96 -53q60 -1 95 53t35 119z" />
    <glyph glyph-name="epsilon" unicode="&#x3b5;" 
d="M309 470q-115 0 -115 -68q0 -38 38 -64t100 -28v-60q-66 2 -118 -33t-53 -73t37 -66t117 -27q79 0 146 75l48 -45q-79 -90 -205 -90q-93 1 -153 43t-60 101q0 114 148 148q-115 38 -115 117q0 54 53 92t141 38t137 -45l-42 -41q-33 26 -104 26z" />
    <glyph glyph-name="uni03BC" unicode="&#x3bc;" 
d="M402 0v44q-38 -53 -102 -53t-101 49v-251h-67v732h67v-344q0 -91 71 -117q15 -6 27 -6q53 0 79 44t26 100v323h67v-521h-67z" />
    <glyph glyph-name="pi" unicode="&#x3c0;" 
d="M469 437v-291q0 -96 16 -146h-64q-17 26 -17 137v300h-168q-6 -105 -30 -241t-51 -196h-64q29 71 52 202t28 235q-79 0 -116 -14l-11 41q47 26 138 26h374l-7 -53h-80z" />
    <glyph glyph-name="sigma" unicode="&#x3c3;" 
d="M270 467q-42 0 -72 -35q-56 -64 -55 -158q-1 -96 37 -158t86 -62t91 53q42 53 42 157q-1 104 -57 168q-30 35 -72 35zM469 255q-1 -71 -23 -126t-55 -83q-123 -104 -220 -17q-98 87 -98 221t70 214q47 56 123 64q26 2 76 2h185v-63l-150 11q92 -76 92 -223z" />
    <glyph glyph-name="tau" unicode="&#x3c4;" 
d="M492 521v-60h-154v-461h-67v461h-69q-61 0 -95 -12v56q50 16 86 16h299z" />
    <glyph glyph-name="uni03D5" unicode="&#x3d5;" 
d="M330 610v-80q65 -10 110 -76t45 -213q-1 -147 -81 -217q-32 -28 -74 -33v-71h-60v71q-66 11 -110 76t-45 193q0 128 44 193t111 77v80h60zM415 260q0 176 -85 202v-403q85 25 85 201zM185 260q0 -175 85 -201v404q-85 -28 -85 -203z" />
    <glyph glyph-name="uni2010" unicode="&#x2010;" 
d="M189 229v63h222v-63h-222z" />
    <glyph glyph-name="endash" unicode="&#x2013;" 
d="M78 229v63h444v-63h-444z" />
    <glyph glyph-name="emdash" unicode="&#x2014;" 
d="M0 229v63h600v-63h-600z" />
    <glyph glyph-name="underscoredbl" unicode="&#x2017;" 
d="M600 -216h-600v36h600v-36zM600 -108h-600v36h600v-36z" />
    <glyph glyph-name="quoteleft" unicode="&#x2018;" 
d="M308 469h-92v45q0 49 32 93t79 69l23 -55q-42 -27 -42 -91v-61z" />
    <glyph glyph-name="quoteright" unicode="&#x2019;" 
d="M265 667h92v-45q1 -49 -31 -93t-80 -69l-23 55q42 27 42 91v61z" />
    <glyph glyph-name="quotesinglbase" unicode="&#x201a;" 
d="M265 148h92v-45q1 -49 -31 -93t-80 -69l-23 55q42 27 42 91v61z" />
    <glyph glyph-name="quotereversed" unicode="&#x201b;" 
d="M216 667h92v-61q0 -64 42 -91l-23 -55q-47 25 -79 69t-32 93v45z" />
    <glyph glyph-name="quotedblleft" unicode="&#x201c;" 
d="M235 469h-92v45q-1 49 31 93t80 69l23 -55q-42 -27 -42 -91v-61zM421 469h-92v45q-1 49 31 93t80 69l23 -55q-42 -27 -42 -91v-61z" />
    <glyph glyph-name="quotedblright" unicode="&#x201d;" 
d="M365 667h92v-45q1 -49 -31 -93t-80 -69l-23 55q42 27 42 91v61zM179 667h92v-45q1 -49 -31 -93t-80 -69l-23 55q42 27 42 91v61z" />
    <glyph glyph-name="quotedblbase" unicode="&#x201e;" 
d="M365 148h92v-45q1 -49 -31 -93t-80 -69l-23 55q42 27 42 91v61zM179 148h92v-45q1 -49 -31 -93t-80 -69l-23 55q42 27 42 91v61z" />
    <glyph glyph-name="dagger" unicode="&#x2020;" 
d="M262 347l5 76l-118 -6v73l119 -6l-10 183h85l-10 -183l119 6v-73l-118 6l5 -76l-10 -347h-57z" />
    <glyph glyph-name="daggerdbl" unicode="&#x2021;" 
d="M267 439l-121 -6v72l119 -6l-6 168h83l-6 -168l119 6v-72l-121 6v-211l121 6v-73l-119 7l6 -168h-83l6 168l-119 -7v73l121 -6v211z" />
    <glyph glyph-name="bullet" unicode="&#x2022;" 
d="M177 251q1 51 37 87t86 37q50 -1 86 -37t37 -86q0 -50 -36 -87q-35 -36 -87 -36q-52 -1 -88 35t-35 87z" />
    <glyph glyph-name="ellipsis" unicode="&#x2026;" 
d="M454 0v148h92v-148h-92zM254 0v148h92v-148h-92zM54 0v148h92v-148h-92z" />
    <glyph glyph-name="perthousand" unicode="&#x2030;" 
d="M539 116q0 75 -44 75t-44 -75t44 -75t44 75zM593 116q0 -50 -25 -88t-73 -37q-48 -1 -73 37t-25 88t25 88t73 37q48 1 73 -37t25 -88zM124 475q44 -1 44 75t-44 76t-44 -76t44 -75zM374 116q0 -50 -25 -88t-73 -37q-48 -1 -73 37t-25 88t25 88t73 37q48 1 73 -37t25 -88z
M260 595q-24 0 -46 9q8 -27 8 -65t-25 -76t-73 -38t-73 38t-25 88q0 49 26 87t62 38t68 -16t87 -15q54 0 94 31l33 -21l-336 -664l-53 32l294 580q-17 -8 -41 -8zM320 116q0 75 -44 75t-44 -75t44 -75t44 75z" />
    <glyph glyph-name="guilsinglleft" unicode="&#x2039;" 
d="M396 570l47 -49l-205 -191l205 -192l-47 -50l-254 242z" />
    <glyph glyph-name="guilsinglright" unicode="&#x203a;" 
d="M204 570l254 -240l-254 -242l-47 50l205 192l-205 191z" />
    <glyph glyph-name="exclamdbl" unicode="&#x203c;" 
d="M127 0v148h92v-148h-92zM458 207h-64l-18 460h102zM380 0v148h92v-148h-92zM204 207h-64l-18 460h102z" />
    <glyph glyph-name="uni203E" unicode="&#x203e;" 
d="M450 728h-300v36h300v-36z" />
    <glyph glyph-name="fraction" unicode="&#x2044;" 
d="M462 680l53 -29l-377 -664l-53 26z" />
    <glyph glyph-name="n.superior" unicode="&#x207f;" 
d="M186 328v339h64l117 -274l1 1l-4 76v197h50v-339h-64l-116 270h-2l4 -74v-196h-50z" />
    <glyph glyph-name="franc" unicode="&#x20a3;" 
d="M16 0v667h268v-60h-201v-220h159v-60h-159v-327h-67zM272 0v521h147q55 0 89 -35q34 -36 34 -96t-24 -102t-60 -55l101 -211l-51 -35l-105 236h-71v-223h-60zM332 283h70q80 5 80 91t-65 87h-85v-178z" />
    <glyph glyph-name="peseta" unicode="&#x20a7;" 
d="M114 607v-250h94q46 0 72 35t26 98q0 117 -115 117h-77zM114 297v-297h-67v667h145q88 0 136 -46q48 -45 48 -133t-46 -140t-116 -51h-100zM417 0v268h-77v55h213v-55h-76v-268h-60z" />
    <glyph glyph-name="Euro" unicode="&#x20ac;" 
d="M173 244q32 -192 217 -192q95 0 163 61v-71q-60 -50 -178 -50q-233 0 -271 252h-76l21 53h49q-1 9 -1 37t1 37h-70l21 53h54q19 112 85 182t184 69q118 0 181 -53v-70q-65 61 -164 61t-152 -53t-64 -136h332l-21 -53h-319q-2 -18 -2 -36t2 -38h290l-21 -53h-261z" />
    <glyph glyph-name="uni2113" unicode="&#x2113;" 
d="M218 512v-231q84 83 130 153t46 139q0 111 -81 111q-37 0 -66 -42t-29 -130zM158 502q0 121 46 175t110 54t96 -44q33 -45 33 -121q0 -146 -225 -346l1 -24q3 -74 38 -112t84 -38t89 30t62 72l33 -28q-69 -124 -196 -124q-81 0 -126 53t-45 133q-8 -6 -29 -22t-33 -25
l-21 38q78 61 83 65v264z" />
    <glyph glyph-name="trademark" unicode="&#x2122;" 
d="M248 676v-40h-94v-242h-40v242h-95v40h229zM581 676v-282h-40v242h-2l-96 -242h-26l-93 242h-2v-242h-40v282h68l81 -199l84 199h66z" />
    <glyph glyph-name="Omega" unicode="&#x2126;" 
d="M169 51v2q-67 48 -109 124q-42 75 -42 163q0 166 88 248t205 82t194 -89t77 -209q0 -214 -153 -319v-2h168v-51h-255v38q74 39 124 118t50 194q0 114 -56 192t-156 78q-98 0 -160 -75t-61 -191q-1 -116 51 -198q52 -81 124 -118v-38h-255v51h166z" />
    <glyph glyph-name="estimated" unicode="&#x212e;" 
d="M492 277v150q0 11 -7 17q-79 78 -185 78t-184 -80q-7 -7 -7 -18v-147q0 -5 4 -5h376q3 0 3 5zM-3 266q0 112 89 192q88 80 214 80t215 -80t89 -193v-7h-491q-4 0 -4 -3v-149q0 -10 6 -17q78 -80 190 -80t191 90h44q-88 -105 -226 -105q-139 0 -228 80t-89 192z" />
    <glyph glyph-name="oneeighth" unicode="&#x215b;" 
d="M459 680l53 -29l-377 -664l-53 26zM118 382v227l-62 -21l-18 45l140 47v-298h58v-50h-192v50h74zM491 248q0 42 -43 42t-43 -42q0 -28 43 -49q43 21 43 49zM394 80q0 -14 16 -27q16 -12 38 -12t38 12t17 27q0 14 -3 22q-8 19 -52 42q-9 -6 -19 -11q-11 -5 -17 -11
l-10 -10t-6 -11t-2 -21zM563 92q-1 -48 -35 -75q-34 -26 -80 -26t-80 26q-34 25 -34 75t63 80q-52 33 -52 75q1 41 31 67t72 26t72 -26t31 -68q0 -42 -52 -74q64 -32 64 -80z" />
    <glyph glyph-name="threeeighths" unicode="&#x215c;" 
d="M258 676v-42l-86 -79q38 -4 65 -28t27 -50t-4 -42q-12 -42 -63 -75q-50 -33 -155 -27v50q162 -2 162 82q0 46 -70 46q-17 0 -53 -6v39l92 82h-136v50h221zM462 680l53 -29l-377 -664l-53 26zM501 248q0 42 -43 42t-43 -42q0 -28 43 -49q43 21 43 49zM404 80q0 -14 16 -27
q16 -12 38 -12t38 12t17 27q0 14 -3 22q-8 19 -52 42q-9 -6 -19 -11q-11 -5 -17 -11l-10 -10t-6 -11t-2 -21zM573 92q-1 -48 -35 -75q-34 -26 -80 -26t-80 26q-34 25 -34 75t63 80q-52 33 -52 75q1 41 31 67t72 26t72 -26t31 -68q0 -42 -52 -74q64 -32 64 -80z" />
    <glyph glyph-name="fiveeighths" unicode="&#x215d;" 
d="M451 680l53 -29l-377 -664l-53 26zM196 465q0 45 -52 45q-24 0 -58 -16h-42v182h209v-50h-149v-73q24 7 57 7t64 -26t31 -74q0 -46 -47 -88t-121 -41h-52v50h34q56 1 91 23t35 61zM492 248q0 42 -43 42t-43 -42q0 -28 43 -49q43 21 43 49zM395 80q-1 -14 15 -27
q16 -12 38 -12t40 12q16 12 16 27q0 14 -3 22q-8 19 -52 42q-9 -6 -19 -11t-16 -11l-10 -10t-6 -11t-3 -21zM564 92q0 -48 -34 -75q-34 -26 -81 -26q-46 0 -80 26q-34 25 -34 75t63 80q-52 33 -52 75q0 41 30 67t73 26t73 -26t30 -68t-52 -74q64 -32 64 -80z" />
    <glyph glyph-name="seveneighths" unicode="&#x215e;" 
d="M427 680l53 -29l-377 -664l-53 26zM68 626v50h228l-175 -346l-51 20l141 276h-143zM479 248q0 42 -43 42t-43 -42q0 -28 43 -49q43 21 43 49zM382 80q0 -14 16 -27q16 -12 38 -12t38 12t17 27q0 14 -3 22q-8 19 -52 42q-9 -6 -19 -11q-11 -5 -17 -11l-10 -10t-6 -11
t-2 -21zM551 92q-1 -48 -35 -75q-34 -26 -80 -26t-80 26q-34 25 -34 75t63 80q-52 33 -52 75q1 41 31 67t72 26t72 -26t31 -68q0 -42 -52 -74q64 -32 64 -80z" />
    <glyph glyph-name="uni2190" unicode="&#x2190;" 
d="M596 382v-44h-460q13 -20 31 -63t18 -59t-11 -17q-11 0 -24 20q-56 83 -125 123q-21 10 -21 18t21 18q69 40 125 123q13 20 24 20q11 -1 11 -17t-18 -59t-31 -63h460z" />
    <glyph glyph-name="arrowup" unicode="&#x2191;" 
d="M322 64h-44v460q-20 -13 -63 -31t-59 -18t-17 11q0 11 20 24q83 56 123 125q10 21 18 21t18 -21q40 -69 123 -125q20 -13 20 -24q-1 -11 -17 -11t-59 18t-63 31v-460z" />
    <glyph glyph-name="uni2192" unicode="&#x2192;" 
d="M4 382h460q-13 20 -31 63t-18 59t11 17q11 0 24 -20q56 -83 125 -123q21 -10 21 -18t-21 -18q-69 -40 -125 -123q-13 -20 -24 -20q-11 1 -11 17t18 59t31 63h-460v44z" />
    <glyph glyph-name="arrowdown" unicode="&#x2193;" 
d="M322 656v-460q20 13 63 31t59 18t17 -11q0 -11 -20 -24q-83 -56 -123 -125q-10 -21 -18 -21t-18 21q-40 69 -123 125q-20 13 -20 24q1 11 17 11t59 -18t63 -31v460h44z" />
    <glyph glyph-name="arrowboth" unicode="&#x2194;" 
d="M185 216q0 -16 -11 -17q-11 0 -24 20q-56 83 -125 123q-21 10 -21 18t21 18q69 40 125 123q13 20 24 20q11 -1 11 -17t-18 -59t-31 -63h328q-13 20 -31 63t-18 59t11 17q11 0 24 -20q56 -83 125 -123q21 -10 21 -18t-21 -18q-69 -40 -125 -123q-13 -20 -24 -20
q-11 1 -11 17t18 59t31 63h-328q13 -20 31 -63t18 -59z" />
    <glyph glyph-name="arrowupdn" unicode="&#x2195;" 
d="M156 475q-16 0 -17 11q0 11 20 24q83 56 123 125q10 21 18 21t18 -21q40 -69 123 -125q20 -13 20 -24q-1 -11 -17 -11t-59 18t-63 31v-328q20 13 63 31t59 18t17 -11q0 -11 -20 -24q-83 -56 -123 -125q-10 -21 -18 -21t-18 21q-40 69 -123 125q-20 13 -20 24q1 11 17 11
t59 -18t63 -31v328q-20 -13 -63 -31t-59 -18z" />
    <glyph glyph-name="arrowupdnbse" unicode="&#x21a8;" 
d="M461 44v-44h-322v44h322zM156 540q-16 0 -17 11q0 11 20 24q83 56 123 125q10 21 18 21t18 -21q40 -69 123 -125q20 -13 20 -24q-1 -11 -17 -11t-59 18t-63 31v-328q20 13 63 31t59 18t17 -11q0 -11 -20 -24q-83 -56 -123 -125q-10 -21 -18 -21t-18 21q-40 69 -123 125
q-20 13 -20 24q1 11 17 11t59 -18t63 -31v328q-20 -13 -63 -31t-59 -18z" />
    <glyph glyph-name="partialdiff" unicode="&#x2202;" 
d="M270 45h1q76 0 128 70t64 168q-15 41 -61 79t-110 39q-64 0 -115 -54q-50 -54 -50 -129t40 -124t103 -49zM277 740q106 0 183 -95t77 -264q0 -223 -121 -331q-64 -56 -156 -56t-144 68t-53 162q-1 95 65 161t146 66t130 -36t68 -71h1q2 14 2 48q-1 134 -61 216t-142 82
t-147 -47l-25 43q71 54 177 54z" />
    <glyph glyph-name="Delta" unicode="&#x2206;" 
d="M83 51h430l-147 383q-33 86 -65 181h-4q-6 -22 -30 -84q-24 -63 -30 -79zM584 0h-567l-1 46l247 633h75l246 -632v-47z" />
    <glyph glyph-name="product" unicode="&#x220f;" 
d="M594 609h-82v-695h-63v695h-298v-695h-63v695h-82v55h588v-55z" />
    <glyph glyph-name="summation" unicode="&#x2211;" 
d="M472 60v-60h-344v67l184 286l-184 248v66h341v-60h-270l185 -256l-191 -291h279z" />
    <glyph glyph-name="minus" unicode="&#x2212;" 
d="M566 382v-44h-532v44h532z" />
    <glyph glyph-name="uni2215" unicode="&#x2215;" 
d="M462 680l53 -29l-377 -664l-53 26z" />
    <glyph glyph-name="uni2219" unicode="&#x2219;" 
d="M254 279v108h92v-108h-92z" />
    <glyph glyph-name="radical" unicode="&#x221a;" 
d="M581 786l-236 -924h-60l-172 443l-79 -30l-15 39l134 52l144 -377q1 -4 17 -60h1q3 17 14 61l202 796h50z" />
    <glyph glyph-name="infinity" unicode="&#x221e;" 
d="M132 385q-32 -1 -60 -29t-27 -78q-1 -50 27 -80t74 -30h1q35 0 57 22l28 28q6 7 24 31t19 25q-45 66 -77 89q-34 22 -66 22zM462 385h-1q-51 0 -105 -69q-11 -16 -28 -38q40 -58 70 -84t70 -26t63 32q24 32 24 79q-1 47 -27 77t-66 29zM466 125q-52 0 -88 29t-77 88
q-47 -63 -77 -90t-87 -27q-55 -1 -97 43t-42 112t44 108t111 39q66 0 137 -97q11 -15 15 -20q39 58 75 88t90 29q54 0 93 -42t39 -106v-1q0 -68 -42 -110t-94 -43z" />
    <glyph glyph-name="intersection" unicode="&#x2229;" 
d="M590 0h-44v444q0 101 -76 176t-170 75t-170 -75t-76 -176v-444h-44v433q0 127 84 214t206 87t206 -87t84 -214v-433z" />
    <glyph glyph-name="integral" unicode="&#x222b;" 
d="M411 762q-86 0 -86 -192l15 -479q0 -128 -46 -190q-32 -46 -84 -46t-78 18l13 44q29 -13 50 -13q88 0 88 188l-15 484q0 233 144 233q31 0 56 -15l-12 -43q-15 11 -45 11z" />
    <glyph glyph-name="approxequal" unicode="&#x2248;" 
d="M414 225q-41 0 -81 21q-41 22 -75 40t-70 18t-59 -20q-24 -20 -50 -57l-28 25q53 93 143 93q44 -1 81 -21q35 -20 39 -22l16 -8l16 -8q41 -18 84 -19q43 0 90 75l27 -25q-53 -92 -133 -92zM416 418q58 0 104 75l27 -24q-53 -93 -133 -93q-41 0 -81 21q-41 21 -76 39
t-69 19t-59 -19q-24 -20 -50 -57l-28 24q53 93 143 93q42 0 78 -20t41 -24q5 -2 17 -8t18 -8q35 -18 68 -18z" />
    <glyph glyph-name="notequal" unicode="&#x2260;" 
d="M565 451v-44h-223l-52 -93h275v-44h-298l-66 -125l-34 17l57 108h-190v44h215l51 93h-266v44h289l67 122q17 -8 34 -17l-58 -105h199z" />
    <glyph glyph-name="equivalence" unicode="&#x2261;" 
d="M566 248v-44h-532v44h532zM566 382v-44h-532v44h532zM566 516v-44h-532v44h532z" />
    <glyph glyph-name="lessequal" unicode="&#x2264;" 
d="M545 1h-491v43h491v-43zM542 86l-482 228v44l482 228v-50l-433 -198v-2l433 -200v-50z" />
    <glyph glyph-name="greaterequal" unicode="&#x2265;" 
d="M544 1h-489v43h489v-43zM61 586l481 -228v-44l-481 -228v50l432 199v2l-432 199v50z" />
    <glyph glyph-name="dotmath" unicode="&#x22c5;" 
d="M250 360q0 16 10 26t26 10t26 -10t10 -26t-10 -26t-26 -10t-26 10t-10 26z" />
    <glyph glyph-name="house" unicode="&#x2302;" 
d="M40 30h520v361l-260 152l-260 -152v-361zM590 0h-580v406l290 169l290 -169v-406z" />
    <glyph glyph-name="uni2304" unicode="&#x2304;" 
d="M110 680h50l140 -275l137 275h50l-161 -323h-52z" />
    <glyph glyph-name="revlogicalnot" unicode="&#x2310;" 
d="M74 0h-44v276h540v-44h-496v-232z" />
    <glyph glyph-name="uni2319" unicode="&#x2319;" 
d="M30 276h44v-232h496v-44h-540v276z" />
    <glyph glyph-name="integraltp" unicode="&#x2320;" 
d="M279 274v362q-1 146 23 229q24 85 43 113q46 68 110 68q65 0 105 -43t40 -99t-42 -55t-48 79q-7 78 -57 78q-52 0 -82 -67q-20 -46 -34 -121t-14 -130v-414h-44z" />
    <glyph glyph-name="integralbt" unicode="&#x2321;" 
d="M321 538v-362q1 -146 -23 -229q-24 -85 -43 -113q-46 -68 -110 -68q-65 0 -105 43t-40 99t42 55t48 -79q7 -78 58 -78t81 67q20 46 34 121t14 130v414h44z" />
    <glyph glyph-name="uni2500" unicode="&#x2500;" 
d="M0 216v72h600v-72h-600z" />
    <glyph glyph-name="uni2502" unicode="&#x2502;" 
d="M264 -288v1080h72v-1080h-72z" />
    <glyph glyph-name="uni250C" unicode="&#x250c;" 
d="M264 -288v576h336v-72h-264v-504h-72z" />
    <glyph glyph-name="uni2510" unicode="&#x2510;" 
d="M336 288v-576h-72v504h-264v72h336z" />
    <glyph glyph-name="uni2514" unicode="&#x2514;" 
d="M264 216v576h72v-504h264v-72h-336z" />
    <glyph glyph-name="uni2518" unicode="&#x2518;" 
d="M336 792v-576h-336v72h264v504h72z" />
    <glyph glyph-name="uni251C" unicode="&#x251c;" 
d="M264 -288v1080h72v-504h264v-72h-264v-504h-72z" />
    <glyph glyph-name="uni2524" unicode="&#x2524;" 
d="M0 216v72h264v504h72v-1080h-72v504h-264z" />
    <glyph glyph-name="uni252C" unicode="&#x252c;" 
d="M0 216v72h600v-72h-264v-504h-72v504h-264z" />
    <glyph glyph-name="uni2534" unicode="&#x2534;" 
d="M0 216v72h264v504h72v-504h264v-72h-600z" />
    <glyph glyph-name="uni253C" unicode="&#x253c;" 
d="M0 216v72h264v504h72v-504h264v-72h-264v-504h-72v504h-264z" />
    <glyph glyph-name="uni2550" unicode="&#x2550;" 
d="M0 288v72h600v-72h-600zM0 144v72h600v-72h-600z" />
    <glyph glyph-name="uni2551" unicode="&#x2551;" 
d="M336 -288v1080h72v-1080h-72zM192 -288v1080h72v-1080h-72z" />
    <glyph glyph-name="uni2552" unicode="&#x2552;" 
d="M264 -288v648h336v-72h-264v-72h264v-72h-264v-432h-72z" />
    <glyph glyph-name="uni2553" unicode="&#x2553;" 
d="M600 288v-72h-192v-504h-72v504h-72v-504h-72v576h408z" />
    <glyph glyph-name="uni2554" unicode="&#x2554;" 
d="M336 -288v504h264v-72h-192v-432h-72zM192 -288v648h408v-72h-336v-576h-72z" />
    <glyph glyph-name="uni2555" unicode="&#x2555;" 
d="M336 360v-648h-72v432h-264v72h264v72h-264v72h336z" />
    <glyph glyph-name="uni2556" unicode="&#x2556;" 
d="M0 216v72h408v-576h-72v504h-72v-504h-72v504h-192z" />
    <glyph glyph-name="uni2557" unicode="&#x2557;" 
d="M0 288v72h408v-648h-72v576h-336zM0 144v72h264v-504h-72v432h-192z" />
    <glyph glyph-name="uni2558" unicode="&#x2558;" 
d="M264 144v648h72v-432h264v-72h-264v-72h264v-72h-336z" />
    <glyph glyph-name="uni2559" unicode="&#x2559;" 
d="M192 216v576h72v-504h72v504h72v-504h192v-72h-408z" />
    <glyph glyph-name="uni255A" unicode="&#x255a;" 
d="M336 288v504h72v-432h192v-72h-264zM192 144v648h72v-576h336v-72h-408z" />
    <glyph glyph-name="uni255B" unicode="&#x255b;" 
d="M336 792v-648h-336v72h264v72h-264v72h264v432h72z" />
    <glyph glyph-name="uni255C" unicode="&#x255c;" 
d="M408 792v-576h-408v72h192v504h72v-504h72v504h72z" />
    <glyph glyph-name="uni255D" unicode="&#x255d;" 
d="M0 288v72h192v432h72v-504h-264zM0 144v72h336v576h72v-648h-408z" />
    <glyph glyph-name="uni255E" unicode="&#x255e;" 
d="M600 216v-72h-264v-432h-72v1080h72v-432h264v-72h-264v-72h264z" />
    <glyph glyph-name="uni255F" unicode="&#x255f;" 
d="M336 -288v1080h72v-504h192v-72h-192v-504h-72zM192 -288v1080h72v-1080h-72z" />
    <glyph glyph-name="uni2560" unicode="&#x2560;" 
d="M336 288v504h72v-432h192v-72h-264zM336 -288v504h264v-72h-192v-432h-72zM192 -288v1080h72v-1080h-72z" />
    <glyph glyph-name="uni2561" unicode="&#x2561;" 
d="M0 144v72h264v72h-264v72h264v432h72v-1080h-72v432h-264z" />
    <glyph glyph-name="uni2562" unicode="&#x2562;" 
d="M336 -288v1080h72v-1080h-72zM0 216v72h192v504h72v-1080h-72v504h-192z" />
    <glyph glyph-name="uni2563" unicode="&#x2563;" 
d="M264 216v-504h-72v432h-192v72h264zM264 792v-504h-264v72h192v432h72zM336 -288v1080h72v-1080h-72z" />
    <glyph glyph-name="uni2564" unicode="&#x2564;" 
d="M0 288v72h600v-72h-600zM0 144v72h600v-72h-264v-432h-72v432h-264z" />
    <glyph glyph-name="uni2565" unicode="&#x2565;" 
d="M0 216v72h600v-72h-192v-504h-72v504h-72v-504h-72v504h-192z" />
    <glyph glyph-name="uni2566" unicode="&#x2566;" 
d="M336 -288v504h264v-72h-192v-432h-72zM0 288v72h600v-72h-600zM0 144v72h264v-504h-72v432h-192z" />
    <glyph glyph-name="uni2567" unicode="&#x2567;" 
d="M0 288v72h264v432h72v-432h264v-72h-600zM0 144v72h600v-72h-600z" />
    <glyph glyph-name="uni2568" unicode="&#x2568;" 
d="M0 216v72h192v504h72v-504h72v504h72v-504h192v-72h-600z" />
    <glyph glyph-name="uni2569" unicode="&#x2569;" 
d="M336 288v504h72v-432h192v-72h-264zM0 288v72h192v432h72v-504h-264zM0 144v72h600v-72h-600z" />
    <glyph glyph-name="uni256A" unicode="&#x256a;" 
d="M0 144v72h264v72h-264v72h264v432h72v-432h264v-72h-264v-72h264v-72h-264v-432h-72v432h-264z" />
    <glyph glyph-name="uni256B" unicode="&#x256b;" 
d="M0 216v72h192v504h72v-504h72v504h72v-504h192v-72h-192v-504h-72v504h-72v-504h-72v504h-192z" />
    <glyph glyph-name="uni256C" unicode="&#x256c;" 
d="M336 288v504h72v-432h192v-72h-264zM336 -288v504h264v-72h-192v-432h-72zM0 288v72h192v432h72v-504h-264zM0 144v72h264v-504h-72v432h-192z" />
    <glyph glyph-name="upblock" unicode="&#x2580;" 
d="M0 252v540h600v-540h-600z" />
    <glyph glyph-name="dnblock" unicode="&#x2584;" 
d="M0 -288v540h600v-540h-600z" />
    <glyph glyph-name="block" unicode="&#x2588;" 
d="M0 -288v1080h600v-1080h-600z" />
    <glyph glyph-name="lfblock" unicode="&#x258c;" 
d="M0 -288v1080h300v-1080h-300z" />
    <glyph glyph-name="rtblock" unicode="&#x2590;" 
d="M300 -288v1080h300v-1080h-300z" />
    <glyph glyph-name="ltshade" unicode="&#x2591;" 
d="M400 301v98h100v-98h-100zM200 301v98h100v-98h-100zM0 301v98h100v-98h-100zM400 105v98h100v-98h-100zM200 105v98h100v-98h-100zM0 105v98h100v-98h-100zM400 -91v98h100v-98h-100zM200 -91v98h100v-98h-100zM0 -91v98h100v-98h-100zM400 497v98h100v-98h-100z
M200 497v98h100v-98h-100zM0 497v98h100v-98h-100zM400 694v98h100v-98h-100zM200 694v98h100v-98h-100zM0 694v98h100v-98h-100zM400 -288v98h100v-98h-100zM200 -288v98h100v-98h-100zM0 -288v98h100v-98h-100z" />
    <glyph glyph-name="shade" unicode="&#x2592;" 
d="M100 -190v97h99v-97h-99zM300 -190v97h99v-97h-99zM500 -190v97h100v-97h-100zM500 6v97h100v-97h-100zM300 6v97h99v-97h-99zM100 6v97h99v-97h-99zM100 203v97h99v-97h-99zM300 203v97h99v-97h-99zM500 203v97h100v-97h-100zM500 400v97h100v-97h-100zM300 400v97h99
v-97h-99zM100 400v97h99v-97h-99zM500 597v97h100v-97h-100zM300 597v97h99v-97h-99zM100 597v97h99v-97h-99zM400 302v97h99v-97h-99zM200 302v97h99v-97h-99zM0 302v97h99v-97h-99zM400 105v97h99v-97h-99zM200 105v97h99v-97h-99zM0 105v97h99v-97h-99zM400 -92v97h99
v-97h-99zM200 -92v97h99v-97h-99zM0 -92v97h99v-97h-99zM400 499v97h99v-97h-99zM200 499v97h99v-97h-99zM0 499v97h99v-97h-99zM400 695v97h99v-97h-99zM200 695v97h99v-97h-99zM0 695v97h99v-97h-99zM400 -288v97h99v-97h-99zM200 -288v97h99v-97h-99zM0 -288v97h99v-97
h-99z" />
    <glyph glyph-name="dkshade" unicode="&#x2593;" 
d="M600 400h-138v97h138v-97zM538 302h-138v97h138v-97zM400 400h-138v97h138v-97zM338 302h-138v97h138v-97zM200 400h-138v97h138v-97zM138 302h-138v97h138v-97zM600 203h-138v97h138v-97zM538 105h-138v97h138v-97zM400 203h-138v97h138v-97zM338 105h-138v97h138v-97z
M200 203h-138v97h138v-97zM138 105h-138v97h138v-97zM538 499h-138v97h138v-97zM538 695h-138v97h138v-97zM600 597h-138v97h138v-97zM338 499h-138v97h138v-97zM338 695h-138v97h138v-97zM400 597h-138v97h138v-97zM138 499h-138v97h138v-97zM138 695h-138v97h138v-97z
M200 597h-138v97h138v-97zM538 -288h-138v97h138v-97zM600 6h-138v97h138v-97zM600 -190h-138v97h138v-97zM538 -92h-138v97h138v-97zM338 -288h-138v97h138v-97zM400 6h-138v97h138v-97zM400 -190h-138v97h138v-97zM338 -92h-138v97h138v-97zM138 -288h-138v97h138v-97z
M200 6h-138v97h138v-97zM200 -190h-138v97h138v-97zM138 -92h-138v97h138v-97z" />
    <glyph glyph-name="uni25A0" unicode="&#x25a0;" 
d="M100 100v400h400v-400h-400z" />
    <glyph glyph-name="filledrect" unicode="&#x25ac;" 
d="M100 260v200h400v-200h-400z" />
    <glyph glyph-name="triagup" unicode="&#x25b2;" 
d="M46 122l254 474l254 -474h-508z" />
    <glyph glyph-name="uni25B6" unicode="&#x25b6;" 
d="M63 106v508l474 -254z" />
    <glyph glyph-name="triagdn" unicode="&#x25bc;" 
d="M300 122l-254 474h508z" />
    <glyph glyph-name="uni25C0" unicode="&#x25c0;" 
d="M537 614v-508l-474 254z" />
    <glyph glyph-name="lozenge" unicode="&#x25ca;" 
d="M481 333l-161 283q-12 21 -20 45h-2q-6 -17 -20 -45l-160 -280l162 -285q14 -25 18 -44h4q7 25 18 44zM540 334l-215 -377h-51l-214 377l214 378h51z" />
    <glyph glyph-name="circle" unicode="&#x25cb;" 
d="M113 252q0 -77 55 -132t132 -55t132 55t55 132t-55 132t-132 55t-132 -55t-55 -132zM71 252q-1 94 67 162t162 67q94 1 162 -67t67 -162q1 -94 -67 -162t-162 -67q-94 -1 -162 67t-67 162z" />
    <glyph glyph-name="invbullet" unicode="&#x25d8;" 
d="M177 251q-1 -51 35 -87t88 -35q52 0 87 36q36 37 36 87q-1 50 -37 86t-86 37q-50 -1 -86 -37t-37 -87zM0 -288v1080h600v-1080h-600z" />
    <glyph glyph-name="invcircle" unicode="&#x25d9;" 
d="M113 252q0 77 55 132t132 55t132 -55t55 -132t-55 -132t-132 -55t-132 55t-55 132zM71 252q-1 -94 67 -162t162 -67q94 -1 162 67t67 162q1 94 -67 162t-162 67q-94 1 -162 -67t-67 -162zM0 -288v1080h600v-1080h-600z" />
    <glyph glyph-name="smileface" unicode="&#x263a;" 
d="M300 110q-89 0 -140 62q-26 31 -18 54t17 13q48 -95 138 -95q91 0 141 90q9 16 20 -5t-18 -57q-51 -62 -140 -62zM368 429q0 21 14 35t36 15q22 -1 36 -15t14 -35t-14 -35t-36 -15q-22 1 -36 15t-14 35zM132 429q0 21 14 35t36 15q22 -1 36 -15t14 -35t-14 -35t-36 -15
q-22 1 -36 15t-14 35zM300 605q-114 1 -194 -79t-80 -196t80 -196t194 -79q114 -1 194 79t80 196t-80 196t-194 79zM10 330q0 122 84 206t206 84t206 -84t84 -206t-84 -206t-206 -84t-206 84t-84 206z" />
    <glyph glyph-name="invsmileface" unicode="&#x263b;" 
d="M300 110q89 0 140 62q26 31 18 54t-17 13q-48 -95 -138 -95q-91 0 -141 90q-9 16 -20 -5t18 -57q51 -62 140 -62zM368 429q0 -21 14 -35t36 -15q22 1 36 15t14 35t-14 35t-36 15q-22 -1 -36 -15t-14 -35zM132 429q0 -21 14 -35t36 -15q22 1 36 15t14 35t-14 35t-36 15
q-22 -1 -36 -15t-14 -35zM10 330q0 122 84 206t206 84t206 -84t84 -206t-84 -206t-206 -84t-206 84t-84 206z" />
    <glyph glyph-name="sun" unicode="&#x263c;" 
d="M166 318q0 -58 36 -95q36 -38 96 -38q60 1 98 39t37 96t-38 95t-97 37t-96 -38t-36 -96zM590 335v-32h-125q-7 -52 -38 -84l88 -88l-23 -23l-87 87q-36 -34 -89 -42v-123h-32v123q-58 8 -89 37l-87 -87l-22 23l87 87q-34 37 -39 90h-124v32h124q-1 57 35 96l-87 87l22 24
l88 -88q35 27 92 31v125h32v-125q48 -2 91 -37l88 87l23 -22l-88 -88q29 -32 36 -90h124z" />
    <glyph glyph-name="female" unicode="&#x2640;" 
d="M170 478q0 -54 38 -92t92 -38t92 38t38 92t-38 92t-92 38t-92 -38t-38 -92zM318 0h-36v171h-126v36h126v109q-64 11 -104 57t-40 110q0 65 48 111t114 46q68 0 115 -46t47 -111q0 -64 -39 -110t-105 -57v-109h126v-36h-126v-171z" />
    <glyph glyph-name="male" unicode="&#x2642;" 
d="M381 570h170v-170h-2l-39 104l-170 -170q38 -55 34 -115t-50 -105q-45 -45 -112 -44q-66 0 -114 48t-48 114t45 112t105 50t115 -35l170 171l-104 38v2zM343 232q-1 53 -39 92t-92 39t-92 -39t-38 -92q0 -54 39 -92t92 -38t92 38q38 39 38 92z" />
    <glyph glyph-name="spade" unicode="&#x2660;" 
d="M466 159q-107 0 -155 110h-2q0 -240 229 -247l4 -22h-484l4 22q229 7 229 247h-2q-48 -110 -155 -110q-53 -1 -92 37t-39 83t22 83q34 58 141 147q107 88 133 203h2q16 -70 55 -120t109 -111q70 -60 101 -100q31 -39 31 -93t-39 -92t-92 -37z" />
    <glyph glyph-name="uni2662" unicode="&#x2662;" 
d="M300 11q94 147 277 339q-183 192 -277 339q-94 -147 -277 -339q183 -192 277 -339zM300 712q108 -166 297 -362q-189 -196 -297 -362q-108 166 -297 362q189 196 297 362z" />
    <glyph glyph-name="club" unicode="&#x2663;" 
d="M295 296h-2q-18 -54 -60 -96q-43 -42 -99 -42t-94 49t-37 109t31 112t73 52t91 -30q-32 62 -32 114t36 100t98 48t98 -48t36 -100t-32 -114q48 30 91 30t73 -52t31 -112t-37 -109t-94 -49t-99 42q-42 42 -60 96h-2q0 -146 51 -200t141 -75l6 -21h-406l6 21q89 21 127 61
q65 68 65 214z" />
    <glyph glyph-name="heart" unicode="&#x2665;" 
d="M3 573q1 53 41 96t100 43t101 -44q42 -44 54 -101h2q12 57 54 101q41 44 101 44t100 -43t41 -96q0 -53 -24 -112t-82 -137q-57 -78 -85 -117q-77 -109 -105 -219h-2q-27 110 -105 219q-28 39 -68 95q-42 56 -62 87t-41 81q-20 50 -20 103z" />
    <glyph glyph-name="diamond" unicode="&#x2666;" 
d="M300 712q108 -166 297 -362q-189 -196 -297 -362q-108 166 -297 362q189 196 297 362z" />
    <glyph glyph-name="musicalnote" unicode="&#x266a;" 
d="M175 10q-69 0 -69 64q0 46 38 82t78 36q39 0 64 -11v531h44v-63l62 -75q102 -122 102 -233t-59 -179h-29q43 73 43 144q1 70 -31 126t-88 65v-314q0 -85 -43 -129t-112 -44z" />
    <glyph glyph-name="uni266C" unicode="&#x266c;" 
d="M236 468l309 94v72l-309 -94v-72zM546 76q-42 -44 -112 -44t-70 72q0 39 38 74t78 35t65 -11v280l-309 -93v-241q0 -87 -43 -131t-113 -44t-69 72q1 39 39 74t78 35t64 -11v469l397 112v-517q0 -87 -43 -131z" />
    <glyph glyph-name="uni0044_uni004D" unicode="&#xe007;" 
d="M106 607v-547h27q40 0 59 34q33 58 33 271q1 213 -59 238q-10 4 -22 4h-38zM46 607h-39v60h126q117 0 142 -166q10 -67 10 -141t-1 -104q-2 -31 -6 -74q-7 -71 -39 -126q-32 -56 -105 -56h-127v60h39v547zM592 667v-667h-60v536h-2l-85 -325h-2l-85 325h-2v-536h-60v667
h79l68 -273h2l68 273h79z" />
    <glyph glyph-name="zero.slash" unicode="&#xf638;" 
d="M114 400q0 78 12 131q30 145 174 145q70 0 111 -37q40 -37 51 -74q11 -35 16 -57q4 -22 6 -54t2 -47v-43v-33v-22q-1 -25 0 -54t-3 -59t-10 -60t-20 -56t-33 -46t-50 -32t-70 -11q-39 0 -70 11q-31 10 -50 30t-33 46t-20 54q-6 30 -10 60t-3 60v49v99zM301 613
q-29 0 -47 -7q-18 -6 -36 -32q-34 -49 -33 -228q0 -26 5 -151v-2h2l199 369q-26 51 -90 51zM417 333q0 25 -5 145l-203 -371q25 -53 92 -53q30 0 48 8q17 8 35 34q32 50 33 237z" />
    <glyph glyph-name="Lslash.sc" unicode="&#xf6f9;" 
d="M237 521v-183l87 33v-67l-87 -33v-211h273v-60h-340v246l-87 -33v67l87 33v208h67z" />
    <glyph glyph-name="OE.sc" unicode="&#xf6fa;" 
d="M245 467q-115 -1 -115 -207t115 -206q28 0 51 14v385q-23 14 -51 14zM240 -9q-43 0 -82 24q-38 24 -68 83t-30 148q0 164 58 224t127 60q35 0 58 -9h238v-60h-178v-156h146v-60h-146v-185h178v-60h-238q-20 -9 -63 -9z" />
    <glyph glyph-name="Scaron.sc" unicode="&#xf6fd;" 
d="M173 687l127 -62l128 62l23 -36l-151 -102l-151 102zM305 54q43 0 71 23t27 61q0 38 -13 52q-13 12 -21 18t-12 8t-14 8q-10 4 -14 6q-3 2 -15 7t-16 7t-24 9q-20 8 -26 11q-6 2 -22 10t-22 13t-16 13q-12 8 -16 18q-4 8 -14 24q-8 16 -8 65q0 51 44 87t109 36
q125 0 159 -131l-64 -19q-20 87 -96 87q-35 0 -60 -18q-25 -17 -25 -43q0 -43 17 -58q17 -14 53 -31l111 -49q72 -40 72 -118t-46 -118q-46 -41 -118 -41t-118 42t-57 113l60 19q23 -111 114 -111z" />
    <glyph glyph-name="Zcaron.sc" unicode="&#xf6ff;" 
d="M173 687l127 -62l128 62l23 -36l-151 -102l-151 102zM133 461v60h355l-271 -461h279v-60h-392l273 461h-244z" />
    <glyph glyph-name="A.sc" unicode="&#xf761;" 
d="M374 202l-74 241l-74 -241h148zM393 142h-185l-49 -155l-66 24l164 510h86l164 -510l-66 -24z" />
    <glyph glyph-name="B.sc" unicode="&#xf762;" 
d="M416 275q89 -28 89 -139q-1 -58 -45 -97t-126 -39h-212v60h54v401h-54v60h164q189 0 189 -139q0 -75 -59 -107zM243 298h75q42 0 64 24t23 60q0 79 -91 79h-71v-163zM321 60q114 0 114 80q0 46 -26 72t-72 26h-94v-178h78z" />
    <glyph glyph-name="C.sc" unicode="&#xf763;" 
d="M184 278q0 -224 125 -224q43 0 69 21t54 63l55 -38q-69 -109 -173 -109q-150 0 -190 172q-10 45 -10 108q0 138 62 198q62 61 126 61t102 -28t69 -83l-61 -31q-41 79 -109 79t-94 -68q-25 -69 -25 -121z" />
    <glyph glyph-name="D.sc" unicode="&#xf764;" 
d="M240 461v-401h71q67 0 97 45t30 157t-32 156t-97 43h-69zM119 461v60h174q115 -1 165 -57t50 -210t-55 -204t-160 -50h-174v60h54v401h-54z" />
    <glyph glyph-name="E.sc" unicode="&#xf765;" 
d="M157 0v521h325v-60h-258v-156h213v-60h-213v-185h258v-60h-325z" />
    <glyph glyph-name="F.sc" unicode="&#xf766;" 
d="M176 0v521h328v-60h-261v-156h219v-60h-219v-245h-67z" />
    <glyph glyph-name="G.sc" unicode="&#xf767;" 
d="M119 233q0 297 195 297q106 0 167 -100l-57 -37q-44 74 -116 74t-96 -69q-23 -69 -23 -122q0 -89 24 -155q24 -67 89 -67q64 0 107 27v137h-125v60h192v-230q-70 -57 -143 -57q-127 0 -171 82q-43 81 -43 160z" />
    <glyph glyph-name="H.sc" unicode="&#xf768;" 
d="M130 0v521h67v-216h206v216h67v-521h-67v245h-206v-245h-67z" />
    <glyph glyph-name="I.sc" unicode="&#xf769;" 
d="M193 0v60h73v401h-73v60h214v-60h-74v-401h74v-60h-214z" />
    <glyph glyph-name="J.sc" unicode="&#xf76a;" 
d="M270 54q101 0 101 104v363h67v-376q0 -62 -44 -108t-126 -46t-120 49t-39 154h67q-2 -76 20 -108t74 -32z" />
    <glyph glyph-name="K.sc" unicode="&#xf76b;" 
d="M229 521v-222h25l179 235l51 -40l-173 -219l203 -245l-51 -43l-211 257h-23v-244h-67v521h67z" />
    <glyph glyph-name="L.sc" unicode="&#xf76c;" 
d="M170 0v521h67v-461h273v-60h-340z" />
    <glyph glyph-name="M.sc" unicode="&#xf76d;" 
d="M300 147l-117 275h-2l-13 -422h-71l21 521h88l94 -226l94 226h88l21 -521h-71l-13 422h-2z" />
    <glyph glyph-name="N.sc" unicode="&#xf76e;" 
d="M126 0v521h83l202 -439l2 2l-6 135v302h67v-521h-83l-202 439l-2 -2l6 -136v-301h-67z" />
    <glyph glyph-name="O.sc" unicode="&#xf76f;" 
d="M300 54q115 0 115 206t-115 207q-115 -1 -115 -207t115 -206zM427 470q58 -60 58 -210q1 -206 -117 -256q-30 -13 -63 -13q-33 -1 -57 7q-57 17 -95 81q-38 63 -38 159q1 96 17 151t44 85q53 56 123 56t128 -60z" />
    <glyph glyph-name="P.sc" unicode="&#xf770;" 
d="M229 284h92q101 0 101 88t-101 89h-92v-177zM229 224v-224h-67v521h162q84 0 126 -40q42 -39 42 -109t-45 -109t-106 -39h-112z" />
    <glyph glyph-name="Q.sc" unicode="&#xf771;" 
d="M300 467q-115 -1 -115 -207t115 -206q27 0 52 14l-87 79l41 46l84 -77q25 59 25 144q0 207 -115 207zM311 -9q-79 0 -138 59q-58 59 -58 204q0 144 53 210t127 66t132 -60t58 -198q0 -137 -44 -202l59 -54l-42 -45l-58 53q-44 -33 -89 -33z" />
    <glyph glyph-name="R.sc" unicode="&#xf772;" 
d="M149 0v521h177q70 0 113 -35q43 -36 43 -96t-30 -102t-76 -55l128 -211l-58 -35l-133 236h-97v-223h-67zM216 283h88q48 0 78 26q30 27 30 67q0 86 -88 85h-108v-178z" />
    <glyph glyph-name="S.sc" unicode="&#xf773;" 
d="M305 54q43 0 71 23t27 61q0 38 -13 52q-13 12 -21 18t-12 8t-14 8q-10 4 -14 6q-3 2 -15 7t-16 7t-24 9q-20 8 -26 11q-6 2 -22 10t-22 13t-16 13q-12 8 -16 18q-4 8 -14 24q-8 16 -8 65q0 51 44 87t109 36q125 0 159 -131l-64 -19q-20 87 -96 87q-35 0 -60 -18
q-25 -17 -25 -43q0 -43 17 -58q17 -14 53 -31l111 -49q72 -40 72 -118t-46 -118q-46 -41 -118 -41t-118 42t-57 113l60 19q23 -111 114 -111z" />
    <glyph glyph-name="T.sc" unicode="&#xf774;" 
d="M268 0v461h-144v60h352v-60h-141v-461h-67z" />
    <glyph glyph-name="U.sc" unicode="&#xf775;" 
d="M137 521h67v-355q0 -60 20 -86t76 -26q55 0 76 26t21 86v355h67v-387q0 -58 -42 -100t-122 -43q-80 1 -122 43t-41 104v383z" />
    <glyph glyph-name="V.sc" unicode="&#xf776;" 
d="M300 152l142 382l64 -24l-200 -523h-12l-200 523l64 24z" />
    <glyph glyph-name="W.sc" unicode="&#xf777;" 
d="M93 526l69 8l40 -366h2l87 256h18l87 -256h2l41 366l68 -8l-75 -539h-23l-109 321l-109 -321h-23z" />
    <glyph glyph-name="X.sc" unicode="&#xf778;" 
d="M300 217l-139 -230l-60 34l161 255l-147 223l61 35l124 -198l124 198l61 -35l-147 -223l161 -255l-60 -34z" />
    <glyph glyph-name="Y.sc" unicode="&#xf779;" 
d="M333 0h-67v201l-168 300l63 33l139 -268l139 268l63 -33l-169 -300v-201z" />
    <glyph glyph-name="Z.sc" unicode="&#xf77a;" 
d="M133 461v60h355l-271 -461h279v-60h-392l273 461h-244z" />
    <glyph glyph-name="Agrave.sc" unicode="&#xf7e0;" 
d="M236 695l177 -101l-26 -44l-187 82zM374 202l-74 241l-74 -241h148zM393 142h-185l-49 -155l-66 24l164 510h86l164 -510l-66 -24z" />
    <glyph glyph-name="Aacute.sc" unicode="&#xf7e1;" 
d="M377 695l36 -63l-187 -82l-26 44zM374 202l-74 241l-74 -241h148zM393 142h-185l-49 -155l-66 24l164 510h86l164 -510l-66 -24z" />
    <glyph glyph-name="Acircumflex.sc" unicode="&#xf7e2;" 
d="M300 613l-127 -62l-24 36l151 102l151 -102l-23 -36zM374 202l-74 241l-74 -241h148zM393 142h-185l-49 -155l-66 24l164 510h86l164 -510l-66 -24z" />
    <glyph glyph-name="Atilde.sc" unicode="&#xf7e3;" 
d="M243 616q-27 0 -48 -62l-49 19q12 31 20 49t30 36q20 18 46 18t65 -29q38 -29 49 -29t16 2q4 2 8 7t7 9q6 8 10 25q4 16 6 19l51 -16q-20 -77 -54 -96q-16 -9 -42 -9q-26 1 -62 29t-53 28zM374 202l-74 241l-74 -241h148zM393 142h-185l-49 -155l-66 24l164 510h86
l164 -510l-66 -24z" />
    <glyph glyph-name="Adieresis.sc" unicode="&#xf7e4;" 
d="M392 680q24 0 36 -20t12 -43t-12 -43t-36 -20t-36 20t-12 43t12 43t36 20zM208 680q24 0 36 -20t12 -43t-12 -43t-36 -20t-36 20t-12 43t12 43t36 20zM374 202l-74 241l-74 -241h148zM393 142h-185l-49 -155l-66 24l164 510h86l164 -510l-66 -24z" />
    <glyph glyph-name="Aring.sc" unicode="&#xf7e5;" 
d="M300 661q-19 1 -33 -13t-14 -33q-1 -19 13 -33t34 -14t34 14t13 33q0 19 -14 33t-33 13zM300 701q36 1 62 -25t25 -62q1 -36 -25 -60q-26 -26 -62 -26t-62 26t-25 60q-1 36 25 62t62 25zM374 202l-74 241l-74 -241h148zM393 142h-185l-49 -155l-66 24l164 510h86
l164 -510l-66 -24z" />
    <glyph glyph-name="AE.sc" unicode="&#xf7e6;" 
d="M291 0v142h-137l-48 -155l-66 24l164 510h332v-60h-178v-156h145v-60h-145v-185h178v-60h-245zM291 202v259h-42l-76 -259h118z" />
    <glyph glyph-name="Ccedilla.sc" unicode="&#xf7e7;" 
d="M184 278q0 -224 125 -224q43 0 69 21t54 63l55 -38q-60 -96 -148 -108l-11 -34q34 -2 57 -20t23 -52t-29 -54q-29 -22 -65 -22t-101 29l20 51q41 -20 73 -20t32 20q0 32 -85 32l26 72q-85 14 -125 90t-40 162q0 162 62 223t126 61t102 -28t69 -83l-61 -31q-41 79 -109 79
t-94 -68q-25 -69 -25 -121z" />
    <glyph glyph-name="Egrave.sc" unicode="&#xf7e8;" 
d="M236 695l177 -101l-26 -44l-187 82zM157 0v521h325v-60h-258v-156h213v-60h-213v-185h258v-60h-325z" />
    <glyph glyph-name="Eacute.sc" unicode="&#xf7e9;" 
d="M377 695l36 -63l-187 -82l-26 44zM157 0v521h325v-60h-258v-156h213v-60h-213v-185h258v-60h-325z" />
    <glyph glyph-name="Ecircumflex.sc" unicode="&#xf7ea;" 
d="M300 613l-127 -62l-24 36l151 102l151 -102l-23 -36zM157 0v521h325v-60h-258v-156h213v-60h-213v-185h258v-60h-325z" />
    <glyph glyph-name="Edieresis.sc" unicode="&#xf7eb;" 
d="M392 680q24 0 36 -20t12 -43t-12 -43t-36 -20t-36 20t-12 43t12 43t36 20zM208 680q24 0 36 -20t12 -43t-12 -43t-36 -20t-36 20t-12 43t12 43t36 20zM157 0v521h325v-60h-258v-156h213v-60h-213v-185h258v-60h-325z" />
    <glyph glyph-name="Igrave.sc" unicode="&#xf7ec;" 
d="M236 695l177 -101l-26 -44l-187 82zM193 0v60h73v401h-73v60h214v-60h-74v-401h74v-60h-214z" />
    <glyph glyph-name="Iacute.sc" unicode="&#xf7ed;" 
d="M377 695l36 -63l-187 -82l-26 44zM193 0v60h73v401h-73v60h214v-60h-74v-401h74v-60h-214z" />
    <glyph glyph-name="Icircumflex.sc" unicode="&#xf7ee;" 
d="M300 613l-127 -62l-24 36l151 102l151 -102l-23 -36zM193 0v60h73v401h-73v60h214v-60h-74v-401h74v-60h-214z" />
    <glyph glyph-name="Idieresis.sc" unicode="&#xf7ef;" 
d="M392 680q24 0 36 -20t12 -43t-12 -43t-36 -20t-36 20t-12 43t12 43t36 20zM208 680q24 0 36 -20t12 -43t-12 -43t-36 -20t-36 20t-12 43t12 43t36 20zM193 0v60h73v401h-73v60h214v-60h-74v-401h74v-60h-214z" />
    <glyph glyph-name="Eth.sc" unicode="&#xf7f0;" 
d="M240 290h79v-60h-79v-170h71q67 0 97 45t30 157t-32 156t-97 43h-69v-171zM173 290v171h-54v60h174q115 -1 165 -57t50 -210t-55 -204t-160 -50h-174v60h54v170h-54v60h54z" />
    <glyph glyph-name="Ntilde.sc" unicode="&#xf7f1;" 
d="M243 616q-27 0 -48 -62l-49 19q12 31 20 49t30 36q20 18 46 18t65 -29q38 -29 49 -29t16 2q4 2 8 7t7 9q6 8 10 25q4 16 6 19l51 -16q-20 -77 -54 -96q-16 -9 -42 -9q-26 1 -62 29t-53 28zM126 0v521h83l202 -439l2 2l-6 135v302h67v-521h-83l-202 439l-2 -2l6 -136v-301
h-67z" />
    <glyph glyph-name="Ograve.sc" unicode="&#xf7f2;" 
d="M236 695l177 -101l-26 -44l-187 82zM300 54q115 0 115 206t-115 207q-115 -1 -115 -207t115 -206zM427 470q58 -60 58 -210q1 -206 -117 -256q-30 -13 -63 -13q-33 -1 -57 7q-57 17 -95 81q-38 63 -38 159q1 96 17 151t44 85q53 56 123 56t128 -60z" />
    <glyph glyph-name="Oacute.sc" unicode="&#xf7f3;" 
d="M377 695l36 -63l-187 -82l-26 44zM300 54q115 0 115 206t-115 207q-115 -1 -115 -207t115 -206zM427 470q58 -60 58 -210q1 -206 -117 -256q-30 -13 -63 -13q-33 -1 -57 7q-57 17 -95 81q-38 63 -38 159q1 96 17 151t44 85q53 56 123 56t128 -60z" />
    <glyph glyph-name="Ocircumflex.sc" unicode="&#xf7f4;" 
d="M300 613l-127 -62l-24 36l151 102l151 -102l-23 -36zM300 54q115 0 115 206t-115 207q-115 -1 -115 -207t115 -206zM427 470q58 -60 58 -210q1 -206 -117 -256q-30 -13 -63 -13q-33 -1 -57 7q-57 17 -95 81q-38 63 -38 159q1 96 17 151t44 85q53 56 123 56t128 -60z" />
    <glyph glyph-name="Otilde.sc" unicode="&#xf7f5;" 
d="M243 616q-27 0 -48 -62l-49 19q12 31 20 49t30 36q20 18 46 18t65 -29q38 -29 49 -29t16 2q4 2 8 7t7 9q6 8 10 25q4 16 6 19l51 -16q-20 -77 -54 -96q-16 -9 -42 -9q-26 1 -62 29t-53 28zM300 54q115 0 115 206t-115 207q-115 -1 -115 -207t115 -206zM427 470
q58 -60 58 -210q1 -206 -117 -256q-30 -13 -63 -13q-33 -1 -57 7q-57 17 -95 81q-38 63 -38 159q1 96 17 151t44 85q53 56 123 56t128 -60z" />
    <glyph glyph-name="Odieresis.sc" unicode="&#xf7f6;" 
d="M392 680q24 0 36 -20t12 -43t-12 -43t-36 -20t-36 20t-12 43t12 43t36 20zM208 680q24 0 36 -20t12 -43t-12 -43t-36 -20t-36 20t-12 43t12 43t36 20zM300 54q115 0 115 206t-115 207q-115 -1 -115 -207t115 -206zM427 470q58 -60 58 -210q1 -206 -117 -256
q-30 -13 -63 -13q-33 -1 -57 7q-57 17 -95 81q-38 63 -38 159q1 96 17 151t44 85q53 56 123 56t128 -60z" />
    <glyph glyph-name="Oslash.sc" unicode="&#xf7f8;" 
d="M485 253q0 -131 -53 -197t-121 -65q-68 0 -109 32l-21 -39l-51 27l31 57q-46 67 -46 199q0 131 53 197q52 66 120 66t108 -30l21 38l50 -28l-29 -55q47 -71 47 -202zM300 54q115 0 115 206q0 71 -16 123l-166 -303q29 -26 67 -26zM300 467q-115 0 -115 -207
q0 -67 15 -119l165 301q-25 25 -65 25z" />
    <glyph glyph-name="Ugrave.sc" unicode="&#xf7f9;" 
d="M236 695l177 -101l-26 -44l-187 82zM137 521h67v-355q0 -60 20 -86t76 -26q55 0 76 26t21 86v355h67v-387q0 -58 -42 -100t-122 -43q-80 1 -122 43t-41 104v383z" />
    <glyph glyph-name="Uacute.sc" unicode="&#xf7fa;" 
d="M377 695l36 -63l-187 -82l-26 44zM137 521h67v-355q0 -60 20 -86t76 -26q55 0 76 26t21 86v355h67v-387q0 -58 -42 -100t-122 -43q-80 1 -122 43t-41 104v383z" />
    <glyph glyph-name="Ucircumflex.sc" unicode="&#xf7fb;" 
d="M300 613l-127 -62l-24 36l151 102l151 -102l-23 -36zM137 521h67v-355q0 -60 20 -86t76 -26q55 0 76 26t21 86v355h67v-387q0 -58 -42 -100t-122 -43q-80 1 -122 43t-41 104v383z" />
    <glyph glyph-name="Udieresis.sc" unicode="&#xf7fc;" 
d="M392 680q24 0 36 -20t12 -43t-12 -43t-36 -20t-36 20t-12 43t12 43t36 20zM208 680q24 0 36 -20t12 -43t-12 -43t-36 -20t-36 20t-12 43t12 43t36 20zM137 521h67v-355q0 -60 20 -86t76 -26q55 0 76 26t21 86v355h67v-387q0 -58 -42 -100t-122 -43q-80 1 -122 43t-41 104
v383z" />
    <glyph glyph-name="Yacute.sc" unicode="&#xf7fd;" 
d="M377 695l36 -63l-187 -82l-26 44zM333 0h-67v201l-168 300l63 33l139 -268l139 268l63 -33l-169 -300v-201z" />
    <glyph glyph-name="Thorn.sc" unicode="&#xf7fe;" 
d="M229 172h92q101 0 101 88t-101 89h-92v-177zM229 112v-112h-67v521h67v-112h95q84 0 126 -40q42 -39 42 -109t-45 -109t-106 -39h-112z" />
    <glyph glyph-name="Ydieresis.sc" unicode="&#xf7ff;" 
d="M392 680q24 0 36 -20t12 -43t-12 -43t-36 -20t-36 20t-12 43t12 43t36 20zM208 680q24 0 36 -20t12 -43t-12 -43t-36 -20t-36 20t-12 43t12 43t36 20zM333 0h-67v201l-168 300l63 33l139 -268l139 268l63 -33l-169 -300v-201z" />
    <glyph glyph-name="fi" unicode="&#xfb01;" 
d="M540 521v-60h-73v-401h73v-60h-213v60h73v401h-243v-156h152v-60h-152v-245h-67v521h450z" />
    <glyph glyph-name="fl" unicode="&#xfb02;" 
d="M430 521v-461h160v-60h-227v461h-220v-156h152v-60h-152v-245h-67v521h354z" />
    <glyph glyph-name="f_i" 
d="M540 521v-60h-73v-401h73v-60h-213v60h73v401h-243v-156h152v-60h-152v-245h-67v521h450z" />
    <glyph glyph-name="f_l" 
d="M430 521v-461h160v-60h-227v461h-220v-156h152v-60h-152v-245h-67v521h354z" />
    <glyph glyph-name="a.superior" 
d="M140 236v55h320v-55h-320zM333 483l-33 97l-33 -97h66zM351 428h-102l-32 -90l-63 20l111 309h70l111 -309l-63 -20z" />
    <glyph glyph-name="o.superior" 
d="M300 621q-62 1 -62 -109t62 -110t63 110q-1 110 -63 109zM300 676q66 0 98 -48t32 -117t-32 -117t-98 -47q-66 -1 -98 47t-31 118q-1 70 31 116q32 48 98 48zM140 236v55h320v-55h-320z" />
    <glyph glyph-name="one.superior" 
d="M281 382v227l-62 -21l-18 45l140 47v-298h58v-50h-192v50h74z" />
    <glyph glyph-name="two.superior" 
d="M189 332v42l132 152q1 2 9 10q22 24 22 46q0 44 -46 44q-54 0 -61 -65l-57 7q6 52 36 80t78 28t79 -24t31 -65t-45 -92l-100 -113h144v-50h-222z" />
    <glyph glyph-name="three.superior" 
d="M408 676v-42l-86 -79q38 -4 65 -28t27 -52q0 -51 -45 -101t-177 -42v50q162 -2 162 83q0 46 -70 46q-17 0 -53 -6v39l92 82h-136v50h221z" />
    <glyph glyph-name="Hbar.sc" 
d="M403 245h-206v-245h-67v382h-70v60h70v79h67v-79h206v79h67v-79h70v-60h-70v-382h-67v245zM403 382h-206v-77h206v77z" />
    <glyph glyph-name="Tbar.sc" 
d="M476 461h-141v-147h100v-60h-100v-254h-67v254h-100v60h100v147h-144v60h352v-60z" />
    <glyph glyph-name="Eng.sc" 
d="M193 521v-38q47 47 101 47t84 -12t49 -38q38 -53 46 -115t8 -161t-17 -154q-37 -119 -166 -118v60q34 0 52 6t34 31q30 43 30 191t-30 199t-78 51t-80 -26t-33 -64v-380h-67v521h67z" />
    <glyph glyph-name="Ldot.sc" 
d="M460 228v123h82v-123h-82zM170 0v521h67v-461h273v-60h-340z" />
    <glyph glyph-name="IJ.sc" 
d="M239 242h67v-60q0 -128 81 -128t81 137v330h67v-335q0 -195 -148 -195t-148 178v73zM23 0v60h63v401h-63v60h194v-60h-64v-401h64v-60h-194z" />
    <glyph glyph-name="A.superior" 
d="M140 236v55h320v-55h-320zM333 483l-33 97l-33 -97h66zM351 428h-102l-32 -90l-63 20l111 309h70l111 -309l-63 -20z" />
    <glyph glyph-name="O.superior" 
d="M300 621q-62 1 -62 -109t62 -110t63 110q-1 110 -63 109zM300 676q66 0 98 -48t32 -117t-32 -117t-98 -47q-66 -1 -98 47t-31 118q-1 70 31 116q32 48 98 48zM140 236v55h320v-55h-320z" />
  </font>
</defs>
</svg>
