<?xml version="1.0" standalone="no"?>
<!DOCTYPE svg PUBLIC "-//W3C//DTD SVG 1.1//EN" "http://www.w3.org/Graphics/SVG/1.1/DTD/svg11.dtd" >
<svg xmlns="http://www.w3.org/2000/svg">
<metadata>
Created by Font 20130207 at Fri May 10 11:10:37 2013
 By Olivier van Helden
Copyright (c) May,3.05  Manfred Klein rev.1
</metadata>
<defs>
<font id="vfkadxslvp" >
  <font-face 
    font-family="PetitaBold"
    font-weight="500"
    font-stretch="normal"
    units-per-em="1000"
    panose-1="2 0 6 4 4 0 0 2 0 3"
    ascent="800"
    descent="-200"
    x-height="474"
    cap-height="707"
    bbox="-258 -339 1120 949"
    underline-thickness="50"
    underline-position="-75"
    unicode-range="U+0005-E062"
  />
<missing-glyph horiz-adv-x="1100" 
 />
    <glyph glyph-name=".notdef" horiz-adv-x="1100" 
 />
    <glyph glyph-name=".null" horiz-adv-x="0" 
 />
    <glyph glyph-name="nonmarkingreturn" unicode="&#xe001;" horiz-adv-x="306" 
 />
    <glyph glyph-name="breve" horiz-adv-x="366" 
d="M182 605q49 0 80 67h93q-20 -54 -37 -82q-18 -28 -50 -54q-32 -28 -84 -28t-86 28q-32 28 -50 54q-18 28 -37 82h92q20 -43 38 -55q19 -12 41 -12z" />
    <glyph glyph-name="dotaccent" horiz-adv-x="366" 
d="M252 661v-138h-138v138h138z" />
    <glyph glyph-name="ring" horiz-adv-x="366" 
d="M182 703q46 0 80 -33q33 -32 33 -78q-1 -46 -33 -78t-79 -33q-47 0 -79 32t-32 79t32 79t78 32zM149 592q-1 -14 9 -24t24 -10t26 10q10 10 10 24t-10 24t-25 10t-25 -10t-9 -24z" />
    <glyph glyph-name="hungarumlaut" unicode="&#xa;" horiz-adv-x="366" 
d="M282 702h153q-26 -26 -44 -45q-36 -38 -55 -57l-19 -19q-34 -32 -81 -85h-92zM109 702h153l-199 -206h-92z" />
    <glyph glyph-name="ogonek" horiz-adv-x="366" 
d="M185 -70q0 -36 40 -33l44 2v-86l-64 -8q-50 0 -86 29t-36 80q0 85 92 121h108q-68 -57 -83 -75t-15 -30z" />
    <glyph glyph-name="caron" horiz-adv-x="366" 
d="M272 701h95l-142 -214h-85l-141 214h96l88 -96z" />
    <glyph glyph-name="dotlessi" unicode="&#xd;" horiz-adv-x="207" 
d="M152 474v-499h-98v499h98z" />
    <glyph glyph-name="fraction" horiz-adv-x="149" 
d="M304 716h102l-563 -768h-101z" />
    <glyph glyph-name="fi" horiz-adv-x="527" 
d="M486 474v-499h-98v499h98zM305 626q-86 0 -86 -113v-39h94v-89h-94v-410h-98v410h-83v89h83v39q1 94 51 149q50 54 128 54t116 -26q40 -26 54 -59t19 -91h-98q-6 57 -25 71q-18 15 -61 15z" />
    <glyph glyph-name="fl" horiz-adv-x="527" 
d="M388 598q-84 21 -106 21q-22 -1 -42 -25q-19 -24 -19 -63v-57h93v-89h-93v-410h-98v410h-83v89h83v58q0 82 50 133q51 51 128 51q31 0 45 -6q13 -6 24 -8q11 -3 18 -13v18h98v-732h-98v623z" />
    <glyph glyph-name="Lslash" horiz-adv-x="516" 
d="M538 69v-94h-440v231l-121 -99v117l121 99v384h103v-300l167 136v-117l-167 -136v-221h337z" />
    <glyph glyph-name="lslash" horiz-adv-x="207" 
d="M151 -25h-98v260l-97 -81v113l97 81v359h98v-278l100 83v-113l-100 -83v-341z" />
    <glyph glyph-name="Zcaron" horiz-adv-x="699" 
d="M447 949h95l-142 -214h-85l-141 214h96l88 -96zM677 69v-94h-640l-15 45l486 593h-460v94h615l13 -50l-486 -588h487z" />
    <glyph glyph-name="zcaron" horiz-adv-x="436" 
d="M310 701h95l-142 -214h-85l-141 214h96l88 -96zM431 69v-94h-413l-15 45l274 360h-255v94h399l12 -45l-272 -360h270z" />
    <glyph glyph-name="space" unicode=" " horiz-adv-x="306" 
 />
    <glyph glyph-name="exclam" unicode="!" horiz-adv-x="195" 
d="M39 707h117l-19 -540h-79zM155 122v-147h-115v147h115z" />
    <glyph glyph-name="quotedbl" unicode="&#x22;" horiz-adv-x="306" 
d="M279 709v-140l-14 -144h-87l-15 145v139h116zM142 709v-140l-14 -144h-87l-15 145v139h116z" />
    <glyph glyph-name="numbersign" unicode="#" horiz-adv-x="726" 
d="M641 281v-96h-146l-43 -210h-98l43 210h-137l-43 -210h-98l43 210h-77v96h98l28 141h-126v96h147l42 205h98l-42 -205h137l42 205h98l-42 -205h76v-96h-97l-28 -141h125zM418 281l28 141h-137l-28 -141h137z" />
    <glyph glyph-name="dollar" unicode="$" horiz-adv-x="573" 
d="M385 570q-42 20 -99 20t-96 -28t-39 -67q-1 -40 23 -56q48 -32 150 -64q102 -31 154 -77t52 -132t-73 -144q-49 -42 -119 -54v-110h-98v109q-114 14 -196 93v116q100 -76 153 -95q53 -20 103 -20t91 31q38 32 38 74t-29 61q-55 36 -152 64t-135 60q-64 53 -64 137t71 141
q51 43 119 54l1 83h98l-1 -83q91 -11 163 -71v-119q-73 57 -115 77z" />
    <glyph glyph-name="percent" unicode="%" horiz-adv-x="768" 
d="M401 531q0 -76 -55 -131t-133 -55q-78 1 -131 55t-53 131t54 131q55 54 132 54t131 -54t55 -131zM618 712h114l-589 -748h-115zM740 148q0 -76 -54 -130t-132 -55q-76 0 -132 54q-55 55 -55 131t54 130q55 54 131 54t132 -54t56 -130zM122 531q0 -37 28 -65t66 -28t65 27
t27 65t-28 66t-66 27q-38 0 -65 -27t-27 -65zM554 56q39 0 66 26t27 64q0 36 -27 64q-28 28 -66 29t-66 -27t-28 -64t28 -64t66 -28z" />
    <glyph glyph-name="ampersand" unicode="&#x26;" horiz-adv-x="677" 
d="M89 521q0 73 56 124q57 49 127 49t124 -44t54 -121q0 -115 -127 -188l109 -116q33 53 62 140h109q-46 -133 -98 -215l166 -175h-136l-92 97q-98 -106 -235 -106q-100 0 -151 58q-52 58 -52 134q1 76 49 130t103 81q-68 79 -68 152zM351 524q1 32 -23 52t-55 19
q-31 1 -57 -19t-26 -49q0 -55 63 -113q98 45 98 110zM229 295q-117 -57 -117 -120t28 -87t78 -23q87 0 156 79z" />
    <glyph glyph-name="quotesingle" unicode="'" horiz-adv-x="244" 
d="M180 709v-140l-14 -144h-88l-14 145v139h116z" />
    <glyph glyph-name="parenleft" unicode="(" horiz-adv-x="366" 
d="M15 232q0 163 64 283t145 192h128q-126 -109 -181 -222t-55 -255q0 -244 172 -416q28 -28 64 -59h-128q-77 70 -143 192t-66 285z" />
    <glyph glyph-name="parenright" unicode=")" horiz-adv-x="366" 
d="M252 231q0 247 -173 417q-28 28 -66 59h129q82 -72 146 -191q65 -118 65 -284t-66 -287t-145 -190h-129q129 108 184 222q55 113 55 254z" />
    <glyph glyph-name="asterisk" unicode="*" horiz-adv-x="516" 
d="M297 558q56 33 131 92l54 -96q-73 -29 -144 -66q71 -37 144 -66l-54 -96q-18 14 -30 24q-32 26 -101 68q2 -54 14 -158h-106q10 74 14 158q-63 -38 -132 -92l-53 96q69 27 143 66q-95 48 -143 66l53 96q19 -14 31 -24q36 -28 101 -68q-2 54 -14 158h106q-10 -74 -14 -158
z" />
    <glyph glyph-name="plus" unicode="+" horiz-adv-x="726" 
d="M650 400v-94h-240v-240h-94v240h-240v94h240v237h94v-237h240z" />
    <glyph glyph-name="comma" unicode="," horiz-adv-x="195" 
d="M160 122v-105q0 -92 -81 -151q-7 -4 -17 -12t-27 -20v92q7 11 10 14l9 9q8 8 11 26h-20v147h115z" />
    <glyph glyph-name="hyphen" unicode="-" horiz-adv-x="344" 
d="M316 330v-97h-287v97h287z" />
    <glyph glyph-name="period" unicode="." horiz-adv-x="195" 
d="M154 123v-148h-114v148h114z" />
    <glyph glyph-name="slash" unicode="/" horiz-adv-x="309" 
d="M223 716h99l-236 -750h-99z" />
    <glyph glyph-name="zero" unicode="0" horiz-adv-x="550" 
d="M519 344v-6q0 -158 -65 -265t-180 -107t-179 107t-64 265v6q0 158 65 265t180 107t179 -107t64 -265zM417 337v8q0 119 -40 196t-100 77q-59 0 -102 -77q-42 -77 -42 -196v-8q1 -121 33 -181t56 -76t53 -16q57 0 100 77q42 77 42 196z" />
    <glyph glyph-name="one" unicode="1" horiz-adv-x="369" 
d="M333 707v-732h-102v525l-126 -127l-70 72l196 195v67h102z" />
    <glyph glyph-name="two" unicode="2" horiz-adv-x="550" 
d="M448 505q0 -82 -32 -152t-60 -108q-27 -37 -45 -63q-39 -55 -86 -110h288v-97h-468v49q149 153 198 224q49 72 76 132q27 61 27 113q0 53 -36 89t-86 36q-48 0 -68 -12t-29 -17q-9 -6 -21 -16q-12 -9 -28 -25t-41 -38v130q85 76 182 76t163 -64t66 -147z" />
    <glyph glyph-name="three" unicode="3" horiz-adv-x="550" 
d="M481 197q0 -107 -65 -169t-166 -62t-181 44v101q85 -39 118 -43t76 -4t80 33q37 35 37 89t-36 90q-36 34 -106 34h-35v98h32q57 0 97 30t40 75t-36 75t-90 30t-74 -10l-28 -14t-18 -10t-21 -14q-12 -8 -30 -19v108q75 57 173 57t162 -56q63 -56 63 -148q0 -93 -90 -150
q98 -58 98 -165z" />
    <glyph glyph-name="four" unicode="4" horiz-adv-x="550" 
d="M529 329v-91h-95v-263h-101v263h-312v51l357 427h57v-387h94zM334 329v197l-163 -197h163z" />
    <glyph glyph-name="five" unicode="5" horiz-adv-x="550" 
d="M239 64q73 0 113 41t40 107t-43 103q-43 38 -100 38t-135 -23v377h339v-97h-241v-164l32 2q103 6 175 -62q73 -67 73 -174t-67 -177q-69 -69 -175 -69t-192 56v122q108 -80 181 -80z" />
    <glyph glyph-name="six" unicode="6" horiz-adv-x="550" 
d="M282 394q97 0 158 -61t61 -153q1 -92 -63 -154q-64 -60 -160 -60t-162 70q-67 70 -67 210q0 192 190 378q53 52 124 101l62 -75q-197 -139 -250 -281q54 25 107 25zM400 177q0 51 -34 85t-98 34q-63 0 -119 -51q-1 -5 -1 -9v-10q0 -79 38 -120q38 -42 92 -42q52 0 88 31
q34 32 34 82z" />
    <glyph glyph-name="seven" unicode="7" horiz-adv-x="550" 
d="M21 707h508l-338 -749l-89 39l277 613h-358v97z" />
    <glyph glyph-name="eight" unicode="8" horiz-adv-x="550" 
d="M411 356q84 -60 84 -185q1 -77 -63 -141t-156 -64t-156 64q-65 64 -65 142q0 125 85 184q-71 60 -71 149q1 91 61 151t146 60t146 -61t59 -148q0 -87 -70 -151zM349 433q31 31 31 77t-29 77q-31 30 -77 30t-75 -31t-29 -77q0 -47 31 -77t74 -30t74 31zM394 185
q0 51 -34 85t-85 34t-85 -34t-34 -86t34 -86t86 -34q50 0 84 36t34 85z" />
    <glyph glyph-name="nine" unicode="9" horiz-adv-x="550" 
d="M252 290q-78 0 -141 60t-63 152t62 153t160 61t165 -69t67 -196q0 -201 -166 -365q-60 -60 -156 -130l-58 78q200 139 253 282q-45 -26 -123 -26zM399 450q0 168 -133 168q-49 0 -83 -34t-34 -82t34 -80q34 -34 83 -34t84 19t48 32q1 4 1 11z" />
    <glyph glyph-name="colon" unicode=":" horiz-adv-x="195" 
d="M154 475v-148h-114v148h114zM154 123v-148h-114v148h114z" />
    <glyph glyph-name="semicolon" unicode=";" horiz-adv-x="195" 
d="M159 475v-148h-114v148h114zM160 122v-105q0 -92 -81 -151q-7 -4 -17 -12t-27 -20v92q7 11 10 14l9 9q8 8 11 26h-20v147h115z" />
    <glyph glyph-name="less" unicode="&#x3c;" horiz-adv-x="726" 
d="M650 176v-104l-574 241v76l574 241v-104l-424 -175z" />
    <glyph glyph-name="equal" unicode="=" horiz-adv-x="726" 
d="M650 519v-94h-574v94h574zM650 277v-94h-574v94h574z" />
    <glyph glyph-name="greater" unicode="&#x3e;" horiz-adv-x="726" 
d="M650 389v-76l-574 -241v104l423 175l-423 175v104z" />
    <glyph glyph-name="question" unicode="?" horiz-adv-x="309" 
d="M19 675q84 42 120 42q75 -1 113 -51t38 -114t-22 -109q-22 -46 -58 -95q-49 -69 -49 -108l1 -18q2 -4 6 -14t17 -34l-50 -44q-62 71 -62 113t9 71t39 75q29 46 49 87q19 40 19 74t-15 54t-30 20t-89 -40zM199 122v-147h-115v147h115z" />
    <glyph glyph-name="at" unicode="@" horiz-adv-x="880" 
d="M430 478q55 0 103 -44l6 29h86q-71 81 -182 81q-110 0 -190 -80t-80 -200t82 -198t177 -77q95 0 161 33t100 84h80q-48 -84 -134 -135t-193 -51q-152 0 -248 105q-95 105 -95 243t98 242q97 104 235 103t224 -87t87 -201q0 -115 -67 -196t-145 -81q-33 0 -55 49
q-124 -98 -219 1q-45 48 -45 134t58 166t156 80zM505 310q1 44 -21 70q-22 27 -66 27q-44 -1 -80 -57t-36 -115t25 -85t50 -26t47 16t52 71t29 99zM679 320q0 81 -54 143l-67 -313q-4 -10 -4 -28q43 11 84 64t41 134z" />
    <glyph glyph-name="A" unicode="A" horiz-adv-x="734" 
d="M398 712l337 -737h-109l-108 236h-301l-108 -236h-110l338 737h61zM260 305h215l-108 236z" />
    <glyph glyph-name="B" unicode="B" horiz-adv-x="584" 
d="M531 177q1 -91 -69 -147t-185 -55h-224v732h173q111 1 179 -53q67 -54 67 -146t-65 -145q41 -15 71 -45q53 -50 53 -141zM211 391q154 0 154 108q1 57 -27 78q-47 36 -130 36h-52v-222h55zM267 69q158 0 158 111q0 117 -175 117h-94v-228h111z" />
    <glyph glyph-name="C" unicode="C" horiz-adv-x="745" 
d="M44 338q0 162 113 270t281 108q127 0 254 -67v-117q-149 85 -266 85q-116 -1 -196 -79t-79 -199t79 -197t192 -77q114 1 234 65q20 10 44 24v-112q-129 -76 -259 -76q-173 0 -285 105t-112 267z" />
    <glyph glyph-name="D" unicode="D" horiz-adv-x="814" 
d="M352 -25h-275v732h268q179 0 286 -99q106 -99 106 -263q0 -165 -102 -267t-283 -103zM630 340q0 123 -78 198t-212 75h-160v-544h158q134 0 213 74t79 197z" />
    <glyph glyph-name="E" unicode="E" 
d="M485 69v-94h-431v732h424v-94h-321v-223h312v-94h-312v-227h328z" />
    <glyph glyph-name="F" unicode="F" horiz-adv-x="482" 
d="M442 707v-94h-300v-209h269v-94h-269v-335h-103v732h403z" />
    <glyph glyph-name="G" unicode="G" horiz-adv-x="791" 
d="M467 65q87 0 157 32v144h-144v94h246v-301q-132 -68 -284 -68q-150 0 -264 108t-114 268t110 267t266 107q155 0 274 -69v-118q-150 88 -267 88t-197 -78q-80 -79 -79 -201q0 -122 81 -198t215 -75z" />
    <glyph glyph-name="H" unicode="H" horiz-adv-x="791" 
d="M700 707v-732h-103v323h-404v-323h-103v732h103v-315h404v315h103z" />
    <glyph glyph-name="I" unicode="I" horiz-adv-x="229" 
d="M165 707v-732h-102v732h102z" />
    <glyph glyph-name="J" unicode="J" horiz-adv-x="229" 
d="M161 707v-714q1 -153 -99 -203q-30 -16 -69 -14l-55 3l-11 103l62 -8q34 0 46 22q23 42 23 108v703h103z" />
    <glyph glyph-name="K" unicode="K" horiz-adv-x="601" 
d="M143 -25h-103v732h103v-303l291 303h135l-348 -364l383 -368h-139l-322 308v-308z" />
    <glyph glyph-name="L" unicode="L" horiz-adv-x="516" 
d="M478 69v-94h-440v732h103v-638h337z" />
    <glyph glyph-name="M" unicode="M" horiz-adv-x="859" 
d="M767 707v-732h-103v561l-234 -290l-235 290v-561h-103v732h90l248 -303l247 303h90z" />
    <glyph glyph-name="N" unicode="N" horiz-adv-x="848" 
d="M757 707v-732h-81l-482 554v-554h-103v732h82q136 -166 242 -282q106 -117 239 -272v554h103z" />
    <glyph glyph-name="O" unicode="O" horiz-adv-x="905" 
d="M67 341q1 159 111 267t274 108t275 -108q112 -108 112 -266q1 -158 -111 -268q-112 -108 -276 -108t-274 108t-111 267zM732 341q0 113 -82 195t-198 81q-116 0 -197 -81q-81 -82 -81 -196t80 -194t198 -81q116 -1 198 81t82 195z" />
    <glyph glyph-name="P" unicode="P" horiz-adv-x="561" 
d="M511 500q0 -99 -68 -152q-68 -54 -180 -54h-110v-319h-103v732h219q55 0 99 -13q144 -42 143 -194zM260 388q145 0 145 113q1 79 -79 104q-26 8 -61 8h-112v-225h107z" />
    <glyph glyph-name="Q" unicode="Q" horiz-adv-x="905" 
d="M452 716q164 0 276 -108q111 -108 111 -266q0 -160 -112 -269q-67 -67 -168 -94q63 -31 120 -38q57 -6 65 -7l8 -102q-188 0 -348 137q-137 16 -227 104q-110 106 -110 267q1 160 111 268t274 108zM732 341q0 113 -82 195t-198 81q-116 0 -197 -81q-81 -82 -81 -196
t80 -194t198 -81q116 -1 198 81t82 195z" />
    <glyph glyph-name="R" unicode="R" horiz-adv-x="630" 
d="M505 504q0 -107 -107 -171q24 -24 90 -123l153 -235h-122l-127 198q-46 71 -72 100q-25 29 -84 29h-79v-327h-103v732h197q185 0 237 -116q18 -39 17 -87zM245 396q153 0 153 109q0 50 -38 79t-110 29h-93v-217h88z" />
    <glyph glyph-name="S" unicode="S" horiz-adv-x="516" 
d="M473 174q0 -86 -64 -147q-65 -61 -141 -61q-126 0 -217 73v124q86 -64 124 -81q39 -17 81 -17t77 32q34 33 34 81t-24 67q-44 37 -127 65t-117 62q-57 58 -57 142q0 82 65 142t141 60q121 0 197 -55l2 -116q-58 35 -74 43q-15 8 -37 18q-22 11 -71 11q-49 1 -83 -31
t-33 -73q0 -41 27 -65t91 -48t102 -44q104 -56 104 -182z" />
    <glyph glyph-name="T" unicode="T" horiz-adv-x="630" 
d="M623 707v-94h-256v-638h-103v638h-256v94h615z" />
    <glyph glyph-name="U" unicode="U" horiz-adv-x="768" 
d="M694 707v-411q0 -143 -86 -237q-86 -93 -224 -93t-224 91q-87 91 -87 234v416h103v-412q0 -108 56 -169t152 -61q144 1 192 137q14 42 15 98v407h103z" />
    <glyph glyph-name="V" unicode="V" horiz-adv-x="653" 
d="M550 707h109l-309 -739h-48l-308 739h107l226 -537z" />
    <glyph glyph-name="W" unicode="W" horiz-adv-x="1134" 
d="M1013 707h107l-293 -739h-47l-212 533l-212 -533h-48l-294 739h108l209 -523l212 523h50l211 -524z" />
    <glyph glyph-name="X" unicode="X" horiz-adv-x="797" 
d="M465 349l334 -374h-136l-265 299l-265 -299h-135l331 374l-315 358h135l249 -281l247 281h135z" />
    <glyph glyph-name="Y" unicode="Y" horiz-adv-x="695" 
d="M402 -25h-103v382l-293 350h129l216 -256l216 256h129l-294 -350v-382z" />
    <glyph glyph-name="Z" unicode="Z" horiz-adv-x="699" 
d="M677 69v-94h-640l-15 45l486 593h-460v94h615l13 -50l-486 -588h487z" />
    <glyph glyph-name="bracketleft" unicode="[" horiz-adv-x="332" 
d="M304 -148v-97h-276v952h276v-97h-178v-758h178z" />
    <glyph glyph-name="backslash" unicode="\" horiz-adv-x="309" 
d="M86 716l235 -750h-98l-235 750h98z" />
    <glyph glyph-name="bracketright" unicode="]" horiz-adv-x="332" 
d="M304 707v-952h-276v97h178v758h-178v97h276z" />
    <glyph glyph-name="asciicircum" unicode="^" horiz-adv-x="726" 
d="M377 713l240 -285l-68 -62l-186 222l-186 -222l-68 62l239 285h29z" />
    <glyph glyph-name="underscore" unicode="_" horiz-adv-x="550" 
d="M557 -229v-100h-564v100h564z" />
    <glyph glyph-name="grave" unicode="`" horiz-adv-x="366" 
d="M191 702l138 -206h-89l-202 206h153z" />
    <glyph glyph-name="a" unicode="a" horiz-adv-x="561" 
d="M119 35q-68 71 -68 184t70 189q70 75 182 75q29 1 57 -11t53 -23v25h97v-501h-98v25q-9 -3 -18 -11q-24 -21 -115 -21t-160 69zM298 386q-54 0 -100 -48t-46 -123t40 -115t98 -40q56 0 74 8t30 16q10 10 19 15v248q-6 5 -14 13t-27 17t-74 9z" />
    <glyph glyph-name="b" unicode="b" horiz-adv-x="561" 
d="M300 483q86 0 148 -68t62 -183t-75 -191q-77 -75 -205 -75q-67 0 -108 15t-70 28l-1 698h98v-267q65 43 151 43zM410 233q0 72 -36 116t-100 44q-63 0 -125 -69v-247q35 -14 99 -14t113 49t49 121z" />
    <glyph glyph-name="c" unicode="c" horiz-adv-x="459" 
d="M283 -34q-117 0 -184 69t-67 183t66 189q66 76 179 76q55 0 142 -29v-110q-95 42 -151 42t-96 -44t-39 -118q0 -74 40 -117q41 -44 105 -44t149 40v-107q-86 -30 -144 -30z" />
    <glyph glyph-name="d" unicode="d" horiz-adv-x="561" 
d="M311 483q48 0 101 -21v245h98v-732h-98v26q-8 -5 -16 -13q-21 -22 -92 -22q-107 0 -180 74t-73 186t72 185q73 72 188 72zM292 386q-54 0 -97 -45t-43 -115t46 -116t104 -47q58 0 74 9t23 18t12 12v253q-13 7 -39 19t-80 12z" />
    <glyph glyph-name="e" unicode="e" horiz-adv-x="527" 
d="M107 41q-72 75 -72 185q-1 110 65 184q66 73 166 73t162 -68t63 -199h-355q2 -65 46 -109t104 -44q58 -1 82 13q41 24 54 34t60 52v-123q-94 -73 -199 -73q-104 0 -176 75zM364 330q-23 56 -100 56q-76 0 -102 -66q-6 -14 -11 -25h225q-4 17 -12 35z" />
    <glyph glyph-name="f" unicode="f" horiz-adv-x="264" 
d="M208 619q-81 0 -81 -111v-34h88v-89h-88v-410h-98v410h-83v89h84v49q0 85 50 139t123 54q72 0 115 -31v-93q-81 27 -110 27z" />
    <glyph glyph-name="g" unicode="g" horiz-adv-x="561" 
d="M312 -148q48 0 90 38q10 10 10 18v80q-10 -3 -38 -13q-29 -10 -81 -9q-105 0 -174 69q-68 70 -68 183t70 189t182 76q29 1 56 -11t54 -23v25h97v-566q0 -62 -70 -112t-115 -50q-132 0 -192 96q-20 32 -39 90l100 2q41 -82 118 -82zM296 60q64 0 117 29v258q-6 5 -14 13
q-25 26 -90 26t-111 -48t-46 -123q0 -74 41 -113q39 -42 103 -42z" />
    <glyph glyph-name="h" unicode="h" 
d="M288 483q82 0 136 -57t54 -155v-296h-99v281q0 130 -98 130q-45 0 -73 -22q-27 -23 -49 -54v-335h-98v732h99v-270q46 46 128 46z" />
    <glyph glyph-name="i" unicode="i" horiz-adv-x="207" 
d="M152 707v-132h-98v132h98zM152 474v-499h-98v499h98z" />
    <glyph glyph-name="j" unicode="j" horiz-adv-x="207" 
d="M157 707v-132h-98v132h98zM157 474v-506q1 -126 -49 -174q-50 -49 -125 -49l-29 91h38q32 0 50 23t17 94v521h98z" />
    <glyph glyph-name="k" unicode="k" horiz-adv-x="544" 
d="M176 -25h-98v732h98v-422l221 189h139l-275 -238l315 -261h-143l-257 214v-214z" />
    <glyph glyph-name="l" unicode="l" horiz-adv-x="207" 
d="M152 707v-732h-98v732h98z" />
    <glyph glyph-name="m" unicode="m" horiz-adv-x="848" 
d="M592 483h12q78 -1 124 -61t46 -151v-296h-98v281q0 130 -95 130q-53 0 -107 -87v-324h-98v281q0 130 -91 130q-41 0 -63 -19t-49 -58v-334h-98v499h97v-36q45 45 119 45h12q87 0 137 -83q60 83 152 83z" />
    <glyph glyph-name="n" unicode="n" 
d="M288 483q82 0 136 -57t54 -155v-296h-99v281q0 130 -98 130q-45 0 -73 -22q-27 -23 -49 -54v-335h-98v499h98v-37q47 46 129 46z" />
    <glyph glyph-name="o" unicode="o" horiz-adv-x="596" 
d="M298 483q110 1 182 -75t72 -185t-73 -183t-181 -74q-110 0 -182 76t-72 184t73 182q72 74 181 75zM451 223q0 68 -45 116q-46 47 -108 47t-108 -47q-45 -47 -45 -114t45 -115q46 -47 108 -47t108 46q45 46 45 114z" />
    <glyph glyph-name="p" unicode="p" horiz-adv-x="561" 
d="M306 -34q-62 0 -115 20v-241h-98v729h99v-21q16 6 45 18t59 12q109 -1 181 -73t72 -180t-71 -186t-172 -78zM297 63q65 0 107 45t42 115q0 71 -46 117t-116 46q-20 0 -36 -8q-24 -12 -44 -19l-13 -5v-267q42 -24 106 -24z" />
    <glyph glyph-name="q" unicode="q" horiz-adv-x="561" 
d="M510 474v-729h-98v243q-10 -3 -38 -13q-29 -10 -81 -9q-105 0 -174 69q-68 71 -68 184t70 189q70 75 182 75q29 1 57 -11t53 -23v25h97zM298 386q-54 0 -100 -48t-46 -123t40 -115t105 -40q64 0 116 29v258q-6 5 -14 13t-27 17t-74 9z" />
    <glyph glyph-name="r" unicode="r" horiz-adv-x="409" 
d="M146 -25h-98v499h98v-74q35 68 87 78q25 4 57 5q32 0 69 -27t54 -50l-54 -85q-70 65 -88 65q-35 0 -72 -40q-36 -40 -53 -70v-301z" />
    <glyph glyph-name="s" unicode="s" horiz-adv-x="389" 
d="M214 389q-86 0 -86 -51q0 -20 22 -35t72 -32q139 -48 139 -153q0 -64 -50 -108t-125 -45q-75 0 -157 53v108q97 -63 162 -63q34 1 54 15t20 34t-16 36q-16 15 -80 39q-65 24 -101 58q-36 35 -36 95t52 102t127 41q76 0 136 -53v-112l-35 25q-65 46 -98 46z" />
    <glyph glyph-name="t" unicode="t" horiz-adv-x="332" 
d="M103 91v294h-121v89h121v115l51 34h47v-149h126v-89h-126v-261q-1 -46 7 -54t36 -7q28 0 106 36v-102q-68 -31 -121 -31q-54 0 -90 32t-36 93z" />
    <glyph glyph-name="u" unicode="u" 
d="M259 63q69 0 121 78v333h98v-499h-99v34q-47 -43 -104 -43q-106 0 -160 54t-54 152v302h99v-292q0 -119 99 -119z" />
    <glyph glyph-name="v" unicode="v" horiz-adv-x="470" 
d="M385 474h101l-214 -508h-62l-227 508h104l152 -341z" />
    <glyph glyph-name="w" unicode="w" horiz-adv-x="779" 
d="M679 474h102l-215 -508h-56l-121 320l-122 -320h-56l-213 508h102l135 -324l125 324h56l125 -324z" />
    <glyph glyph-name="x" unicode="x" horiz-adv-x="599" 
d="M469 474h130l-230 -244l227 -255h-128l-165 184l-164 -184h-129l226 255l-228 244h130l165 -175z" />
    <glyph glyph-name="y" unicode="y" horiz-adv-x="497" 
d="M394 474h105l-360 -729h-105l169 341l-203 388h109l146 -283z" />
    <glyph glyph-name="z" unicode="z" horiz-adv-x="436" 
d="M431 69v-94h-413l-15 45l274 360h-255v94h399l12 -45l-272 -360h270z" />
    <glyph glyph-name="braceleft" unicode="{" horiz-adv-x="366" 
d="M239 50v-126q0 -41 12 -53t35 -12h41v-104h-38q-87 0 -121 53q-35 53 -35 122v145q0 69 -42 91q-15 8 -51 14v102q58 10 70 26q23 32 23 79v145q-1 71 25 110q43 65 131 65h38v-104h-41q-36 0 -44 -28q-4 -12 -3 -37v-126q0 -123 -71 -181q71 -57 71 -181z" />
    <glyph glyph-name="bar" unicode="|" horiz-adv-x="244" 
d="M171 711v-1050h-98v1050h98z" />
    <glyph glyph-name="braceright" unicode="}" horiz-adv-x="366" 
d="M127 412v126q0 41 -12 53t-35 12h-41v104h38q87 0 121 -53q35 -53 35 -122v-145q0 -71 42 -91q16 -8 52 -14v-102q-59 -10 -71 -27q-23 -33 -23 -78v-145q1 -72 -25 -110q-43 -65 -131 -65h-38v104h41q47 0 47 65v126q0 124 72 181q-72 55 -72 181z" />
    <glyph glyph-name="asciitilde" unicode="~" horiz-adv-x="726" 
d="M74 357q86 72 152 72q65 1 148 -39t111 -40q29 0 49 12q32 20 52 34q20 13 66 43l-2 -114q-86 -72 -151 -72q-65 -1 -148 39t-114 40q-52 0 -163 -95v120z" />
    <glyph glyph-name="exclamdown" unicode="&#xa1;" horiz-adv-x="195" 
d="M155 486v-147h-115v147h115zM137 294l19 -540h-117l19 540h79z" />
    <glyph glyph-name="cent" unicode="&#xa2;" horiz-adv-x="459" 
d="M286 63q40 0 124 40v-107q-122 -43 -210 -24l-66 -186h-97l78 223q-100 67 -100 215q1 107 67 183t178 76h11q6 0 11 -1l64 181h98l-71 -199q5 -2 13 -4l16 -6v-110q-47 21 -62 26l-107 -304q13 -3 53 -3zM116 225q0 -73 35 -114l97 275q-56 -4 -94 -46t-38 -115z" />
    <glyph glyph-name="sterling" unicode="&#xa3;" horiz-adv-x="607" 
d="M222 -13q-51 0 -173 -22v65q11 8 20 43q37 144 63 209h-83v97h103l31 91q29 86 93 166q63 80 169 80l59 -12l54 -105l-77 17l-25 2q-55 4 -102 -45q-46 -48 -74 -126l-24 -68h95v-97h-125l-54 -202l69 5q33 3 77 -5t56 -10t25 -4t23 -2q40 0 122 44v-110
q-58 -32 -103 -32q-46 0 -107 10t-112 11z" />
    <glyph glyph-name="currency" unicode="&#xa4;" horiz-adv-x="745" 
d="M467 -34q-173 0 -284 105q-59 55 -88 127h-76v90h54q-3 25 -3 60t7 70h-58v90h89q28 56 80 106q109 102 276 102q127 0 254 -67v-117q-91 51 -147 68q-55 17 -116 17q-125 0 -213 -94q-6 -7 -12 -15h463v-90h-507q-9 -35 -9 -71t4 -59h512v-90h-482q75 -133 247 -133
q69 0 105 13q77 28 163 76v-112q-133 -76 -259 -76z" />
    <glyph glyph-name="currency" unicode="&#x20ac;" horiz-adv-x="745" 
d="M467 -34q-173 0 -284 105q-59 55 -88 127h-76v90h54q-3 25 -3 60t7 70h-58v90h89q28 56 80 106q109 102 276 102q127 0 254 -67v-117q-91 51 -147 68q-55 17 -116 17q-125 0 -213 -94q-6 -7 -12 -15h463v-90h-507q-9 -35 -9 -71t4 -59h512v-90h-482q75 -133 247 -133
q69 0 105 13q77 28 163 76v-112q-133 -76 -259 -76z" />
    <glyph glyph-name="yen" unicode="&#xa5;" horiz-adv-x="612" 
d="M363 264h212v-97h-212v-192h-114v192h-216v97h216v26h-216v97h165l-213 354h131l192 -329l190 329h128l-212 -354h161v-95l-212 -1v-27z" />
    <glyph glyph-name="brokenbar" unicode="&#xa6;" horiz-adv-x="244" 
d="M171 775v-475h-98v475h98zM171 200v-475h-98v475h98z" />
    <glyph glyph-name="section" unicode="&#xa7;" horiz-adv-x="436" 
d="M55 566q0 68 49 109t111 41q63 0 97 -23t50 -51t25 -86h-101q-9 44 -26 55q-18 12 -40 12t-44 -16t-23 -43q0 -53 67 -112l93 -83q102 -93 102 -180t-76 -168q42 -58 42 -126t-49 -109q-48 -41 -110 -41t-98 23t-50 52q-15 29 -24 85h100q11 -45 26 -56t38 -11t46 16
t23 41q0 53 -67 114l-92 83q-104 93 -104 182t77 166q-42 58 -42 126zM269 275l-107 98q-42 -42 -42 -81t19 -68t27 -36l108 -98q41 41 41 93t-46 92z" />
    <glyph glyph-name="dieresis" unicode="&#xa8;" horiz-adv-x="366" 
d="M311 651v-118h-118v118h118zM174 651v-118h-118v118h118z" />
    <glyph glyph-name="copyright" unicode="&#xa9;" horiz-adv-x="880" 
d="M838 356q0 -164 -117 -282q-118 -116 -281 -116t-281 116q-117 118 -117 282t117 281q118 116 281 116t281 -116q117 -117 117 -281zM741 356q-1 124 -89 212t-212 88t-213 -88q-88 -88 -88 -212q1 -124 89 -212t212 -89q124 1 213 89q88 88 88 212zM229 353q0 99 60 165
t156 66q95 0 153 -80q18 -26 40 -72l-98 -25q-26 64 -58 79q-14 7 -52 7t-68 -37q-31 -36 -31 -98q-1 -62 29 -104t74 -43q44 0 68 22q25 22 44 86l91 -33q-46 -169 -192 -169q-92 0 -154 68t-62 168z" />
    <glyph glyph-name="ordfeminine" unicode="&#xaa;" horiz-adv-x="309" 
d="M106 381q-39 1 -71 27t-32 68t29 70t57 37q55 16 87 17v10q0 32 -33 32t-46 -6t-19 -10t-12 -9q-8 -5 -19 -13t-28 -21v88q15 17 50 31q34 14 78 14t77 -26t33 -73v-144q5 4 16 11t34 22v-83q-56 -41 -83 -41t-39 19q-40 -20 -79 -20zM84 475q0 -20 31 -20t61 24v47h-4
q-88 -12 -88 -51z" />
    <glyph glyph-name="guillemotleft" unicode="&#xab;" horiz-adv-x="550" 
d="M339 231l210 -250h-126l-210 250l208 250h126zM127 231l210 -250h-126l-210 250l208 250h126z" />
    <glyph glyph-name="logicalnot" unicode="&#xac;" horiz-adv-x="726" 
d="M650 508v-334h-94v240h-480v94h574z" />
    <glyph glyph-name="registered" unicode="&#xae;" horiz-adv-x="880" 
d="M838 356q0 -164 -117 -282q-118 -116 -281 -116t-281 116q-117 118 -117 282t117 281q118 116 281 116t281 -116q117 -117 117 -281zM741 351q-1 129 -89 217t-212 88t-213 -88q-88 -88 -88 -212q1 -124 89 -212t208 -89q120 0 202 75h-114q-43 103 -71 137
q-28 35 -77 35h-13v-172h-98v442h177q88 0 128 -36t40 -93q0 -82 -75 -118q27 -25 39 -52q13 -28 21 -45l44 -98q102 93 102 221zM411 391q93 0 93 44q0 28 -13 35q-28 13 -69 13h-59v-92h48z" />
    <glyph glyph-name="macron" unicode="&#xaf;" horiz-adv-x="366" 
d="M341 648v-101h-316v101h316z" />
    <glyph glyph-name="degree" unicode="&#xb0;" horiz-adv-x="440" 
d="M220 716q68 0 116 -48t49 -116q-1 -68 -49 -116t-116 -49q-68 1 -116 49t-49 116q1 68 49 116t116 48zM220 477q32 0 54 22q22 23 21 53q0 30 -22 52q-21 22 -53 22t-54 -22t-21 -52q0 -30 22 -53q21 -22 53 -22z" />
    <glyph glyph-name="plusminus" unicode="&#xb1;" horiz-adv-x="726" 
d="M650 398v-94h-240v-235h240v-94h-574v94h240v235h-240v94h240v240h94v-240h240z" />
    <glyph glyph-name="twosuperior" unicode="&#xb2;" horiz-adv-x="344" 
d="M134 716q68 0 112 -36t45 -84q0 -75 -59 -145q-23 -27 -56 -60l-9 -10h166v-74h-317v44q108 92 134 123q26 32 42 62t16 52t-20 38t-50 15q-28 1 -40 -5t-18 -10t-14 -9q-9 -6 -22 -16t-33 -25v95q55 45 123 45z" />
    <glyph glyph-name="threesuperior" unicode="&#xb3;" horiz-adv-x="344" 
d="M313 442q1 -69 -45 -105q-46 -35 -112 -35t-124 26v76q76 -27 117 -27q40 -1 61 15q20 16 20 37t-20 37t-61 15h-32v75h29q35 0 53 12q26 17 26 31q0 26 -42 38q-14 4 -38 4q-31 0 -110 -38v78q48 35 117 35t99 -23q56 -42 56 -93t-44 -80q50 -40 50 -78z" />
    <glyph glyph-name="acute" unicode="&#xb4;" horiz-adv-x="366" 
d="M175 702h154l-202 -206h-89z" />
    <glyph glyph-name="mu" unicode="&#xb5;" horiz-adv-x="612" 
d="M199 182q0 -119 96 -119q54 0 99 53q11 13 18 25v333h98v-499h-98v33l-12 -10t-30 -19t-74 -13q-49 0 -97 28v-196h-98v676h98v-292z" />
    <glyph glyph-name="paragraph" unicode="&#xb6;" horiz-adv-x="715" 
d="M669 717v-118h-96v-847h-114v847h-79v-847h-114v505q-93 6 -157 65q-63 60 -63 164t72 168t186 63h365z" />
    <glyph glyph-name="periodcentered" unicode="&#xb7;" horiz-adv-x="309" 
d="M212 420v-148h-114v148h114z" />
    <glyph glyph-name="periodcentered" unicode="&#x2219;" horiz-adv-x="309" 
d="M212 420v-148h-114v148h114z" />
    <glyph glyph-name="cedilla" unicode="&#xb8;" horiz-adv-x="366" 
d="M281 -104q0 -42 -36 -69t-87 -27l-73 8l13 80l56 -3q38 -2 38 12t-26 15t-45 1l36 120h82l-14 -49q17 -6 37 -26t19 -62z" />
    <glyph glyph-name="onesuperior" unicode="&#xb9;" horiz-adv-x="344" 
d="M213 712l1 -405h-83l-1 405h83z" />
    <glyph glyph-name="ordmasculine" unicode="&#xba;" horiz-adv-x="389" 
d="M194 382q-74 0 -124 47t-51 119q0 72 51 120q50 48 124 48t126 -47t51 -119q0 -72 -51 -120q-52 -48 -126 -48zM195 460q39 0 65 26t27 62q0 36 -27 64q-27 26 -66 26q-40 0 -66 -26t-26 -63t27 -63t66 -26z" />
    <glyph glyph-name="guillemotright" unicode="&#xbb;" horiz-adv-x="550" 
d="M341 481l208 -250l-210 -250h-126l210 250l-208 250h126zM129 481l208 -250l-210 -250h-126l210 250l-208 250h126z" />
    <glyph glyph-name="onequarter" unicode="&#xbc;" horiz-adv-x="916" 
d="M810 183v-71h-60v-137h-82v137h-200v45l234 227h48v-201h60zM668 716h102l-563 -768h-101zM296 712l1 -405h-83l-1 405h83zM668 183v67l-68 -67h68z" />
    <glyph glyph-name="onehalf" unicode="&#xbd;" horiz-adv-x="916" 
d="M638 384q68 0 112 -36t45 -83q0 -76 -59 -146q-23 -27 -56 -60l-9 -10h166v-74h-317v44q106 90 133 123q27 32 43 61q16 31 16 53t-20 38t-50 15q-30 1 -40 -5q-24 -12 -87 -60v95q55 45 123 45zM641 716h102l-563 -768h-101zM269 712l1 -405h-83l-1 405h83z" />
    <glyph glyph-name="threequarters" unicode="&#xbe;" horiz-adv-x="916" 
d="M829 183v-71h-60v-137h-82v137h-200v45l233 227h49v-201h60zM680 716h102l-563 -768h-101zM369 442q1 -69 -45 -105q-46 -35 -112 -35t-124 26v76q76 -27 117 -27q40 -1 61 15q20 16 20 37t-20 37t-61 15h-32v75h29q35 0 53 12q26 17 26 31q0 26 -42 38q-14 4 -38 4
q-31 0 -110 -38v78q48 35 117 35t99 -23q56 -42 56 -93t-44 -80q50 -40 50 -78zM687 183v67l-69 -67h69z" />
    <glyph glyph-name="questiondown" unicode="&#xbf;" horiz-adv-x="309" 
d="M225 497v-147h-115v147h115zM290 -203q-84 -42 -120 -42q-76 1 -114 51t-37 114q0 64 22 109q22 46 60 98q37 53 42 69t5 36l-1 18q-3 4 -7 14t-16 34l50 44q62 -68 62 -111q0 -44 -9 -73t-39 -75q-29 -46 -49 -87q-19 -40 -19 -74t15 -54t30 -20t89 40z" />
    <glyph glyph-name="Agrave" unicode="&#xc0;" horiz-adv-x="734" 
d="M290 941l137 -206h-89l-202 206h154zM398 712l337 -737h-109l-108 236h-301l-108 -236h-110l338 737h61zM260 305h215l-108 236z" />
    <glyph glyph-name="Aacute" unicode="&#xc1;" horiz-adv-x="734" 
d="M444 940h154l-202 -206h-89zM398 712l337 -737h-109l-108 236h-301l-108 -236h-110l338 737h61zM260 305h215l-108 236z" />
    <glyph glyph-name="Acircumflex" unicode="&#xc2;" horiz-adv-x="734" 
d="M409 919l143 -214h-96l-89 96l-88 -96h-96l141 214h85zM398 712l337 -737h-109l-108 236h-301l-108 -236h-110l338 737h61zM260 305h215l-108 236z" />
    <glyph glyph-name="Atilde" unicode="&#xc3;" horiz-adv-x="734" 
d="M179 741q0 145 107 145q39 0 95 -24t70 -25q15 0 18 10q4 10 9 38h77q0 -145 -107 -145q-39 0 -96 24t-68 25q-11 -1 -16 -3t-10 -45h-79zM398 712l337 -737h-109l-108 236h-301l-108 -236h-110l338 737h61zM260 305h215l-108 236z" />
    <glyph glyph-name="Adieresis" unicode="&#xc4;" horiz-adv-x="734" 
d="M496 869v-118h-118v118h118zM359 869v-118h-118v118h118zM398 712l337 -737h-109l-108 236h-301l-108 -236h-110l338 737h61zM260 305h215l-108 236z" />
    <glyph glyph-name="Aring" unicode="&#xc5;" horiz-adv-x="734" 
d="M368 921q48 1 80 -33t32 -78t-26 -72q-26 -27 -52 -34l333 -729h-109l-108 236h-301l-108 -236h-110l334 729q-25 8 -51 34t-25 72q0 47 32 79t79 32zM403 807q-1 37 -35 37q-16 0 -24 -10q-10 -10 -10 -24t10 -24t24 -10q15 0 25 10t10 21zM260 305h215l-108 236z" />
    <glyph glyph-name="AE" unicode="&#xc6;" horiz-adv-x="952" 
d="M930 69v-94h-430v322h-161l-201 -322h-116l457 732h444v-94h-320v-223h311v-93l-311 -1v-227h327zM500 391v165l-101 -165h101z" />
    <glyph glyph-name="Ccedilla" unicode="&#xc7;" horiz-adv-x="745" 
d="M44 338q0 162 113 270t303 108q105 0 232 -67v-117q-149 85 -266 85q-116 -1 -196 -79t-79 -199t79 -197t192 -77q114 1 234 65q20 10 44 24v-112q-117 -69 -240 -76q28 -28 28 -70t-36 -69t-87 -27l-72 8l12 80l56 -3q38 -2 38 13t-70 15l18 62q-111 21 -190 96
q-113 105 -113 267z" />
    <glyph glyph-name="Egrave" unicode="&#xc8;" 
d="M262 930l137 -206h-89l-202 206h154zM485 69v-94h-431v732h424v-94h-321v-223h312v-93l-312 -1v-227h328z" />
    <glyph glyph-name="Eacute" unicode="&#xc9;" 
d="M332 920h154l-202 -206h-89zM483 69v-94h-430v732h423v-94h-320v-223h311v-93l-311 -1v-227h327z" />
    <glyph glyph-name="Ecircumflex" unicode="&#xca;" 
d="M299 939l142 -214h-95l-89 96l-89 -96h-95l141 214h85zM485 69v-94h-431v732h424v-94h-321v-223h312v-93l-312 -1v-227h328z" />
    <glyph glyph-name="Edieresis" unicode="&#xcb;" 
d="M386 869v-118h-119v118h119zM249 869v-118h-119v118h119zM485 69v-94h-431v732h424v-94h-321v-223h312v-93l-312 -1v-227h328z" />
    <glyph glyph-name="Igrave" unicode="&#xcc;" horiz-adv-x="229" 
d="M123 920l137 -206h-89l-202 206h154zM167 707v-732h-102v732h102z" />
    <glyph glyph-name="Iacute" unicode="&#xcd;" horiz-adv-x="229" 
d="M196 940h154l-202 -206h-89zM168 707v-732h-102v732h102z" />
    <glyph glyph-name="Icircumflex" unicode="&#xce;" horiz-adv-x="229" 
d="M156 919l142 -214h-95l-89 96l-88 -96h-96l141 214h85zM164 707v-732h-102v732h102z" />
    <glyph glyph-name="Idieresis" unicode="&#xcf;" horiz-adv-x="229" 
d="M242 869v-118h-118v118h118zM105 869v-118h-118v118h118zM163 707v-732h-102v732h102z" />
    <glyph glyph-name="Eth" unicode="&#xd0;" horiz-adv-x="814" 
d="M403 -25h-275v320h-102v94h102v321l268 -3q181 -2 287 -100q105 -98 105 -262q0 -165 -102 -267t-283 -103zM681 340q0 123 -78 198t-212 75h-160v-224h221v-94h-221v-226h158q134 0 213 74t79 197z" />
    <glyph glyph-name="Ntilde" unicode="&#xd1;" horiz-adv-x="848" 
d="M239 741q0 145 107 145q39 0 95 -24t70 -25q15 0 18 10q4 10 9 38h77q0 -145 -107 -145q-39 0 -96 24t-68 25q-11 0 -17 -5q-5 -14 -9 -43h-79zM757 707v-732h-81l-482 554v-554h-103v732h82q136 -166 242 -282q106 -117 239 -272v554h103z" />
    <glyph glyph-name="Ograve" unicode="&#xd2;" horiz-adv-x="905" 
d="M397 940l137 -206h-89l-202 206h154zM67 341q1 159 111 267t274 108t275 -108q112 -108 112 -266q1 -158 -111 -268q-112 -108 -276 -108t-274 108t-111 267zM732 341q0 113 -82 195t-198 81q-116 0 -197 -81q-81 -82 -81 -196t80 -194t198 -81q116 -1 198 81t82 195z
" />
    <glyph glyph-name="Oacute" unicode="&#xd3;" horiz-adv-x="905" 
d="M529 940h154l-202 -206h-89zM67 341q1 159 111 267t274 108t275 -108q112 -108 112 -266q1 -158 -111 -268q-112 -108 -276 -108t-274 108t-111 267zM732 341q0 113 -82 195t-198 81q-116 0 -197 -81q-81 -82 -81 -196t80 -194t198 -81q116 -1 198 81t82 195z" />
    <glyph glyph-name="Ocircumflex" unicode="&#xd4;" horiz-adv-x="905" 
d="M486 939l148 -214h-95l-89 96l-88 -96h-96l141 214h79zM67 341q1 159 111 267t274 108t275 -108q112 -108 112 -266q1 -158 -111 -268q-112 -108 -276 -108t-274 108t-111 267zM732 341q0 113 -82 195t-198 81q-116 0 -197 -81q-81 -82 -81 -196t80 -194t198 -81
q116 -1 198 81t82 195z" />
    <glyph glyph-name="Otilde" unicode="&#xd5;" horiz-adv-x="905" 
d="M264 741q0 145 107 145q40 0 95 -24t68 -25q12 0 17 4q5 10 11 44h78q0 -145 -107 -145q-39 0 -96 24t-68 25q-11 -1 -16 -3t-10 -45h-79zM67 341q1 159 111 267t274 108t275 -108q112 -108 112 -266q1 -158 -111 -268q-112 -108 -276 -108t-274 108t-111 267zM732 341
q0 113 -82 195t-198 81q-116 0 -197 -81q-81 -82 -81 -196t80 -194t198 -81q116 -1 198 81t82 195z" />
    <glyph glyph-name="Odieresis" unicode="&#xd6;" horiz-adv-x="905" 
d="M581 869v-118h-118v118h118zM444 869v-118h-118v118h118zM67 341q1 159 111 267t274 108t275 -108q112 -108 112 -266q1 -158 -111 -268q-112 -108 -276 -108t-274 108t-111 267zM732 341q0 113 -82 195t-198 81q-116 0 -197 -81q-81 -82 -81 -196t80 -194t198 -81
q116 -1 198 81t82 195z" />
    <glyph glyph-name="multiply" unicode="&#xd7;" horiz-adv-x="726" 
d="M430 351l169 -169l-67 -67l-169 169l-169 -169l-67 67l169 169l-169 169l67 67l169 -169l169 169l67 -67z" />
    <glyph glyph-name="Oslash" unicode="&#xd8;" horiz-adv-x="905" 
d="M67 348q1 154 111 260q110 108 275 108q128 0 220 -64l63 69l78 -55l-69 -76q94 -103 94 -255q1 -153 -111 -261t-275 -108q-125 0 -216 60l-62 -69l-78 55l67 74q-97 108 -97 262zM453 65q115 -1 197 81t82 186t-59 178l-366 -407q64 -38 146 -38zM438 617
q-102 0 -183 -81t-81 -189t61 -181l369 408q-64 43 -166 43z" />
    <glyph glyph-name="Ugrave" unicode="&#xd9;" horiz-adv-x="768" 
d="M388 920l137 -206h-89l-202 206h154zM694 707v-411q0 -143 -86 -237q-86 -93 -224 -93t-224 91q-87 91 -87 234v416h103v-412q0 -108 56 -169t152 -61q144 1 192 137q14 42 15 98v407h103z" />
    <glyph glyph-name="Uacute" unicode="&#xda;" horiz-adv-x="768" 
d="M460 920h154l-202 -206h-89zM694 707v-411q0 -143 -86 -237q-86 -93 -224 -93t-224 91q-87 91 -87 234v416h103v-412q0 -108 56 -169t152 -61q144 1 192 137q14 42 15 98v407h103z" />
    <glyph glyph-name="Ucircumflex" unicode="&#xdb;" horiz-adv-x="768" 
d="M425 919l142 -214h-96l-89 96l-88 -96h-95l141 214h85zM694 707v-411q0 -143 -86 -237q-86 -93 -224 -93t-224 91q-87 91 -87 234v416h103v-412q0 -108 56 -169t152 -61q144 1 192 137q14 42 15 98v407h103z" />
    <glyph glyph-name="Udieresis" unicode="&#xdc;" horiz-adv-x="768" 
d="M511 869v-118h-118v118h118zM374 869v-118h-118v118h118zM694 707v-411q0 -143 -86 -237q-86 -93 -224 -93t-224 91q-87 91 -87 234v416h103v-412q0 -108 56 -169t152 -61q144 1 192 137q14 42 15 98v407h103z" />
    <glyph glyph-name="Yacute" unicode="&#xdd;" horiz-adv-x="641" 
d="M397 920h154l-202 -206h-90zM372 -25h-103v382l-293 350h129l216 -256l216 256h129l-294 -350v-382z" />
    <glyph glyph-name="Thorn" unicode="&#xde;" horiz-adv-x="561" 
d="M263 135h-110v-160h-103v732h104v-159h108q113 0 181 -54t68 -152q0 -99 -68 -153t-180 -54zM260 230q145 0 145 112q1 79 -79 104q-26 8 -61 8h-112v-224h107z" />
    <glyph glyph-name="germandbls" unicode="&#xdf;" horiz-adv-x="550" 
d="M367 516q0 110 -112 110q-47 0 -68 -22q-38 -41 -38 -156v-473h-98v507q0 116 58 176q59 58 149 58t150 -52q60 -54 60 -138q0 -41 -18 -82t-45 -62q94 -63 94 -183q-1 -93 -57 -163t-153 -70q-23 0 -35 3t-19 5l-28 7v106q61 -24 97 -24q36 1 64 39t29 94q0 56 -18 82
q-17 26 -41 38t-76 18v92h33q31 0 51 26q20 28 21 64z" />
    <glyph glyph-name="agrave" unicode="&#xe0;" horiz-adv-x="531" 
d="M242 702l137 -206h-89l-202 206h154zM104 35q-68 71 -68 184t70 189q70 75 182 75q53 0 110 -24v15h97v-501h-98v15q-59 -22 -119 -22q-105 0 -174 69zM182 338q-46 -48 -45 -122q1 -72 41 -114t104 -42t116 29v268q-44 29 -107 29t-109 -48z" />
    <glyph glyph-name="aacute" unicode="&#xe1;" horiz-adv-x="521" 
d="M309 702h154l-202 -206h-90zM31 218q1 112 71 188t181 77q53 0 110 -24v15h97v-501h-98v15q-59 -22 -119 -22q-105 0 -174 69q-68 71 -68 183zM286 386q-62 0 -108 -48t-46 -122q0 -72 40 -114t105 -42q64 0 116 29v268q-44 29 -107 29z" />
    <glyph glyph-name="acircumflex" unicode="&#xe2;" horiz-adv-x="542" 
d="M324 701l142 -214h-95l-89 96l-88 -96h-96l141 214h85zM294 483q51 0 110 -24v15h97v-501h-98v15q-9 -3 -37 -13q-29 -10 -82 -9q-105 0 -174 69q-68 70 -68 183t70 189t182 76zM143 216q0 -74 40 -115t104 -41t117 29v268q-46 29 -108 29t-108 -48t-45 -122z" />
    <glyph glyph-name="atilde" unicode="&#xe3;" horiz-adv-x="530" 
d="M88 523q0 145 107 145q40 0 95 -24t68 -25q12 0 17 4q5 10 11 44h78q0 -145 -107 -145q-39 0 -96 24t-68 25q-11 -1 -16 -3t-10 -45h-79zM288 483q51 0 110 -24v15h97v-501h-98v15q-9 -3 -37 -13q-29 -10 -82 -9q-105 0 -174 69q-68 70 -68 183t70 189t182 76zM290 386
q-62 0 -108 -48t-45 -122q0 -74 40 -115t104 -41t117 29v268q-46 29 -108 29z" />
    <glyph glyph-name="adieresis" unicode="&#xe4;" 
d="M119 35q-68 71 -68 184t70 189q70 75 182 75q29 1 57 -11t53 -23v25h97v-501h-98v25q-9 -3 -18 -11q-24 -21 -115 -21t-160 69zM298 386q-54 0 -100 -48t-46 -123t40 -115t98 -40q56 0 74 8t30 16q10 10 19 15v248q-6 5 -14 13t-27 17t-74 9zM409 651v-118h-118v118h118z
M272 651v-118h-118v118h118z" />
    <glyph glyph-name="aring" unicode="&#xe5;" horiz-adv-x="470" 
d="M5 218q0 112 67 185t166 79q-35 6 -64 35t-29 75q1 46 33 78t78 33t80 -33q32 -34 32 -80t-28 -74t-65 -34q48 -4 92 -23v15h97v-501h-98v15q-59 -22 -119 -22q-106 0 -174 70t-68 182zM291 592q0 34 -35 34q-14 0 -24 -10t-10 -24t10 -24t24 -10q15 0 25 10t10 24z
M152 338q-46 -48 -46 -122q0 -72 40 -114t105 -42q64 0 116 29v268q-44 29 -106 29q-63 0 -109 -48z" />
    <glyph glyph-name="ae" unicode="&#xe6;" horiz-adv-x="825" 
d="M491 -27h-98v25q-9 -3 -18 -11q-24 -21 -115 -21t-160 69q-68 71 -68 184t70 189q70 75 182 75q28 1 56 -11t54 -23v25h97v-21q39 30 115 30t132 -68t55 -199h-302v-32q7 -42 41 -82q32 -39 80 -39t67 13q51 35 105 89v-126q-86 -73 -168 -73t-125 37v-30zM595 386
q-54 0 -85 -60q-5 -10 -9 -21h178q-18 81 -84 81zM279 386q-55 0 -101 -48t-45 -123t41 -115t96 -40t76 8q18 8 28 16q10 10 20 15v248q-6 5 -14 13t-27 17t-74 9z" />
    <glyph glyph-name="ccedilla" unicode="&#xe7;" horiz-adv-x="459" 
d="M177 -87l20 65q-57 16 -95 55q-70 72 -70 185t66 189t179 76q55 0 142 -29v-110q-95 42 -151 42t-96 -44t-39 -100q1 -178 145 -179q64 0 149 40v-107q-79 -28 -119 -29q29 -27 29 -70t-36 -70t-88 -27l-72 8l13 80l55 -3q39 -3 39 13t-71 15z" />
    <glyph glyph-name="egrave" unicode="&#xe8;" horiz-adv-x="527" 
d="M265 702l137 -206h-89l-202 206h154zM107 41q-72 75 -72 185q-1 110 65 184q66 73 166 73t162 -68t63 -199h-355q2 -65 46 -109t104 -44q58 -1 82 13q41 24 54 34t60 52v-123q-94 -73 -199 -73q-104 0 -176 75zM376 305q-25 81 -105 81q-81 0 -120 -81h225z" />
    <glyph glyph-name="eacute" unicode="&#xe9;" horiz-adv-x="527" 
d="M337 702h154l-202 -206h-89zM107 41q-72 75 -72 185q-1 110 65 184q66 73 166 73t162 -68t63 -199h-355q2 -65 46 -109t104 -44q58 -1 82 13q41 24 54 34t60 52v-123q-94 -73 -199 -73q-104 0 -176 75zM376 305q-25 81 -105 81q-81 0 -120 -81h225z" />
    <glyph glyph-name="ecircumflex" unicode="&#xea;" horiz-adv-x="527" 
d="M302 701l142 -214h-95l-89 96l-89 -96h-95l141 214h85zM107 41q-72 75 -72 185q-1 110 65 184q66 73 166 73t162 -68t63 -199h-355q2 -65 46 -109t104 -44q58 -1 82 13q41 24 54 34t60 52v-123q-94 -73 -199 -73q-104 0 -176 75zM376 305q-25 81 -105 81q-81 0 -120 -81
h225z" />
    <glyph glyph-name="edieresis" unicode="&#xeb;" horiz-adv-x="527" 
d="M388 651v-118h-118v118h118zM251 651v-118h-118v118h118zM107 41q-72 75 -72 185q-1 110 65 184q66 73 166 73t162 -68t63 -199h-355q2 -65 46 -109t104 -44q58 -1 82 13q41 24 54 34t60 52v-123q-94 -73 -199 -73q-104 0 -176 75zM376 305q-25 81 -105 81
q-81 0 -120 -81h225z" />
    <glyph glyph-name="igrave" unicode="&#xec;" horiz-adv-x="207" 
d="M112 702l137 -206h-89l-202 206h154zM156 474v-499h-98v499h98z" />
    <glyph glyph-name="iacute" unicode="&#xed;" horiz-adv-x="207" 
d="M145 702h154l-202 -206h-89zM157 474v-499h-98v499h98z" />
    <glyph glyph-name="icircumflex" unicode="&#xee;" horiz-adv-x="207" 
d="M145 701l142 -214h-95l-89 96l-88 -96h-96l141 214h85zM153 474v-499h-98v499h98z" />
    <glyph glyph-name="idieresis" unicode="&#xef;" horiz-adv-x="207" 
d="M231 651v-118h-118v118h118zM94 651v-118h-118v118h118zM152 474v-499h-98v499h98z" />
    <glyph glyph-name="eth" unicode="&#xf0;" horiz-adv-x="615" 
d="M575 248q0 -125 -73 -204q-72 -79 -190 -79t-196 74q-78 75 -77 185q0 110 77 184t195 75q63 0 111 -24q-26 44 -76 86l-154 -71l-36 78l105 49q-25 13 -70 35l41 76q88 -32 132 -63l141 66l38 -78l-104 -49q136 -144 136 -340zM474 226q0 74 -46 121q-46 46 -120 46
q-74 -1 -124 -51q-49 -50 -49 -120q-1 -70 49 -118t125 -48t120 48t45 122z" />
    <glyph glyph-name="ntilde" unicode="&#xf1;" 
d="M82 523q0 145 108 145q38 0 95 -24t68 -25q12 0 17 4q5 10 11 44h78q0 -145 -108 -145q-38 0 -95 24t-68 25q-11 -1 -16 -3t-10 -45h-80zM288 483q82 0 136 -57t54 -155v-296h-99v281q0 130 -98 130q-45 0 -73 -22q-27 -23 -49 -54v-335h-98v499h98v-37q47 46 129 46z
" />
    <glyph glyph-name="ograve" unicode="&#xf2;" horiz-adv-x="596" 
d="M303 702l138 -206h-89l-202 206h153zM298 483q110 1 182 -75t72 -185t-73 -183t-181 -74q-110 0 -182 76t-72 184t73 182q72 74 181 75zM451 223q0 68 -45 116q-46 47 -108 47t-108 -47q-45 -47 -45 -114t45 -115q46 -47 108 -47t108 46q45 46 45 114z" />
    <glyph glyph-name="oacute" unicode="&#xf3;" horiz-adv-x="596" 
d="M376 702h154l-202 -206h-90zM298 483q110 1 182 -75t72 -185t-73 -183t-181 -74q-110 0 -182 76t-72 184t73 182q72 74 181 75zM451 223q0 68 -45 116q-46 47 -108 47t-108 -47q-45 -47 -45 -114t45 -115q46 -47 108 -47t108 46q45 46 45 114z" />
    <glyph glyph-name="ocircumflex" unicode="&#xf4;" horiz-adv-x="596" 
d="M341 701l142 -214h-96l-89 96l-88 -96h-95l141 214h85zM298 483q110 1 182 -75t72 -185t-73 -183t-181 -74q-110 0 -182 76t-72 184t73 182q72 74 181 75zM451 223q0 68 -45 116q-46 47 -108 47t-108 -47q-45 -47 -45 -114t45 -115q46 -47 108 -47t108 46q45 46 45 114z
" />
    <glyph glyph-name="otilde" unicode="&#xf5;" horiz-adv-x="596" 
d="M110 523q0 145 107 145q39 0 96 -24t70 -25q14 0 17 10q4 10 9 38h77q0 -145 -107 -145q-39 0 -95 24q-56 25 -68 25t-18 -5q-5 -14 -9 -43h-79zM298 483q110 1 182 -75t72 -185t-73 -183t-181 -74q-110 0 -182 76t-72 184t73 182q72 74 181 75zM451 223q0 68 -45 116
q-46 47 -108 47t-108 -47q-45 -47 -45 -114t45 -115q46 -47 108 -47t108 46q45 46 45 114z" />
    <glyph glyph-name="odieresis" unicode="&#xf6;" horiz-adv-x="596" 
d="M427 651v-118h-118v118h118zM290 651v-118h-118v118h118zM298 483q110 1 182 -75t72 -185t-73 -183t-181 -74q-110 0 -182 76t-72 184t73 182q72 74 181 75zM451 223q0 68 -45 116q-46 47 -108 47t-108 -47q-45 -47 -45 -114t45 -115q46 -47 108 -47t108 46q45 46 45 114
z" />
    <glyph glyph-name="divide" unicode="&#xf7;" horiz-adv-x="726" 
d="M415 581v-134h-104v134h104zM650 398v-94h-574v94h574zM415 255v-134h-104v134h104z" />
    <glyph glyph-name="oslash" unicode="&#xf8;" horiz-adv-x="596" 
d="M47 231q0 103 73 177t165 75q93 0 150 -36l53 62l70 -57l-57 -65q54 -69 54 -171t-73 -176t-165 -74q-93 0 -151 36l-57 -66l-71 54l62 72q-53 66 -53 169zM454 214q0 58 -21 94l-200 -229q27 -16 79 -16t97 46q45 47 45 105zM288 386q-50 0 -95 -47t-45 -105t21 -93
l200 230q-31 15 -81 15z" />
    <glyph glyph-name="ugrave" unicode="&#xf9;" 
d="M274 702l137 -206h-89l-202 206h154zM259 63q69 0 121 78v333h98v-499h-99v34q-47 -43 -104 -43q-106 0 -160 54t-54 152v302h99v-292q0 -119 99 -119z" />
    <glyph glyph-name="uacute" unicode="&#xfa;" 
d="M335 702h154l-202 -206h-89zM148 182q0 -119 99 -119q43 1 75 27t46 51v333h98v-499h-98v34q-82 -70 -200 -30t-118 193v302h98v-292z" />
    <glyph glyph-name="ucircumflex" unicode="&#xfb;" 
d="M311 701l142 -214h-95l-89 96l-89 -96h-95l141 214h85zM259 63q69 0 121 78v333h98v-499h-99v34q-47 -43 -104 -43q-106 0 -160 54t-54 152v302h99v-292q0 -119 99 -119z" />
    <glyph glyph-name="udieresis" unicode="&#xfc;" 
d="M398 651v-118h-119v118h119zM260 651v-118h-118v118h118zM259 63q69 0 121 78v333h98v-499h-99v34q-47 -43 -104 -43q-106 0 -160 54t-54 152v302h99v-292q0 -119 99 -119z" />
    <glyph glyph-name="yacute" unicode="&#xfd;" horiz-adv-x="459" 
d="M301 702h154l-202 -206h-89zM374 474h105l-360 -729h-105l169 341l-203 388h109l146 -283z" />
    <glyph glyph-name="thorn" unicode="&#xfe;" horiz-adv-x="561" 
d="M256 483q109 -1 181 -73t72 -180q1 -108 -71 -186t-173 -78q-55 0 -81 8l-34 12v-241h-98v962h99v-244q53 20 105 20zM406 223q0 71 -46 117t-102 46q-54 0 -75 -9t-33 -13v-277q45 -24 108 -24q64 0 106 45t42 115z" />
    <glyph glyph-name="ydieresis" unicode="&#xff;" horiz-adv-x="459" 
d="M352 651v-118h-118v118h118zM215 651v-118h-118v118h118zM374 474h105l-360 -729h-105l169 341l-203 388h109l146 -283z" />
    <glyph glyph-name="OE" unicode="&#x152;" horiz-adv-x="986" 
d="M927 69v-94h-484q-167 0 -275 105t-109 262q0 157 110 261t272 104h479v-94h-323v-223h314v-93l-314 -1v-227h330zM454 69h40v544h-43q-123 0 -204 -78q-81 -77 -81 -195t82 -194t206 -77z" />
    <glyph glyph-name="oe" unicode="&#x153;" horiz-adv-x="916" 
d="M858 216h-309q1 -65 39 -109t87 -44q48 0 68 13q49 32 106 89v-125q-87 -74 -177 -74q-124 0 -179 84q-76 -84 -186 -84q-111 0 -180 75q-68 75 -68 183t68 184q69 75 182 75t183 -79q66 79 163 79q147 0 190 -152q13 -46 13 -115zM744 305q-21 81 -87 81t-96 -81h183z
M160 224q0 -68 42 -114t102 -47q58 1 100 47t43 114q0 68 -43 114q-44 48 -102 48t-100 -47t-42 -115z" />
    <glyph glyph-name="Scaron" unicode="&#x160;" horiz-adv-x="516" 
d="M346 949h95l-142 -214h-85l-141 214h95l89 -96zM473 174q0 -86 -64 -147q-65 -61 -141 -61q-126 0 -217 73v124q86 -64 124 -81q39 -17 81 -17t77 32q34 33 34 81t-24 67q-44 37 -127 65t-117 62q-57 58 -57 142q0 82 65 142t141 60q121 0 197 -55l2 -116q-58 35 -74 43
q-15 8 -37 18q-22 11 -71 11q-49 1 -83 -31t-33 -73q0 -41 27 -65t91 -48t102 -44q104 -56 104 -182z" />
    <glyph glyph-name="scaron" unicode="&#x161;" horiz-adv-x="389" 
d="M283 701h96l-143 -214h-84l-141 214h95l88 -96zM180 63q89 0 89 49q0 21 -15 36t-82 39q-66 24 -101 58q-35 33 -35 95q0 61 52 102t129 41t134 -53v-112l-35 25q-64 46 -97 46q-87 0 -87 -51q0 -20 21 -34t72 -33q52 -19 85 -45q55 -44 55 -107q1 -63 -49 -109
q-50 -45 -126 -45t-157 53v108q97 -63 147 -63z" />
    <glyph glyph-name="Ydieresis" unicode="&#x178;" horiz-adv-x="641" 
d="M448 869v-118h-118v118h118zM311 869v-118h-118v118h118zM372 -25h-103v382l-293 350h129l216 -256l216 256h129l-294 -350v-382z" />
    <glyph glyph-name="florin" unicode="&#x192;" horiz-adv-x="612" 
d="M582 634q-57 17 -87 17t-40 -10t-30 -95h109l-23 -97h-107l-121 -558q-13 -57 -51 -91q-38 -35 -88 -35q-51 0 -77 7t-55 15l22 97q62 -16 93 -16t38 17q8 17 12 39q5 23 10 42l104 483h-81l19 97h82l14 59q21 87 59 118q39 32 93 32t123 -24z" />
    <glyph glyph-name="circumflex" unicode="&#x2c6;" horiz-adv-x="366" 
d="M225 701l142 -214h-95l-89 96l-88 -96h-96l141 214h85z" />
    <glyph glyph-name="tilde" unicode="&#x2dc;" horiz-adv-x="366" 
d="M-5 523q0 145 107 145q39 0 96 -24t70 -25q14 0 17 10q4 10 9 38h77q0 -145 -107 -145q-39 0 -95 24t-68 25q-12 0 -18 -5q-5 -14 -8 -43h-80z" />
    <glyph glyph-name="endash" unicode="&#x2013;" horiz-adv-x="550" 
d="M556 291v-82h-562v82h562z" />
    <glyph glyph-name="emdash" unicode="&#x2014;" horiz-adv-x="1100" 
d="M1081 291v-82h-1062v82h1062z" />
    <glyph glyph-name="quoteleft" unicode="&#x2018;" horiz-adv-x="195" 
d="M150 592v-147h-115v94q0 71 20 101q21 30 43 47t62 43v-90l-26 -29q-2 -6 -4 -19h20z" />
    <glyph glyph-name="quoteright" unicode="&#x2019;" horiz-adv-x="195" 
d="M160 709v-94q0 -71 -20 -101t-42 -47t-63 -43v90q5 7 10 12l10 10q7 7 10 26h-20v147h115z" />
    <glyph glyph-name="quotesinglbase" unicode="&#x201a;" horiz-adv-x="195" 
d="M155 122v-94q1 -106 -79 -166q-14 -11 -36 -25v90q15 20 20 48h-20v147h115z" />
    <glyph glyph-name="quotedblleft" unicode="&#x201c;" horiz-adv-x="436" 
d="M380 592v-147h-115v94q-1 71 19 101t43 47t63 43v-90l-26 -29q-2 -6 -4 -19h20zM161 592v-147h-115v94q0 71 20 101t42 47q23 17 63 43v-90l-26 -29q-2 -6 -4 -19h20z" />
    <glyph glyph-name="quotedblright" unicode="&#x201d;" horiz-adv-x="436" 
d="M390 709v-94q0 -71 -20 -101t-43 -47t-62 -43v90q5 7 16 18t14 30h-20v147h115zM171 709v-94q0 -71 -20 -101t-43 -47t-62 -43v90q5 7 11 13l9 9q6 6 10 26h-20v147h115z" />
    <glyph glyph-name="quotedblbase" unicode="&#x201e;" horiz-adv-x="436" 
d="M388 122v-94q0 -68 -20 -100t-44 -48q-22 -17 -61 -43v90q6 8 14 16l11 11q2 2 5 21h-20v147h115zM173 122v-94q-1 -68 -21 -100t-42 -48q-22 -17 -62 -43v90q6 8 15 17l9 10q2 2 6 21h-20v147h115z" />
    <glyph glyph-name="dagger" unicode="&#x2020;" 
d="M514 446v-105l-195 3l9 -599h-117l9 599l-195 -3v105l195 -3l-6 273h111l-6 -273z" />
    <glyph glyph-name="daggerdbl" unicode="&#x2021;" horiz-adv-x="527" 
d="M502 92v-109l-199 14l18 -252h-116l18 252l-198 -14v109l198 -14l-12 148l12 158l-198 -14v109l198 -14l-18 251h116l-18 -251l199 14v-109l-199 14l12 -158l-12 -148z" />
    <glyph glyph-name="bullet" unicode="&#x2022;" horiz-adv-x="550" 
d="M422 341q0 -60 -42 -104q-45 -43 -105 -43t-104 42q-43 45 -43 105t42 104q45 43 105 43t104 -42q43 -45 43 -105z" />
    <glyph glyph-name="ellipsis" unicode="&#x2026;" horiz-adv-x="1100" 
d="M940 123v-148h-114v148h114zM607 123v-148h-114v148h114zM274 123v-148h-114v148h114z" />
    <glyph glyph-name="perthousand" unicode="&#x2030;" horiz-adv-x="1157" 
d="M932 332q76 0 131 -54t55 -130t-55 -131q-55 -54 -131 -54t-127 51t-57 113q-6 -63 -58 -114q-51 -50 -127 -50q-77 1 -131 55t-54 130t54 130t131 54q76 0 127 -50t58 -115q6 63 57 114t127 51zM421 531q1 -77 -55 -131t-132 -55q-76 0 -130 55q-55 55 -55 131
q1 77 55 131t130 54t132 -54q55 -54 55 -131zM628 713h113l-587 -749h-115zM1025 146q0 38 -27 66q-27 27 -65 27q-37 0 -65 -27t-28 -64q0 -36 27 -64t67 -28t65 26q26 26 26 64zM328 530q0 38 -27 66q-27 27 -65 27q-38 1 -66 -27t-28 -65t28 -65t66 -28t65 27t27 65z
M656 146q0 38 -27 66q-27 27 -65 27t-66 -27t-27 -64q0 -36 27 -64q26 -28 66 -28t66 26t26 64z" />
    <glyph glyph-name="guilsinglleft" unicode="&#x2039;" horiz-adv-x="309" 
d="M113 231l210 -250h-127l-210 250l208 250h126z" />
    <glyph glyph-name="guilsinglright" unicode="&#x203a;" horiz-adv-x="309" 
d="M115 481l208 -250l-210 -250h-127l211 250l-208 250h126z" />
    <glyph glyph-name="trademark" unicode="&#x2122;" horiz-adv-x="1034" 
d="M899 707v-415h-102v206l-73 -206h-67l-68 201v-201h-97v325h-125v-325h-102v325h-130v90h486l71 -227l71 227h136z" />
    <glyph glyph-name="HT" unicode="&#xe000;" horiz-adv-x="306" 
 />
    <glyph glyph-name="minus" unicode="&#xe002;" horiz-adv-x="726" 
d="M650 398v-94h-574v94h574z" />
    <glyph glyph-name="notequal" unicode="&#xe003;" horiz-adv-x="726" 
d="M650 277v-94h-302l-46 -122h-97l46 122h-175v94h211l56 148h-267v94h303l46 122h97l-46 -122h174v-94h-210l-56 -148h266z" />
    <glyph glyph-name="infinity" unicode="&#xe004;" horiz-adv-x="784" 
d="M35 264q0 72 52 119q54 46 109 46t98 -22t98 -74q62 56 102 76t96 20q56 -1 107 -47q52 -46 52 -118t-52 -118t-103 -47q-51 1 -94 19t-108 77q-103 -96 -190 -96q-61 1 -114 47t-53 118zM582 200q66 0 66 64q0 24 -18 44t-50 20q-50 0 -115 -64q64 -64 117 -64zM136 264
q0 -64 66 -64q53 0 117 64q-59 64 -117 64q-30 0 -48 -21t-18 -43z" />
    <glyph glyph-name="lessequal" unicode="&#xe005;" horiz-adv-x="726" 
d="M650 216v-104l-574 241v76l574 241v-104l-424 -175zM650 60v-85h-574v85h574z" />
    <glyph glyph-name="greaterequal" unicode="&#xe006;" horiz-adv-x="726" 
d="M650 429v-76l-574 -241v104l423 175l-423 175v104zM650 60v-85h-574v85h574z" />
    <glyph glyph-name="partialdiff" unicode="&#xe007;" horiz-adv-x="916" 
d="M638 384q68 0 112 -36t45 -83q0 -76 -59 -146q-23 -27 -56 -60l-9 -10h166v-74h-317v44q106 90 133 123q27 32 43 61q16 31 16 53t-20 38t-50 15q-30 1 -40 -5q-24 -12 -87 -60v95q55 45 123 45zM641 716h102l-563 -768h-101zM269 712l1 -405h-83l-1 405h83z" />
    <glyph glyph-name="summation" unicode="&#xe008;" horiz-adv-x="916" 
d="M810 183v-71h-60v-137h-82v137h-200v45l234 227h48v-201h60zM668 716h102l-563 -768h-101zM296 712l1 -405h-83l-1 405h83zM668 183v67l-68 -67h68z" />
    <glyph glyph-name="product" unicode="&#xe009;" horiz-adv-x="916" 
d="M829 183v-71h-60v-137h-82v137h-200v45l233 227h49v-201h60zM680 716h102l-563 -768h-101zM369 442q1 -69 -45 -105q-46 -35 -112 -35t-124 26v76q76 -27 117 -27q40 -1 61 15q20 16 20 37t-20 37t-61 15h-32v75h29q32 0 52 11q27 16 27 32q0 26 -42 38q-14 4 -38 4
q-31 0 -110 -38v78q48 35 117 35t99 -23q56 -42 56 -93t-44 -80q50 -40 50 -78zM687 183v67l-69 -67h69z" />
    <glyph glyph-name="pi" unicode="&#xe00a;" horiz-adv-x="604" 
d="M519 176h73q-4 -154 -88 -202q-26 -14 -56 -15q-53 0 -88 51q-34 51 -34 132t17 234h-63l-43 -330q-21 -90 -85 -90q-36 0 -60 24t-24 57q0 34 36 70t39 68l26 201h-19q-18 0 -33 -10t-39 -53h-66q30 96 68 148q37 51 105 51h398v-136h-128q-10 -105 -10 -176
q0 -99 40 -99q34 0 34 75z" />
    <glyph glyph-name="integral" unicode="&#xe00b;" horiz-adv-x="301" 
d="M105 63l-6 347q0 293 14 375t40 119t76 37q16 0 30 -5q61 -22 61 -61q0 -84 -82 -84q-22 0 -38 17q4 -83 13 -179q8 -96 8 -296q1 -200 -19 -294q-20 -95 -51 -133t-72 -38t-69 24t-29 56q0 32 21 53q20 21 48 21t49 -23q6 21 6 64z" />
    <glyph glyph-name="Omega" unicode="&#xe00c;" horiz-adv-x="845" 
d="M66 399q0 146 107 230t249 84q142 1 250 -83q106 -84 106 -231q0 -101 -62 -184t-138 -89h114h17t12 5q5 6 18 56h59v-212h-347l20 196q140 44 140 231q1 117 -51 173t-138 56t-138 -55t-51 -165q0 -110 28 -153q27 -42 51 -59t61 -27l21 -197h-348v212h60q12 -50 17 -56
q5 -5 12 -5h103q-64 29 -118 95t-54 178z" />
    <glyph glyph-name="radical" unicode="&#xe00d;" horiz-adv-x="604" 
d="M501 945l84 -12l-166 -1054l-267 552l-96 -47l-38 77l191 95l174 -355z" />
    <glyph glyph-name="approxequal" unicode="&#xe00e;" horiz-adv-x="726" 
d="M477 491q48 0 88 58l87 -28q-22 -43 -42 -63t-56 -38t-74 -17q-40 -1 -125 27q-85 27 -106 28q-20 0 -37 -10t-50 -55l-88 35q86 115 168 115q50 0 132 -26q83 -26 103 -26zM477 249q48 0 88 58l87 -28q-22 -43 -42 -63t-56 -38t-74 -17q-40 -1 -125 27q-85 27 -106 28
q-20 0 -37 -10t-50 -55l-88 35q86 115 168 115q50 0 132 -26q83 -26 103 -26z" />
    <glyph glyph-name="Delta" unicode="&#xe00f;" horiz-adv-x="673" 
d="M358 750l318 -775h-679zM142 74h335l-158 381z" />
    <glyph glyph-name="nonbreakingspace" unicode="&#xe010;" horiz-adv-x="550" 
 />
    <glyph glyph-name="lozenge" unicode="&#xe011;" horiz-adv-x="543" 
d="M317 770l207 -393l-207 -402h-91l-206 402l207 393h90zM272 109l136 268l-136 260l-136 -260z" />
    <glyph glyph-name="apple" unicode="&#xe012;" horiz-adv-x="739" 
d="M394 696q4 3 67 52l47 -83q-36 -15 -52 -21t-26 -11l77 -31l-45 -85q-32 24 -46 37t-22 16l10 -83h-93q5 37 7 55t4 29l-68 -54l-46 85q36 14 52 20t26 11l-78 32l47 83q30 -24 42 -34t25 -18q-1 9 -11 84h93q-4 -37 -6 -55t-4 -29zM383 -9h148v424l-148 -182v-242z
M630 -9h94l-89 -86l-241 -1l116 -119l-65 -63l-270 271v-2h-100v595h86l193 -236l191 236h85v-595zM175 113l9 8l113 -116v224l17 17l-139 169v-302z" />
    <glyph glyph-name="ch337" unicode="&#xe013;" horiz-adv-x="470" 
d="M17 100q0 169 262 192v32q0 38 -17 54q-17 15 -58 15t-61 -12q-45 -27 -101 -77v115q20 20 68 42q49 22 113 22q64 -1 109 -39t45 -108v-264q13 8 34 23q21 16 41 29v-97q-66 -61 -108 -61t-54 30l-3 6q-59 -37 -121 -37q-61 1 -105 41t-44 94zM115 103q0 -48 56 -48
t108 45v104l-20 -1q-32 -3 -66 -15q-78 -28 -78 -85z" />
    <glyph glyph-name="udoubleacute" unicode="&#xe014;" horiz-adv-x="470" 
d="M38 286q0 89 57 143t132 54h232v-88h-69q28 -43 28 -115t-47 -116t-114 -54q-19 -4 -35 -10l-31 -11q-11 -5 -19 -9t-8 -11q0 -22 66 -22q178 0 214 -78q14 -31 14 -71q0 -77 -64 -115t-136 -38q-124 0 -186 38t-62 98t45 101q17 14 40 24q-27 24 -27 52q0 62 51 82
q-81 57 -81 146zM228 195q38 -1 66 29t29 71q0 41 -27 70q-26 29 -66 29t-68 -29t-28 -71t28 -70q28 -29 66 -29zM362 -102q0 53 -128 53t-128 -61q0 -18 30 -36q30 -19 91 -19t91 14t37 25t7 24z" />
    <glyph glyph-name="Udoubleacute" unicode="&#xe015;" horiz-adv-x="768" 
d="M536 920h153q-26 -26 -44 -45q-36 -38 -55 -57l-19 -19q-28 -26 -80 -85h-92zM363 920h153l-199 -206h-91zM694 707v-411q0 -143 -86 -237q-86 -93 -224 -93t-224 91q-87 91 -87 234v416h103v-412q0 -108 56 -169t152 -61q144 1 192 137q14 42 15 98v407h103z" />
    <glyph glyph-name="thacek" unicode="&#xe016;" horiz-adv-x="440" 
d="M463 709v-94q1 -106 -79 -166q-14 -11 -37 -25v90q17 20 20 48h-20v147h116zM98 91v294h-121v89h122v115l50 34h48v-149h126v-89h-127v-261q0 -45 4 -50q28 -31 146 25v-102q-70 -31 -123 -31t-89 32t-36 93z" />
    <glyph glyph-name="Thacek" unicode="&#xe017;" horiz-adv-x="630" 
d="M401 939h95l-142 -214h-85l-141 214h96l88 -96zM623 707v-94h-256v-638h-103v638h-256v94h615z" />
    <glyph glyph-name="rhacek" unicode="&#xe018;" horiz-adv-x="366" 
d="M270 701h95l-142 -214h-85l-141 214h96l88 -96zM102 -25h-98v499h98v-54q8 8 18 16t31 28q22 20 75 19q80 0 143 -77l-54 -85q-70 65 -88 65q-35 0 -72 -40q-36 -40 -53 -70v-301z" />
    <glyph glyph-name="Rhacek" unicode="&#xe019;" horiz-adv-x="630" 
d="M332 939h95l-142 -214h-85l-141 214h96l88 -96zM493 504q0 -107 -107 -171q21 -21 48 -61l195 -297h-122l-127 198q-46 71 -72 100q-25 29 -84 29h-79v-327h-103v732h197q185 0 237 -116q18 -39 17 -87zM233 396q153 0 153 109q0 50 -38 79t-110 29h-93v-217h88z" />
    <glyph glyph-name="odoubleacute" unicode="&#xe01a;" horiz-adv-x="596" 
d="M435 702h154q-26 -26 -44 -45t-36 -37l-37 -37q-42 -42 -82 -87h-92zM272 702h154l-200 -206h-91zM546 223q0 -109 -73 -183t-181 -74q-110 0 -182 74t-72 184t73 184t180 75q108 0 182 -75q73 -76 73 -185zM445 224q0 67 -45 115q-46 47 -108 47t-108 -46
q-45 -46 -45 -114q1 -68 45 -116t108 -47q64 0 108 47q45 47 45 114z" />
    <glyph glyph-name="Odoubleacute" unicode="&#xe01b;" horiz-adv-x="905" 
d="M839 342q1 -158 -111 -268q-112 -108 -276 -108t-274 108t-111 267q1 159 111 267t275 108h6l136 204h153q-26 -26 -44 -45t-32 -33t-23 -24l-19 -19q-40 -40 -80 -85h-54q134 -13 239 -113q104 -101 104 -259zM432 920h154l-200 -206h-91zM732 341q0 113 -82 195
t-198 81q-116 0 -197 -81q-81 -82 -81 -196t80 -194t198 -81q116 -1 198 81t82 195z" />
    <glyph glyph-name="nhacek" unicode="&#xe01c;" 
d="M368 701h95l-142 -214h-85l-141 214h95l89 -96zM288 483q82 0 136 -57t54 -155v-296h-99v281q0 130 -98 130q-45 0 -73 -22q-27 -23 -49 -54v-335h-98v499h98v-37q47 46 129 46z" />
    <glyph glyph-name="Nhacek" unicode="&#xe01d;" horiz-adv-x="848" 
d="M524 919h96l-143 -214h-84l-141 214h95l88 -96zM757 707v-732h-81l-482 554v-554h-103v732h82q136 -166 242 -282q106 -117 239 -272v554h103z" />
    <glyph glyph-name="lmiddledot" unicode="&#xe01e;" horiz-adv-x="363" 
d="M315 396v-138h-139v138h139zM147 707v-732h-99v732h99z" />
    <glyph glyph-name="Lmiddledot" unicode="&#xe01f;" horiz-adv-x="516" 
d="M350 396v-138h-138v138h138zM478 69v-94h-440v732h103v-638h337z" />
    <glyph glyph-name="lhacek" unicode="&#xe020;" horiz-adv-x="275" 
d="M256 708v-94q0 -106 -80 -166q-14 -11 -35 -25v90q15 17 20 48h-20v147h115zM117 707v-732h-98v732h98z" />
    <glyph glyph-name="Lhacek" unicode="&#xe021;" horiz-adv-x="516" 
d="M377 709v-94q1 -106 -79 -166q-14 -11 -36 -25v90q15 17 20 48h-20v147h115zM478 69v-94h-440v732h103v-638h337z" />
    <glyph glyph-name="ehacek" unicode="&#xe022;" horiz-adv-x="527" 
d="M357 701h95l-142 -214h-85l-141 214h95l89 -96zM107 41q-72 75 -72 185q-1 110 65 184q66 73 166 73t162 -68t63 -199h-355q2 -65 46 -109t104 -44q58 -1 82 13q41 24 54 34t60 52v-123q-94 -73 -199 -73q-104 0 -176 75zM376 305q-25 81 -105 81q-81 0 -120 -81h225z
" />
    <glyph glyph-name="Ehacek" unicode="&#xe023;" 
d="M354 939h95l-142 -214h-85l-141 214h95l89 -96zM485 69v-94h-431v732h424v-94h-321v-223h312v-93l-312 -1v-227h328z" />
    <glyph glyph-name="dhacek" unicode="&#xe024;" horiz-adv-x="663" 
d="M643 708v-94q1 -106 -79 -166q-14 -11 -36 -25v90q17 21 19 48h-19v147h115zM274 -34q-107 0 -180 74t-73 186t72 184q72 73 188 73q48 0 101 -21v245h98v-732h-98v16q-40 -25 -108 -25zM269 386q-61 0 -104 -45t-43 -115t46 -117q46 -46 104 -46t77 11q20 11 32 18v263
q-51 31 -112 31z" />
    <glyph glyph-name="Dhacek" unicode="&#xe025;" horiz-adv-x="814" 
d="M435 939h96l-143 -214h-84l-141 214h95l88 -96zM352 -25h-275v732h268q179 0 286 -99q106 -99 106 -263q0 -165 -102 -267t-283 -103zM630 340q0 123 -78 198t-212 75h-160v-544h158q134 0 213 74t79 197z" />
    <glyph glyph-name="Dbar" unicode="&#xe026;" horiz-adv-x="814" 
d="M403 -25h-275v320h-102v94h102v321l268 -3q181 -2 287 -100q105 -98 105 -262q0 -165 -102 -267t-283 -103zM681 340q0 123 -78 198t-212 75h-160v-224h221v-94h-221v-226h158q134 0 213 74t79 197z" />
    <glyph glyph-name="zdot" unicode="&#xe027;" horiz-adv-x="436" 
d="M287 661v-138h-138v138h138zM431 69v-94h-413l-15 45l274 360h-255v94h399l12 -45l-272 -360h270z" />
    <glyph glyph-name="Zdot" unicode="&#xe028;" horiz-adv-x="699" 
d="M424 879v-138h-138v138h138zM677 69v-94h-640l-15 45l486 593h-460v94h615l13 -50l-486 -588h487z" />
    <glyph glyph-name="zacute" unicode="&#xe029;" horiz-adv-x="436" 
d="M285 702h154l-203 -206h-89zM425 69v-94h-413l-15 45l275 360h-256v94h399l12 -45l-272 -360h270z" />
    <glyph glyph-name="Zacute" unicode="&#xe02a;" horiz-adv-x="699" 
d="M427 920h154l-202 -206h-89zM677 69v-94h-640l-15 45l486 593h-460v94h615l13 -50l-486 -588h487z" />
    <glyph glyph-name="uogonek" unicode="&#xe02b;" 
d="M462 -25q-53 -11 -53 -49q0 -11 8 -19q18 -12 32 -10l45 2v-86l-65 -8q-50 0 -86 29q-36 28 -36 78t26 76q-43 -22 -87 -22q-94 0 -147 54q-54 54 -54 152v302h99v-292q0 -119 99 -119q69 0 121 78v333h98v-499z" />
    <glyph glyph-name="Uogonek" unicode="&#xe02c;" horiz-adv-x="768" 
d="M73 291v416h103v-412q0 -108 56 -169t152 -61q144 1 192 137q14 42 15 98v407h103v-411q0 -143 -80 -230q-80 -86 -189 -98q-22 -22 -22 -38t8 -23q18 -12 32 -10l44 2v-86l-64 -8q-50 1 -86 29t-36 70t15 68q-92 18 -156 85q-87 91 -87 234z" />
    <glyph glyph-name="uring" unicode="&#xe02d;" 
d="M158 592q0 46 32 78t80 33q46 0 79 -34t33 -79q0 -44 -32 -76t-80 -33q-48 1 -80 33t-32 78zM259 63q69 0 121 78v333h98v-499h-99v34q-47 -43 -104 -43q-106 0 -160 54t-54 152v302h99v-292q0 -119 99 -119zM235 592q-1 -14 9 -24t25 -10t25 10t11 24q0 14 -10 24
q-9 10 -25 10t-26 -10t-9 -24z" />
    <glyph glyph-name="Uring" unicode="&#xe02e;" horiz-adv-x="768" 
d="M272 810q0 46 32 78t80 33q46 1 78 -33t33 -80q0 -46 -32 -77q-32 -32 -79 -32q-48 1 -80 33t-32 78zM694 707v-411q0 -143 -86 -237q-86 -93 -224 -93t-224 91q-87 91 -87 234v416h103v-412q0 -108 56 -169t152 -61q144 1 192 137q14 42 15 98v407h103zM418 810
q0 34 -35 34q-15 0 -25 -10t-9 -24q-1 -14 9 -24t25 -10t25 10t10 24z" />
    <glyph glyph-name="umacron" unicode="&#xe02f;" 
d="M433 648v-101h-317v101h317zM259 63q69 0 121 78v333h98v-499h-99v34q-47 -43 -104 -43q-106 0 -160 54t-54 152v302h99v-292q0 -119 99 -119z" />
    <glyph glyph-name="Umacron" unicode="&#xe030;" horiz-adv-x="768" 
d="M546 866v-101h-316v101h316zM694 707v-411q0 -143 -86 -237q-86 -93 -224 -93t-224 91q-87 91 -87 234v416h103v-412q0 -108 56 -169t152 -61q144 1 192 137q14 42 15 98v407h103z" />
    <glyph glyph-name="tcedilla" unicode="&#xe031;" horiz-adv-x="332" 
d="M248 63q23 0 102 36v-102q-35 -16 -56 -22q7 -4 13 -12q25 -25 25 -67t-36 -69t-87 -27l-73 8l13 80l56 -3q38 -2 38 13t-71 15l18 58q-87 24 -87 120v294h-121v89h121v115l51 34h47v-149h126v-89h-126v-261q1 -46 5 -50t12 -8q8 -3 30 -3z" />
    <glyph glyph-name="Tcedilla" unicode="&#xe032;" horiz-adv-x="630" 
d="M249 -87l19 62h-4v638h-256v94h615v-94h-256v-636q9 -5 25 -23t17 -58q0 -39 -37 -70q-37 -26 -87 -26l-72 8l12 80l56 -3q39 -3 39 13t-71 15z" />
    <glyph glyph-name="sacute" unicode="&#xe033;" horiz-adv-x="389" 
d="M233 702h154l-202 -206h-89zM149 63q89 -1 89 49q0 22 -16 37t-81 39q-66 24 -101 57t-35 95q0 61 52 102t129 41t134 -53v-112q-80 60 -105 65q-25 6 -52 6q-27 1 -45 -15t-17 -36q0 -20 21 -35t72 -32q140 -48 140 -153q0 -65 -50 -109t-112 -44q-63 0 -96 14t-74 39
v108q97 -63 147 -63z" />
    <glyph glyph-name="Sacute" unicode="&#xe034;" horiz-adv-x="516" 
d="M323 940h154l-202 -206h-90zM266 -34q-127 0 -218 73v124q88 -65 125 -82q37 -16 79 -16t78 32q34 33 34 80t-24 68q-43 37 -128 65q-84 29 -128 75t-45 129q-1 82 65 142t142 60q121 0 196 -55l2 -116q-55 33 -73 41q-17 9 -39 20t-70 11q-48 1 -82 -31t-34 -74t27 -65
t120 -57t135 -82q42 -47 42 -134q0 -88 -64 -148t-140 -60z" />
    <glyph glyph-name="rcedilla" unicode="&#xe035;" horiz-adv-x="366" 
d="M125 -21q45 -26 45 -74t-37 -79q-37 -26 -87 -26l-72 8l12 80l56 -3q22 -2 31 4q8 5 8 9q0 15 -69 15l15 62v499h98v-54l18 16t32 28t74 19q52 0 89 -27t54 -50l-53 -85q-70 65 -89 65q-59 0 -125 -110v-297z" />
    <glyph glyph-name="Rcedilla" unicode="&#xe036;" horiz-adv-x="630" 
d="M191 -98q0 -48 -36 -75t-87 -27l-72 8l12 80l56 -3q38 -2 38 12t-26 15t-44 1l18 62h-3v732h197q186 0 237 -116q17 -39 17 -87q0 -110 -106 -171q21 -21 48 -61l195 -297h-122l-128 198q-41 65 -69 97t-87 32h-79v-325q41 -27 41 -75zM238 396q153 0 153 108t-148 109
h-93v-217h88z" />
    <glyph glyph-name="racute" unicode="&#xe037;" horiz-adv-x="413" 
d="M270 702h153l-202 -206h-89zM246 386q-36 0 -71 -39t-54 -71v-301h-98v499h98v-54l18 16t32 28t74 19q80 0 144 -77l-54 -85q-70 65 -89 65z" />
    <glyph glyph-name="Racute" unicode="&#xe038;" horiz-adv-x="630" 
d="M322 920h154l-202 -206h-89zM503 504q0 -107 -107 -171q21 -21 48 -61l195 -297h-122l-127 198q-46 71 -72 100q-25 29 -84 29h-79v-327h-103v732h197q185 0 237 -116q18 -39 17 -87zM243 396q153 0 153 109q0 50 -38 79t-110 29h-93v-217h88z" />
    <glyph glyph-name="omacron" unicode="&#xe039;" horiz-adv-x="596" 
d="M462 648v-101h-316v101h316zM298 483q110 1 182 -75t72 -185t-73 -183t-181 -74q-110 0 -182 76t-72 184t73 182q72 74 181 75zM451 223q0 68 -45 116q-46 47 -108 47t-108 -47q-45 -47 -45 -114t45 -115q46 -47 108 -47t108 46q45 46 45 114z" />
    <glyph glyph-name="Omacron" unicode="&#xe03a;" horiz-adv-x="905" 
d="M616 866v-101h-316v101h316zM67 341q1 159 111 267t274 108t275 -108q112 -108 112 -266q1 -158 -111 -268q-112 -108 -276 -108t-274 108t-111 267zM732 341q0 113 -82 195t-198 81q-116 0 -197 -81q-81 -82 -81 -196t80 -194t198 -81q116 -1 198 81t82 195z" />
    <glyph glyph-name="ncedilla" unicode="&#xe03b;" 
d="M70 -87l19 62v499h97v-37q52 46 132 46t134 -56t53 -156v-296h-98v281q0 130 -98 130q-47 0 -74 -22q-26 -22 -48 -54v-332q43 -26 43 -75t-36 -76t-88 -27l-72 8l13 80l55 -3q39 -3 39 13q0 15 -71 15z" />
    <glyph glyph-name="Ncedilla" unicode="&#xe03c;" horiz-adv-x="848" 
d="M261 -105q0 -41 -36 -68t-87 -27l-72 8l12 80l56 -3q38 -2 38 12t-26 15t-44 1l18 62h-4v732h82q136 -166 242 -282q106 -117 239 -272v554h103v-732h-81l-482 554v-552q8 -3 25 -22t17 -60z" />
    <glyph glyph-name="nacute" unicode="&#xe03d;" 
d="M336 702h154l-202 -206h-89zM278 483q80 0 134 -56t53 -156v-296h-98v281q0 130 -98 130q-45 0 -73 -22q-27 -23 -49 -54v-335h-98v499h97v-37q52 46 132 46z" />
    <glyph glyph-name="Nacute" unicode="&#xe03e;" horiz-adv-x="848" 
d="M505 920h154l-202 -206h-90zM757 707v-732h-81l-482 554v-554h-103v732h82q136 -166 242 -282q106 -117 239 -272v554h103z" />
    <glyph glyph-name="lcedilla" unicode="&#xe03f;" horiz-adv-x="207" 
d="M201 -96q0 -50 -36 -77t-87 -27l-72 8l12 80l56 -3q38 -2 38 13t-70 15l18 62v732h98v-729q43 -24 43 -74z" />
    <glyph glyph-name="Lcedilla" unicode="&#xe040;" horiz-adv-x="516" 
d="M351 -100q0 -46 -36 -73t-87 -27l-73 8l13 80l55 -3q39 -2 39 12t-26 15t-45 1l19 62h-172v732h103v-638h337v-94h-165q38 -29 38 -75z" />
    <glyph glyph-name="lacute" unicode="&#xe041;" horiz-adv-x="207" 
d="M175 928h154l-202 -206h-89zM152 707v-732h-98v732h98z" />
    <glyph glyph-name="Lacute" unicode="&#xe042;" horiz-adv-x="516" 
d="M170 930h154l-202 -206h-89zM483 69v-94h-440v732h103v-638h337z" />
    <glyph glyph-name="kcedilla" unicode="&#xe043;" horiz-adv-x="470" 
d="M155 -97q0 -49 -36 -76t-87 -27l-73 8l13 80l56 -3q38 -2 38 13t-68 15l14 62v732h98v-422l221 189h139l-274 -238l314 -261h-143l-257 214v-210q45 -27 45 -76z" />
    <glyph glyph-name="Kcedilla" unicode="&#xe044;" horiz-adv-x="584" 
d="M22 -87l19 62h-7v732h103v-303l291 303h135l-348 -364l383 -368h-139l-322 308v-304q45 -26 45 -76q0 -49 -36 -76t-88 -27l-72 8l13 80l55 -3q39 -3 39 13t-71 15z" />
    <glyph glyph-name="iogonek" unicode="&#xe045;" horiz-adv-x="207" 
d="M166 707v-132h-98v132h98zM10 -80q0 58 58 98v456h98l1 -499q-2 0 -21 -7q-34 -13 -34 -38q0 -15 12 -25t28 -8l44 2v-86l-64 -8q-50 1 -86 29t-36 86z" />
    <glyph glyph-name="Iogonek" unicode="&#xe046;" horiz-adv-x="229" 
d="M21 -80q0 58 55 96v691h102v-732q-2 0 -21 -7q-34 -13 -34 -38q0 -15 12 -25t28 -8l44 2v-86l-64 -8q-50 1 -86 29t-36 86z" />
    <glyph glyph-name="imacron" unicode="&#xe047;" horiz-adv-x="207" 
d="M261 648v-101h-316v101h316zM147 474v-499h-98v499h98z" />
    <glyph glyph-name="Imacron" unicode="&#xe048;" horiz-adv-x="229" 
d="M272 866v-101h-316v101h316zM158 707v-732h-102v732h102z" />
    <glyph glyph-name="gcedilla" unicode="&#xe049;" horiz-adv-x="470" 
d="M284 702h154l-202 -206h-90zM179 -66q38 -82 89 -82q34 0 66 20t32 36v80q-66 -22 -119 -22q-105 0 -174 69q-68 71 -68 184q1 113 71 189q70 75 181 75q53 0 110 -24v15h97l1 -566q0 -62 -65 -112q-129 -100 -237 -7q-51 41 -84 143zM152 338q-46 -48 -46 -122
q0 -72 40 -114t105 -42q64 0 116 29v268q-44 29 -107 29q-62 0 -108 -48z" />
    <glyph glyph-name="Gcedilla" unicode="&#xe04a;" horiz-adv-x="791" 
d="M467 65q87 0 157 32v144h-144v94h246v-301q-106 -54 -215 -66q29 -26 29 -70t-36 -71t-87 -27l-72 8l12 80l56 -3q38 -2 38 12q1 14 -25 15t-45 1l17 57q-129 17 -220 103q-114 109 -114 269t110 267t266 107q155 0 274 -69v-118q-150 88 -267 88t-197 -78
q-80 -79 -79 -201q0 -122 81 -198t215 -75z" />
    <glyph glyph-name="eogonek" unicode="&#xe04b;" horiz-adv-x="527" 
d="M286 63q58 -1 82 13q41 24 54 34t60 52v-123q-79 -64 -164 -72l-7 -9q-14 -16 -14 -29q0 -14 12 -24t28 -8l44 2v-86l-64 -8q-50 0 -86 29t-36 71t18 72q-61 16 -106 64q-72 75 -72 185q-1 110 65 184q66 73 166 73t162 -68t63 -199h-355q2 -65 46 -109t104 -44zM376 305
q-25 81 -105 81q-81 0 -120 -81h225z" />
    <glyph glyph-name="Eogonek" unicode="&#xe04c;" 
d="M414 -68q0 -38 40 -35l44 2v-86l-64 -8q-50 0 -86 29t-36 71t16 70h-287v732h423v-94h-320v-223h311v-93l-311 -1v-227h327v-94h-29q-28 -29 -28 -43z" />
    <glyph glyph-name="edot" unicode="&#xe04d;" horiz-adv-x="527" 
d="M333 661v-138h-138v138h138zM107 41q-72 75 -72 185q-1 110 65 184q66 73 166 73t162 -68t63 -199h-355q2 -65 46 -109t104 -44q58 -1 82 13q41 24 54 34t60 52v-123q-94 -73 -199 -73q-104 0 -176 75zM376 305q-25 81 -105 81q-81 0 -120 -81h225z" />
    <glyph glyph-name="Edot" unicode="&#xe04e;" 
d="M331 879v-138h-139v138h139zM485 69v-94h-431v732h424v-94h-321v-223h312v-93l-312 -1v-227h328z" />
    <glyph glyph-name="emacron" unicode="&#xe04f;" horiz-adv-x="527" 
d="M423 648v-101h-316v101h316zM107 41q-72 75 -72 185q-1 110 65 184q66 73 166 73t162 -68t63 -199h-355q2 -65 46 -109t104 -44q58 -1 82 13q41 24 54 34t60 52v-123q-94 -73 -199 -73q-104 0 -176 75zM376 305q-25 81 -105 81q-81 0 -120 -81h225z" />
    <glyph glyph-name="Emacron" unicode="&#xe050;" 
d="M421 866v-101h-317v101h317zM485 69v-94h-431v732h424v-94h-321v-223h312v-93l-312 -1v-227h328z" />
    <glyph glyph-name="aogonek" unicode="&#xe051;" horiz-adv-x="470" 
d="M190 -36q-3 -4 -11 -13q-8 -10 -8 -23t12 -23t28 -8l44 2v-86l-64 -8q-50 1 -86 29t-36 81t41 90q-105 68 -105 197q1 128 71 204t181 77q53 0 110 -24v15h97v-501h-98v15q-59 -22 -99 -22t-72 5q-2 -3 -5 -7zM152 338q-46 -48 -46 -122q0 -72 40 -114t105 -42
q64 0 116 29v268q-44 29 -106 29q-63 0 -109 -48z" />
    <glyph glyph-name="Aogonek" unicode="&#xe052;" horiz-adv-x="734" 
d="M685 -25q-28 -28 -28 -44t8 -24q18 -12 32 -10l44 2v-86l-64 -8q-50 1 -86 29t-36 84t48 92l-92 201h-301l-108 -236h-110l338 737h61l310 -722l5 -7l3 -8h-24zM253 305h215l-108 236z" />
    <glyph glyph-name="abreve" unicode="&#xe053;" horiz-adv-x="470" 
d="M163 671q31 -67 73 -67q29 0 47 11q17 11 39 56h93q-28 -77 -47 -98q-57 -66 -118 -66q-62 0 -94 27q-32 26 -49 54t-36 83h92zM5 218q1 112 71 188t181 77q53 0 110 -24v15h97v-501h-98v15q-59 -22 -119 -22q-106 0 -174 70t-68 182zM152 338q-46 -48 -46 -122
q0 -72 40 -114t105 -42q64 0 116 29v268q-44 29 -106 29q-63 0 -109 -48z" />
    <glyph glyph-name="Abreve" unicode="&#xe054;" horiz-adv-x="734" 
d="M540 890q-62 -164 -160 -164q-64 0 -108 36t-76 128h92q20 -44 39 -56q19 -11 41 -11t40 12t39 55h93zM398 712l337 -737h-109l-108 236h-301l-108 -236h-110l338 737h61zM260 305h215l-108 236z" />
    <glyph glyph-name="amacron" unicode="&#xe055;" horiz-adv-x="470" 
d="M399 648v-101h-316v101h316zM5 218q1 112 71 188t181 77q53 0 110 -24v15h97v-501h-98v15q-59 -22 -119 -22q-106 0 -174 70t-68 182zM152 338q-46 -48 -46 -122q0 -72 40 -114t105 -42q64 0 116 29v268q-44 29 -106 29q-63 0 -109 -48z" />
    <glyph glyph-name="Amacron" unicode="&#xe056;" horiz-adv-x="734" 
d="M531 866v-101h-316v101h316zM398 712l337 -737h-109l-108 236h-301l-108 -236h-110l338 737h61zM260 305h215l-108 236z" />
    <glyph glyph-name="sfthyphen" unicode="&#xe057;" horiz-adv-x="344" 
d="M316 298v-97h-287v97h287z" />
    <glyph glyph-name="dmacron" unicode="&#xe058;" horiz-adv-x="585" 
d="M282 -34q-106 0 -180 74t-73 186q1 110 73 184t188 73q48 0 101 -21v47h-103v92h103v106h98v-106h87v-92h-88v-534h-98l1 16q-40 -25 -109 -25zM270 386q-54 0 -96 -46q-44 -46 -44 -114q0 -70 46 -116t104 -47q58 0 78 11t32 18v263l-17 9q-9 4 -29 13t-74 9z" />
    <glyph glyph-name="ccaron" unicode="&#xe059;" horiz-adv-x="459" 
d="M336 701h95l-142 -214h-85l-141 214h96l88 -96zM278 -34q-116 0 -183 69t-67 184q0 114 66 189t179 75q55 0 142 -29v-110q-94 42 -151 42q-56 0 -96 -44t-39 -101q0 -93 40 -135q81 -85 254 -3v-107q-86 -30 -145 -30z" />
    <glyph glyph-name="Ccaron" unicode="&#xe05a;" horiz-adv-x="745" 
d="M496 939h95l-142 -214h-85l-141 214h96l88 -96zM44 338q0 162 113 270t281 108q127 0 254 -67v-117q-149 85 -266 85q-116 -1 -196 -79t-79 -199t79 -197t192 -77q114 1 234 65q20 10 44 24v-112q-129 -76 -259 -76q-173 0 -285 105t-112 267z" />
    <glyph glyph-name="cacute" unicode="&#xe05b;" horiz-adv-x="459" 
d="M297 702h154l-202 -206h-90zM258 -34q-114 0 -182 70t-68 182q0 113 66 189t179 76q55 0 142 -29v-110q-94 42 -151 42q-56 0 -96 -44t-39 -118q0 -74 40 -117q41 -44 105 -44t149 40v-107q-86 -30 -145 -30z" />
    <glyph glyph-name="Cacute" unicode="&#xe05c;" horiz-adv-x="745" 
d="M481 940h154l-202 -206h-89zM44 338q0 162 113 270t281 108q127 0 254 -67v-117q-149 85 -266 85q-116 -1 -196 -79t-79 -199t79 -197t192 -77q114 1 234 65q20 10 44 24v-112q-129 -76 -259 -76q-173 0 -285 105t-112 267z" />
    <glyph glyph-name="scedilla" unicode="&#xe05d;" horiz-adv-x="389" 
d="M214 389q-86 0 -86 -51q0 -20 22 -35t72 -32q139 -48 139 -153q0 -64 -51 -110q-26 -23 -61 -34q37 -37 37 -77t-37 -71q-37 -26 -87 -26l-72 8l13 80l55 -3q39 -3 39 13t-71 15l17 56q-50 8 -114 49v108q97 -63 162 -63q34 1 54 15t20 34t-17 37q-17 16 -80 39
q-64 23 -100 57q-36 35 -36 95t52 102t127 41q76 0 136 -53v-112l-35 25q-65 46 -98 46z" />
    <glyph glyph-name="Scedilla" unicode="&#xe05e;" horiz-adv-x="516" 
d="M351 -94q0 -52 -36 -79t-87 -27l-72 8l12 80l56 -3q38 -2 38 12t-26 15t-44 1l17 56q-88 14 -158 70v124q86 -64 124 -81q39 -17 81 -17t77 32q34 33 34 81t-24 67q-44 37 -127 65t-117 62q-57 58 -57 142q0 82 65 142t141 60q121 0 197 -55l2 -116q-58 35 -74 43
q-15 8 -37 18q-22 11 -71 11q-49 1 -83 -31t-33 -73q0 -41 27 -65t120 -58t135 -82t42 -134t-64 -147q-64 -60 -110 -44q52 -25 52 -77z" />
    <glyph glyph-name="Idotaccent" unicode="&#xe05f;" horiz-adv-x="229" 
d="M183 879v-138h-138v138h138zM159 707v-732h-102v732h102z" />
    <glyph glyph-name="gbreve" unicode="&#xe060;" horiz-adv-x="470" 
d="M236 605q49 0 80 67h93q-20 -54 -37 -82q-18 -28 -50 -54q-32 -28 -84 -28t-86 28t-51 54q-17 28 -36 82h92q20 -43 38 -55q19 -12 41 -12zM179 -66q38 -82 89 -82q34 0 66 20t32 36v80q-66 -22 -119 -22q-105 0 -174 69q-68 71 -68 184q1 113 71 189q70 75 181 75
q53 0 110 -24v15h97l1 -566q0 -62 -65 -112q-129 -100 -237 -7q-51 41 -84 143zM152 338q-46 -48 -46 -122q0 -72 40 -114t105 -42q64 0 116 29v268q-44 29 -107 29q-62 0 -108 -48z" />
    <glyph glyph-name="Gbreve" unicode="&#xe061;" horiz-adv-x="791" 
d="M450 726q-52 0 -86 28q-32 28 -50 54q-18 28 -37 82h92q21 -44 39 -56t40 -11q22 0 40 11t41 56h92q-20 -54 -37 -82q-18 -28 -50 -54q-32 -28 -84 -28zM467 65q87 0 157 32v144h-144v94h246v-301q-132 -68 -284 -68q-150 0 -264 108t-114 268t110 267t266 107
q155 0 274 -69v-118q-150 88 -267 88t-197 -78q-80 -79 -79 -201q0 -122 81 -198t215 -75z" />
    <glyph glyph-name="franc" unicode="&#xe062;" horiz-adv-x="482" 
d="M471 707v-94h-300v-209h269v-94h-269v-90h58v-94h-58v-151h-103v151h-57v94h57v487h403z" />
    </font>
</defs>
</svg>
